M48
;DRILL file {KiCad 4.0.1-stable} date Wednesday, May 18, 2016 'PMt' 12:19:58 PM
;FORMAT={-:-/ absolute / inch / decimal}
FMAT,2
INCH,TZ
T1C0.016
T2C0.018
T3C0.039
T4C0.118
T5C0.126
%
G90
G05
M72
T1
X7.8Y-2.75
X7.975Y-2.8
X8.3Y-3.125
X8.425Y-3.4
X8.525Y-2.3
T2
X7.235Y-2.955
X7.235Y-3.295
X7.235Y-3.58
X7.235Y-3.92
X9.035Y-2.58
X9.035Y-2.92
X9.035Y-3.33
X9.035Y-3.67
T3
X7.17Y-2.65
X7.17Y-2.75
T4
X7.1656Y-2.25
X7.2837Y-2.435
X7.4018Y-2.25
T5
X7.584Y-2.5635
X7.584Y-3.6655
X8.686Y-2.5635
X8.686Y-3.65
T0
M30
