G04 #@! TF.FileFunction,Soldermask,Top*
%FSLAX46Y46*%
G04 Gerber Fmt 4.6, Leading zero omitted, Abs format (unit mm)*
G04 Created by KiCad (PCBNEW 4.0.1-stable) date Wednesday, May 18, 2016 'PMt' 12:19:56 PM*
%MOMM*%
G01*
G04 APERTURE LIST*
%ADD10C,0.100000*%
%ADD11C,0.317500*%
%ADD12R,2.000000X1.600000*%
%ADD13R,1.600000X2.000000*%
%ADD14R,3.810000X3.810000*%
%ADD15R,2.000000X2.000000*%
%ADD16C,2.000000*%
%ADD17R,2.000000X1.700000*%
%ADD18R,1.700000X2.000000*%
%ADD19R,0.508000X1.143000*%
%ADD20R,1.143000X0.508000*%
%ADD21C,3.302000*%
%ADD22R,6.350000X2.286000*%
%ADD23R,5.080000X2.286000*%
%ADD24C,0.965200*%
%ADD25R,1.016000X0.635000*%
G04 APERTURE END LIST*
D10*
D11*
X209042000Y-99597633D02*
X209042000Y-97819633D01*
X210058000Y-99597633D02*
X209296000Y-98581633D01*
X210058000Y-97819633D02*
X209042000Y-98835633D01*
X210650667Y-97819633D02*
X211836000Y-97819633D01*
X211074000Y-99597633D01*
X212428667Y-99089633D02*
X213275333Y-99089633D01*
X212259333Y-99597633D02*
X212852000Y-97819633D01*
X213444667Y-99597633D01*
X215053333Y-99597633D02*
X214460667Y-98750967D01*
X214037333Y-99597633D02*
X214037333Y-97819633D01*
X214714667Y-97819633D01*
X214884000Y-97904300D01*
X214968667Y-97988967D01*
X215053333Y-98158300D01*
X215053333Y-98412300D01*
X214968667Y-98581633D01*
X214884000Y-98666300D01*
X214714667Y-98750967D01*
X214037333Y-98750967D01*
X215646000Y-97819633D02*
X216831333Y-99597633D01*
X216831333Y-97819633D02*
X215646000Y-99597633D01*
X207899000Y-101473000D02*
X207306333Y-101473000D01*
X207306333Y-102404333D02*
X207306333Y-100626333D01*
X208153000Y-100626333D01*
X209592333Y-102404333D02*
X209592333Y-101473000D01*
X209507667Y-101303667D01*
X209338333Y-101219000D01*
X208999667Y-101219000D01*
X208830333Y-101303667D01*
X209592333Y-102319667D02*
X209423000Y-102404333D01*
X208999667Y-102404333D01*
X208830333Y-102319667D01*
X208745667Y-102150333D01*
X208745667Y-101981000D01*
X208830333Y-101811667D01*
X208999667Y-101727000D01*
X209423000Y-101727000D01*
X209592333Y-101642333D01*
X210354334Y-102319667D02*
X210523667Y-102404333D01*
X210862334Y-102404333D01*
X211031667Y-102319667D01*
X211116334Y-102150333D01*
X211116334Y-102065667D01*
X211031667Y-101896333D01*
X210862334Y-101811667D01*
X210608334Y-101811667D01*
X210439000Y-101727000D01*
X210354334Y-101557667D01*
X210354334Y-101473000D01*
X210439000Y-101303667D01*
X210608334Y-101219000D01*
X210862334Y-101219000D01*
X211031667Y-101303667D01*
X211624333Y-101219000D02*
X212301667Y-101219000D01*
X211878333Y-100626333D02*
X211878333Y-102150333D01*
X211963000Y-102319667D01*
X212132333Y-102404333D01*
X212301667Y-102404333D01*
X215265000Y-102235000D02*
X215180334Y-102319667D01*
X214926334Y-102404333D01*
X214757000Y-102404333D01*
X214503000Y-102319667D01*
X214333667Y-102150333D01*
X214249000Y-101981000D01*
X214164334Y-101642333D01*
X214164334Y-101388333D01*
X214249000Y-101049667D01*
X214333667Y-100880333D01*
X214503000Y-100711000D01*
X214757000Y-100626333D01*
X214926334Y-100626333D01*
X215180334Y-100711000D01*
X215265000Y-100795667D01*
X215942334Y-102319667D02*
X216196334Y-102404333D01*
X216619667Y-102404333D01*
X216789000Y-102319667D01*
X216873667Y-102235000D01*
X216958334Y-102065667D01*
X216958334Y-101896333D01*
X216873667Y-101727000D01*
X216789000Y-101642333D01*
X216619667Y-101557667D01*
X216281000Y-101473000D01*
X216111667Y-101388333D01*
X216027000Y-101303667D01*
X215942334Y-101134333D01*
X215942334Y-100965000D01*
X216027000Y-100795667D01*
X216111667Y-100711000D01*
X216281000Y-100626333D01*
X216704334Y-100626333D01*
X216958334Y-100711000D01*
X217635667Y-101896333D02*
X218482333Y-101896333D01*
X217466333Y-102404333D02*
X218059000Y-100626333D01*
X218651667Y-102404333D01*
X209126668Y-105211033D02*
X208110668Y-105211033D01*
X208618668Y-105211033D02*
X208618668Y-103433033D01*
X208449334Y-103687033D01*
X208280001Y-103856367D01*
X208110668Y-103941033D01*
X210650667Y-103433033D02*
X210312001Y-103433033D01*
X210142667Y-103517700D01*
X210058001Y-103602367D01*
X209888667Y-103856367D01*
X209804001Y-104195033D01*
X209804001Y-104872367D01*
X209888667Y-105041700D01*
X209973334Y-105126367D01*
X210142667Y-105211033D01*
X210481334Y-105211033D01*
X210650667Y-105126367D01*
X210735334Y-105041700D01*
X210820001Y-104872367D01*
X210820001Y-104449033D01*
X210735334Y-104279700D01*
X210650667Y-104195033D01*
X210481334Y-104110367D01*
X210142667Y-104110367D01*
X209973334Y-104195033D01*
X209888667Y-104279700D01*
X209804001Y-104449033D01*
X211920667Y-103433033D02*
X212090000Y-103433033D01*
X212259334Y-103517700D01*
X212344000Y-103602367D01*
X212428667Y-103771700D01*
X212513334Y-104110367D01*
X212513334Y-104533700D01*
X212428667Y-104872367D01*
X212344000Y-105041700D01*
X212259334Y-105126367D01*
X212090000Y-105211033D01*
X211920667Y-105211033D01*
X211751334Y-105126367D01*
X211666667Y-105041700D01*
X211582000Y-104872367D01*
X211497334Y-104533700D01*
X211497334Y-104110367D01*
X211582000Y-103771700D01*
X211666667Y-103602367D01*
X211751334Y-103517700D01*
X211920667Y-103433033D01*
X214122000Y-103433033D02*
X213275333Y-103433033D01*
X213190667Y-104279700D01*
X213275333Y-104195033D01*
X213444667Y-104110367D01*
X213868000Y-104110367D01*
X214037333Y-104195033D01*
X214122000Y-104279700D01*
X214206667Y-104449033D01*
X214206667Y-104872367D01*
X214122000Y-105041700D01*
X214037333Y-105126367D01*
X213868000Y-105211033D01*
X213444667Y-105211033D01*
X213275333Y-105126367D01*
X213190667Y-105041700D01*
X215900000Y-105211033D02*
X214884000Y-105211033D01*
X215392000Y-105211033D02*
X215392000Y-103433033D01*
X215222666Y-103687033D01*
X215053333Y-103856367D01*
X214884000Y-103941033D01*
X216915999Y-104195033D02*
X216746666Y-104110367D01*
X216661999Y-104025700D01*
X216577333Y-103856367D01*
X216577333Y-103771700D01*
X216661999Y-103602367D01*
X216746666Y-103517700D01*
X216915999Y-103433033D01*
X217254666Y-103433033D01*
X217423999Y-103517700D01*
X217508666Y-103602367D01*
X217593333Y-103771700D01*
X217593333Y-103856367D01*
X217508666Y-104025700D01*
X217423999Y-104110367D01*
X217254666Y-104195033D01*
X216915999Y-104195033D01*
X216746666Y-104279700D01*
X216661999Y-104364367D01*
X216577333Y-104533700D01*
X216577333Y-104872367D01*
X216661999Y-105041700D01*
X216746666Y-105126367D01*
X216915999Y-105211033D01*
X217254666Y-105211033D01*
X217423999Y-105126367D01*
X217508666Y-105041700D01*
X217593333Y-104872367D01*
X217593333Y-104533700D01*
X217508666Y-104364367D01*
X217423999Y-104279700D01*
X217254666Y-104195033D01*
D12*
X197580000Y-80010000D03*
X193580000Y-80010000D03*
X205200000Y-92710000D03*
X201200000Y-92710000D03*
X201200000Y-85090000D03*
X205200000Y-85090000D03*
X197580000Y-72390000D03*
X193580000Y-72390000D03*
X214090000Y-63500000D03*
X210090000Y-63500000D03*
X201200000Y-67310000D03*
X205200000Y-67310000D03*
D13*
X205740000Y-56864000D03*
X205740000Y-52864000D03*
X221488000Y-56610000D03*
X221488000Y-52610000D03*
X226568000Y-56610000D03*
X226568000Y-52610000D03*
D14*
X188005340Y-57150000D03*
X182005860Y-57150000D03*
X185005600Y-61849000D03*
D15*
X182118000Y-67310000D03*
D16*
X182118000Y-69850000D03*
D17*
X201200000Y-96520000D03*
X205200000Y-96520000D03*
X210090000Y-88900000D03*
X214090000Y-88900000D03*
X214090000Y-92710000D03*
X210090000Y-92710000D03*
X201200000Y-88900000D03*
X205200000Y-88900000D03*
X210090000Y-67310000D03*
X214090000Y-67310000D03*
X201200000Y-63500000D03*
X205200000Y-63500000D03*
X216630000Y-81280000D03*
X212630000Y-81280000D03*
D18*
X187198000Y-71342000D03*
X187198000Y-67342000D03*
D19*
X201295000Y-73025000D03*
X202565000Y-73025000D03*
X203835000Y-73025000D03*
X205105000Y-73025000D03*
X205105000Y-79375000D03*
X203835000Y-79375000D03*
X202565000Y-79375000D03*
X201295000Y-79375000D03*
D20*
X210693000Y-56515000D03*
X210693000Y-55245000D03*
X210693000Y-53975000D03*
X210693000Y-52705000D03*
X217043000Y-52705000D03*
X217043000Y-53975000D03*
X217043000Y-55245000D03*
X217043000Y-56515000D03*
D21*
X192633600Y-65112900D03*
X192633600Y-93103700D03*
X220624400Y-65112900D03*
X220624400Y-92710000D03*
D22*
X180975000Y-79375000D03*
D23*
X180340000Y-75057000D03*
X180340000Y-83693000D03*
D24*
X183769000Y-75057000D03*
X183769000Y-83693000D03*
D25*
X182880000Y-75057000D03*
X182880000Y-83693000D03*
D22*
X180975000Y-95250000D03*
D23*
X180340000Y-90932000D03*
X180340000Y-99568000D03*
D24*
X183769000Y-90932000D03*
X183769000Y-99568000D03*
D25*
X182880000Y-90932000D03*
X182880000Y-99568000D03*
D22*
X232283000Y-69850000D03*
D23*
X232918000Y-74168000D03*
X232918000Y-65532000D03*
D24*
X229489000Y-74168000D03*
X229489000Y-65532000D03*
D25*
X230378000Y-74168000D03*
X230378000Y-65532000D03*
D22*
X232283000Y-88900000D03*
D23*
X232918000Y-93218000D03*
X232918000Y-84582000D03*
D24*
X229489000Y-93218000D03*
X229489000Y-84582000D03*
D25*
X230378000Y-93218000D03*
X230378000Y-84582000D03*
M02*
