G04 #@! TF.FileFunction,Copper,L2,Bot,Signal*
%FSLAX46Y46*%
G04 Gerber Fmt 4.6, Leading zero omitted, Abs format (unit mm)*
G04 Created by KiCad (PCBNEW 4.0.1-stable) date Wednesday, May 18, 2016 'PMt' 12:19:56 PM*
%MOMM*%
G01*
G04 APERTURE LIST*
%ADD10C,0.100000*%
%ADD11R,3.810000X3.810000*%
%ADD12R,2.000000X2.000000*%
%ADD13C,2.000000*%
%ADD14C,3.302000*%
%ADD15C,0.965200*%
%ADD16R,5.080000X2.286000*%
%ADD17R,1.016000X0.635000*%
%ADD18C,0.600000*%
%ADD19C,1.000000*%
%ADD20C,0.254000*%
G04 APERTURE END LIST*
D10*
D11*
X188005340Y-57150000D03*
X182005860Y-57150000D03*
X185005600Y-61849000D03*
D12*
X182118000Y-67310000D03*
D13*
X182118000Y-69850000D03*
D14*
X192633600Y-65112900D03*
X192633600Y-93103700D03*
X220624400Y-65112900D03*
X220624400Y-92710000D03*
D15*
X183769000Y-75057000D03*
X183769000Y-83693000D03*
D16*
X180340000Y-75057000D03*
X180340000Y-83693000D03*
D17*
X182880000Y-75057000D03*
X182880000Y-83693000D03*
D15*
X183769000Y-90932000D03*
X183769000Y-99568000D03*
D16*
X180340000Y-90932000D03*
X180340000Y-99568000D03*
D17*
X182880000Y-90932000D03*
X182880000Y-99568000D03*
D15*
X229489000Y-74168000D03*
X229489000Y-65532000D03*
D16*
X232918000Y-74168000D03*
X232918000Y-65532000D03*
D17*
X230378000Y-74168000D03*
X230378000Y-65532000D03*
D15*
X229489000Y-93218000D03*
X229489000Y-84582000D03*
D16*
X232918000Y-93218000D03*
X232918000Y-84582000D03*
D17*
X230378000Y-93218000D03*
X230378000Y-84582000D03*
D18*
X213995000Y-86360000D03*
X198120000Y-69850000D03*
X216535000Y-58420000D03*
X202565000Y-71120000D03*
X210820000Y-79375000D03*
D19*
X213995000Y-86360000D02*
X213995000Y-78740000D01*
X213995000Y-78740000D02*
X205105000Y-69850000D01*
X198120000Y-69850000D02*
X182118000Y-69850000D01*
X205105000Y-69850000D02*
X198120000Y-69850000D01*
X216535000Y-58420000D02*
X213995000Y-60960000D01*
X213995000Y-60960000D02*
X205105000Y-69850000D01*
X210820000Y-79375000D02*
X202565000Y-71120000D01*
D20*
G36*
X195555400Y-54127400D02*
X195563682Y-54169036D01*
X195563682Y-54211484D01*
X195816964Y-55484825D01*
X195881320Y-55640192D01*
X196602608Y-56719676D01*
X196721522Y-56838590D01*
X197801008Y-57559880D01*
X197956375Y-57624236D01*
X197956380Y-57624236D01*
X199229716Y-57877518D01*
X199397884Y-57877518D01*
X200671225Y-57624236D01*
X200826592Y-57559880D01*
X201906078Y-56838590D01*
X202024992Y-56719676D01*
X202746280Y-55640192D01*
X202810636Y-55484825D01*
X202810636Y-55484820D01*
X203063918Y-54211484D01*
X203063918Y-54169036D01*
X203072200Y-54127400D01*
X203072200Y-51231000D01*
X235027000Y-51231000D01*
X235027000Y-64008000D01*
X233521250Y-64008000D01*
X233426000Y-64103250D01*
X233426000Y-65024000D01*
X233446000Y-65024000D01*
X233446000Y-66040000D01*
X233426000Y-66040000D01*
X233426000Y-66960750D01*
X233521250Y-67056000D01*
X235027000Y-67056000D01*
X235027000Y-72644000D01*
X233521250Y-72644000D01*
X233426000Y-72739250D01*
X233426000Y-73660000D01*
X233446000Y-73660000D01*
X233446000Y-74676000D01*
X233426000Y-74676000D01*
X233426000Y-75596750D01*
X233521250Y-75692000D01*
X235027000Y-75692000D01*
X235027000Y-83058000D01*
X233521250Y-83058000D01*
X233426000Y-83153250D01*
X233426000Y-84074000D01*
X233446000Y-84074000D01*
X233446000Y-85090000D01*
X233426000Y-85090000D01*
X233426000Y-86010750D01*
X233521250Y-86106000D01*
X235027000Y-86106000D01*
X235027000Y-91694000D01*
X233521250Y-91694000D01*
X233426000Y-91789250D01*
X233426000Y-92710000D01*
X233446000Y-92710000D01*
X233446000Y-93726000D01*
X233426000Y-93726000D01*
X233426000Y-94646750D01*
X233521250Y-94742000D01*
X235027000Y-94742000D01*
X235027000Y-106985600D01*
X203072200Y-106985600D01*
X203072200Y-104089200D01*
X203063918Y-104047564D01*
X203063918Y-104005116D01*
X202810636Y-102731780D01*
X202810636Y-102731775D01*
X202746280Y-102576408D01*
X202024990Y-101496922D01*
X201906076Y-101378008D01*
X200826592Y-100656720D01*
X200671225Y-100592364D01*
X199397884Y-100339082D01*
X199229716Y-100339082D01*
X197956380Y-100592364D01*
X197801008Y-100656720D01*
X196721524Y-101378008D01*
X196602610Y-101496922D01*
X195881320Y-102576408D01*
X195816964Y-102731775D01*
X195563682Y-104005116D01*
X195563682Y-104047564D01*
X195555400Y-104089200D01*
X195555400Y-106985600D01*
X178231000Y-106985600D01*
X178231000Y-101092000D01*
X179736750Y-101092000D01*
X179832000Y-100996750D01*
X179832000Y-100076000D01*
X179812000Y-100076000D01*
X179812000Y-99060000D01*
X179832000Y-99060000D01*
X179832000Y-98139250D01*
X180848000Y-98139250D01*
X180848000Y-99060000D01*
X180868000Y-99060000D01*
X180868000Y-100076000D01*
X180848000Y-100076000D01*
X180848000Y-100996750D01*
X180943250Y-101092000D01*
X182955786Y-101092000D01*
X183095820Y-101033996D01*
X183202996Y-100926819D01*
X183261000Y-100786785D01*
X183261000Y-100301723D01*
X183507350Y-100548073D01*
X183634379Y-100421044D01*
X183805948Y-100447743D01*
X184071527Y-100394916D01*
X184126779Y-100267029D01*
X183769000Y-99909250D01*
X183769000Y-99822000D01*
X183673750Y-99726750D01*
X183269000Y-99726750D01*
X183427750Y-99568000D01*
X184110250Y-99568000D01*
X184468029Y-99925779D01*
X184595916Y-99870527D01*
X184648743Y-99531052D01*
X184595916Y-99265473D01*
X184468029Y-99210221D01*
X184110250Y-99568000D01*
X183427750Y-99568000D01*
X183269000Y-99409250D01*
X183673750Y-99409250D01*
X183769000Y-99314000D01*
X183769000Y-99226750D01*
X184126779Y-98868971D01*
X184071527Y-98741084D01*
X183732052Y-98688257D01*
X183628315Y-98708892D01*
X183507350Y-98587927D01*
X183261000Y-98834277D01*
X183261000Y-98349215D01*
X183202996Y-98209181D01*
X183095820Y-98102004D01*
X182955786Y-98044000D01*
X180943250Y-98044000D01*
X180848000Y-98139250D01*
X179832000Y-98139250D01*
X179736750Y-98044000D01*
X178231000Y-98044000D01*
X178231000Y-93506116D01*
X190601248Y-93506116D01*
X190909950Y-94253232D01*
X191481062Y-94825341D01*
X192227637Y-95135346D01*
X193036016Y-95136052D01*
X193783132Y-94827350D01*
X194355241Y-94256238D01*
X194665246Y-93509663D01*
X194665592Y-93112416D01*
X218592048Y-93112416D01*
X218900750Y-93859532D01*
X219471862Y-94431641D01*
X220218437Y-94741646D01*
X221026816Y-94742352D01*
X221773932Y-94433650D01*
X222346041Y-93862538D01*
X222598334Y-93254948D01*
X228609257Y-93254948D01*
X228662084Y-93520527D01*
X228789971Y-93575779D01*
X229147750Y-93218000D01*
X228789971Y-92860221D01*
X228662084Y-92915473D01*
X228609257Y-93254948D01*
X222598334Y-93254948D01*
X222656046Y-93115963D01*
X222656567Y-92518971D01*
X229131221Y-92518971D01*
X229489000Y-92876750D01*
X229489000Y-92964000D01*
X229584250Y-93059250D01*
X229989000Y-93059250D01*
X229830250Y-93218000D01*
X229989000Y-93376750D01*
X229584250Y-93376750D01*
X229489000Y-93472000D01*
X229489000Y-93559250D01*
X229131221Y-93917029D01*
X229186473Y-94044916D01*
X229525948Y-94097743D01*
X229629685Y-94077108D01*
X229750650Y-94198073D01*
X229997000Y-93951723D01*
X229997000Y-94436785D01*
X230055004Y-94576819D01*
X230162180Y-94683996D01*
X230302214Y-94742000D01*
X232314750Y-94742000D01*
X232410000Y-94646750D01*
X232410000Y-93726000D01*
X232390000Y-93726000D01*
X232390000Y-92710000D01*
X232410000Y-92710000D01*
X232410000Y-91789250D01*
X232314750Y-91694000D01*
X230302214Y-91694000D01*
X230162180Y-91752004D01*
X230055004Y-91859181D01*
X229997000Y-91999215D01*
X229997000Y-92484277D01*
X229750650Y-92237927D01*
X229623621Y-92364956D01*
X229452052Y-92338257D01*
X229186473Y-92391084D01*
X229131221Y-92518971D01*
X222656567Y-92518971D01*
X222656752Y-92307584D01*
X222348050Y-91560468D01*
X221776938Y-90988359D01*
X221030363Y-90678354D01*
X220221984Y-90677648D01*
X219474868Y-90986350D01*
X218902759Y-91557462D01*
X218592754Y-92304037D01*
X218592048Y-93112416D01*
X194665592Y-93112416D01*
X194665952Y-92701284D01*
X194357250Y-91954168D01*
X193786138Y-91382059D01*
X193039563Y-91072054D01*
X192231184Y-91071348D01*
X191484068Y-91380050D01*
X190911959Y-91951162D01*
X190601954Y-92697737D01*
X190601248Y-93506116D01*
X178231000Y-93506116D01*
X178231000Y-92456000D01*
X179736750Y-92456000D01*
X179832000Y-92360750D01*
X179832000Y-91440000D01*
X179812000Y-91440000D01*
X179812000Y-90424000D01*
X179832000Y-90424000D01*
X179832000Y-89503250D01*
X180848000Y-89503250D01*
X180848000Y-90424000D01*
X180868000Y-90424000D01*
X180868000Y-91440000D01*
X180848000Y-91440000D01*
X180848000Y-92360750D01*
X180943250Y-92456000D01*
X182955786Y-92456000D01*
X183095820Y-92397996D01*
X183202996Y-92290819D01*
X183261000Y-92150785D01*
X183261000Y-91665723D01*
X183507350Y-91912073D01*
X183634379Y-91785044D01*
X183805948Y-91811743D01*
X184071527Y-91758916D01*
X184126779Y-91631029D01*
X183769000Y-91273250D01*
X183769000Y-91186000D01*
X183673750Y-91090750D01*
X183269000Y-91090750D01*
X183427750Y-90932000D01*
X184110250Y-90932000D01*
X184468029Y-91289779D01*
X184595916Y-91234527D01*
X184648743Y-90895052D01*
X184595916Y-90629473D01*
X184468029Y-90574221D01*
X184110250Y-90932000D01*
X183427750Y-90932000D01*
X183269000Y-90773250D01*
X183673750Y-90773250D01*
X183769000Y-90678000D01*
X183769000Y-90590750D01*
X184126779Y-90232971D01*
X184071527Y-90105084D01*
X183732052Y-90052257D01*
X183628315Y-90072892D01*
X183507350Y-89951927D01*
X183261000Y-90198277D01*
X183261000Y-89713215D01*
X183202996Y-89573181D01*
X183095820Y-89466004D01*
X182955786Y-89408000D01*
X180943250Y-89408000D01*
X180848000Y-89503250D01*
X179832000Y-89503250D01*
X179736750Y-89408000D01*
X178231000Y-89408000D01*
X178231000Y-85217000D01*
X179736750Y-85217000D01*
X179832000Y-85121750D01*
X179832000Y-84201000D01*
X179812000Y-84201000D01*
X179812000Y-83185000D01*
X179832000Y-83185000D01*
X179832000Y-82264250D01*
X180848000Y-82264250D01*
X180848000Y-83185000D01*
X180868000Y-83185000D01*
X180868000Y-84201000D01*
X180848000Y-84201000D01*
X180848000Y-85121750D01*
X180943250Y-85217000D01*
X182955786Y-85217000D01*
X183095820Y-85158996D01*
X183202996Y-85051819D01*
X183261000Y-84911785D01*
X183261000Y-84426723D01*
X183507350Y-84673073D01*
X183634379Y-84546044D01*
X183805948Y-84572743D01*
X184071527Y-84519916D01*
X184126779Y-84392029D01*
X183769000Y-84034250D01*
X183769000Y-83947000D01*
X183673750Y-83851750D01*
X183269000Y-83851750D01*
X183427750Y-83693000D01*
X184110250Y-83693000D01*
X184468029Y-84050779D01*
X184595916Y-83995527D01*
X184648743Y-83656052D01*
X184595916Y-83390473D01*
X184468029Y-83335221D01*
X184110250Y-83693000D01*
X183427750Y-83693000D01*
X183269000Y-83534250D01*
X183673750Y-83534250D01*
X183769000Y-83439000D01*
X183769000Y-83351750D01*
X184126779Y-82993971D01*
X184071527Y-82866084D01*
X183732052Y-82813257D01*
X183628315Y-82833892D01*
X183507350Y-82712927D01*
X183261000Y-82959277D01*
X183261000Y-82474215D01*
X183202996Y-82334181D01*
X183095820Y-82227004D01*
X182955786Y-82169000D01*
X180943250Y-82169000D01*
X180848000Y-82264250D01*
X179832000Y-82264250D01*
X179736750Y-82169000D01*
X178231000Y-82169000D01*
X178231000Y-76581000D01*
X179736750Y-76581000D01*
X179832000Y-76485750D01*
X179832000Y-75565000D01*
X179812000Y-75565000D01*
X179812000Y-74549000D01*
X179832000Y-74549000D01*
X179832000Y-73628250D01*
X180848000Y-73628250D01*
X180848000Y-74549000D01*
X180868000Y-74549000D01*
X180868000Y-75565000D01*
X180848000Y-75565000D01*
X180848000Y-76485750D01*
X180943250Y-76581000D01*
X182955786Y-76581000D01*
X183095820Y-76522996D01*
X183202996Y-76415819D01*
X183261000Y-76275785D01*
X183261000Y-75790723D01*
X183507350Y-76037073D01*
X183634379Y-75910044D01*
X183805948Y-75936743D01*
X184071527Y-75883916D01*
X184126779Y-75756029D01*
X183769000Y-75398250D01*
X183769000Y-75311000D01*
X183673750Y-75215750D01*
X183269000Y-75215750D01*
X183427750Y-75057000D01*
X184110250Y-75057000D01*
X184468029Y-75414779D01*
X184595916Y-75359527D01*
X184648743Y-75020052D01*
X184595916Y-74754473D01*
X184468029Y-74699221D01*
X184110250Y-75057000D01*
X183427750Y-75057000D01*
X183269000Y-74898250D01*
X183673750Y-74898250D01*
X183769000Y-74803000D01*
X183769000Y-74715750D01*
X184126779Y-74357971D01*
X184071527Y-74230084D01*
X183732052Y-74177257D01*
X183628315Y-74197892D01*
X183507350Y-74076927D01*
X183261000Y-74323277D01*
X183261000Y-73838215D01*
X183202996Y-73698181D01*
X183095820Y-73591004D01*
X182955786Y-73533000D01*
X180943250Y-73533000D01*
X180848000Y-73628250D01*
X179832000Y-73628250D01*
X179736750Y-73533000D01*
X178231000Y-73533000D01*
X178231000Y-66310000D01*
X180729536Y-66310000D01*
X180729536Y-68310000D01*
X180756103Y-68451190D01*
X180839546Y-68580865D01*
X180966866Y-68667859D01*
X181118000Y-68698464D01*
X181316813Y-68698464D01*
X180947928Y-69066705D01*
X180737241Y-69574097D01*
X180736761Y-70123493D01*
X180946563Y-70631251D01*
X181334705Y-71020072D01*
X181842097Y-71230759D01*
X182391493Y-71231239D01*
X182899251Y-71021437D01*
X183190196Y-70731000D01*
X201785711Y-70731000D01*
X201751062Y-70782856D01*
X201684000Y-71120000D01*
X201751062Y-71457144D01*
X201942039Y-71742961D01*
X210197039Y-79997961D01*
X210482856Y-80188938D01*
X210820000Y-80256000D01*
X211157144Y-80188938D01*
X211442961Y-79997961D01*
X211633938Y-79712144D01*
X211701000Y-79375000D01*
X211633938Y-79037856D01*
X211442961Y-78752039D01*
X203421922Y-70731000D01*
X204740078Y-70731000D01*
X213114000Y-79104922D01*
X213114000Y-86360000D01*
X213181062Y-86697144D01*
X213372039Y-86982961D01*
X213657856Y-87173938D01*
X213995000Y-87241000D01*
X214332144Y-87173938D01*
X214617961Y-86982961D01*
X214808938Y-86697144D01*
X214876000Y-86360000D01*
X214876000Y-84618948D01*
X228609257Y-84618948D01*
X228662084Y-84884527D01*
X228789971Y-84939779D01*
X229147750Y-84582000D01*
X228789971Y-84224221D01*
X228662084Y-84279473D01*
X228609257Y-84618948D01*
X214876000Y-84618948D01*
X214876000Y-83882971D01*
X229131221Y-83882971D01*
X229489000Y-84240750D01*
X229489000Y-84328000D01*
X229584250Y-84423250D01*
X229989000Y-84423250D01*
X229830250Y-84582000D01*
X229989000Y-84740750D01*
X229584250Y-84740750D01*
X229489000Y-84836000D01*
X229489000Y-84923250D01*
X229131221Y-85281029D01*
X229186473Y-85408916D01*
X229525948Y-85461743D01*
X229629685Y-85441108D01*
X229750650Y-85562073D01*
X229997000Y-85315723D01*
X229997000Y-85800785D01*
X230055004Y-85940819D01*
X230162180Y-86047996D01*
X230302214Y-86106000D01*
X232314750Y-86106000D01*
X232410000Y-86010750D01*
X232410000Y-85090000D01*
X232390000Y-85090000D01*
X232390000Y-84074000D01*
X232410000Y-84074000D01*
X232410000Y-83153250D01*
X232314750Y-83058000D01*
X230302214Y-83058000D01*
X230162180Y-83116004D01*
X230055004Y-83223181D01*
X229997000Y-83363215D01*
X229997000Y-83848277D01*
X229750650Y-83601927D01*
X229623621Y-83728956D01*
X229452052Y-83702257D01*
X229186473Y-83755084D01*
X229131221Y-83882971D01*
X214876000Y-83882971D01*
X214876000Y-78740000D01*
X214808938Y-78402856D01*
X214617961Y-78117039D01*
X210705870Y-74204948D01*
X228609257Y-74204948D01*
X228662084Y-74470527D01*
X228789971Y-74525779D01*
X229147750Y-74168000D01*
X228789971Y-73810221D01*
X228662084Y-73865473D01*
X228609257Y-74204948D01*
X210705870Y-74204948D01*
X209969893Y-73468971D01*
X229131221Y-73468971D01*
X229489000Y-73826750D01*
X229489000Y-73914000D01*
X229584250Y-74009250D01*
X229989000Y-74009250D01*
X229830250Y-74168000D01*
X229989000Y-74326750D01*
X229584250Y-74326750D01*
X229489000Y-74422000D01*
X229489000Y-74509250D01*
X229131221Y-74867029D01*
X229186473Y-74994916D01*
X229525948Y-75047743D01*
X229629685Y-75027108D01*
X229750650Y-75148073D01*
X229997000Y-74901723D01*
X229997000Y-75386785D01*
X230055004Y-75526819D01*
X230162180Y-75633996D01*
X230302214Y-75692000D01*
X232314750Y-75692000D01*
X232410000Y-75596750D01*
X232410000Y-74676000D01*
X232390000Y-74676000D01*
X232390000Y-73660000D01*
X232410000Y-73660000D01*
X232410000Y-72739250D01*
X232314750Y-72644000D01*
X230302214Y-72644000D01*
X230162180Y-72702004D01*
X230055004Y-72809181D01*
X229997000Y-72949215D01*
X229997000Y-73434277D01*
X229750650Y-73187927D01*
X229623621Y-73314956D01*
X229452052Y-73288257D01*
X229186473Y-73341084D01*
X229131221Y-73468971D01*
X209969893Y-73468971D01*
X206350922Y-69850000D01*
X210685606Y-65515316D01*
X218592048Y-65515316D01*
X218900750Y-66262432D01*
X219471862Y-66834541D01*
X220218437Y-67144546D01*
X221026816Y-67145252D01*
X221773932Y-66836550D01*
X222346041Y-66265438D01*
X222635248Y-65568948D01*
X228609257Y-65568948D01*
X228662084Y-65834527D01*
X228789971Y-65889779D01*
X229147750Y-65532000D01*
X228789971Y-65174221D01*
X228662084Y-65229473D01*
X228609257Y-65568948D01*
X222635248Y-65568948D01*
X222656046Y-65518863D01*
X222656645Y-64832971D01*
X229131221Y-64832971D01*
X229489000Y-65190750D01*
X229489000Y-65278000D01*
X229584250Y-65373250D01*
X229989000Y-65373250D01*
X229830250Y-65532000D01*
X229989000Y-65690750D01*
X229584250Y-65690750D01*
X229489000Y-65786000D01*
X229489000Y-65873250D01*
X229131221Y-66231029D01*
X229186473Y-66358916D01*
X229525948Y-66411743D01*
X229629685Y-66391108D01*
X229750650Y-66512073D01*
X229997000Y-66265723D01*
X229997000Y-66750785D01*
X230055004Y-66890819D01*
X230162180Y-66997996D01*
X230302214Y-67056000D01*
X232314750Y-67056000D01*
X232410000Y-66960750D01*
X232410000Y-66040000D01*
X232390000Y-66040000D01*
X232390000Y-65024000D01*
X232410000Y-65024000D01*
X232410000Y-64103250D01*
X232314750Y-64008000D01*
X230302214Y-64008000D01*
X230162180Y-64066004D01*
X230055004Y-64173181D01*
X229997000Y-64313215D01*
X229997000Y-64798277D01*
X229750650Y-64551927D01*
X229623621Y-64678956D01*
X229452052Y-64652257D01*
X229186473Y-64705084D01*
X229131221Y-64832971D01*
X222656645Y-64832971D01*
X222656752Y-64710484D01*
X222348050Y-63963368D01*
X221776938Y-63391259D01*
X221030363Y-63081254D01*
X220221984Y-63080548D01*
X219474868Y-63389250D01*
X218902759Y-63960362D01*
X218592754Y-64706937D01*
X218592048Y-65515316D01*
X210685606Y-65515316D01*
X217157961Y-59042961D01*
X217348938Y-58757145D01*
X217416000Y-58420000D01*
X217348938Y-58082856D01*
X217157961Y-57797039D01*
X216872144Y-57606062D01*
X216535000Y-57539000D01*
X216197855Y-57606062D01*
X215912039Y-57797039D01*
X204740078Y-68969000D01*
X183189862Y-68969000D01*
X182919799Y-68698464D01*
X183118000Y-68698464D01*
X183259190Y-68671897D01*
X183388865Y-68588454D01*
X183475859Y-68461134D01*
X183506464Y-68310000D01*
X183506464Y-66310000D01*
X183479897Y-66168810D01*
X183396454Y-66039135D01*
X183269134Y-65952141D01*
X183118000Y-65921536D01*
X181118000Y-65921536D01*
X180976810Y-65948103D01*
X180847135Y-66031546D01*
X180760141Y-66158866D01*
X180729536Y-66310000D01*
X178231000Y-66310000D01*
X178231000Y-65515316D01*
X190601248Y-65515316D01*
X190909950Y-66262432D01*
X191481062Y-66834541D01*
X192227637Y-67144546D01*
X193036016Y-67145252D01*
X193783132Y-66836550D01*
X194355241Y-66265438D01*
X194665246Y-65518863D01*
X194665952Y-64710484D01*
X194357250Y-63963368D01*
X193786138Y-63391259D01*
X193039563Y-63081254D01*
X192231184Y-63080548D01*
X191484068Y-63389250D01*
X190911959Y-63960362D01*
X190601954Y-64706937D01*
X190601248Y-65515316D01*
X178231000Y-65515316D01*
X178231000Y-62452250D01*
X182719600Y-62452250D01*
X182719600Y-63829785D01*
X182777604Y-63969819D01*
X182884780Y-64076996D01*
X183024814Y-64135000D01*
X184402350Y-64135000D01*
X184497600Y-64039750D01*
X184497600Y-62357000D01*
X185513600Y-62357000D01*
X185513600Y-64039750D01*
X185608850Y-64135000D01*
X186986386Y-64135000D01*
X187126420Y-64076996D01*
X187233596Y-63969819D01*
X187291600Y-63829785D01*
X187291600Y-62452250D01*
X187196350Y-62357000D01*
X185513600Y-62357000D01*
X184497600Y-62357000D01*
X182814850Y-62357000D01*
X182719600Y-62452250D01*
X178231000Y-62452250D01*
X178231000Y-59868215D01*
X182719600Y-59868215D01*
X182719600Y-61245750D01*
X182814850Y-61341000D01*
X184497600Y-61341000D01*
X184497600Y-59658250D01*
X185513600Y-59658250D01*
X185513600Y-61341000D01*
X187196350Y-61341000D01*
X187291600Y-61245750D01*
X187291600Y-59868215D01*
X187233596Y-59728181D01*
X187126420Y-59621004D01*
X186986386Y-59563000D01*
X185608850Y-59563000D01*
X185513600Y-59658250D01*
X184497600Y-59658250D01*
X184402350Y-59563000D01*
X183024814Y-59563000D01*
X182884780Y-59621004D01*
X182777604Y-59728181D01*
X182719600Y-59868215D01*
X178231000Y-59868215D01*
X178231000Y-57753250D01*
X179719860Y-57753250D01*
X179719860Y-59130785D01*
X179777864Y-59270819D01*
X179885040Y-59377996D01*
X180025074Y-59436000D01*
X181402610Y-59436000D01*
X181497860Y-59340750D01*
X181497860Y-57658000D01*
X182513860Y-57658000D01*
X182513860Y-59340750D01*
X182609110Y-59436000D01*
X183986646Y-59436000D01*
X184126680Y-59377996D01*
X184233856Y-59270819D01*
X184291860Y-59130785D01*
X184291860Y-57753250D01*
X184196610Y-57658000D01*
X182513860Y-57658000D01*
X181497860Y-57658000D01*
X179815110Y-57658000D01*
X179719860Y-57753250D01*
X178231000Y-57753250D01*
X178231000Y-55169215D01*
X179719860Y-55169215D01*
X179719860Y-56546750D01*
X179815110Y-56642000D01*
X181497860Y-56642000D01*
X181497860Y-54959250D01*
X182513860Y-54959250D01*
X182513860Y-56642000D01*
X184196610Y-56642000D01*
X184291860Y-56546750D01*
X184291860Y-55245000D01*
X185711876Y-55245000D01*
X185711876Y-59055000D01*
X185738443Y-59196190D01*
X185821886Y-59325865D01*
X185949206Y-59412859D01*
X186100340Y-59443464D01*
X189910340Y-59443464D01*
X190051530Y-59416897D01*
X190181205Y-59333454D01*
X190268199Y-59206134D01*
X190298804Y-59055000D01*
X190298804Y-55245000D01*
X190272237Y-55103810D01*
X190188794Y-54974135D01*
X190061474Y-54887141D01*
X189910340Y-54856536D01*
X186100340Y-54856536D01*
X185959150Y-54883103D01*
X185829475Y-54966546D01*
X185742481Y-55093866D01*
X185711876Y-55245000D01*
X184291860Y-55245000D01*
X184291860Y-55169215D01*
X184233856Y-55029181D01*
X184126680Y-54922004D01*
X183986646Y-54864000D01*
X182609110Y-54864000D01*
X182513860Y-54959250D01*
X181497860Y-54959250D01*
X181402610Y-54864000D01*
X180025074Y-54864000D01*
X179885040Y-54922004D01*
X179777864Y-55029181D01*
X179719860Y-55169215D01*
X178231000Y-55169215D01*
X178231000Y-51231000D01*
X195555400Y-51231000D01*
X195555400Y-54127400D01*
X195555400Y-54127400D01*
G37*
X195555400Y-54127400D02*
X195563682Y-54169036D01*
X195563682Y-54211484D01*
X195816964Y-55484825D01*
X195881320Y-55640192D01*
X196602608Y-56719676D01*
X196721522Y-56838590D01*
X197801008Y-57559880D01*
X197956375Y-57624236D01*
X197956380Y-57624236D01*
X199229716Y-57877518D01*
X199397884Y-57877518D01*
X200671225Y-57624236D01*
X200826592Y-57559880D01*
X201906078Y-56838590D01*
X202024992Y-56719676D01*
X202746280Y-55640192D01*
X202810636Y-55484825D01*
X202810636Y-55484820D01*
X203063918Y-54211484D01*
X203063918Y-54169036D01*
X203072200Y-54127400D01*
X203072200Y-51231000D01*
X235027000Y-51231000D01*
X235027000Y-64008000D01*
X233521250Y-64008000D01*
X233426000Y-64103250D01*
X233426000Y-65024000D01*
X233446000Y-65024000D01*
X233446000Y-66040000D01*
X233426000Y-66040000D01*
X233426000Y-66960750D01*
X233521250Y-67056000D01*
X235027000Y-67056000D01*
X235027000Y-72644000D01*
X233521250Y-72644000D01*
X233426000Y-72739250D01*
X233426000Y-73660000D01*
X233446000Y-73660000D01*
X233446000Y-74676000D01*
X233426000Y-74676000D01*
X233426000Y-75596750D01*
X233521250Y-75692000D01*
X235027000Y-75692000D01*
X235027000Y-83058000D01*
X233521250Y-83058000D01*
X233426000Y-83153250D01*
X233426000Y-84074000D01*
X233446000Y-84074000D01*
X233446000Y-85090000D01*
X233426000Y-85090000D01*
X233426000Y-86010750D01*
X233521250Y-86106000D01*
X235027000Y-86106000D01*
X235027000Y-91694000D01*
X233521250Y-91694000D01*
X233426000Y-91789250D01*
X233426000Y-92710000D01*
X233446000Y-92710000D01*
X233446000Y-93726000D01*
X233426000Y-93726000D01*
X233426000Y-94646750D01*
X233521250Y-94742000D01*
X235027000Y-94742000D01*
X235027000Y-106985600D01*
X203072200Y-106985600D01*
X203072200Y-104089200D01*
X203063918Y-104047564D01*
X203063918Y-104005116D01*
X202810636Y-102731780D01*
X202810636Y-102731775D01*
X202746280Y-102576408D01*
X202024990Y-101496922D01*
X201906076Y-101378008D01*
X200826592Y-100656720D01*
X200671225Y-100592364D01*
X199397884Y-100339082D01*
X199229716Y-100339082D01*
X197956380Y-100592364D01*
X197801008Y-100656720D01*
X196721524Y-101378008D01*
X196602610Y-101496922D01*
X195881320Y-102576408D01*
X195816964Y-102731775D01*
X195563682Y-104005116D01*
X195563682Y-104047564D01*
X195555400Y-104089200D01*
X195555400Y-106985600D01*
X178231000Y-106985600D01*
X178231000Y-101092000D01*
X179736750Y-101092000D01*
X179832000Y-100996750D01*
X179832000Y-100076000D01*
X179812000Y-100076000D01*
X179812000Y-99060000D01*
X179832000Y-99060000D01*
X179832000Y-98139250D01*
X180848000Y-98139250D01*
X180848000Y-99060000D01*
X180868000Y-99060000D01*
X180868000Y-100076000D01*
X180848000Y-100076000D01*
X180848000Y-100996750D01*
X180943250Y-101092000D01*
X182955786Y-101092000D01*
X183095820Y-101033996D01*
X183202996Y-100926819D01*
X183261000Y-100786785D01*
X183261000Y-100301723D01*
X183507350Y-100548073D01*
X183634379Y-100421044D01*
X183805948Y-100447743D01*
X184071527Y-100394916D01*
X184126779Y-100267029D01*
X183769000Y-99909250D01*
X183769000Y-99822000D01*
X183673750Y-99726750D01*
X183269000Y-99726750D01*
X183427750Y-99568000D01*
X184110250Y-99568000D01*
X184468029Y-99925779D01*
X184595916Y-99870527D01*
X184648743Y-99531052D01*
X184595916Y-99265473D01*
X184468029Y-99210221D01*
X184110250Y-99568000D01*
X183427750Y-99568000D01*
X183269000Y-99409250D01*
X183673750Y-99409250D01*
X183769000Y-99314000D01*
X183769000Y-99226750D01*
X184126779Y-98868971D01*
X184071527Y-98741084D01*
X183732052Y-98688257D01*
X183628315Y-98708892D01*
X183507350Y-98587927D01*
X183261000Y-98834277D01*
X183261000Y-98349215D01*
X183202996Y-98209181D01*
X183095820Y-98102004D01*
X182955786Y-98044000D01*
X180943250Y-98044000D01*
X180848000Y-98139250D01*
X179832000Y-98139250D01*
X179736750Y-98044000D01*
X178231000Y-98044000D01*
X178231000Y-93506116D01*
X190601248Y-93506116D01*
X190909950Y-94253232D01*
X191481062Y-94825341D01*
X192227637Y-95135346D01*
X193036016Y-95136052D01*
X193783132Y-94827350D01*
X194355241Y-94256238D01*
X194665246Y-93509663D01*
X194665592Y-93112416D01*
X218592048Y-93112416D01*
X218900750Y-93859532D01*
X219471862Y-94431641D01*
X220218437Y-94741646D01*
X221026816Y-94742352D01*
X221773932Y-94433650D01*
X222346041Y-93862538D01*
X222598334Y-93254948D01*
X228609257Y-93254948D01*
X228662084Y-93520527D01*
X228789971Y-93575779D01*
X229147750Y-93218000D01*
X228789971Y-92860221D01*
X228662084Y-92915473D01*
X228609257Y-93254948D01*
X222598334Y-93254948D01*
X222656046Y-93115963D01*
X222656567Y-92518971D01*
X229131221Y-92518971D01*
X229489000Y-92876750D01*
X229489000Y-92964000D01*
X229584250Y-93059250D01*
X229989000Y-93059250D01*
X229830250Y-93218000D01*
X229989000Y-93376750D01*
X229584250Y-93376750D01*
X229489000Y-93472000D01*
X229489000Y-93559250D01*
X229131221Y-93917029D01*
X229186473Y-94044916D01*
X229525948Y-94097743D01*
X229629685Y-94077108D01*
X229750650Y-94198073D01*
X229997000Y-93951723D01*
X229997000Y-94436785D01*
X230055004Y-94576819D01*
X230162180Y-94683996D01*
X230302214Y-94742000D01*
X232314750Y-94742000D01*
X232410000Y-94646750D01*
X232410000Y-93726000D01*
X232390000Y-93726000D01*
X232390000Y-92710000D01*
X232410000Y-92710000D01*
X232410000Y-91789250D01*
X232314750Y-91694000D01*
X230302214Y-91694000D01*
X230162180Y-91752004D01*
X230055004Y-91859181D01*
X229997000Y-91999215D01*
X229997000Y-92484277D01*
X229750650Y-92237927D01*
X229623621Y-92364956D01*
X229452052Y-92338257D01*
X229186473Y-92391084D01*
X229131221Y-92518971D01*
X222656567Y-92518971D01*
X222656752Y-92307584D01*
X222348050Y-91560468D01*
X221776938Y-90988359D01*
X221030363Y-90678354D01*
X220221984Y-90677648D01*
X219474868Y-90986350D01*
X218902759Y-91557462D01*
X218592754Y-92304037D01*
X218592048Y-93112416D01*
X194665592Y-93112416D01*
X194665952Y-92701284D01*
X194357250Y-91954168D01*
X193786138Y-91382059D01*
X193039563Y-91072054D01*
X192231184Y-91071348D01*
X191484068Y-91380050D01*
X190911959Y-91951162D01*
X190601954Y-92697737D01*
X190601248Y-93506116D01*
X178231000Y-93506116D01*
X178231000Y-92456000D01*
X179736750Y-92456000D01*
X179832000Y-92360750D01*
X179832000Y-91440000D01*
X179812000Y-91440000D01*
X179812000Y-90424000D01*
X179832000Y-90424000D01*
X179832000Y-89503250D01*
X180848000Y-89503250D01*
X180848000Y-90424000D01*
X180868000Y-90424000D01*
X180868000Y-91440000D01*
X180848000Y-91440000D01*
X180848000Y-92360750D01*
X180943250Y-92456000D01*
X182955786Y-92456000D01*
X183095820Y-92397996D01*
X183202996Y-92290819D01*
X183261000Y-92150785D01*
X183261000Y-91665723D01*
X183507350Y-91912073D01*
X183634379Y-91785044D01*
X183805948Y-91811743D01*
X184071527Y-91758916D01*
X184126779Y-91631029D01*
X183769000Y-91273250D01*
X183769000Y-91186000D01*
X183673750Y-91090750D01*
X183269000Y-91090750D01*
X183427750Y-90932000D01*
X184110250Y-90932000D01*
X184468029Y-91289779D01*
X184595916Y-91234527D01*
X184648743Y-90895052D01*
X184595916Y-90629473D01*
X184468029Y-90574221D01*
X184110250Y-90932000D01*
X183427750Y-90932000D01*
X183269000Y-90773250D01*
X183673750Y-90773250D01*
X183769000Y-90678000D01*
X183769000Y-90590750D01*
X184126779Y-90232971D01*
X184071527Y-90105084D01*
X183732052Y-90052257D01*
X183628315Y-90072892D01*
X183507350Y-89951927D01*
X183261000Y-90198277D01*
X183261000Y-89713215D01*
X183202996Y-89573181D01*
X183095820Y-89466004D01*
X182955786Y-89408000D01*
X180943250Y-89408000D01*
X180848000Y-89503250D01*
X179832000Y-89503250D01*
X179736750Y-89408000D01*
X178231000Y-89408000D01*
X178231000Y-85217000D01*
X179736750Y-85217000D01*
X179832000Y-85121750D01*
X179832000Y-84201000D01*
X179812000Y-84201000D01*
X179812000Y-83185000D01*
X179832000Y-83185000D01*
X179832000Y-82264250D01*
X180848000Y-82264250D01*
X180848000Y-83185000D01*
X180868000Y-83185000D01*
X180868000Y-84201000D01*
X180848000Y-84201000D01*
X180848000Y-85121750D01*
X180943250Y-85217000D01*
X182955786Y-85217000D01*
X183095820Y-85158996D01*
X183202996Y-85051819D01*
X183261000Y-84911785D01*
X183261000Y-84426723D01*
X183507350Y-84673073D01*
X183634379Y-84546044D01*
X183805948Y-84572743D01*
X184071527Y-84519916D01*
X184126779Y-84392029D01*
X183769000Y-84034250D01*
X183769000Y-83947000D01*
X183673750Y-83851750D01*
X183269000Y-83851750D01*
X183427750Y-83693000D01*
X184110250Y-83693000D01*
X184468029Y-84050779D01*
X184595916Y-83995527D01*
X184648743Y-83656052D01*
X184595916Y-83390473D01*
X184468029Y-83335221D01*
X184110250Y-83693000D01*
X183427750Y-83693000D01*
X183269000Y-83534250D01*
X183673750Y-83534250D01*
X183769000Y-83439000D01*
X183769000Y-83351750D01*
X184126779Y-82993971D01*
X184071527Y-82866084D01*
X183732052Y-82813257D01*
X183628315Y-82833892D01*
X183507350Y-82712927D01*
X183261000Y-82959277D01*
X183261000Y-82474215D01*
X183202996Y-82334181D01*
X183095820Y-82227004D01*
X182955786Y-82169000D01*
X180943250Y-82169000D01*
X180848000Y-82264250D01*
X179832000Y-82264250D01*
X179736750Y-82169000D01*
X178231000Y-82169000D01*
X178231000Y-76581000D01*
X179736750Y-76581000D01*
X179832000Y-76485750D01*
X179832000Y-75565000D01*
X179812000Y-75565000D01*
X179812000Y-74549000D01*
X179832000Y-74549000D01*
X179832000Y-73628250D01*
X180848000Y-73628250D01*
X180848000Y-74549000D01*
X180868000Y-74549000D01*
X180868000Y-75565000D01*
X180848000Y-75565000D01*
X180848000Y-76485750D01*
X180943250Y-76581000D01*
X182955786Y-76581000D01*
X183095820Y-76522996D01*
X183202996Y-76415819D01*
X183261000Y-76275785D01*
X183261000Y-75790723D01*
X183507350Y-76037073D01*
X183634379Y-75910044D01*
X183805948Y-75936743D01*
X184071527Y-75883916D01*
X184126779Y-75756029D01*
X183769000Y-75398250D01*
X183769000Y-75311000D01*
X183673750Y-75215750D01*
X183269000Y-75215750D01*
X183427750Y-75057000D01*
X184110250Y-75057000D01*
X184468029Y-75414779D01*
X184595916Y-75359527D01*
X184648743Y-75020052D01*
X184595916Y-74754473D01*
X184468029Y-74699221D01*
X184110250Y-75057000D01*
X183427750Y-75057000D01*
X183269000Y-74898250D01*
X183673750Y-74898250D01*
X183769000Y-74803000D01*
X183769000Y-74715750D01*
X184126779Y-74357971D01*
X184071527Y-74230084D01*
X183732052Y-74177257D01*
X183628315Y-74197892D01*
X183507350Y-74076927D01*
X183261000Y-74323277D01*
X183261000Y-73838215D01*
X183202996Y-73698181D01*
X183095820Y-73591004D01*
X182955786Y-73533000D01*
X180943250Y-73533000D01*
X180848000Y-73628250D01*
X179832000Y-73628250D01*
X179736750Y-73533000D01*
X178231000Y-73533000D01*
X178231000Y-66310000D01*
X180729536Y-66310000D01*
X180729536Y-68310000D01*
X180756103Y-68451190D01*
X180839546Y-68580865D01*
X180966866Y-68667859D01*
X181118000Y-68698464D01*
X181316813Y-68698464D01*
X180947928Y-69066705D01*
X180737241Y-69574097D01*
X180736761Y-70123493D01*
X180946563Y-70631251D01*
X181334705Y-71020072D01*
X181842097Y-71230759D01*
X182391493Y-71231239D01*
X182899251Y-71021437D01*
X183190196Y-70731000D01*
X201785711Y-70731000D01*
X201751062Y-70782856D01*
X201684000Y-71120000D01*
X201751062Y-71457144D01*
X201942039Y-71742961D01*
X210197039Y-79997961D01*
X210482856Y-80188938D01*
X210820000Y-80256000D01*
X211157144Y-80188938D01*
X211442961Y-79997961D01*
X211633938Y-79712144D01*
X211701000Y-79375000D01*
X211633938Y-79037856D01*
X211442961Y-78752039D01*
X203421922Y-70731000D01*
X204740078Y-70731000D01*
X213114000Y-79104922D01*
X213114000Y-86360000D01*
X213181062Y-86697144D01*
X213372039Y-86982961D01*
X213657856Y-87173938D01*
X213995000Y-87241000D01*
X214332144Y-87173938D01*
X214617961Y-86982961D01*
X214808938Y-86697144D01*
X214876000Y-86360000D01*
X214876000Y-84618948D01*
X228609257Y-84618948D01*
X228662084Y-84884527D01*
X228789971Y-84939779D01*
X229147750Y-84582000D01*
X228789971Y-84224221D01*
X228662084Y-84279473D01*
X228609257Y-84618948D01*
X214876000Y-84618948D01*
X214876000Y-83882971D01*
X229131221Y-83882971D01*
X229489000Y-84240750D01*
X229489000Y-84328000D01*
X229584250Y-84423250D01*
X229989000Y-84423250D01*
X229830250Y-84582000D01*
X229989000Y-84740750D01*
X229584250Y-84740750D01*
X229489000Y-84836000D01*
X229489000Y-84923250D01*
X229131221Y-85281029D01*
X229186473Y-85408916D01*
X229525948Y-85461743D01*
X229629685Y-85441108D01*
X229750650Y-85562073D01*
X229997000Y-85315723D01*
X229997000Y-85800785D01*
X230055004Y-85940819D01*
X230162180Y-86047996D01*
X230302214Y-86106000D01*
X232314750Y-86106000D01*
X232410000Y-86010750D01*
X232410000Y-85090000D01*
X232390000Y-85090000D01*
X232390000Y-84074000D01*
X232410000Y-84074000D01*
X232410000Y-83153250D01*
X232314750Y-83058000D01*
X230302214Y-83058000D01*
X230162180Y-83116004D01*
X230055004Y-83223181D01*
X229997000Y-83363215D01*
X229997000Y-83848277D01*
X229750650Y-83601927D01*
X229623621Y-83728956D01*
X229452052Y-83702257D01*
X229186473Y-83755084D01*
X229131221Y-83882971D01*
X214876000Y-83882971D01*
X214876000Y-78740000D01*
X214808938Y-78402856D01*
X214617961Y-78117039D01*
X210705870Y-74204948D01*
X228609257Y-74204948D01*
X228662084Y-74470527D01*
X228789971Y-74525779D01*
X229147750Y-74168000D01*
X228789971Y-73810221D01*
X228662084Y-73865473D01*
X228609257Y-74204948D01*
X210705870Y-74204948D01*
X209969893Y-73468971D01*
X229131221Y-73468971D01*
X229489000Y-73826750D01*
X229489000Y-73914000D01*
X229584250Y-74009250D01*
X229989000Y-74009250D01*
X229830250Y-74168000D01*
X229989000Y-74326750D01*
X229584250Y-74326750D01*
X229489000Y-74422000D01*
X229489000Y-74509250D01*
X229131221Y-74867029D01*
X229186473Y-74994916D01*
X229525948Y-75047743D01*
X229629685Y-75027108D01*
X229750650Y-75148073D01*
X229997000Y-74901723D01*
X229997000Y-75386785D01*
X230055004Y-75526819D01*
X230162180Y-75633996D01*
X230302214Y-75692000D01*
X232314750Y-75692000D01*
X232410000Y-75596750D01*
X232410000Y-74676000D01*
X232390000Y-74676000D01*
X232390000Y-73660000D01*
X232410000Y-73660000D01*
X232410000Y-72739250D01*
X232314750Y-72644000D01*
X230302214Y-72644000D01*
X230162180Y-72702004D01*
X230055004Y-72809181D01*
X229997000Y-72949215D01*
X229997000Y-73434277D01*
X229750650Y-73187927D01*
X229623621Y-73314956D01*
X229452052Y-73288257D01*
X229186473Y-73341084D01*
X229131221Y-73468971D01*
X209969893Y-73468971D01*
X206350922Y-69850000D01*
X210685606Y-65515316D01*
X218592048Y-65515316D01*
X218900750Y-66262432D01*
X219471862Y-66834541D01*
X220218437Y-67144546D01*
X221026816Y-67145252D01*
X221773932Y-66836550D01*
X222346041Y-66265438D01*
X222635248Y-65568948D01*
X228609257Y-65568948D01*
X228662084Y-65834527D01*
X228789971Y-65889779D01*
X229147750Y-65532000D01*
X228789971Y-65174221D01*
X228662084Y-65229473D01*
X228609257Y-65568948D01*
X222635248Y-65568948D01*
X222656046Y-65518863D01*
X222656645Y-64832971D01*
X229131221Y-64832971D01*
X229489000Y-65190750D01*
X229489000Y-65278000D01*
X229584250Y-65373250D01*
X229989000Y-65373250D01*
X229830250Y-65532000D01*
X229989000Y-65690750D01*
X229584250Y-65690750D01*
X229489000Y-65786000D01*
X229489000Y-65873250D01*
X229131221Y-66231029D01*
X229186473Y-66358916D01*
X229525948Y-66411743D01*
X229629685Y-66391108D01*
X229750650Y-66512073D01*
X229997000Y-66265723D01*
X229997000Y-66750785D01*
X230055004Y-66890819D01*
X230162180Y-66997996D01*
X230302214Y-67056000D01*
X232314750Y-67056000D01*
X232410000Y-66960750D01*
X232410000Y-66040000D01*
X232390000Y-66040000D01*
X232390000Y-65024000D01*
X232410000Y-65024000D01*
X232410000Y-64103250D01*
X232314750Y-64008000D01*
X230302214Y-64008000D01*
X230162180Y-64066004D01*
X230055004Y-64173181D01*
X229997000Y-64313215D01*
X229997000Y-64798277D01*
X229750650Y-64551927D01*
X229623621Y-64678956D01*
X229452052Y-64652257D01*
X229186473Y-64705084D01*
X229131221Y-64832971D01*
X222656645Y-64832971D01*
X222656752Y-64710484D01*
X222348050Y-63963368D01*
X221776938Y-63391259D01*
X221030363Y-63081254D01*
X220221984Y-63080548D01*
X219474868Y-63389250D01*
X218902759Y-63960362D01*
X218592754Y-64706937D01*
X218592048Y-65515316D01*
X210685606Y-65515316D01*
X217157961Y-59042961D01*
X217348938Y-58757145D01*
X217416000Y-58420000D01*
X217348938Y-58082856D01*
X217157961Y-57797039D01*
X216872144Y-57606062D01*
X216535000Y-57539000D01*
X216197855Y-57606062D01*
X215912039Y-57797039D01*
X204740078Y-68969000D01*
X183189862Y-68969000D01*
X182919799Y-68698464D01*
X183118000Y-68698464D01*
X183259190Y-68671897D01*
X183388865Y-68588454D01*
X183475859Y-68461134D01*
X183506464Y-68310000D01*
X183506464Y-66310000D01*
X183479897Y-66168810D01*
X183396454Y-66039135D01*
X183269134Y-65952141D01*
X183118000Y-65921536D01*
X181118000Y-65921536D01*
X180976810Y-65948103D01*
X180847135Y-66031546D01*
X180760141Y-66158866D01*
X180729536Y-66310000D01*
X178231000Y-66310000D01*
X178231000Y-65515316D01*
X190601248Y-65515316D01*
X190909950Y-66262432D01*
X191481062Y-66834541D01*
X192227637Y-67144546D01*
X193036016Y-67145252D01*
X193783132Y-66836550D01*
X194355241Y-66265438D01*
X194665246Y-65518863D01*
X194665952Y-64710484D01*
X194357250Y-63963368D01*
X193786138Y-63391259D01*
X193039563Y-63081254D01*
X192231184Y-63080548D01*
X191484068Y-63389250D01*
X190911959Y-63960362D01*
X190601954Y-64706937D01*
X190601248Y-65515316D01*
X178231000Y-65515316D01*
X178231000Y-62452250D01*
X182719600Y-62452250D01*
X182719600Y-63829785D01*
X182777604Y-63969819D01*
X182884780Y-64076996D01*
X183024814Y-64135000D01*
X184402350Y-64135000D01*
X184497600Y-64039750D01*
X184497600Y-62357000D01*
X185513600Y-62357000D01*
X185513600Y-64039750D01*
X185608850Y-64135000D01*
X186986386Y-64135000D01*
X187126420Y-64076996D01*
X187233596Y-63969819D01*
X187291600Y-63829785D01*
X187291600Y-62452250D01*
X187196350Y-62357000D01*
X185513600Y-62357000D01*
X184497600Y-62357000D01*
X182814850Y-62357000D01*
X182719600Y-62452250D01*
X178231000Y-62452250D01*
X178231000Y-59868215D01*
X182719600Y-59868215D01*
X182719600Y-61245750D01*
X182814850Y-61341000D01*
X184497600Y-61341000D01*
X184497600Y-59658250D01*
X185513600Y-59658250D01*
X185513600Y-61341000D01*
X187196350Y-61341000D01*
X187291600Y-61245750D01*
X187291600Y-59868215D01*
X187233596Y-59728181D01*
X187126420Y-59621004D01*
X186986386Y-59563000D01*
X185608850Y-59563000D01*
X185513600Y-59658250D01*
X184497600Y-59658250D01*
X184402350Y-59563000D01*
X183024814Y-59563000D01*
X182884780Y-59621004D01*
X182777604Y-59728181D01*
X182719600Y-59868215D01*
X178231000Y-59868215D01*
X178231000Y-57753250D01*
X179719860Y-57753250D01*
X179719860Y-59130785D01*
X179777864Y-59270819D01*
X179885040Y-59377996D01*
X180025074Y-59436000D01*
X181402610Y-59436000D01*
X181497860Y-59340750D01*
X181497860Y-57658000D01*
X182513860Y-57658000D01*
X182513860Y-59340750D01*
X182609110Y-59436000D01*
X183986646Y-59436000D01*
X184126680Y-59377996D01*
X184233856Y-59270819D01*
X184291860Y-59130785D01*
X184291860Y-57753250D01*
X184196610Y-57658000D01*
X182513860Y-57658000D01*
X181497860Y-57658000D01*
X179815110Y-57658000D01*
X179719860Y-57753250D01*
X178231000Y-57753250D01*
X178231000Y-55169215D01*
X179719860Y-55169215D01*
X179719860Y-56546750D01*
X179815110Y-56642000D01*
X181497860Y-56642000D01*
X181497860Y-54959250D01*
X182513860Y-54959250D01*
X182513860Y-56642000D01*
X184196610Y-56642000D01*
X184291860Y-56546750D01*
X184291860Y-55245000D01*
X185711876Y-55245000D01*
X185711876Y-59055000D01*
X185738443Y-59196190D01*
X185821886Y-59325865D01*
X185949206Y-59412859D01*
X186100340Y-59443464D01*
X189910340Y-59443464D01*
X190051530Y-59416897D01*
X190181205Y-59333454D01*
X190268199Y-59206134D01*
X190298804Y-59055000D01*
X190298804Y-55245000D01*
X190272237Y-55103810D01*
X190188794Y-54974135D01*
X190061474Y-54887141D01*
X189910340Y-54856536D01*
X186100340Y-54856536D01*
X185959150Y-54883103D01*
X185829475Y-54966546D01*
X185742481Y-55093866D01*
X185711876Y-55245000D01*
X184291860Y-55245000D01*
X184291860Y-55169215D01*
X184233856Y-55029181D01*
X184126680Y-54922004D01*
X183986646Y-54864000D01*
X182609110Y-54864000D01*
X182513860Y-54959250D01*
X181497860Y-54959250D01*
X181402610Y-54864000D01*
X180025074Y-54864000D01*
X179885040Y-54922004D01*
X179777864Y-55029181D01*
X179719860Y-55169215D01*
X178231000Y-55169215D01*
X178231000Y-51231000D01*
X195555400Y-51231000D01*
X195555400Y-54127400D01*
M02*
