G04 #@! TF.FileFunction,Soldermask,Bot*
%FSLAX46Y46*%
G04 Gerber Fmt 4.6, Leading zero omitted, Abs format (unit mm)*
G04 Created by KiCad (PCBNEW 4.0.5) date Monday, July 31, 2017 'PMt' 03:21:26 PM*
%MOMM*%
%LPD*%
G01*
G04 APERTURE LIST*
%ADD10C,0.150000*%
%ADD11R,2.398980X2.398980*%
%ADD12R,2.127200X2.432000*%
%ADD13O,2.127200X2.432000*%
%ADD14C,2.305000*%
%ADD15C,3.400000*%
%ADD16C,1.900000*%
G04 APERTURE END LIST*
D10*
D11*
X137795000Y-88343740D03*
X137795000Y-98346260D03*
X160576260Y-103505000D03*
X150573740Y-103505000D03*
X160576260Y-107950000D03*
X150573740Y-107950000D03*
X160576260Y-112395000D03*
X150573740Y-112395000D03*
X136603740Y-83185000D03*
X146606260Y-83185000D03*
X136603740Y-78105000D03*
X146606260Y-78105000D03*
X136603740Y-73025000D03*
X146606260Y-73025000D03*
X160576260Y-78105000D03*
X150573740Y-78105000D03*
X146606260Y-107950000D03*
X136603740Y-107950000D03*
D12*
X161290000Y-127762000D03*
D13*
X163830000Y-127762000D03*
X166370000Y-127762000D03*
D11*
X153035000Y-98346260D03*
X153035000Y-88343740D03*
X142875000Y-98346260D03*
X142875000Y-88343740D03*
X132715000Y-98346260D03*
X132715000Y-88343740D03*
X160576260Y-83185000D03*
X150573740Y-83185000D03*
X146606260Y-103505000D03*
X136603740Y-103505000D03*
D14*
X165735000Y-89535000D03*
X163195000Y-89535000D03*
X160655000Y-89535000D03*
X158115000Y-89535000D03*
X158115000Y-97155000D03*
X160655000Y-97155000D03*
X163195000Y-97155000D03*
X165735000Y-97155000D03*
D15*
X143510000Y-63180000D03*
X153670000Y-63180000D03*
D16*
X148590000Y-68260000D03*
X146050000Y-68260000D03*
D15*
X146050000Y-131130000D03*
X135890000Y-131130000D03*
D16*
X140970000Y-126050000D03*
X143510000Y-126050000D03*
M02*
