G04 #@! TF.FileFunction,Legend,Top*
%FSLAX46Y46*%
G04 Gerber Fmt 4.6, Leading zero omitted, Abs format (unit mm)*
G04 Created by KiCad (PCBNEW 4.0.5) date Monday, July 31, 2017 'PMt' 03:21:26 PM*
%MOMM*%
%LPD*%
G01*
G04 APERTURE LIST*
%ADD10C,0.150000*%
%ADD11C,0.200000*%
%ADD12C,0.100000*%
G04 APERTURE END LIST*
D10*
D11*
X169164000Y-129540000D02*
X169164000Y-138430000D01*
X158750000Y-129540000D02*
X158750000Y-138430000D01*
D10*
X136994900Y-93345000D02*
X136994900Y-93545660D01*
X136994900Y-93345000D02*
X136994900Y-93144340D01*
X138595100Y-93245940D02*
X138595100Y-93144340D01*
X138595100Y-93144340D02*
X138595100Y-93545660D01*
X155575000Y-102704900D02*
X155374340Y-102704900D01*
X155575000Y-102704900D02*
X155775660Y-102704900D01*
X155674060Y-104305100D02*
X155775660Y-104305100D01*
X155775660Y-104305100D02*
X155374340Y-104305100D01*
X155575000Y-107149900D02*
X155374340Y-107149900D01*
X155575000Y-107149900D02*
X155775660Y-107149900D01*
X155674060Y-108750100D02*
X155775660Y-108750100D01*
X155775660Y-108750100D02*
X155374340Y-108750100D01*
X155575000Y-111594900D02*
X155374340Y-111594900D01*
X155575000Y-111594900D02*
X155775660Y-111594900D01*
X155674060Y-113195100D02*
X155775660Y-113195100D01*
X155775660Y-113195100D02*
X155374340Y-113195100D01*
X141605000Y-83985100D02*
X141805660Y-83985100D01*
X141605000Y-83985100D02*
X141404340Y-83985100D01*
X141505940Y-82384900D02*
X141404340Y-82384900D01*
X141404340Y-82384900D02*
X141805660Y-82384900D01*
X141605000Y-78905100D02*
X141805660Y-78905100D01*
X141605000Y-78905100D02*
X141404340Y-78905100D01*
X141505940Y-77304900D02*
X141404340Y-77304900D01*
X141404340Y-77304900D02*
X141805660Y-77304900D01*
X141605000Y-73825100D02*
X141805660Y-73825100D01*
X141605000Y-73825100D02*
X141404340Y-73825100D01*
X141505940Y-72224900D02*
X141404340Y-72224900D01*
X141404340Y-72224900D02*
X141805660Y-72224900D01*
X155575000Y-77304900D02*
X155374340Y-77304900D01*
X155575000Y-77304900D02*
X155775660Y-77304900D01*
X155674060Y-78905100D02*
X155775660Y-78905100D01*
X155775660Y-78905100D02*
X155374340Y-78905100D01*
X141605000Y-107149900D02*
X141404340Y-107149900D01*
X141605000Y-107149900D02*
X141805660Y-107149900D01*
X141704060Y-108750100D02*
X141805660Y-108750100D01*
X141805660Y-108750100D02*
X141404340Y-108750100D01*
X162560000Y-129032000D02*
X167640000Y-129032000D01*
X167640000Y-129032000D02*
X167640000Y-126492000D01*
X167640000Y-126492000D02*
X162560000Y-126492000D01*
X159740000Y-126212000D02*
X161290000Y-126212000D01*
X162560000Y-126492000D02*
X162560000Y-129032000D01*
X161290000Y-129312000D02*
X159740000Y-129312000D01*
X159740000Y-129312000D02*
X159740000Y-126212000D01*
X153835100Y-93345000D02*
X153835100Y-93144340D01*
X153835100Y-93345000D02*
X153835100Y-93545660D01*
X152234900Y-93444060D02*
X152234900Y-93545660D01*
X152234900Y-93545660D02*
X152234900Y-93144340D01*
X143675100Y-93345000D02*
X143675100Y-93144340D01*
X143675100Y-93345000D02*
X143675100Y-93545660D01*
X142074900Y-93444060D02*
X142074900Y-93545660D01*
X142074900Y-93545660D02*
X142074900Y-93144340D01*
X133515100Y-93345000D02*
X133515100Y-93144340D01*
X133515100Y-93345000D02*
X133515100Y-93545660D01*
X131914900Y-93444060D02*
X131914900Y-93545660D01*
X131914900Y-93545660D02*
X131914900Y-93144340D01*
X155575000Y-82384900D02*
X155374340Y-82384900D01*
X155575000Y-82384900D02*
X155775660Y-82384900D01*
X155674060Y-83985100D02*
X155775660Y-83985100D01*
X155775660Y-83985100D02*
X155374340Y-83985100D01*
X141605000Y-102704900D02*
X141404340Y-102704900D01*
X141605000Y-102704900D02*
X141805660Y-102704900D01*
X141704060Y-104305100D02*
X141805660Y-104305100D01*
X141805660Y-104305100D02*
X141404340Y-104305100D01*
X150495000Y-95631000D02*
X145415000Y-95631000D01*
X145415000Y-95631000D02*
X145415000Y-91059000D01*
X145415000Y-91059000D02*
X150495000Y-91059000D01*
X150495000Y-91059000D02*
X150495000Y-95631000D01*
X150495000Y-94107000D02*
X149987000Y-94107000D01*
X149987000Y-94107000D02*
X149987000Y-92837000D01*
X149987000Y-92837000D02*
X150495000Y-92837000D01*
X167005000Y-92456000D02*
X167005000Y-90043000D01*
X167005000Y-94234000D02*
X167005000Y-96647000D01*
X167005000Y-92456000D02*
G75*
G03X166116000Y-93345000I0J-889000D01*
G01*
X166116000Y-93345000D02*
G75*
G03X167005000Y-94234000I889000J0D01*
G01*
X166370000Y-91186000D02*
G75*
G03X166370000Y-91186000I-254000J0D01*
G01*
X156845000Y-90043000D02*
X156972000Y-90043000D01*
X159512000Y-90043000D02*
X159258000Y-90043000D01*
X162052000Y-90043000D02*
X161798000Y-90043000D01*
X164592000Y-90043000D02*
X164338000Y-90043000D01*
X167005000Y-90043000D02*
X166878000Y-90043000D01*
X167005000Y-96647000D02*
X166878000Y-96647000D01*
X156845000Y-96647000D02*
X156972000Y-96647000D01*
X159512000Y-96647000D02*
X159258000Y-96647000D01*
X162052000Y-96647000D02*
X161798000Y-96647000D01*
X164592000Y-96647000D02*
X164338000Y-96647000D01*
X156845000Y-90043000D02*
X156845000Y-96647000D01*
D12*
X142590000Y-55880000D02*
X142090000Y-56880000D01*
X143590000Y-55880000D02*
X143090000Y-56880000D01*
X144590000Y-55880000D02*
X144090000Y-56880000D01*
X145590000Y-55880000D02*
X145090000Y-56880000D01*
X146590000Y-55880000D02*
X146090000Y-56880000D01*
X147590000Y-55880000D02*
X147090000Y-56880000D01*
X148590000Y-55880000D02*
X148090000Y-56880000D01*
X149590000Y-55880000D02*
X149090000Y-56880000D01*
X150590000Y-55880000D02*
X150090000Y-56880000D01*
X151590000Y-55880000D02*
X151090000Y-56880000D01*
X152590000Y-55880000D02*
X152090000Y-56880000D01*
X153590000Y-55880000D02*
X153090000Y-56880000D01*
X154590000Y-55880000D02*
X154090000Y-56880000D01*
X155590000Y-55880000D02*
X155090000Y-56880000D01*
X155940000Y-69880000D02*
X141240000Y-69880000D01*
X141240000Y-55880000D02*
X141240000Y-69880000D01*
X155940000Y-55880000D02*
X155940000Y-69880000D01*
X155940000Y-55880000D02*
X141240000Y-55880000D01*
X146970000Y-138430000D02*
X147470000Y-137430000D01*
X145970000Y-138430000D02*
X146470000Y-137430000D01*
X144970000Y-138430000D02*
X145470000Y-137430000D01*
X143970000Y-138430000D02*
X144470000Y-137430000D01*
X142970000Y-138430000D02*
X143470000Y-137430000D01*
X141970000Y-138430000D02*
X142470000Y-137430000D01*
X140970000Y-138430000D02*
X141470000Y-137430000D01*
X139970000Y-138430000D02*
X140470000Y-137430000D01*
X138970000Y-138430000D02*
X139470000Y-137430000D01*
X137970000Y-138430000D02*
X138470000Y-137430000D01*
X136970000Y-138430000D02*
X137470000Y-137430000D01*
X135970000Y-138430000D02*
X136470000Y-137430000D01*
X134970000Y-138430000D02*
X135470000Y-137430000D01*
X133970000Y-138430000D02*
X134470000Y-137430000D01*
X133620000Y-124430000D02*
X148320000Y-124430000D01*
X148320000Y-138430000D02*
X148320000Y-124430000D01*
X133620000Y-138430000D02*
X133620000Y-124430000D01*
X133620000Y-138430000D02*
X148320000Y-138430000D01*
D10*
X136890239Y-85653571D02*
X137033096Y-85701190D01*
X137080715Y-85748810D01*
X137128334Y-85844048D01*
X137128334Y-85986905D01*
X137080715Y-86082143D01*
X137033096Y-86129762D01*
X136937858Y-86177381D01*
X136556905Y-86177381D01*
X136556905Y-85177381D01*
X136890239Y-85177381D01*
X136985477Y-85225000D01*
X137033096Y-85272619D01*
X137080715Y-85367857D01*
X137080715Y-85463095D01*
X137033096Y-85558333D01*
X136985477Y-85605952D01*
X136890239Y-85653571D01*
X136556905Y-85653571D01*
X137556905Y-86177381D02*
X137556905Y-85177381D01*
X137937858Y-85177381D01*
X138033096Y-85225000D01*
X138080715Y-85272619D01*
X138128334Y-85367857D01*
X138128334Y-85510714D01*
X138080715Y-85605952D01*
X138033096Y-85653571D01*
X137937858Y-85701190D01*
X137556905Y-85701190D01*
X139080715Y-86177381D02*
X138509286Y-86177381D01*
X138795000Y-86177381D02*
X138795000Y-85177381D01*
X138699762Y-85320238D01*
X138604524Y-85415476D01*
X138509286Y-85463095D01*
X163028334Y-103862143D02*
X162980715Y-103909762D01*
X162837858Y-103957381D01*
X162742620Y-103957381D01*
X162599762Y-103909762D01*
X162504524Y-103814524D01*
X162456905Y-103719286D01*
X162409286Y-103528810D01*
X162409286Y-103385952D01*
X162456905Y-103195476D01*
X162504524Y-103100238D01*
X162599762Y-103005000D01*
X162742620Y-102957381D01*
X162837858Y-102957381D01*
X162980715Y-103005000D01*
X163028334Y-103052619D01*
X163980715Y-103957381D02*
X163409286Y-103957381D01*
X163695000Y-103957381D02*
X163695000Y-102957381D01*
X163599762Y-103100238D01*
X163504524Y-103195476D01*
X163409286Y-103243095D01*
X163028334Y-108307143D02*
X162980715Y-108354762D01*
X162837858Y-108402381D01*
X162742620Y-108402381D01*
X162599762Y-108354762D01*
X162504524Y-108259524D01*
X162456905Y-108164286D01*
X162409286Y-107973810D01*
X162409286Y-107830952D01*
X162456905Y-107640476D01*
X162504524Y-107545238D01*
X162599762Y-107450000D01*
X162742620Y-107402381D01*
X162837858Y-107402381D01*
X162980715Y-107450000D01*
X163028334Y-107497619D01*
X163409286Y-107497619D02*
X163456905Y-107450000D01*
X163552143Y-107402381D01*
X163790239Y-107402381D01*
X163885477Y-107450000D01*
X163933096Y-107497619D01*
X163980715Y-107592857D01*
X163980715Y-107688095D01*
X163933096Y-107830952D01*
X163361667Y-108402381D01*
X163980715Y-108402381D01*
X163028334Y-112752143D02*
X162980715Y-112799762D01*
X162837858Y-112847381D01*
X162742620Y-112847381D01*
X162599762Y-112799762D01*
X162504524Y-112704524D01*
X162456905Y-112609286D01*
X162409286Y-112418810D01*
X162409286Y-112275952D01*
X162456905Y-112085476D01*
X162504524Y-111990238D01*
X162599762Y-111895000D01*
X162742620Y-111847381D01*
X162837858Y-111847381D01*
X162980715Y-111895000D01*
X163028334Y-111942619D01*
X163361667Y-111847381D02*
X163980715Y-111847381D01*
X163647381Y-112228333D01*
X163790239Y-112228333D01*
X163885477Y-112275952D01*
X163933096Y-112323571D01*
X163980715Y-112418810D01*
X163980715Y-112656905D01*
X163933096Y-112752143D01*
X163885477Y-112799762D01*
X163790239Y-112847381D01*
X163504524Y-112847381D01*
X163409286Y-112799762D01*
X163361667Y-112752143D01*
X133818334Y-83542143D02*
X133770715Y-83589762D01*
X133627858Y-83637381D01*
X133532620Y-83637381D01*
X133389762Y-83589762D01*
X133294524Y-83494524D01*
X133246905Y-83399286D01*
X133199286Y-83208810D01*
X133199286Y-83065952D01*
X133246905Y-82875476D01*
X133294524Y-82780238D01*
X133389762Y-82685000D01*
X133532620Y-82637381D01*
X133627858Y-82637381D01*
X133770715Y-82685000D01*
X133818334Y-82732619D01*
X134675477Y-82970714D02*
X134675477Y-83637381D01*
X134437381Y-82589762D02*
X134199286Y-83304048D01*
X134818334Y-83304048D01*
X133818334Y-78462143D02*
X133770715Y-78509762D01*
X133627858Y-78557381D01*
X133532620Y-78557381D01*
X133389762Y-78509762D01*
X133294524Y-78414524D01*
X133246905Y-78319286D01*
X133199286Y-78128810D01*
X133199286Y-77985952D01*
X133246905Y-77795476D01*
X133294524Y-77700238D01*
X133389762Y-77605000D01*
X133532620Y-77557381D01*
X133627858Y-77557381D01*
X133770715Y-77605000D01*
X133818334Y-77652619D01*
X134723096Y-77557381D02*
X134246905Y-77557381D01*
X134199286Y-78033571D01*
X134246905Y-77985952D01*
X134342143Y-77938333D01*
X134580239Y-77938333D01*
X134675477Y-77985952D01*
X134723096Y-78033571D01*
X134770715Y-78128810D01*
X134770715Y-78366905D01*
X134723096Y-78462143D01*
X134675477Y-78509762D01*
X134580239Y-78557381D01*
X134342143Y-78557381D01*
X134246905Y-78509762D01*
X134199286Y-78462143D01*
X133818334Y-73382143D02*
X133770715Y-73429762D01*
X133627858Y-73477381D01*
X133532620Y-73477381D01*
X133389762Y-73429762D01*
X133294524Y-73334524D01*
X133246905Y-73239286D01*
X133199286Y-73048810D01*
X133199286Y-72905952D01*
X133246905Y-72715476D01*
X133294524Y-72620238D01*
X133389762Y-72525000D01*
X133532620Y-72477381D01*
X133627858Y-72477381D01*
X133770715Y-72525000D01*
X133818334Y-72572619D01*
X134675477Y-72477381D02*
X134485000Y-72477381D01*
X134389762Y-72525000D01*
X134342143Y-72572619D01*
X134246905Y-72715476D01*
X134199286Y-72905952D01*
X134199286Y-73286905D01*
X134246905Y-73382143D01*
X134294524Y-73429762D01*
X134389762Y-73477381D01*
X134580239Y-73477381D01*
X134675477Y-73429762D01*
X134723096Y-73382143D01*
X134770715Y-73286905D01*
X134770715Y-73048810D01*
X134723096Y-72953571D01*
X134675477Y-72905952D01*
X134580239Y-72858333D01*
X134389762Y-72858333D01*
X134294524Y-72905952D01*
X134246905Y-72953571D01*
X134199286Y-73048810D01*
X162599762Y-78462143D02*
X162552143Y-78509762D01*
X162409286Y-78557381D01*
X162314048Y-78557381D01*
X162171190Y-78509762D01*
X162075952Y-78414524D01*
X162028333Y-78319286D01*
X161980714Y-78128810D01*
X161980714Y-77985952D01*
X162028333Y-77795476D01*
X162075952Y-77700238D01*
X162171190Y-77605000D01*
X162314048Y-77557381D01*
X162409286Y-77557381D01*
X162552143Y-77605000D01*
X162599762Y-77652619D01*
X163361667Y-78033571D02*
X163028333Y-78033571D01*
X163028333Y-78557381D02*
X163028333Y-77557381D01*
X163504524Y-77557381D01*
X164409286Y-78557381D02*
X163837857Y-78557381D01*
X164123571Y-78557381D02*
X164123571Y-77557381D01*
X164028333Y-77700238D01*
X163933095Y-77795476D01*
X163837857Y-77843095D01*
X132119762Y-108307143D02*
X132072143Y-108354762D01*
X131929286Y-108402381D01*
X131834048Y-108402381D01*
X131691190Y-108354762D01*
X131595952Y-108259524D01*
X131548333Y-108164286D01*
X131500714Y-107973810D01*
X131500714Y-107830952D01*
X131548333Y-107640476D01*
X131595952Y-107545238D01*
X131691190Y-107450000D01*
X131834048Y-107402381D01*
X131929286Y-107402381D01*
X132072143Y-107450000D01*
X132119762Y-107497619D01*
X132881667Y-107878571D02*
X132548333Y-107878571D01*
X132548333Y-108402381D02*
X132548333Y-107402381D01*
X133024524Y-107402381D01*
X133357857Y-107497619D02*
X133405476Y-107450000D01*
X133500714Y-107402381D01*
X133738810Y-107402381D01*
X133834048Y-107450000D01*
X133881667Y-107497619D01*
X133929286Y-107592857D01*
X133929286Y-107688095D01*
X133881667Y-107830952D01*
X133310238Y-108402381D01*
X133929286Y-108402381D01*
X158011905Y-124912381D02*
X158011905Y-123912381D01*
X158392858Y-123912381D01*
X158488096Y-123960000D01*
X158535715Y-124007619D01*
X158583334Y-124102857D01*
X158583334Y-124245714D01*
X158535715Y-124340952D01*
X158488096Y-124388571D01*
X158392858Y-124436190D01*
X158011905Y-124436190D01*
X158916667Y-123912381D02*
X159535715Y-123912381D01*
X159202381Y-124293333D01*
X159345239Y-124293333D01*
X159440477Y-124340952D01*
X159488096Y-124388571D01*
X159535715Y-124483810D01*
X159535715Y-124721905D01*
X159488096Y-124817143D01*
X159440477Y-124864762D01*
X159345239Y-124912381D01*
X159059524Y-124912381D01*
X158964286Y-124864762D01*
X158916667Y-124817143D01*
X152868334Y-86177381D02*
X152535000Y-85701190D01*
X152296905Y-86177381D02*
X152296905Y-85177381D01*
X152677858Y-85177381D01*
X152773096Y-85225000D01*
X152820715Y-85272619D01*
X152868334Y-85367857D01*
X152868334Y-85510714D01*
X152820715Y-85605952D01*
X152773096Y-85653571D01*
X152677858Y-85701190D01*
X152296905Y-85701190D01*
X153820715Y-86177381D02*
X153249286Y-86177381D01*
X153535000Y-86177381D02*
X153535000Y-85177381D01*
X153439762Y-85320238D01*
X153344524Y-85415476D01*
X153249286Y-85463095D01*
X142708334Y-86177381D02*
X142375000Y-85701190D01*
X142136905Y-86177381D02*
X142136905Y-85177381D01*
X142517858Y-85177381D01*
X142613096Y-85225000D01*
X142660715Y-85272619D01*
X142708334Y-85367857D01*
X142708334Y-85510714D01*
X142660715Y-85605952D01*
X142613096Y-85653571D01*
X142517858Y-85701190D01*
X142136905Y-85701190D01*
X143089286Y-85272619D02*
X143136905Y-85225000D01*
X143232143Y-85177381D01*
X143470239Y-85177381D01*
X143565477Y-85225000D01*
X143613096Y-85272619D01*
X143660715Y-85367857D01*
X143660715Y-85463095D01*
X143613096Y-85605952D01*
X143041667Y-86177381D01*
X143660715Y-86177381D01*
X132548334Y-86177381D02*
X132215000Y-85701190D01*
X131976905Y-86177381D02*
X131976905Y-85177381D01*
X132357858Y-85177381D01*
X132453096Y-85225000D01*
X132500715Y-85272619D01*
X132548334Y-85367857D01*
X132548334Y-85510714D01*
X132500715Y-85605952D01*
X132453096Y-85653571D01*
X132357858Y-85701190D01*
X131976905Y-85701190D01*
X132881667Y-85177381D02*
X133500715Y-85177381D01*
X133167381Y-85558333D01*
X133310239Y-85558333D01*
X133405477Y-85605952D01*
X133453096Y-85653571D01*
X133500715Y-85748810D01*
X133500715Y-85986905D01*
X133453096Y-86082143D01*
X133405477Y-86129762D01*
X133310239Y-86177381D01*
X133024524Y-86177381D01*
X132929286Y-86129762D01*
X132881667Y-86082143D01*
X162599762Y-83637381D02*
X162266428Y-83161190D01*
X162028333Y-83637381D02*
X162028333Y-82637381D01*
X162409286Y-82637381D01*
X162504524Y-82685000D01*
X162552143Y-82732619D01*
X162599762Y-82827857D01*
X162599762Y-82970714D01*
X162552143Y-83065952D01*
X162504524Y-83113571D01*
X162409286Y-83161190D01*
X162028333Y-83161190D01*
X163361667Y-83113571D02*
X163028333Y-83113571D01*
X163028333Y-83637381D02*
X163028333Y-82637381D01*
X163504524Y-82637381D01*
X164409286Y-83637381D02*
X163837857Y-83637381D01*
X164123571Y-83637381D02*
X164123571Y-82637381D01*
X164028333Y-82780238D01*
X163933095Y-82875476D01*
X163837857Y-82923095D01*
X132119762Y-103957381D02*
X131786428Y-103481190D01*
X131548333Y-103957381D02*
X131548333Y-102957381D01*
X131929286Y-102957381D01*
X132024524Y-103005000D01*
X132072143Y-103052619D01*
X132119762Y-103147857D01*
X132119762Y-103290714D01*
X132072143Y-103385952D01*
X132024524Y-103433571D01*
X131929286Y-103481190D01*
X131548333Y-103481190D01*
X132881667Y-103433571D02*
X132548333Y-103433571D01*
X132548333Y-103957381D02*
X132548333Y-102957381D01*
X133024524Y-102957381D01*
X133357857Y-103052619D02*
X133405476Y-103005000D01*
X133500714Y-102957381D01*
X133738810Y-102957381D01*
X133834048Y-103005000D01*
X133881667Y-103052619D01*
X133929286Y-103147857D01*
X133929286Y-103243095D01*
X133881667Y-103385952D01*
X133310238Y-103957381D01*
X133929286Y-103957381D01*
X149098095Y-87717381D02*
X149098095Y-88526905D01*
X149145714Y-88622143D01*
X149193333Y-88669762D01*
X149288571Y-88717381D01*
X149479048Y-88717381D01*
X149574286Y-88669762D01*
X149621905Y-88622143D01*
X149669524Y-88526905D01*
X149669524Y-87717381D01*
X150669524Y-88717381D02*
X150098095Y-88717381D01*
X150383809Y-88717381D02*
X150383809Y-87717381D01*
X150288571Y-87860238D01*
X150193333Y-87955476D01*
X150098095Y-88003095D01*
X167513095Y-87717381D02*
X167513095Y-88526905D01*
X167560714Y-88622143D01*
X167608333Y-88669762D01*
X167703571Y-88717381D01*
X167894048Y-88717381D01*
X167989286Y-88669762D01*
X168036905Y-88622143D01*
X168084524Y-88526905D01*
X168084524Y-87717381D01*
X168513095Y-87812619D02*
X168560714Y-87765000D01*
X168655952Y-87717381D01*
X168894048Y-87717381D01*
X168989286Y-87765000D01*
X169036905Y-87812619D01*
X169084524Y-87907857D01*
X169084524Y-88003095D01*
X169036905Y-88145952D01*
X168465476Y-88717381D01*
X169084524Y-88717381D01*
X154201905Y-71572381D02*
X154201905Y-70572381D01*
X154582858Y-70572381D01*
X154678096Y-70620000D01*
X154725715Y-70667619D01*
X154773334Y-70762857D01*
X154773334Y-70905714D01*
X154725715Y-71000952D01*
X154678096Y-71048571D01*
X154582858Y-71096190D01*
X154201905Y-71096190D01*
X155725715Y-71572381D02*
X155154286Y-71572381D01*
X155440000Y-71572381D02*
X155440000Y-70572381D01*
X155344762Y-70715238D01*
X155249524Y-70810476D01*
X155154286Y-70858095D01*
X133881905Y-123642381D02*
X133881905Y-122642381D01*
X134262858Y-122642381D01*
X134358096Y-122690000D01*
X134405715Y-122737619D01*
X134453334Y-122832857D01*
X134453334Y-122975714D01*
X134405715Y-123070952D01*
X134358096Y-123118571D01*
X134262858Y-123166190D01*
X133881905Y-123166190D01*
X134834286Y-122737619D02*
X134881905Y-122690000D01*
X134977143Y-122642381D01*
X135215239Y-122642381D01*
X135310477Y-122690000D01*
X135358096Y-122737619D01*
X135405715Y-122832857D01*
X135405715Y-122928095D01*
X135358096Y-123070952D01*
X134786667Y-123642381D01*
X135405715Y-123642381D01*
M02*
