M48
;DRILL file {KiCad 4.0.5} date Monday, July 31, 2017 'PMt' 03:21:38 PM
;FORMAT={-:-/ absolute / inch / decimal}
FMAT,2
INCH,TZ
T1C0.016
T2C0.030
T3C0.035
T4C0.039
T5C0.040
T6C0.079
%
G90
G05
M72
T1
X5.805Y-3.385
X5.805Y-3.435
X5.805Y-3.485
T2
X6.225Y-3.525
X6.225Y-3.825
X6.325Y-3.525
X6.325Y-3.825
X6.425Y-3.525
X6.425Y-3.825
X6.525Y-3.525
X6.525Y-3.825
T3
X5.55Y-4.9626
X5.65Y-4.9626
X5.75Y-2.6874
X5.85Y-2.6874
T4
X5.225Y-3.4781
X5.225Y-3.8719
X5.3781Y-2.875
X5.3781Y-3.075
X5.3781Y-3.275
X5.3781Y-4.075
X5.3781Y-4.25
X5.425Y-3.4781
X5.425Y-3.8719
X5.625Y-3.4781
X5.625Y-3.8719
X5.7719Y-2.875
X5.7719Y-3.075
X5.7719Y-3.275
X5.7719Y-4.075
X5.7719Y-4.25
X5.9281Y-3.075
X5.9281Y-3.275
X5.9281Y-4.075
X5.9281Y-4.25
X5.9281Y-4.425
X6.025Y-3.4781
X6.025Y-3.8719
X6.3219Y-3.075
X6.3219Y-3.275
X6.3219Y-4.075
X6.3219Y-4.25
X6.3219Y-4.425
T5
X6.35Y-5.03
X6.45Y-5.03
X6.55Y-5.03
T6
X5.35Y-5.1626
X5.65Y-2.4874
X5.75Y-5.1626
X6.05Y-2.4874
T0
M30
