G04 #@! TF.FileFunction,Copper,L2,Bot,Signal*
%FSLAX46Y46*%
G04 Gerber Fmt 4.6, Leading zero omitted, Abs format (unit mm)*
G04 Created by KiCad (PCBNEW 4.0.1-stable) date Monday, February 29, 2016 'PMt' 01:12:21 PM*
%MOMM*%
G01*
G04 APERTURE LIST*
%ADD10C,0.150000*%
%ADD11R,1.727200X2.032000*%
%ADD12O,1.727200X2.032000*%
%ADD13C,0.600000*%
%ADD14C,0.406400*%
%ADD15C,0.254000*%
G04 APERTURE END LIST*
D10*
D11*
X142240000Y-119380000D03*
D12*
X144780000Y-119380000D03*
X147320000Y-119380000D03*
X149860000Y-119380000D03*
X152400000Y-119380000D03*
X154940000Y-119380000D03*
X157480000Y-119380000D03*
X160020000Y-119380000D03*
X162560000Y-119380000D03*
X165100000Y-119380000D03*
D11*
X165100000Y-96520000D03*
D12*
X162560000Y-96520000D03*
X160020000Y-96520000D03*
X157480000Y-96520000D03*
X154940000Y-96520000D03*
X152400000Y-96520000D03*
X149860000Y-96520000D03*
X147320000Y-96520000D03*
X144780000Y-96520000D03*
X142240000Y-96520000D03*
D13*
X136525000Y-100965000D03*
X154305000Y-100965000D03*
X149225000Y-99695000D03*
X133985000Y-113665000D03*
X156845000Y-99695000D03*
X135255000Y-113665000D03*
D14*
X154305000Y-100965000D02*
X136525000Y-100965000D01*
X133985000Y-102870000D02*
X133985000Y-101600000D01*
X133985000Y-113665000D02*
X133985000Y-102870000D01*
X133985000Y-101600000D02*
X135890000Y-99695000D01*
X149225000Y-99695000D02*
X135890000Y-99695000D01*
X149225000Y-99695000D02*
X156845000Y-99695000D01*
X132715000Y-102235000D02*
X132715000Y-100965000D01*
X135255000Y-113665000D02*
X135255000Y-114300000D01*
X135255000Y-114300000D02*
X134620000Y-114935000D01*
X134620000Y-114935000D02*
X133350000Y-114935000D01*
X133350000Y-114935000D02*
X132715000Y-114300000D01*
X132715000Y-114300000D02*
X132715000Y-102235000D01*
X132715000Y-100965000D02*
X135255000Y-98425000D01*
X135255000Y-98425000D02*
X142875000Y-98425000D01*
X144780000Y-96520000D02*
X142875000Y-98425000D01*
D15*
G36*
X169470000Y-121210000D02*
X130250000Y-121210000D01*
X130250000Y-118364000D01*
X140728960Y-118364000D01*
X140728960Y-120396000D01*
X140773238Y-120631317D01*
X140912310Y-120847441D01*
X141124510Y-120992431D01*
X141376400Y-121043440D01*
X143103600Y-121043440D01*
X143338917Y-120999162D01*
X143555041Y-120860090D01*
X143700031Y-120647890D01*
X143708400Y-120606561D01*
X143720330Y-120624415D01*
X144206511Y-120949271D01*
X144780000Y-121063345D01*
X145353489Y-120949271D01*
X145839670Y-120624415D01*
X146050000Y-120309634D01*
X146260330Y-120624415D01*
X146746511Y-120949271D01*
X147320000Y-121063345D01*
X147893489Y-120949271D01*
X148379670Y-120624415D01*
X148590000Y-120309634D01*
X148800330Y-120624415D01*
X149286511Y-120949271D01*
X149860000Y-121063345D01*
X150433489Y-120949271D01*
X150919670Y-120624415D01*
X151130000Y-120309634D01*
X151340330Y-120624415D01*
X151826511Y-120949271D01*
X152400000Y-121063345D01*
X152973489Y-120949271D01*
X153459670Y-120624415D01*
X153666461Y-120314931D01*
X154037964Y-120730732D01*
X154565209Y-120984709D01*
X154580974Y-120987358D01*
X154813000Y-120866217D01*
X154813000Y-119507000D01*
X154793000Y-119507000D01*
X154793000Y-119253000D01*
X154813000Y-119253000D01*
X154813000Y-117893783D01*
X155067000Y-117893783D01*
X155067000Y-119253000D01*
X155087000Y-119253000D01*
X155087000Y-119507000D01*
X155067000Y-119507000D01*
X155067000Y-120866217D01*
X155299026Y-120987358D01*
X155314791Y-120984709D01*
X155842036Y-120730732D01*
X156213539Y-120314931D01*
X156420330Y-120624415D01*
X156906511Y-120949271D01*
X157480000Y-121063345D01*
X158053489Y-120949271D01*
X158539670Y-120624415D01*
X158750000Y-120309634D01*
X158960330Y-120624415D01*
X159446511Y-120949271D01*
X160020000Y-121063345D01*
X160593489Y-120949271D01*
X161079670Y-120624415D01*
X161290000Y-120309634D01*
X161500330Y-120624415D01*
X161986511Y-120949271D01*
X162560000Y-121063345D01*
X163133489Y-120949271D01*
X163619670Y-120624415D01*
X163830000Y-120309634D01*
X164040330Y-120624415D01*
X164526511Y-120949271D01*
X165100000Y-121063345D01*
X165673489Y-120949271D01*
X166159670Y-120624415D01*
X166484526Y-120138234D01*
X166598600Y-119564745D01*
X166598600Y-119195255D01*
X166484526Y-118621766D01*
X166159670Y-118135585D01*
X165673489Y-117810729D01*
X165100000Y-117696655D01*
X164526511Y-117810729D01*
X164040330Y-118135585D01*
X163830000Y-118450366D01*
X163619670Y-118135585D01*
X163133489Y-117810729D01*
X162560000Y-117696655D01*
X161986511Y-117810729D01*
X161500330Y-118135585D01*
X161290000Y-118450366D01*
X161079670Y-118135585D01*
X160593489Y-117810729D01*
X160020000Y-117696655D01*
X159446511Y-117810729D01*
X158960330Y-118135585D01*
X158750000Y-118450366D01*
X158539670Y-118135585D01*
X158053489Y-117810729D01*
X157480000Y-117696655D01*
X156906511Y-117810729D01*
X156420330Y-118135585D01*
X156213539Y-118445069D01*
X155842036Y-118029268D01*
X155314791Y-117775291D01*
X155299026Y-117772642D01*
X155067000Y-117893783D01*
X154813000Y-117893783D01*
X154580974Y-117772642D01*
X154565209Y-117775291D01*
X154037964Y-118029268D01*
X153666461Y-118445069D01*
X153459670Y-118135585D01*
X152973489Y-117810729D01*
X152400000Y-117696655D01*
X151826511Y-117810729D01*
X151340330Y-118135585D01*
X151130000Y-118450366D01*
X150919670Y-118135585D01*
X150433489Y-117810729D01*
X149860000Y-117696655D01*
X149286511Y-117810729D01*
X148800330Y-118135585D01*
X148590000Y-118450366D01*
X148379670Y-118135585D01*
X147893489Y-117810729D01*
X147320000Y-117696655D01*
X146746511Y-117810729D01*
X146260330Y-118135585D01*
X146050000Y-118450366D01*
X145839670Y-118135585D01*
X145353489Y-117810729D01*
X144780000Y-117696655D01*
X144206511Y-117810729D01*
X143720330Y-118135585D01*
X143710757Y-118149913D01*
X143706762Y-118128683D01*
X143567690Y-117912559D01*
X143355490Y-117767569D01*
X143103600Y-117716560D01*
X141376400Y-117716560D01*
X141141083Y-117760838D01*
X140924959Y-117899910D01*
X140779969Y-118112110D01*
X140728960Y-118364000D01*
X130250000Y-118364000D01*
X130250000Y-100965000D01*
X131876800Y-100965000D01*
X131876800Y-114300000D01*
X131940604Y-114620766D01*
X132122303Y-114892697D01*
X132757303Y-115527697D01*
X133029235Y-115709396D01*
X133350000Y-115773200D01*
X134620000Y-115773200D01*
X134940766Y-115709396D01*
X135212697Y-115527697D01*
X135847697Y-114892697D01*
X136029396Y-114620765D01*
X136093200Y-114300000D01*
X136093200Y-114084528D01*
X136189838Y-113851799D01*
X136190162Y-113479833D01*
X136048117Y-113136057D01*
X135785327Y-112872808D01*
X135441799Y-112730162D01*
X135069833Y-112729838D01*
X134823200Y-112831744D01*
X134823200Y-101947194D01*
X135598723Y-101171671D01*
X135731883Y-101493943D01*
X135994673Y-101757192D01*
X136338201Y-101899838D01*
X136710167Y-101900162D01*
X136944834Y-101803200D01*
X153885472Y-101803200D01*
X154118201Y-101899838D01*
X154490167Y-101900162D01*
X154833943Y-101758117D01*
X155097192Y-101495327D01*
X155239838Y-101151799D01*
X155240162Y-100779833D01*
X155138256Y-100533200D01*
X156425472Y-100533200D01*
X156658201Y-100629838D01*
X157030167Y-100630162D01*
X157373943Y-100488117D01*
X157637192Y-100225327D01*
X157779838Y-99881799D01*
X157780162Y-99509833D01*
X157638117Y-99166057D01*
X157375327Y-98902808D01*
X157031799Y-98760162D01*
X156659833Y-98759838D01*
X156425166Y-98856800D01*
X149644528Y-98856800D01*
X149411799Y-98760162D01*
X149039833Y-98759838D01*
X148805166Y-98856800D01*
X143628594Y-98856800D01*
X144364664Y-98120730D01*
X144780000Y-98203345D01*
X145353489Y-98089271D01*
X145839670Y-97764415D01*
X146046461Y-97454931D01*
X146417964Y-97870732D01*
X146945209Y-98124709D01*
X146960974Y-98127358D01*
X147193000Y-98006217D01*
X147193000Y-96647000D01*
X147173000Y-96647000D01*
X147173000Y-96393000D01*
X147193000Y-96393000D01*
X147193000Y-95033783D01*
X147447000Y-95033783D01*
X147447000Y-96393000D01*
X147467000Y-96393000D01*
X147467000Y-96647000D01*
X147447000Y-96647000D01*
X147447000Y-98006217D01*
X147679026Y-98127358D01*
X147694791Y-98124709D01*
X148222036Y-97870732D01*
X148593539Y-97454931D01*
X148800330Y-97764415D01*
X149286511Y-98089271D01*
X149860000Y-98203345D01*
X150433489Y-98089271D01*
X150919670Y-97764415D01*
X151126461Y-97454931D01*
X151497964Y-97870732D01*
X152025209Y-98124709D01*
X152040974Y-98127358D01*
X152273000Y-98006217D01*
X152273000Y-96647000D01*
X152253000Y-96647000D01*
X152253000Y-96393000D01*
X152273000Y-96393000D01*
X152273000Y-95033783D01*
X152527000Y-95033783D01*
X152527000Y-96393000D01*
X152547000Y-96393000D01*
X152547000Y-96647000D01*
X152527000Y-96647000D01*
X152527000Y-98006217D01*
X152759026Y-98127358D01*
X152774791Y-98124709D01*
X153302036Y-97870732D01*
X153673539Y-97454931D01*
X153880330Y-97764415D01*
X154366511Y-98089271D01*
X154940000Y-98203345D01*
X155513489Y-98089271D01*
X155999670Y-97764415D01*
X156206461Y-97454931D01*
X156577964Y-97870732D01*
X157105209Y-98124709D01*
X157120974Y-98127358D01*
X157353000Y-98006217D01*
X157353000Y-96647000D01*
X157333000Y-96647000D01*
X157333000Y-96393000D01*
X157353000Y-96393000D01*
X157353000Y-95033783D01*
X157607000Y-95033783D01*
X157607000Y-96393000D01*
X157627000Y-96393000D01*
X157627000Y-96647000D01*
X157607000Y-96647000D01*
X157607000Y-98006217D01*
X157839026Y-98127358D01*
X157854791Y-98124709D01*
X158382036Y-97870732D01*
X158753539Y-97454931D01*
X158960330Y-97764415D01*
X159446511Y-98089271D01*
X160020000Y-98203345D01*
X160593489Y-98089271D01*
X161079670Y-97764415D01*
X161290000Y-97449634D01*
X161500330Y-97764415D01*
X161986511Y-98089271D01*
X162560000Y-98203345D01*
X163133489Y-98089271D01*
X163619670Y-97764415D01*
X163629243Y-97750087D01*
X163633238Y-97771317D01*
X163772310Y-97987441D01*
X163984510Y-98132431D01*
X164236400Y-98183440D01*
X165963600Y-98183440D01*
X166198917Y-98139162D01*
X166415041Y-98000090D01*
X166560031Y-97787890D01*
X166611040Y-97536000D01*
X166611040Y-95504000D01*
X166566762Y-95268683D01*
X166427690Y-95052559D01*
X166215490Y-94907569D01*
X165963600Y-94856560D01*
X164236400Y-94856560D01*
X164001083Y-94900838D01*
X163784959Y-95039910D01*
X163639969Y-95252110D01*
X163631600Y-95293439D01*
X163619670Y-95275585D01*
X163133489Y-94950729D01*
X162560000Y-94836655D01*
X161986511Y-94950729D01*
X161500330Y-95275585D01*
X161290000Y-95590366D01*
X161079670Y-95275585D01*
X160593489Y-94950729D01*
X160020000Y-94836655D01*
X159446511Y-94950729D01*
X158960330Y-95275585D01*
X158753539Y-95585069D01*
X158382036Y-95169268D01*
X157854791Y-94915291D01*
X157839026Y-94912642D01*
X157607000Y-95033783D01*
X157353000Y-95033783D01*
X157120974Y-94912642D01*
X157105209Y-94915291D01*
X156577964Y-95169268D01*
X156206461Y-95585069D01*
X155999670Y-95275585D01*
X155513489Y-94950729D01*
X154940000Y-94836655D01*
X154366511Y-94950729D01*
X153880330Y-95275585D01*
X153673539Y-95585069D01*
X153302036Y-95169268D01*
X152774791Y-94915291D01*
X152759026Y-94912642D01*
X152527000Y-95033783D01*
X152273000Y-95033783D01*
X152040974Y-94912642D01*
X152025209Y-94915291D01*
X151497964Y-95169268D01*
X151126461Y-95585069D01*
X150919670Y-95275585D01*
X150433489Y-94950729D01*
X149860000Y-94836655D01*
X149286511Y-94950729D01*
X148800330Y-95275585D01*
X148593539Y-95585069D01*
X148222036Y-95169268D01*
X147694791Y-94915291D01*
X147679026Y-94912642D01*
X147447000Y-95033783D01*
X147193000Y-95033783D01*
X146960974Y-94912642D01*
X146945209Y-94915291D01*
X146417964Y-95169268D01*
X146046461Y-95585069D01*
X145839670Y-95275585D01*
X145353489Y-94950729D01*
X144780000Y-94836655D01*
X144206511Y-94950729D01*
X143720330Y-95275585D01*
X143510000Y-95590366D01*
X143299670Y-95275585D01*
X142813489Y-94950729D01*
X142240000Y-94836655D01*
X141666511Y-94950729D01*
X141180330Y-95275585D01*
X140855474Y-95761766D01*
X140741400Y-96335255D01*
X140741400Y-96704745D01*
X140855474Y-97278234D01*
X141061651Y-97586800D01*
X135255000Y-97586800D01*
X134934235Y-97650604D01*
X134934233Y-97650605D01*
X134934234Y-97650605D01*
X134662303Y-97832303D01*
X132122303Y-100372303D01*
X131940604Y-100644234D01*
X131876800Y-100965000D01*
X130250000Y-100965000D01*
X130250000Y-94690000D01*
X169470000Y-94690000D01*
X169470000Y-121210000D01*
X169470000Y-121210000D01*
G37*
X169470000Y-121210000D02*
X130250000Y-121210000D01*
X130250000Y-118364000D01*
X140728960Y-118364000D01*
X140728960Y-120396000D01*
X140773238Y-120631317D01*
X140912310Y-120847441D01*
X141124510Y-120992431D01*
X141376400Y-121043440D01*
X143103600Y-121043440D01*
X143338917Y-120999162D01*
X143555041Y-120860090D01*
X143700031Y-120647890D01*
X143708400Y-120606561D01*
X143720330Y-120624415D01*
X144206511Y-120949271D01*
X144780000Y-121063345D01*
X145353489Y-120949271D01*
X145839670Y-120624415D01*
X146050000Y-120309634D01*
X146260330Y-120624415D01*
X146746511Y-120949271D01*
X147320000Y-121063345D01*
X147893489Y-120949271D01*
X148379670Y-120624415D01*
X148590000Y-120309634D01*
X148800330Y-120624415D01*
X149286511Y-120949271D01*
X149860000Y-121063345D01*
X150433489Y-120949271D01*
X150919670Y-120624415D01*
X151130000Y-120309634D01*
X151340330Y-120624415D01*
X151826511Y-120949271D01*
X152400000Y-121063345D01*
X152973489Y-120949271D01*
X153459670Y-120624415D01*
X153666461Y-120314931D01*
X154037964Y-120730732D01*
X154565209Y-120984709D01*
X154580974Y-120987358D01*
X154813000Y-120866217D01*
X154813000Y-119507000D01*
X154793000Y-119507000D01*
X154793000Y-119253000D01*
X154813000Y-119253000D01*
X154813000Y-117893783D01*
X155067000Y-117893783D01*
X155067000Y-119253000D01*
X155087000Y-119253000D01*
X155087000Y-119507000D01*
X155067000Y-119507000D01*
X155067000Y-120866217D01*
X155299026Y-120987358D01*
X155314791Y-120984709D01*
X155842036Y-120730732D01*
X156213539Y-120314931D01*
X156420330Y-120624415D01*
X156906511Y-120949271D01*
X157480000Y-121063345D01*
X158053489Y-120949271D01*
X158539670Y-120624415D01*
X158750000Y-120309634D01*
X158960330Y-120624415D01*
X159446511Y-120949271D01*
X160020000Y-121063345D01*
X160593489Y-120949271D01*
X161079670Y-120624415D01*
X161290000Y-120309634D01*
X161500330Y-120624415D01*
X161986511Y-120949271D01*
X162560000Y-121063345D01*
X163133489Y-120949271D01*
X163619670Y-120624415D01*
X163830000Y-120309634D01*
X164040330Y-120624415D01*
X164526511Y-120949271D01*
X165100000Y-121063345D01*
X165673489Y-120949271D01*
X166159670Y-120624415D01*
X166484526Y-120138234D01*
X166598600Y-119564745D01*
X166598600Y-119195255D01*
X166484526Y-118621766D01*
X166159670Y-118135585D01*
X165673489Y-117810729D01*
X165100000Y-117696655D01*
X164526511Y-117810729D01*
X164040330Y-118135585D01*
X163830000Y-118450366D01*
X163619670Y-118135585D01*
X163133489Y-117810729D01*
X162560000Y-117696655D01*
X161986511Y-117810729D01*
X161500330Y-118135585D01*
X161290000Y-118450366D01*
X161079670Y-118135585D01*
X160593489Y-117810729D01*
X160020000Y-117696655D01*
X159446511Y-117810729D01*
X158960330Y-118135585D01*
X158750000Y-118450366D01*
X158539670Y-118135585D01*
X158053489Y-117810729D01*
X157480000Y-117696655D01*
X156906511Y-117810729D01*
X156420330Y-118135585D01*
X156213539Y-118445069D01*
X155842036Y-118029268D01*
X155314791Y-117775291D01*
X155299026Y-117772642D01*
X155067000Y-117893783D01*
X154813000Y-117893783D01*
X154580974Y-117772642D01*
X154565209Y-117775291D01*
X154037964Y-118029268D01*
X153666461Y-118445069D01*
X153459670Y-118135585D01*
X152973489Y-117810729D01*
X152400000Y-117696655D01*
X151826511Y-117810729D01*
X151340330Y-118135585D01*
X151130000Y-118450366D01*
X150919670Y-118135585D01*
X150433489Y-117810729D01*
X149860000Y-117696655D01*
X149286511Y-117810729D01*
X148800330Y-118135585D01*
X148590000Y-118450366D01*
X148379670Y-118135585D01*
X147893489Y-117810729D01*
X147320000Y-117696655D01*
X146746511Y-117810729D01*
X146260330Y-118135585D01*
X146050000Y-118450366D01*
X145839670Y-118135585D01*
X145353489Y-117810729D01*
X144780000Y-117696655D01*
X144206511Y-117810729D01*
X143720330Y-118135585D01*
X143710757Y-118149913D01*
X143706762Y-118128683D01*
X143567690Y-117912559D01*
X143355490Y-117767569D01*
X143103600Y-117716560D01*
X141376400Y-117716560D01*
X141141083Y-117760838D01*
X140924959Y-117899910D01*
X140779969Y-118112110D01*
X140728960Y-118364000D01*
X130250000Y-118364000D01*
X130250000Y-100965000D01*
X131876800Y-100965000D01*
X131876800Y-114300000D01*
X131940604Y-114620766D01*
X132122303Y-114892697D01*
X132757303Y-115527697D01*
X133029235Y-115709396D01*
X133350000Y-115773200D01*
X134620000Y-115773200D01*
X134940766Y-115709396D01*
X135212697Y-115527697D01*
X135847697Y-114892697D01*
X136029396Y-114620765D01*
X136093200Y-114300000D01*
X136093200Y-114084528D01*
X136189838Y-113851799D01*
X136190162Y-113479833D01*
X136048117Y-113136057D01*
X135785327Y-112872808D01*
X135441799Y-112730162D01*
X135069833Y-112729838D01*
X134823200Y-112831744D01*
X134823200Y-101947194D01*
X135598723Y-101171671D01*
X135731883Y-101493943D01*
X135994673Y-101757192D01*
X136338201Y-101899838D01*
X136710167Y-101900162D01*
X136944834Y-101803200D01*
X153885472Y-101803200D01*
X154118201Y-101899838D01*
X154490167Y-101900162D01*
X154833943Y-101758117D01*
X155097192Y-101495327D01*
X155239838Y-101151799D01*
X155240162Y-100779833D01*
X155138256Y-100533200D01*
X156425472Y-100533200D01*
X156658201Y-100629838D01*
X157030167Y-100630162D01*
X157373943Y-100488117D01*
X157637192Y-100225327D01*
X157779838Y-99881799D01*
X157780162Y-99509833D01*
X157638117Y-99166057D01*
X157375327Y-98902808D01*
X157031799Y-98760162D01*
X156659833Y-98759838D01*
X156425166Y-98856800D01*
X149644528Y-98856800D01*
X149411799Y-98760162D01*
X149039833Y-98759838D01*
X148805166Y-98856800D01*
X143628594Y-98856800D01*
X144364664Y-98120730D01*
X144780000Y-98203345D01*
X145353489Y-98089271D01*
X145839670Y-97764415D01*
X146046461Y-97454931D01*
X146417964Y-97870732D01*
X146945209Y-98124709D01*
X146960974Y-98127358D01*
X147193000Y-98006217D01*
X147193000Y-96647000D01*
X147173000Y-96647000D01*
X147173000Y-96393000D01*
X147193000Y-96393000D01*
X147193000Y-95033783D01*
X147447000Y-95033783D01*
X147447000Y-96393000D01*
X147467000Y-96393000D01*
X147467000Y-96647000D01*
X147447000Y-96647000D01*
X147447000Y-98006217D01*
X147679026Y-98127358D01*
X147694791Y-98124709D01*
X148222036Y-97870732D01*
X148593539Y-97454931D01*
X148800330Y-97764415D01*
X149286511Y-98089271D01*
X149860000Y-98203345D01*
X150433489Y-98089271D01*
X150919670Y-97764415D01*
X151126461Y-97454931D01*
X151497964Y-97870732D01*
X152025209Y-98124709D01*
X152040974Y-98127358D01*
X152273000Y-98006217D01*
X152273000Y-96647000D01*
X152253000Y-96647000D01*
X152253000Y-96393000D01*
X152273000Y-96393000D01*
X152273000Y-95033783D01*
X152527000Y-95033783D01*
X152527000Y-96393000D01*
X152547000Y-96393000D01*
X152547000Y-96647000D01*
X152527000Y-96647000D01*
X152527000Y-98006217D01*
X152759026Y-98127358D01*
X152774791Y-98124709D01*
X153302036Y-97870732D01*
X153673539Y-97454931D01*
X153880330Y-97764415D01*
X154366511Y-98089271D01*
X154940000Y-98203345D01*
X155513489Y-98089271D01*
X155999670Y-97764415D01*
X156206461Y-97454931D01*
X156577964Y-97870732D01*
X157105209Y-98124709D01*
X157120974Y-98127358D01*
X157353000Y-98006217D01*
X157353000Y-96647000D01*
X157333000Y-96647000D01*
X157333000Y-96393000D01*
X157353000Y-96393000D01*
X157353000Y-95033783D01*
X157607000Y-95033783D01*
X157607000Y-96393000D01*
X157627000Y-96393000D01*
X157627000Y-96647000D01*
X157607000Y-96647000D01*
X157607000Y-98006217D01*
X157839026Y-98127358D01*
X157854791Y-98124709D01*
X158382036Y-97870732D01*
X158753539Y-97454931D01*
X158960330Y-97764415D01*
X159446511Y-98089271D01*
X160020000Y-98203345D01*
X160593489Y-98089271D01*
X161079670Y-97764415D01*
X161290000Y-97449634D01*
X161500330Y-97764415D01*
X161986511Y-98089271D01*
X162560000Y-98203345D01*
X163133489Y-98089271D01*
X163619670Y-97764415D01*
X163629243Y-97750087D01*
X163633238Y-97771317D01*
X163772310Y-97987441D01*
X163984510Y-98132431D01*
X164236400Y-98183440D01*
X165963600Y-98183440D01*
X166198917Y-98139162D01*
X166415041Y-98000090D01*
X166560031Y-97787890D01*
X166611040Y-97536000D01*
X166611040Y-95504000D01*
X166566762Y-95268683D01*
X166427690Y-95052559D01*
X166215490Y-94907569D01*
X165963600Y-94856560D01*
X164236400Y-94856560D01*
X164001083Y-94900838D01*
X163784959Y-95039910D01*
X163639969Y-95252110D01*
X163631600Y-95293439D01*
X163619670Y-95275585D01*
X163133489Y-94950729D01*
X162560000Y-94836655D01*
X161986511Y-94950729D01*
X161500330Y-95275585D01*
X161290000Y-95590366D01*
X161079670Y-95275585D01*
X160593489Y-94950729D01*
X160020000Y-94836655D01*
X159446511Y-94950729D01*
X158960330Y-95275585D01*
X158753539Y-95585069D01*
X158382036Y-95169268D01*
X157854791Y-94915291D01*
X157839026Y-94912642D01*
X157607000Y-95033783D01*
X157353000Y-95033783D01*
X157120974Y-94912642D01*
X157105209Y-94915291D01*
X156577964Y-95169268D01*
X156206461Y-95585069D01*
X155999670Y-95275585D01*
X155513489Y-94950729D01*
X154940000Y-94836655D01*
X154366511Y-94950729D01*
X153880330Y-95275585D01*
X153673539Y-95585069D01*
X153302036Y-95169268D01*
X152774791Y-94915291D01*
X152759026Y-94912642D01*
X152527000Y-95033783D01*
X152273000Y-95033783D01*
X152040974Y-94912642D01*
X152025209Y-94915291D01*
X151497964Y-95169268D01*
X151126461Y-95585069D01*
X150919670Y-95275585D01*
X150433489Y-94950729D01*
X149860000Y-94836655D01*
X149286511Y-94950729D01*
X148800330Y-95275585D01*
X148593539Y-95585069D01*
X148222036Y-95169268D01*
X147694791Y-94915291D01*
X147679026Y-94912642D01*
X147447000Y-95033783D01*
X147193000Y-95033783D01*
X146960974Y-94912642D01*
X146945209Y-94915291D01*
X146417964Y-95169268D01*
X146046461Y-95585069D01*
X145839670Y-95275585D01*
X145353489Y-94950729D01*
X144780000Y-94836655D01*
X144206511Y-94950729D01*
X143720330Y-95275585D01*
X143510000Y-95590366D01*
X143299670Y-95275585D01*
X142813489Y-94950729D01*
X142240000Y-94836655D01*
X141666511Y-94950729D01*
X141180330Y-95275585D01*
X140855474Y-95761766D01*
X140741400Y-96335255D01*
X140741400Y-96704745D01*
X140855474Y-97278234D01*
X141061651Y-97586800D01*
X135255000Y-97586800D01*
X134934235Y-97650604D01*
X134934233Y-97650605D01*
X134934234Y-97650605D01*
X134662303Y-97832303D01*
X132122303Y-100372303D01*
X131940604Y-100644234D01*
X131876800Y-100965000D01*
X130250000Y-100965000D01*
X130250000Y-94690000D01*
X169470000Y-94690000D01*
X169470000Y-121210000D01*
M02*
