M48
;DRILL file {KiCad 4.0.1-stable} date Monday, February 29, 2016 'PMt' 01:12:24 PM
;FORMAT={-:-/ absolute / inch / decimal}
FMAT,2
INCH,TZ
T1C0.016
T2C0.040
%
G90
G05
M72
T1
X5.275Y-4.475
X5.325Y-4.475
X5.375Y-3.975
X5.875Y-3.925
X6.075Y-3.975
X6.175Y-3.925
T2
X5.6Y-3.8
X5.6Y-4.7
X5.7Y-3.8
X5.7Y-4.7
X5.8Y-3.8
X5.8Y-4.7
X5.9Y-3.8
X5.9Y-4.7
X6.Y-3.8
X6.Y-4.7
X6.1Y-3.8
X6.1Y-4.7
X6.2Y-3.8
X6.2Y-4.7
X6.3Y-3.8
X6.3Y-4.7
X6.4Y-3.8
X6.4Y-4.7
X6.5Y-3.8
X6.5Y-4.7
T0
M30
