G04 #@! TF.FileFunction,Legend,Bot*
%FSLAX46Y46*%
G04 Gerber Fmt 4.6, Leading zero omitted, Abs format (unit mm)*
G04 Created by KiCad (PCBNEW 4.0.1-stable) date Monday, February 29, 2016 'PMt' 01:12:21 PM*
%MOMM*%
G01*
G04 APERTURE LIST*
%ADD10C,0.150000*%
%ADD11C,0.300000*%
G04 APERTURE END LIST*
D10*
D11*
X156820714Y-107428571D02*
X156820714Y-105928571D01*
X156320714Y-107000000D01*
X155820714Y-105928571D01*
X155820714Y-107428571D01*
X155177857Y-107357143D02*
X154963571Y-107428571D01*
X154606428Y-107428571D01*
X154463571Y-107357143D01*
X154392142Y-107285714D01*
X154320714Y-107142857D01*
X154320714Y-107000000D01*
X154392142Y-106857143D01*
X154463571Y-106785714D01*
X154606428Y-106714286D01*
X154892142Y-106642857D01*
X155035000Y-106571429D01*
X155106428Y-106500000D01*
X155177857Y-106357143D01*
X155177857Y-106214286D01*
X155106428Y-106071429D01*
X155035000Y-106000000D01*
X154892142Y-105928571D01*
X154535000Y-105928571D01*
X154320714Y-106000000D01*
X153677857Y-107428571D02*
X153677857Y-105928571D01*
X153106429Y-105928571D01*
X152963571Y-106000000D01*
X152892143Y-106071429D01*
X152820714Y-106214286D01*
X152820714Y-106428571D01*
X152892143Y-106571429D01*
X152963571Y-106642857D01*
X153106429Y-106714286D01*
X153677857Y-106714286D01*
X152249286Y-107357143D02*
X152035000Y-107428571D01*
X151677857Y-107428571D01*
X151535000Y-107357143D01*
X151463571Y-107285714D01*
X151392143Y-107142857D01*
X151392143Y-107000000D01*
X151463571Y-106857143D01*
X151535000Y-106785714D01*
X151677857Y-106714286D01*
X151963571Y-106642857D01*
X152106429Y-106571429D01*
X152177857Y-106500000D01*
X152249286Y-106357143D01*
X152249286Y-106214286D01*
X152177857Y-106071429D01*
X152106429Y-106000000D01*
X151963571Y-105928571D01*
X151606429Y-105928571D01*
X151392143Y-106000000D01*
X149892143Y-107285714D02*
X149963572Y-107357143D01*
X150177858Y-107428571D01*
X150320715Y-107428571D01*
X150535000Y-107357143D01*
X150677858Y-107214286D01*
X150749286Y-107071429D01*
X150820715Y-106785714D01*
X150820715Y-106571429D01*
X150749286Y-106285714D01*
X150677858Y-106142857D01*
X150535000Y-106000000D01*
X150320715Y-105928571D01*
X150177858Y-105928571D01*
X149963572Y-106000000D01*
X149892143Y-106071429D01*
X149249286Y-107428571D02*
X149249286Y-105928571D01*
X160142141Y-108471429D02*
X160070712Y-108400000D01*
X159927855Y-108328571D01*
X159570712Y-108328571D01*
X159427855Y-108400000D01*
X159356426Y-108471429D01*
X159284998Y-108614286D01*
X159284998Y-108757143D01*
X159356426Y-108971429D01*
X160213569Y-109828571D01*
X159284998Y-109828571D01*
X158570713Y-109828571D02*
X158284998Y-109828571D01*
X158142141Y-109757143D01*
X158070713Y-109685714D01*
X157927855Y-109471429D01*
X157856427Y-109185714D01*
X157856427Y-108614286D01*
X157927855Y-108471429D01*
X157999284Y-108400000D01*
X158142141Y-108328571D01*
X158427855Y-108328571D01*
X158570713Y-108400000D01*
X158642141Y-108471429D01*
X158713570Y-108614286D01*
X158713570Y-108971429D01*
X158642141Y-109114286D01*
X158570713Y-109185714D01*
X158427855Y-109257143D01*
X158142141Y-109257143D01*
X157999284Y-109185714D01*
X157927855Y-109114286D01*
X157856427Y-108971429D01*
X155570713Y-109042857D02*
X156070713Y-109042857D01*
X156070713Y-109828571D02*
X156070713Y-108328571D01*
X155356427Y-108328571D01*
X154213571Y-109757143D02*
X154356428Y-109828571D01*
X154642142Y-109828571D01*
X154784999Y-109757143D01*
X154856428Y-109614286D01*
X154856428Y-109042857D01*
X154784999Y-108900000D01*
X154642142Y-108828571D01*
X154356428Y-108828571D01*
X154213571Y-108900000D01*
X154142142Y-109042857D01*
X154142142Y-109185714D01*
X154856428Y-109328571D01*
X153499285Y-109828571D02*
X153499285Y-108328571D01*
X153499285Y-108900000D02*
X153356428Y-108828571D01*
X153070714Y-108828571D01*
X152927857Y-108900000D01*
X152856428Y-108971429D01*
X152784999Y-109114286D01*
X152784999Y-109542857D01*
X152856428Y-109685714D01*
X152927857Y-109757143D01*
X153070714Y-109828571D01*
X153356428Y-109828571D01*
X153499285Y-109757143D01*
X151070714Y-108471429D02*
X150999285Y-108400000D01*
X150856428Y-108328571D01*
X150499285Y-108328571D01*
X150356428Y-108400000D01*
X150284999Y-108471429D01*
X150213571Y-108614286D01*
X150213571Y-108757143D01*
X150284999Y-108971429D01*
X151142142Y-109828571D01*
X150213571Y-109828571D01*
X149285000Y-108328571D02*
X149142143Y-108328571D01*
X148999286Y-108400000D01*
X148927857Y-108471429D01*
X148856428Y-108614286D01*
X148785000Y-108900000D01*
X148785000Y-109257143D01*
X148856428Y-109542857D01*
X148927857Y-109685714D01*
X148999286Y-109757143D01*
X149142143Y-109828571D01*
X149285000Y-109828571D01*
X149427857Y-109757143D01*
X149499286Y-109685714D01*
X149570714Y-109542857D01*
X149642143Y-109257143D01*
X149642143Y-108900000D01*
X149570714Y-108614286D01*
X149499286Y-108471429D01*
X149427857Y-108400000D01*
X149285000Y-108328571D01*
X147356429Y-109828571D02*
X148213572Y-109828571D01*
X147785000Y-109828571D02*
X147785000Y-108328571D01*
X147927857Y-108542857D01*
X148070715Y-108685714D01*
X148213572Y-108757143D01*
X146070715Y-108328571D02*
X146356429Y-108328571D01*
X146499286Y-108400000D01*
X146570715Y-108471429D01*
X146713572Y-108685714D01*
X146785001Y-108971429D01*
X146785001Y-109542857D01*
X146713572Y-109685714D01*
X146642144Y-109757143D01*
X146499286Y-109828571D01*
X146213572Y-109828571D01*
X146070715Y-109757143D01*
X145999286Y-109685714D01*
X145927858Y-109542857D01*
X145927858Y-109185714D01*
X145999286Y-109042857D01*
X146070715Y-108971429D01*
X146213572Y-108900000D01*
X146499286Y-108900000D01*
X146642144Y-108971429D01*
X146713572Y-109042857D01*
X146785001Y-109185714D01*
M02*
