G04 #@! TF.FileFunction,Copper,L1,Top,Signal*
%FSLAX46Y46*%
G04 Gerber Fmt 4.6, Leading zero omitted, Abs format (unit mm)*
G04 Created by KiCad (PCBNEW 4.0.1-stable) date Monday, February 29, 2016 'PMt' 01:12:21 PM*
%MOMM*%
G01*
G04 APERTURE LIST*
%ADD10C,0.150000*%
%ADD11R,1.600000X2.000000*%
%ADD12R,1.727200X2.032000*%
%ADD13O,1.727200X2.032000*%
%ADD14R,1.198880X1.198880*%
%ADD15R,1.500000X1.300000*%
%ADD16R,0.600000X2.200000*%
%ADD17R,0.600000X1.500000*%
%ADD18C,0.600000*%
%ADD19C,0.406400*%
%ADD20C,0.254000*%
G04 APERTURE END LIST*
D10*
D11*
X139700000Y-105950000D03*
X139700000Y-109950000D03*
X144780000Y-105950000D03*
X144780000Y-109950000D03*
X162560000Y-109950000D03*
X162560000Y-105950000D03*
X167640000Y-109950000D03*
X167640000Y-105950000D03*
D12*
X142240000Y-119380000D03*
D13*
X144780000Y-119380000D03*
X147320000Y-119380000D03*
X149860000Y-119380000D03*
X152400000Y-119380000D03*
X154940000Y-119380000D03*
X157480000Y-119380000D03*
X160020000Y-119380000D03*
X162560000Y-119380000D03*
X165100000Y-119380000D03*
D12*
X165100000Y-96520000D03*
D13*
X162560000Y-96520000D03*
X160020000Y-96520000D03*
X157480000Y-96520000D03*
X154940000Y-96520000D03*
X152400000Y-96520000D03*
X149860000Y-96520000D03*
X147320000Y-96520000D03*
X144780000Y-96520000D03*
X142240000Y-96520000D03*
D14*
X131538980Y-118872000D03*
X133637020Y-118872000D03*
X139225020Y-118872000D03*
X137126980Y-118872000D03*
D15*
X131238000Y-116332000D03*
X133938000Y-116332000D03*
X136826000Y-116332000D03*
X139526000Y-116332000D03*
D16*
X147955000Y-103250000D03*
X147955000Y-112650000D03*
X149225000Y-103250000D03*
X149225000Y-112650000D03*
X150495000Y-103250000D03*
X150495000Y-112650000D03*
X151765000Y-103250000D03*
X151765000Y-112650000D03*
X153035000Y-103250000D03*
X153035000Y-112650000D03*
X154305000Y-103250000D03*
X154305000Y-112650000D03*
X155575000Y-103250000D03*
X155575000Y-112650000D03*
X156845000Y-103250000D03*
X156845000Y-112650000D03*
X158115000Y-103250000D03*
X158115000Y-112650000D03*
X159385000Y-103250000D03*
X159385000Y-112650000D03*
D17*
X132715000Y-104775000D03*
X133985000Y-104775000D03*
X135255000Y-104775000D03*
X136525000Y-104775000D03*
X136525000Y-111125000D03*
X135255000Y-111125000D03*
X133985000Y-111125000D03*
X132715000Y-111125000D03*
D18*
X136525000Y-100965000D03*
X154305000Y-100965000D03*
X149225000Y-99695000D03*
X133985000Y-113665000D03*
X156845000Y-99695000D03*
X135255000Y-113665000D03*
D19*
X154305000Y-103250000D02*
X154305000Y-97155000D01*
X154305000Y-97155000D02*
X154940000Y-96520000D01*
X136525000Y-100965000D02*
X135255000Y-102235000D01*
X135255000Y-103505000D02*
X135255000Y-104775000D01*
X135255000Y-102235000D02*
X135255000Y-103505000D01*
X135255000Y-104775000D02*
X135255000Y-106045000D01*
X135255000Y-106045000D02*
X135890000Y-106680000D01*
X135890000Y-106680000D02*
X138970000Y-106680000D01*
X138970000Y-106680000D02*
X139700000Y-105950000D01*
X154305000Y-104200000D02*
X154305000Y-100965000D01*
X154305000Y-97155000D02*
X154940000Y-96520000D01*
X139700000Y-105950000D02*
X144780000Y-105950000D01*
X153035000Y-97155000D02*
X152400000Y-96520000D01*
X136525000Y-111125000D02*
X138525000Y-111125000D01*
X138525000Y-111125000D02*
X139700000Y-109950000D01*
X154305000Y-118745000D02*
X154940000Y-119380000D01*
X151765000Y-103250000D02*
X151765000Y-98425000D01*
X151765000Y-98425000D02*
X149860000Y-96520000D01*
X154305000Y-108585000D02*
X161195000Y-108585000D01*
X161195000Y-108585000D02*
X162560000Y-109950000D01*
X162560000Y-109950000D02*
X167640000Y-109950000D01*
X162465000Y-109855000D02*
X162560000Y-109950000D01*
X151765000Y-104200000D02*
X151765000Y-106045000D01*
X151765000Y-106045000D02*
X154305000Y-108585000D01*
X154305000Y-108585000D02*
X154400000Y-108680000D01*
X149225000Y-112650000D02*
X149225000Y-114935000D01*
X149225000Y-114935000D02*
X144780000Y-119380000D01*
X150495000Y-112650000D02*
X150495000Y-116205000D01*
X150495000Y-116205000D02*
X147320000Y-119380000D01*
X151765000Y-112650000D02*
X151765000Y-117475000D01*
X151765000Y-117475000D02*
X149860000Y-119380000D01*
X153035000Y-112650000D02*
X153035000Y-118745000D01*
X153035000Y-118745000D02*
X152400000Y-119380000D01*
X153035000Y-118745000D02*
X152400000Y-119380000D01*
X155575000Y-112650000D02*
X155575000Y-117475000D01*
X155575000Y-117475000D02*
X157480000Y-119380000D01*
X156845000Y-112650000D02*
X156845000Y-116205000D01*
X156845000Y-116205000D02*
X160020000Y-119380000D01*
X158115000Y-112650000D02*
X158115000Y-114935000D01*
X158115000Y-114935000D02*
X162560000Y-119380000D01*
X159385000Y-112650000D02*
X159385000Y-113665000D01*
X159385000Y-113665000D02*
X165100000Y-119380000D01*
X159385000Y-111700000D02*
X159385000Y-113665000D01*
X159385000Y-103250000D02*
X159385000Y-102235000D01*
X159385000Y-102235000D02*
X165100000Y-96520000D01*
X159385000Y-104200000D02*
X159385000Y-102235000D01*
X159385000Y-104200000D02*
X159385000Y-103505000D01*
X158115000Y-103250000D02*
X158115000Y-100965000D01*
X158115000Y-100965000D02*
X162560000Y-96520000D01*
X156845000Y-103250000D02*
X156845000Y-99695000D01*
X156845000Y-99695000D02*
X160020000Y-96520000D01*
X149225000Y-99695000D02*
X149225000Y-103250000D01*
X133985000Y-113665000D02*
X133985000Y-116285000D01*
X133985000Y-116285000D02*
X133938000Y-116332000D01*
X133985000Y-113665000D02*
X133985000Y-111125000D01*
X156845000Y-99695000D02*
X160020000Y-96520000D01*
X135255000Y-113665000D02*
X135255000Y-114761000D01*
X135255000Y-114761000D02*
X136826000Y-116332000D01*
X135255000Y-113665000D02*
X135255000Y-111125000D01*
X147955000Y-103250000D02*
X147955000Y-102235000D01*
X147955000Y-102235000D02*
X142240000Y-96520000D01*
X147955000Y-104200000D02*
X147955000Y-102235000D01*
X147955000Y-104200000D02*
X147955000Y-104140000D01*
X147955000Y-112650000D02*
X147955000Y-113665000D01*
X147955000Y-113665000D02*
X142240000Y-119380000D01*
X147955000Y-111700000D02*
X147955000Y-113665000D01*
X131238000Y-116332000D02*
X131238000Y-118571020D01*
X131238000Y-118571020D02*
X131538980Y-118872000D01*
X131238000Y-118571020D02*
X131538980Y-118872000D01*
X139526000Y-116332000D02*
X139526000Y-118571020D01*
X139526000Y-118571020D02*
X139225020Y-118872000D01*
X138872000Y-119280980D02*
X138971020Y-119380000D01*
D20*
G36*
X169470000Y-121210000D02*
X130250000Y-121210000D01*
X130250000Y-117581244D01*
X130399800Y-117611579D01*
X130399800Y-117937700D01*
X130343109Y-118020670D01*
X130292100Y-118272560D01*
X130292100Y-119471440D01*
X130336378Y-119706757D01*
X130475450Y-119922881D01*
X130687650Y-120067871D01*
X130939540Y-120118880D01*
X132138420Y-120118880D01*
X132373737Y-120074602D01*
X132589861Y-119935530D01*
X132595456Y-119927341D01*
X132677882Y-120009767D01*
X132911271Y-120106440D01*
X133351270Y-120106440D01*
X133510020Y-119947690D01*
X133510020Y-118999000D01*
X133764020Y-118999000D01*
X133764020Y-119947690D01*
X133922770Y-120106440D01*
X134362769Y-120106440D01*
X134596158Y-120009767D01*
X134774787Y-119831139D01*
X134871460Y-119597750D01*
X134871460Y-119157750D01*
X135892540Y-119157750D01*
X135892540Y-119597750D01*
X135989213Y-119831139D01*
X136167842Y-120009767D01*
X136401231Y-120106440D01*
X136841230Y-120106440D01*
X136999980Y-119947690D01*
X136999980Y-118999000D01*
X136051290Y-118999000D01*
X135892540Y-119157750D01*
X134871460Y-119157750D01*
X134712710Y-118999000D01*
X133764020Y-118999000D01*
X133510020Y-118999000D01*
X133490020Y-118999000D01*
X133490020Y-118745000D01*
X133510020Y-118745000D01*
X133510020Y-117796310D01*
X133764020Y-117796310D01*
X133764020Y-118745000D01*
X134712710Y-118745000D01*
X134871460Y-118586250D01*
X134871460Y-118146250D01*
X135892540Y-118146250D01*
X135892540Y-118586250D01*
X136051290Y-118745000D01*
X136999980Y-118745000D01*
X136999980Y-117796310D01*
X136841230Y-117637560D01*
X136401231Y-117637560D01*
X136167842Y-117734233D01*
X135989213Y-117912861D01*
X135892540Y-118146250D01*
X134871460Y-118146250D01*
X134774787Y-117912861D01*
X134596158Y-117734233D01*
X134362769Y-117637560D01*
X133922770Y-117637560D01*
X133764020Y-117796310D01*
X133510020Y-117796310D01*
X133351270Y-117637560D01*
X132911271Y-117637560D01*
X132677882Y-117734233D01*
X132595669Y-117816445D01*
X132390310Y-117676129D01*
X132138420Y-117625120D01*
X132076200Y-117625120D01*
X132076200Y-117612844D01*
X132223317Y-117585162D01*
X132439441Y-117446090D01*
X132584431Y-117233890D01*
X132587081Y-117220803D01*
X132723910Y-117433441D01*
X132936110Y-117578431D01*
X133188000Y-117629440D01*
X134688000Y-117629440D01*
X134923317Y-117585162D01*
X135139441Y-117446090D01*
X135284431Y-117233890D01*
X135335440Y-116982000D01*
X135335440Y-116026834D01*
X135428560Y-116119954D01*
X135428560Y-116982000D01*
X135472838Y-117217317D01*
X135611910Y-117433441D01*
X135824110Y-117578431D01*
X136076000Y-117629440D01*
X137576000Y-117629440D01*
X137811317Y-117585162D01*
X138027441Y-117446090D01*
X138172431Y-117233890D01*
X138175081Y-117220803D01*
X138311910Y-117433441D01*
X138524110Y-117578431D01*
X138687800Y-117611579D01*
X138687800Y-117625120D01*
X138625580Y-117625120D01*
X138390263Y-117669398D01*
X138174139Y-117808470D01*
X138168544Y-117816659D01*
X138086118Y-117734233D01*
X137852729Y-117637560D01*
X137412730Y-117637560D01*
X137253980Y-117796310D01*
X137253980Y-118745000D01*
X137273980Y-118745000D01*
X137273980Y-118999000D01*
X137253980Y-118999000D01*
X137253980Y-119947690D01*
X137412730Y-120106440D01*
X137852729Y-120106440D01*
X138086118Y-120009767D01*
X138168331Y-119927555D01*
X138373690Y-120067871D01*
X138584718Y-120110605D01*
X138650254Y-120154395D01*
X138971020Y-120218200D01*
X139291785Y-120154395D01*
X139344937Y-120118880D01*
X139824460Y-120118880D01*
X140059777Y-120074602D01*
X140275901Y-119935530D01*
X140420891Y-119723330D01*
X140471900Y-119471440D01*
X140471900Y-118364000D01*
X140728960Y-118364000D01*
X140728960Y-120396000D01*
X140773238Y-120631317D01*
X140912310Y-120847441D01*
X141124510Y-120992431D01*
X141376400Y-121043440D01*
X143103600Y-121043440D01*
X143338917Y-120999162D01*
X143555041Y-120860090D01*
X143700031Y-120647890D01*
X143708400Y-120606561D01*
X143720330Y-120624415D01*
X144206511Y-120949271D01*
X144780000Y-121063345D01*
X145353489Y-120949271D01*
X145839670Y-120624415D01*
X146050000Y-120309634D01*
X146260330Y-120624415D01*
X146746511Y-120949271D01*
X147320000Y-121063345D01*
X147893489Y-120949271D01*
X148379670Y-120624415D01*
X148590000Y-120309634D01*
X148800330Y-120624415D01*
X149286511Y-120949271D01*
X149860000Y-121063345D01*
X150433489Y-120949271D01*
X150919670Y-120624415D01*
X151130000Y-120309634D01*
X151340330Y-120624415D01*
X151826511Y-120949271D01*
X152400000Y-121063345D01*
X152973489Y-120949271D01*
X153459670Y-120624415D01*
X153666461Y-120314931D01*
X154037964Y-120730732D01*
X154565209Y-120984709D01*
X154580974Y-120987358D01*
X154813000Y-120866217D01*
X154813000Y-119507000D01*
X154793000Y-119507000D01*
X154793000Y-119253000D01*
X154813000Y-119253000D01*
X154813000Y-119233000D01*
X155067000Y-119233000D01*
X155067000Y-119253000D01*
X155087000Y-119253000D01*
X155087000Y-119507000D01*
X155067000Y-119507000D01*
X155067000Y-120866217D01*
X155299026Y-120987358D01*
X155314791Y-120984709D01*
X155842036Y-120730732D01*
X156213539Y-120314931D01*
X156420330Y-120624415D01*
X156906511Y-120949271D01*
X157480000Y-121063345D01*
X158053489Y-120949271D01*
X158539670Y-120624415D01*
X158750000Y-120309634D01*
X158960330Y-120624415D01*
X159446511Y-120949271D01*
X160020000Y-121063345D01*
X160593489Y-120949271D01*
X161079670Y-120624415D01*
X161290000Y-120309634D01*
X161500330Y-120624415D01*
X161986511Y-120949271D01*
X162560000Y-121063345D01*
X163133489Y-120949271D01*
X163619670Y-120624415D01*
X163830000Y-120309634D01*
X164040330Y-120624415D01*
X164526511Y-120949271D01*
X165100000Y-121063345D01*
X165673489Y-120949271D01*
X166159670Y-120624415D01*
X166484526Y-120138234D01*
X166598600Y-119564745D01*
X166598600Y-119195255D01*
X166484526Y-118621766D01*
X166159670Y-118135585D01*
X165673489Y-117810729D01*
X165100000Y-117696655D01*
X164684664Y-117779270D01*
X160332440Y-113427046D01*
X160332440Y-111550000D01*
X160288162Y-111314683D01*
X160149090Y-111098559D01*
X159936890Y-110953569D01*
X159685000Y-110902560D01*
X159589915Y-110902560D01*
X159385000Y-110861800D01*
X159180085Y-110902560D01*
X159085000Y-110902560D01*
X158849683Y-110946838D01*
X158750472Y-111010678D01*
X158666890Y-110953569D01*
X158415000Y-110902560D01*
X157815000Y-110902560D01*
X157579683Y-110946838D01*
X157480472Y-111010678D01*
X157396890Y-110953569D01*
X157145000Y-110902560D01*
X156545000Y-110902560D01*
X156309683Y-110946838D01*
X156210472Y-111010678D01*
X156126890Y-110953569D01*
X155875000Y-110902560D01*
X155275000Y-110902560D01*
X155039683Y-110946838D01*
X154949019Y-111005179D01*
X154731309Y-110915000D01*
X154590750Y-110915000D01*
X154432000Y-111073750D01*
X154432000Y-112523000D01*
X154452000Y-112523000D01*
X154452000Y-112777000D01*
X154432000Y-112777000D01*
X154432000Y-114226250D01*
X154590750Y-114385000D01*
X154731309Y-114385000D01*
X154736800Y-114382726D01*
X154736800Y-117475000D01*
X154800604Y-117795766D01*
X154812998Y-117814315D01*
X154812998Y-117893782D01*
X154580974Y-117772642D01*
X154565209Y-117775291D01*
X154037964Y-118029268D01*
X153873200Y-118213679D01*
X153873200Y-114382726D01*
X153878691Y-114385000D01*
X154019250Y-114385000D01*
X154178000Y-114226250D01*
X154178000Y-112777000D01*
X154158000Y-112777000D01*
X154158000Y-112523000D01*
X154178000Y-112523000D01*
X154178000Y-111073750D01*
X154019250Y-110915000D01*
X153878691Y-110915000D01*
X153661879Y-111004807D01*
X153586890Y-110953569D01*
X153335000Y-110902560D01*
X152735000Y-110902560D01*
X152499683Y-110946838D01*
X152400472Y-111010678D01*
X152316890Y-110953569D01*
X152065000Y-110902560D01*
X151465000Y-110902560D01*
X151229683Y-110946838D01*
X151130472Y-111010678D01*
X151046890Y-110953569D01*
X150795000Y-110902560D01*
X150195000Y-110902560D01*
X149959683Y-110946838D01*
X149860472Y-111010678D01*
X149776890Y-110953569D01*
X149525000Y-110902560D01*
X148925000Y-110902560D01*
X148689683Y-110946838D01*
X148590472Y-111010678D01*
X148506890Y-110953569D01*
X148255000Y-110902560D01*
X148159915Y-110902560D01*
X147955000Y-110861800D01*
X147750085Y-110902560D01*
X147655000Y-110902560D01*
X147419683Y-110946838D01*
X147203559Y-111085910D01*
X147058569Y-111298110D01*
X147007560Y-111550000D01*
X147007560Y-113427046D01*
X142718046Y-117716560D01*
X141376400Y-117716560D01*
X141141083Y-117760838D01*
X140924959Y-117899910D01*
X140779969Y-118112110D01*
X140728960Y-118364000D01*
X140471900Y-118364000D01*
X140471900Y-118272560D01*
X140427622Y-118037243D01*
X140364200Y-117938682D01*
X140364200Y-117612844D01*
X140511317Y-117585162D01*
X140727441Y-117446090D01*
X140872431Y-117233890D01*
X140923440Y-116982000D01*
X140923440Y-115682000D01*
X140879162Y-115446683D01*
X140740090Y-115230559D01*
X140527890Y-115085569D01*
X140276000Y-115034560D01*
X138776000Y-115034560D01*
X138540683Y-115078838D01*
X138324559Y-115217910D01*
X138179569Y-115430110D01*
X138176919Y-115443197D01*
X138040090Y-115230559D01*
X137827890Y-115085569D01*
X137576000Y-115034560D01*
X136713954Y-115034560D01*
X136093200Y-114413806D01*
X136093200Y-114084528D01*
X136189838Y-113851799D01*
X136190162Y-113479833D01*
X136093200Y-113245166D01*
X136093200Y-112310172D01*
X136144691Y-112331500D01*
X136239250Y-112331500D01*
X136398000Y-112172750D01*
X136398000Y-111252000D01*
X136652000Y-111252000D01*
X136652000Y-112172750D01*
X136810750Y-112331500D01*
X136905309Y-112331500D01*
X137138698Y-112234827D01*
X137317327Y-112056199D01*
X137414000Y-111822810D01*
X137414000Y-111410750D01*
X137255250Y-111252000D01*
X136652000Y-111252000D01*
X136398000Y-111252000D01*
X136378000Y-111252000D01*
X136378000Y-110998000D01*
X136398000Y-110998000D01*
X136398000Y-110077250D01*
X136652000Y-110077250D01*
X136652000Y-110998000D01*
X137255250Y-110998000D01*
X137414000Y-110839250D01*
X137414000Y-110427190D01*
X137334703Y-110235750D01*
X138265000Y-110235750D01*
X138265000Y-111076309D01*
X138361673Y-111309698D01*
X138540301Y-111488327D01*
X138773690Y-111585000D01*
X139414250Y-111585000D01*
X139573000Y-111426250D01*
X139573000Y-110077000D01*
X139827000Y-110077000D01*
X139827000Y-111426250D01*
X139985750Y-111585000D01*
X140626310Y-111585000D01*
X140859699Y-111488327D01*
X141038327Y-111309698D01*
X141135000Y-111076309D01*
X141135000Y-110235750D01*
X143345000Y-110235750D01*
X143345000Y-111076309D01*
X143441673Y-111309698D01*
X143620301Y-111488327D01*
X143853690Y-111585000D01*
X144494250Y-111585000D01*
X144653000Y-111426250D01*
X144653000Y-110077000D01*
X144907000Y-110077000D01*
X144907000Y-111426250D01*
X145065750Y-111585000D01*
X145706310Y-111585000D01*
X145939699Y-111488327D01*
X146118327Y-111309698D01*
X146215000Y-111076309D01*
X146215000Y-110235750D01*
X146056250Y-110077000D01*
X144907000Y-110077000D01*
X144653000Y-110077000D01*
X143503750Y-110077000D01*
X143345000Y-110235750D01*
X141135000Y-110235750D01*
X140976250Y-110077000D01*
X139827000Y-110077000D01*
X139573000Y-110077000D01*
X138423750Y-110077000D01*
X138265000Y-110235750D01*
X137334703Y-110235750D01*
X137317327Y-110193801D01*
X137138698Y-110015173D01*
X136905309Y-109918500D01*
X136810750Y-109918500D01*
X136652000Y-110077250D01*
X136398000Y-110077250D01*
X136239250Y-109918500D01*
X136144691Y-109918500D01*
X135911302Y-110015173D01*
X135884765Y-110041709D01*
X135760890Y-109957069D01*
X135509000Y-109906060D01*
X135001000Y-109906060D01*
X134765683Y-109950338D01*
X134619093Y-110044666D01*
X134490890Y-109957069D01*
X134239000Y-109906060D01*
X133731000Y-109906060D01*
X133495683Y-109950338D01*
X133349093Y-110044666D01*
X133220890Y-109957069D01*
X132969000Y-109906060D01*
X132461000Y-109906060D01*
X132225683Y-109950338D01*
X132009559Y-110089410D01*
X131864569Y-110301610D01*
X131813560Y-110553500D01*
X131813560Y-111696500D01*
X131857838Y-111931817D01*
X131996910Y-112147941D01*
X132209110Y-112292931D01*
X132461000Y-112343940D01*
X132969000Y-112343940D01*
X133146800Y-112310485D01*
X133146800Y-113245472D01*
X133050162Y-113478201D01*
X133049838Y-113850167D01*
X133146800Y-114084834D01*
X133146800Y-115042312D01*
X132952683Y-115078838D01*
X132736559Y-115217910D01*
X132591569Y-115430110D01*
X132588919Y-115443197D01*
X132452090Y-115230559D01*
X132239890Y-115085569D01*
X131988000Y-115034560D01*
X130488000Y-115034560D01*
X130252683Y-115078838D01*
X130250000Y-115080564D01*
X130250000Y-108823691D01*
X138265000Y-108823691D01*
X138265000Y-109664250D01*
X138423750Y-109823000D01*
X139573000Y-109823000D01*
X139573000Y-108473750D01*
X139827000Y-108473750D01*
X139827000Y-109823000D01*
X140976250Y-109823000D01*
X141135000Y-109664250D01*
X141135000Y-108823691D01*
X143345000Y-108823691D01*
X143345000Y-109664250D01*
X143503750Y-109823000D01*
X144653000Y-109823000D01*
X144653000Y-108473750D01*
X144907000Y-108473750D01*
X144907000Y-109823000D01*
X146056250Y-109823000D01*
X146215000Y-109664250D01*
X146215000Y-108823691D01*
X146118327Y-108590302D01*
X145939699Y-108411673D01*
X145706310Y-108315000D01*
X145065750Y-108315000D01*
X144907000Y-108473750D01*
X144653000Y-108473750D01*
X144494250Y-108315000D01*
X143853690Y-108315000D01*
X143620301Y-108411673D01*
X143441673Y-108590302D01*
X143345000Y-108823691D01*
X141135000Y-108823691D01*
X141038327Y-108590302D01*
X140859699Y-108411673D01*
X140626310Y-108315000D01*
X139985750Y-108315000D01*
X139827000Y-108473750D01*
X139573000Y-108473750D01*
X139414250Y-108315000D01*
X138773690Y-108315000D01*
X138540301Y-108411673D01*
X138361673Y-108590302D01*
X138265000Y-108823691D01*
X130250000Y-108823691D01*
X130250000Y-104203500D01*
X131813560Y-104203500D01*
X131813560Y-105346500D01*
X131857838Y-105581817D01*
X131996910Y-105797941D01*
X132209110Y-105942931D01*
X132461000Y-105993940D01*
X132969000Y-105993940D01*
X133204317Y-105949662D01*
X133350907Y-105855334D01*
X133479110Y-105942931D01*
X133731000Y-105993940D01*
X134239000Y-105993940D01*
X134416800Y-105960485D01*
X134416800Y-106045000D01*
X134480604Y-106365766D01*
X134662303Y-106637697D01*
X135297303Y-107272697D01*
X135569235Y-107454396D01*
X135890000Y-107518200D01*
X138606793Y-107518200D01*
X138648110Y-107546431D01*
X138900000Y-107597440D01*
X140500000Y-107597440D01*
X140735317Y-107553162D01*
X140951441Y-107414090D01*
X141096431Y-107201890D01*
X141147440Y-106950000D01*
X141147440Y-106788200D01*
X143332560Y-106788200D01*
X143332560Y-106950000D01*
X143376838Y-107185317D01*
X143515910Y-107401441D01*
X143728110Y-107546431D01*
X143980000Y-107597440D01*
X145580000Y-107597440D01*
X145815317Y-107553162D01*
X146031441Y-107414090D01*
X146176431Y-107201890D01*
X146227440Y-106950000D01*
X146227440Y-104950000D01*
X146183162Y-104714683D01*
X146044090Y-104498559D01*
X145831890Y-104353569D01*
X145580000Y-104302560D01*
X143980000Y-104302560D01*
X143744683Y-104346838D01*
X143528559Y-104485910D01*
X143383569Y-104698110D01*
X143332560Y-104950000D01*
X143332560Y-105111800D01*
X141147440Y-105111800D01*
X141147440Y-104950000D01*
X141103162Y-104714683D01*
X140964090Y-104498559D01*
X140751890Y-104353569D01*
X140500000Y-104302560D01*
X138900000Y-104302560D01*
X138664683Y-104346838D01*
X138448559Y-104485910D01*
X138303569Y-104698110D01*
X138252560Y-104950000D01*
X138252560Y-105841800D01*
X137181939Y-105841800D01*
X137230441Y-105810590D01*
X137375431Y-105598390D01*
X137426440Y-105346500D01*
X137426440Y-104203500D01*
X137382162Y-103968183D01*
X137243090Y-103752059D01*
X137030890Y-103607069D01*
X136779000Y-103556060D01*
X136271000Y-103556060D01*
X136093200Y-103589515D01*
X136093200Y-102582194D01*
X136821046Y-101854348D01*
X137053943Y-101758117D01*
X137317192Y-101495327D01*
X137459838Y-101151799D01*
X137460162Y-100779833D01*
X137318117Y-100436057D01*
X137055327Y-100172808D01*
X136711799Y-100030162D01*
X136339833Y-100029838D01*
X135996057Y-100171883D01*
X135732808Y-100434673D01*
X135635436Y-100669170D01*
X134662303Y-101642303D01*
X134480604Y-101914234D01*
X134416800Y-102235000D01*
X134416800Y-103592065D01*
X134239000Y-103556060D01*
X133731000Y-103556060D01*
X133495683Y-103600338D01*
X133349093Y-103694666D01*
X133220890Y-103607069D01*
X132969000Y-103556060D01*
X132461000Y-103556060D01*
X132225683Y-103600338D01*
X132009559Y-103739410D01*
X131864569Y-103951610D01*
X131813560Y-104203500D01*
X130250000Y-104203500D01*
X130250000Y-96335255D01*
X140741400Y-96335255D01*
X140741400Y-96704745D01*
X140855474Y-97278234D01*
X141180330Y-97764415D01*
X141666511Y-98089271D01*
X142240000Y-98203345D01*
X142655336Y-98120730D01*
X147007560Y-102472954D01*
X147007560Y-104350000D01*
X147051838Y-104585317D01*
X147190910Y-104801441D01*
X147403110Y-104946431D01*
X147655000Y-104997440D01*
X147750085Y-104997440D01*
X147955000Y-105038200D01*
X148159915Y-104997440D01*
X148255000Y-104997440D01*
X148490317Y-104953162D01*
X148589528Y-104889322D01*
X148673110Y-104946431D01*
X148925000Y-104997440D01*
X149525000Y-104997440D01*
X149760317Y-104953162D01*
X149850981Y-104894821D01*
X150068691Y-104985000D01*
X150209250Y-104985000D01*
X150368000Y-104826250D01*
X150368000Y-103377000D01*
X150348000Y-103377000D01*
X150348000Y-103123000D01*
X150368000Y-103123000D01*
X150368000Y-101673750D01*
X150209250Y-101515000D01*
X150068691Y-101515000D01*
X150063200Y-101517274D01*
X150063200Y-100114528D01*
X150159838Y-99881799D01*
X150160162Y-99509833D01*
X150018117Y-99166057D01*
X149755327Y-98902808D01*
X149411799Y-98760162D01*
X149039833Y-98759838D01*
X148696057Y-98901883D01*
X148432808Y-99164673D01*
X148290162Y-99508201D01*
X148289838Y-99880167D01*
X148386800Y-100114834D01*
X148386800Y-101481406D01*
X145054198Y-98148804D01*
X145353489Y-98089271D01*
X145839670Y-97764415D01*
X146046461Y-97454931D01*
X146417964Y-97870732D01*
X146945209Y-98124709D01*
X146960974Y-98127358D01*
X147193000Y-98006217D01*
X147193000Y-96647000D01*
X147173000Y-96647000D01*
X147173000Y-96393000D01*
X147193000Y-96393000D01*
X147193000Y-95033783D01*
X147447000Y-95033783D01*
X147447000Y-96393000D01*
X147467000Y-96393000D01*
X147467000Y-96647000D01*
X147447000Y-96647000D01*
X147447000Y-98006217D01*
X147679026Y-98127358D01*
X147694791Y-98124709D01*
X148222036Y-97870732D01*
X148593539Y-97454931D01*
X148800330Y-97764415D01*
X149286511Y-98089271D01*
X149860000Y-98203345D01*
X150275336Y-98120730D01*
X150926800Y-98772194D01*
X150926800Y-101517274D01*
X150921309Y-101515000D01*
X150780750Y-101515000D01*
X150622000Y-101673750D01*
X150622000Y-103123000D01*
X150642000Y-103123000D01*
X150642000Y-103377000D01*
X150622000Y-103377000D01*
X150622000Y-104826250D01*
X150780750Y-104985000D01*
X150921309Y-104985000D01*
X150926800Y-104982726D01*
X150926800Y-106045000D01*
X150990604Y-106365766D01*
X151172303Y-106637697D01*
X153807303Y-109272697D01*
X154079234Y-109454396D01*
X154400000Y-109518200D01*
X154720765Y-109454396D01*
X154767453Y-109423200D01*
X160847806Y-109423200D01*
X161112560Y-109687954D01*
X161112560Y-110950000D01*
X161156838Y-111185317D01*
X161295910Y-111401441D01*
X161508110Y-111546431D01*
X161760000Y-111597440D01*
X163360000Y-111597440D01*
X163595317Y-111553162D01*
X163811441Y-111414090D01*
X163956431Y-111201890D01*
X164007440Y-110950000D01*
X164007440Y-110788200D01*
X166192560Y-110788200D01*
X166192560Y-110950000D01*
X166236838Y-111185317D01*
X166375910Y-111401441D01*
X166588110Y-111546431D01*
X166840000Y-111597440D01*
X168440000Y-111597440D01*
X168675317Y-111553162D01*
X168891441Y-111414090D01*
X169036431Y-111201890D01*
X169087440Y-110950000D01*
X169087440Y-108950000D01*
X169043162Y-108714683D01*
X168904090Y-108498559D01*
X168691890Y-108353569D01*
X168440000Y-108302560D01*
X166840000Y-108302560D01*
X166604683Y-108346838D01*
X166388559Y-108485910D01*
X166243569Y-108698110D01*
X166192560Y-108950000D01*
X166192560Y-109111800D01*
X164007440Y-109111800D01*
X164007440Y-108950000D01*
X163963162Y-108714683D01*
X163824090Y-108498559D01*
X163611890Y-108353569D01*
X163360000Y-108302560D01*
X162097954Y-108302560D01*
X161787697Y-107992303D01*
X161515766Y-107810604D01*
X161195000Y-107746800D01*
X154652194Y-107746800D01*
X153141144Y-106235750D01*
X161125000Y-106235750D01*
X161125000Y-107076309D01*
X161221673Y-107309698D01*
X161400301Y-107488327D01*
X161633690Y-107585000D01*
X162274250Y-107585000D01*
X162433000Y-107426250D01*
X162433000Y-106077000D01*
X162687000Y-106077000D01*
X162687000Y-107426250D01*
X162845750Y-107585000D01*
X163486310Y-107585000D01*
X163719699Y-107488327D01*
X163898327Y-107309698D01*
X163995000Y-107076309D01*
X163995000Y-106235750D01*
X166205000Y-106235750D01*
X166205000Y-107076309D01*
X166301673Y-107309698D01*
X166480301Y-107488327D01*
X166713690Y-107585000D01*
X167354250Y-107585000D01*
X167513000Y-107426250D01*
X167513000Y-106077000D01*
X167767000Y-106077000D01*
X167767000Y-107426250D01*
X167925750Y-107585000D01*
X168566310Y-107585000D01*
X168799699Y-107488327D01*
X168978327Y-107309698D01*
X169075000Y-107076309D01*
X169075000Y-106235750D01*
X168916250Y-106077000D01*
X167767000Y-106077000D01*
X167513000Y-106077000D01*
X166363750Y-106077000D01*
X166205000Y-106235750D01*
X163995000Y-106235750D01*
X163836250Y-106077000D01*
X162687000Y-106077000D01*
X162433000Y-106077000D01*
X161283750Y-106077000D01*
X161125000Y-106235750D01*
X153141144Y-106235750D01*
X152603200Y-105697806D01*
X152603200Y-104982726D01*
X152608691Y-104985000D01*
X152749250Y-104985000D01*
X152908000Y-104826250D01*
X152908000Y-103377000D01*
X152888000Y-103377000D01*
X152888000Y-103123000D01*
X152908000Y-103123000D01*
X152908000Y-101673750D01*
X152749250Y-101515000D01*
X152608691Y-101515000D01*
X152603200Y-101517274D01*
X152603200Y-98425000D01*
X152539396Y-98104235D01*
X152527002Y-98085686D01*
X152527002Y-98006218D01*
X152759026Y-98127358D01*
X152774791Y-98124709D01*
X153302036Y-97870732D01*
X153466800Y-97686321D01*
X153466800Y-100545472D01*
X153370162Y-100778201D01*
X153369838Y-101150167D01*
X153466800Y-101384834D01*
X153466800Y-101517274D01*
X153461309Y-101515000D01*
X153320750Y-101515000D01*
X153162000Y-101673750D01*
X153162000Y-103123000D01*
X153182000Y-103123000D01*
X153182000Y-103377000D01*
X153162000Y-103377000D01*
X153162000Y-104826250D01*
X153320750Y-104985000D01*
X153461309Y-104985000D01*
X153678121Y-104895193D01*
X153753110Y-104946431D01*
X154005000Y-104997440D01*
X154100085Y-104997440D01*
X154305000Y-105038200D01*
X154509915Y-104997440D01*
X154605000Y-104997440D01*
X154840317Y-104953162D01*
X154930981Y-104894821D01*
X155148691Y-104985000D01*
X155289250Y-104985000D01*
X155448000Y-104826250D01*
X155448000Y-103377000D01*
X155428000Y-103377000D01*
X155428000Y-103123000D01*
X155448000Y-103123000D01*
X155448000Y-101673750D01*
X155289250Y-101515000D01*
X155148691Y-101515000D01*
X155143200Y-101517274D01*
X155143200Y-101384528D01*
X155239838Y-101151799D01*
X155240162Y-100779833D01*
X155143200Y-100545166D01*
X155143200Y-98162926D01*
X155513489Y-98089271D01*
X155999670Y-97764415D01*
X156206461Y-97454931D01*
X156577964Y-97870732D01*
X157105209Y-98124709D01*
X157120974Y-98127358D01*
X157343352Y-98011254D01*
X156548954Y-98805652D01*
X156316057Y-98901883D01*
X156052808Y-99164673D01*
X155910162Y-99508201D01*
X155909838Y-99880167D01*
X156006800Y-100114834D01*
X156006800Y-101517274D01*
X156001309Y-101515000D01*
X155860750Y-101515000D01*
X155702000Y-101673750D01*
X155702000Y-103123000D01*
X155722000Y-103123000D01*
X155722000Y-103377000D01*
X155702000Y-103377000D01*
X155702000Y-104826250D01*
X155860750Y-104985000D01*
X156001309Y-104985000D01*
X156218121Y-104895193D01*
X156293110Y-104946431D01*
X156545000Y-104997440D01*
X157145000Y-104997440D01*
X157380317Y-104953162D01*
X157479528Y-104889322D01*
X157563110Y-104946431D01*
X157815000Y-104997440D01*
X158415000Y-104997440D01*
X158650317Y-104953162D01*
X158749528Y-104889322D01*
X158833110Y-104946431D01*
X159085000Y-104997440D01*
X159180085Y-104997440D01*
X159385000Y-105038200D01*
X159589915Y-104997440D01*
X159685000Y-104997440D01*
X159920317Y-104953162D01*
X160121520Y-104823691D01*
X161125000Y-104823691D01*
X161125000Y-105664250D01*
X161283750Y-105823000D01*
X162433000Y-105823000D01*
X162433000Y-104473750D01*
X162687000Y-104473750D01*
X162687000Y-105823000D01*
X163836250Y-105823000D01*
X163995000Y-105664250D01*
X163995000Y-104823691D01*
X166205000Y-104823691D01*
X166205000Y-105664250D01*
X166363750Y-105823000D01*
X167513000Y-105823000D01*
X167513000Y-104473750D01*
X167767000Y-104473750D01*
X167767000Y-105823000D01*
X168916250Y-105823000D01*
X169075000Y-105664250D01*
X169075000Y-104823691D01*
X168978327Y-104590302D01*
X168799699Y-104411673D01*
X168566310Y-104315000D01*
X167925750Y-104315000D01*
X167767000Y-104473750D01*
X167513000Y-104473750D01*
X167354250Y-104315000D01*
X166713690Y-104315000D01*
X166480301Y-104411673D01*
X166301673Y-104590302D01*
X166205000Y-104823691D01*
X163995000Y-104823691D01*
X163898327Y-104590302D01*
X163719699Y-104411673D01*
X163486310Y-104315000D01*
X162845750Y-104315000D01*
X162687000Y-104473750D01*
X162433000Y-104473750D01*
X162274250Y-104315000D01*
X161633690Y-104315000D01*
X161400301Y-104411673D01*
X161221673Y-104590302D01*
X161125000Y-104823691D01*
X160121520Y-104823691D01*
X160136441Y-104814090D01*
X160281431Y-104601890D01*
X160332440Y-104350000D01*
X160332440Y-102472954D01*
X164621954Y-98183440D01*
X165963600Y-98183440D01*
X166198917Y-98139162D01*
X166415041Y-98000090D01*
X166560031Y-97787890D01*
X166611040Y-97536000D01*
X166611040Y-95504000D01*
X166566762Y-95268683D01*
X166427690Y-95052559D01*
X166215490Y-94907569D01*
X165963600Y-94856560D01*
X164236400Y-94856560D01*
X164001083Y-94900838D01*
X163784959Y-95039910D01*
X163639969Y-95252110D01*
X163631600Y-95293439D01*
X163619670Y-95275585D01*
X163133489Y-94950729D01*
X162560000Y-94836655D01*
X161986511Y-94950729D01*
X161500330Y-95275585D01*
X161290000Y-95590366D01*
X161079670Y-95275585D01*
X160593489Y-94950729D01*
X160020000Y-94836655D01*
X159446511Y-94950729D01*
X158960330Y-95275585D01*
X158753539Y-95585069D01*
X158382036Y-95169268D01*
X157854791Y-94915291D01*
X157839026Y-94912642D01*
X157607000Y-95033783D01*
X157607000Y-96393000D01*
X157627000Y-96393000D01*
X157627000Y-96647000D01*
X157607000Y-96647000D01*
X157607000Y-96667000D01*
X157353000Y-96667000D01*
X157353000Y-96647000D01*
X157333000Y-96647000D01*
X157333000Y-96393000D01*
X157353000Y-96393000D01*
X157353000Y-95033783D01*
X157120974Y-94912642D01*
X157105209Y-94915291D01*
X156577964Y-95169268D01*
X156206461Y-95585069D01*
X155999670Y-95275585D01*
X155513489Y-94950729D01*
X154940000Y-94836655D01*
X154366511Y-94950729D01*
X153880330Y-95275585D01*
X153673539Y-95585069D01*
X153302036Y-95169268D01*
X152774791Y-94915291D01*
X152759026Y-94912642D01*
X152527000Y-95033783D01*
X152527000Y-96393000D01*
X152547000Y-96393000D01*
X152547000Y-96647000D01*
X152527000Y-96647000D01*
X152527000Y-96667000D01*
X152273000Y-96667000D01*
X152273000Y-96647000D01*
X152253000Y-96647000D01*
X152253000Y-96393000D01*
X152273000Y-96393000D01*
X152273000Y-95033783D01*
X152040974Y-94912642D01*
X152025209Y-94915291D01*
X151497964Y-95169268D01*
X151126461Y-95585069D01*
X150919670Y-95275585D01*
X150433489Y-94950729D01*
X149860000Y-94836655D01*
X149286511Y-94950729D01*
X148800330Y-95275585D01*
X148593539Y-95585069D01*
X148222036Y-95169268D01*
X147694791Y-94915291D01*
X147679026Y-94912642D01*
X147447000Y-95033783D01*
X147193000Y-95033783D01*
X146960974Y-94912642D01*
X146945209Y-94915291D01*
X146417964Y-95169268D01*
X146046461Y-95585069D01*
X145839670Y-95275585D01*
X145353489Y-94950729D01*
X144780000Y-94836655D01*
X144206511Y-94950729D01*
X143720330Y-95275585D01*
X143510000Y-95590366D01*
X143299670Y-95275585D01*
X142813489Y-94950729D01*
X142240000Y-94836655D01*
X141666511Y-94950729D01*
X141180330Y-95275585D01*
X140855474Y-95761766D01*
X140741400Y-96335255D01*
X130250000Y-96335255D01*
X130250000Y-94690000D01*
X169470000Y-94690000D01*
X169470000Y-121210000D01*
X169470000Y-121210000D01*
G37*
X169470000Y-121210000D02*
X130250000Y-121210000D01*
X130250000Y-117581244D01*
X130399800Y-117611579D01*
X130399800Y-117937700D01*
X130343109Y-118020670D01*
X130292100Y-118272560D01*
X130292100Y-119471440D01*
X130336378Y-119706757D01*
X130475450Y-119922881D01*
X130687650Y-120067871D01*
X130939540Y-120118880D01*
X132138420Y-120118880D01*
X132373737Y-120074602D01*
X132589861Y-119935530D01*
X132595456Y-119927341D01*
X132677882Y-120009767D01*
X132911271Y-120106440D01*
X133351270Y-120106440D01*
X133510020Y-119947690D01*
X133510020Y-118999000D01*
X133764020Y-118999000D01*
X133764020Y-119947690D01*
X133922770Y-120106440D01*
X134362769Y-120106440D01*
X134596158Y-120009767D01*
X134774787Y-119831139D01*
X134871460Y-119597750D01*
X134871460Y-119157750D01*
X135892540Y-119157750D01*
X135892540Y-119597750D01*
X135989213Y-119831139D01*
X136167842Y-120009767D01*
X136401231Y-120106440D01*
X136841230Y-120106440D01*
X136999980Y-119947690D01*
X136999980Y-118999000D01*
X136051290Y-118999000D01*
X135892540Y-119157750D01*
X134871460Y-119157750D01*
X134712710Y-118999000D01*
X133764020Y-118999000D01*
X133510020Y-118999000D01*
X133490020Y-118999000D01*
X133490020Y-118745000D01*
X133510020Y-118745000D01*
X133510020Y-117796310D01*
X133764020Y-117796310D01*
X133764020Y-118745000D01*
X134712710Y-118745000D01*
X134871460Y-118586250D01*
X134871460Y-118146250D01*
X135892540Y-118146250D01*
X135892540Y-118586250D01*
X136051290Y-118745000D01*
X136999980Y-118745000D01*
X136999980Y-117796310D01*
X136841230Y-117637560D01*
X136401231Y-117637560D01*
X136167842Y-117734233D01*
X135989213Y-117912861D01*
X135892540Y-118146250D01*
X134871460Y-118146250D01*
X134774787Y-117912861D01*
X134596158Y-117734233D01*
X134362769Y-117637560D01*
X133922770Y-117637560D01*
X133764020Y-117796310D01*
X133510020Y-117796310D01*
X133351270Y-117637560D01*
X132911271Y-117637560D01*
X132677882Y-117734233D01*
X132595669Y-117816445D01*
X132390310Y-117676129D01*
X132138420Y-117625120D01*
X132076200Y-117625120D01*
X132076200Y-117612844D01*
X132223317Y-117585162D01*
X132439441Y-117446090D01*
X132584431Y-117233890D01*
X132587081Y-117220803D01*
X132723910Y-117433441D01*
X132936110Y-117578431D01*
X133188000Y-117629440D01*
X134688000Y-117629440D01*
X134923317Y-117585162D01*
X135139441Y-117446090D01*
X135284431Y-117233890D01*
X135335440Y-116982000D01*
X135335440Y-116026834D01*
X135428560Y-116119954D01*
X135428560Y-116982000D01*
X135472838Y-117217317D01*
X135611910Y-117433441D01*
X135824110Y-117578431D01*
X136076000Y-117629440D01*
X137576000Y-117629440D01*
X137811317Y-117585162D01*
X138027441Y-117446090D01*
X138172431Y-117233890D01*
X138175081Y-117220803D01*
X138311910Y-117433441D01*
X138524110Y-117578431D01*
X138687800Y-117611579D01*
X138687800Y-117625120D01*
X138625580Y-117625120D01*
X138390263Y-117669398D01*
X138174139Y-117808470D01*
X138168544Y-117816659D01*
X138086118Y-117734233D01*
X137852729Y-117637560D01*
X137412730Y-117637560D01*
X137253980Y-117796310D01*
X137253980Y-118745000D01*
X137273980Y-118745000D01*
X137273980Y-118999000D01*
X137253980Y-118999000D01*
X137253980Y-119947690D01*
X137412730Y-120106440D01*
X137852729Y-120106440D01*
X138086118Y-120009767D01*
X138168331Y-119927555D01*
X138373690Y-120067871D01*
X138584718Y-120110605D01*
X138650254Y-120154395D01*
X138971020Y-120218200D01*
X139291785Y-120154395D01*
X139344937Y-120118880D01*
X139824460Y-120118880D01*
X140059777Y-120074602D01*
X140275901Y-119935530D01*
X140420891Y-119723330D01*
X140471900Y-119471440D01*
X140471900Y-118364000D01*
X140728960Y-118364000D01*
X140728960Y-120396000D01*
X140773238Y-120631317D01*
X140912310Y-120847441D01*
X141124510Y-120992431D01*
X141376400Y-121043440D01*
X143103600Y-121043440D01*
X143338917Y-120999162D01*
X143555041Y-120860090D01*
X143700031Y-120647890D01*
X143708400Y-120606561D01*
X143720330Y-120624415D01*
X144206511Y-120949271D01*
X144780000Y-121063345D01*
X145353489Y-120949271D01*
X145839670Y-120624415D01*
X146050000Y-120309634D01*
X146260330Y-120624415D01*
X146746511Y-120949271D01*
X147320000Y-121063345D01*
X147893489Y-120949271D01*
X148379670Y-120624415D01*
X148590000Y-120309634D01*
X148800330Y-120624415D01*
X149286511Y-120949271D01*
X149860000Y-121063345D01*
X150433489Y-120949271D01*
X150919670Y-120624415D01*
X151130000Y-120309634D01*
X151340330Y-120624415D01*
X151826511Y-120949271D01*
X152400000Y-121063345D01*
X152973489Y-120949271D01*
X153459670Y-120624415D01*
X153666461Y-120314931D01*
X154037964Y-120730732D01*
X154565209Y-120984709D01*
X154580974Y-120987358D01*
X154813000Y-120866217D01*
X154813000Y-119507000D01*
X154793000Y-119507000D01*
X154793000Y-119253000D01*
X154813000Y-119253000D01*
X154813000Y-119233000D01*
X155067000Y-119233000D01*
X155067000Y-119253000D01*
X155087000Y-119253000D01*
X155087000Y-119507000D01*
X155067000Y-119507000D01*
X155067000Y-120866217D01*
X155299026Y-120987358D01*
X155314791Y-120984709D01*
X155842036Y-120730732D01*
X156213539Y-120314931D01*
X156420330Y-120624415D01*
X156906511Y-120949271D01*
X157480000Y-121063345D01*
X158053489Y-120949271D01*
X158539670Y-120624415D01*
X158750000Y-120309634D01*
X158960330Y-120624415D01*
X159446511Y-120949271D01*
X160020000Y-121063345D01*
X160593489Y-120949271D01*
X161079670Y-120624415D01*
X161290000Y-120309634D01*
X161500330Y-120624415D01*
X161986511Y-120949271D01*
X162560000Y-121063345D01*
X163133489Y-120949271D01*
X163619670Y-120624415D01*
X163830000Y-120309634D01*
X164040330Y-120624415D01*
X164526511Y-120949271D01*
X165100000Y-121063345D01*
X165673489Y-120949271D01*
X166159670Y-120624415D01*
X166484526Y-120138234D01*
X166598600Y-119564745D01*
X166598600Y-119195255D01*
X166484526Y-118621766D01*
X166159670Y-118135585D01*
X165673489Y-117810729D01*
X165100000Y-117696655D01*
X164684664Y-117779270D01*
X160332440Y-113427046D01*
X160332440Y-111550000D01*
X160288162Y-111314683D01*
X160149090Y-111098559D01*
X159936890Y-110953569D01*
X159685000Y-110902560D01*
X159589915Y-110902560D01*
X159385000Y-110861800D01*
X159180085Y-110902560D01*
X159085000Y-110902560D01*
X158849683Y-110946838D01*
X158750472Y-111010678D01*
X158666890Y-110953569D01*
X158415000Y-110902560D01*
X157815000Y-110902560D01*
X157579683Y-110946838D01*
X157480472Y-111010678D01*
X157396890Y-110953569D01*
X157145000Y-110902560D01*
X156545000Y-110902560D01*
X156309683Y-110946838D01*
X156210472Y-111010678D01*
X156126890Y-110953569D01*
X155875000Y-110902560D01*
X155275000Y-110902560D01*
X155039683Y-110946838D01*
X154949019Y-111005179D01*
X154731309Y-110915000D01*
X154590750Y-110915000D01*
X154432000Y-111073750D01*
X154432000Y-112523000D01*
X154452000Y-112523000D01*
X154452000Y-112777000D01*
X154432000Y-112777000D01*
X154432000Y-114226250D01*
X154590750Y-114385000D01*
X154731309Y-114385000D01*
X154736800Y-114382726D01*
X154736800Y-117475000D01*
X154800604Y-117795766D01*
X154812998Y-117814315D01*
X154812998Y-117893782D01*
X154580974Y-117772642D01*
X154565209Y-117775291D01*
X154037964Y-118029268D01*
X153873200Y-118213679D01*
X153873200Y-114382726D01*
X153878691Y-114385000D01*
X154019250Y-114385000D01*
X154178000Y-114226250D01*
X154178000Y-112777000D01*
X154158000Y-112777000D01*
X154158000Y-112523000D01*
X154178000Y-112523000D01*
X154178000Y-111073750D01*
X154019250Y-110915000D01*
X153878691Y-110915000D01*
X153661879Y-111004807D01*
X153586890Y-110953569D01*
X153335000Y-110902560D01*
X152735000Y-110902560D01*
X152499683Y-110946838D01*
X152400472Y-111010678D01*
X152316890Y-110953569D01*
X152065000Y-110902560D01*
X151465000Y-110902560D01*
X151229683Y-110946838D01*
X151130472Y-111010678D01*
X151046890Y-110953569D01*
X150795000Y-110902560D01*
X150195000Y-110902560D01*
X149959683Y-110946838D01*
X149860472Y-111010678D01*
X149776890Y-110953569D01*
X149525000Y-110902560D01*
X148925000Y-110902560D01*
X148689683Y-110946838D01*
X148590472Y-111010678D01*
X148506890Y-110953569D01*
X148255000Y-110902560D01*
X148159915Y-110902560D01*
X147955000Y-110861800D01*
X147750085Y-110902560D01*
X147655000Y-110902560D01*
X147419683Y-110946838D01*
X147203559Y-111085910D01*
X147058569Y-111298110D01*
X147007560Y-111550000D01*
X147007560Y-113427046D01*
X142718046Y-117716560D01*
X141376400Y-117716560D01*
X141141083Y-117760838D01*
X140924959Y-117899910D01*
X140779969Y-118112110D01*
X140728960Y-118364000D01*
X140471900Y-118364000D01*
X140471900Y-118272560D01*
X140427622Y-118037243D01*
X140364200Y-117938682D01*
X140364200Y-117612844D01*
X140511317Y-117585162D01*
X140727441Y-117446090D01*
X140872431Y-117233890D01*
X140923440Y-116982000D01*
X140923440Y-115682000D01*
X140879162Y-115446683D01*
X140740090Y-115230559D01*
X140527890Y-115085569D01*
X140276000Y-115034560D01*
X138776000Y-115034560D01*
X138540683Y-115078838D01*
X138324559Y-115217910D01*
X138179569Y-115430110D01*
X138176919Y-115443197D01*
X138040090Y-115230559D01*
X137827890Y-115085569D01*
X137576000Y-115034560D01*
X136713954Y-115034560D01*
X136093200Y-114413806D01*
X136093200Y-114084528D01*
X136189838Y-113851799D01*
X136190162Y-113479833D01*
X136093200Y-113245166D01*
X136093200Y-112310172D01*
X136144691Y-112331500D01*
X136239250Y-112331500D01*
X136398000Y-112172750D01*
X136398000Y-111252000D01*
X136652000Y-111252000D01*
X136652000Y-112172750D01*
X136810750Y-112331500D01*
X136905309Y-112331500D01*
X137138698Y-112234827D01*
X137317327Y-112056199D01*
X137414000Y-111822810D01*
X137414000Y-111410750D01*
X137255250Y-111252000D01*
X136652000Y-111252000D01*
X136398000Y-111252000D01*
X136378000Y-111252000D01*
X136378000Y-110998000D01*
X136398000Y-110998000D01*
X136398000Y-110077250D01*
X136652000Y-110077250D01*
X136652000Y-110998000D01*
X137255250Y-110998000D01*
X137414000Y-110839250D01*
X137414000Y-110427190D01*
X137334703Y-110235750D01*
X138265000Y-110235750D01*
X138265000Y-111076309D01*
X138361673Y-111309698D01*
X138540301Y-111488327D01*
X138773690Y-111585000D01*
X139414250Y-111585000D01*
X139573000Y-111426250D01*
X139573000Y-110077000D01*
X139827000Y-110077000D01*
X139827000Y-111426250D01*
X139985750Y-111585000D01*
X140626310Y-111585000D01*
X140859699Y-111488327D01*
X141038327Y-111309698D01*
X141135000Y-111076309D01*
X141135000Y-110235750D01*
X143345000Y-110235750D01*
X143345000Y-111076309D01*
X143441673Y-111309698D01*
X143620301Y-111488327D01*
X143853690Y-111585000D01*
X144494250Y-111585000D01*
X144653000Y-111426250D01*
X144653000Y-110077000D01*
X144907000Y-110077000D01*
X144907000Y-111426250D01*
X145065750Y-111585000D01*
X145706310Y-111585000D01*
X145939699Y-111488327D01*
X146118327Y-111309698D01*
X146215000Y-111076309D01*
X146215000Y-110235750D01*
X146056250Y-110077000D01*
X144907000Y-110077000D01*
X144653000Y-110077000D01*
X143503750Y-110077000D01*
X143345000Y-110235750D01*
X141135000Y-110235750D01*
X140976250Y-110077000D01*
X139827000Y-110077000D01*
X139573000Y-110077000D01*
X138423750Y-110077000D01*
X138265000Y-110235750D01*
X137334703Y-110235750D01*
X137317327Y-110193801D01*
X137138698Y-110015173D01*
X136905309Y-109918500D01*
X136810750Y-109918500D01*
X136652000Y-110077250D01*
X136398000Y-110077250D01*
X136239250Y-109918500D01*
X136144691Y-109918500D01*
X135911302Y-110015173D01*
X135884765Y-110041709D01*
X135760890Y-109957069D01*
X135509000Y-109906060D01*
X135001000Y-109906060D01*
X134765683Y-109950338D01*
X134619093Y-110044666D01*
X134490890Y-109957069D01*
X134239000Y-109906060D01*
X133731000Y-109906060D01*
X133495683Y-109950338D01*
X133349093Y-110044666D01*
X133220890Y-109957069D01*
X132969000Y-109906060D01*
X132461000Y-109906060D01*
X132225683Y-109950338D01*
X132009559Y-110089410D01*
X131864569Y-110301610D01*
X131813560Y-110553500D01*
X131813560Y-111696500D01*
X131857838Y-111931817D01*
X131996910Y-112147941D01*
X132209110Y-112292931D01*
X132461000Y-112343940D01*
X132969000Y-112343940D01*
X133146800Y-112310485D01*
X133146800Y-113245472D01*
X133050162Y-113478201D01*
X133049838Y-113850167D01*
X133146800Y-114084834D01*
X133146800Y-115042312D01*
X132952683Y-115078838D01*
X132736559Y-115217910D01*
X132591569Y-115430110D01*
X132588919Y-115443197D01*
X132452090Y-115230559D01*
X132239890Y-115085569D01*
X131988000Y-115034560D01*
X130488000Y-115034560D01*
X130252683Y-115078838D01*
X130250000Y-115080564D01*
X130250000Y-108823691D01*
X138265000Y-108823691D01*
X138265000Y-109664250D01*
X138423750Y-109823000D01*
X139573000Y-109823000D01*
X139573000Y-108473750D01*
X139827000Y-108473750D01*
X139827000Y-109823000D01*
X140976250Y-109823000D01*
X141135000Y-109664250D01*
X141135000Y-108823691D01*
X143345000Y-108823691D01*
X143345000Y-109664250D01*
X143503750Y-109823000D01*
X144653000Y-109823000D01*
X144653000Y-108473750D01*
X144907000Y-108473750D01*
X144907000Y-109823000D01*
X146056250Y-109823000D01*
X146215000Y-109664250D01*
X146215000Y-108823691D01*
X146118327Y-108590302D01*
X145939699Y-108411673D01*
X145706310Y-108315000D01*
X145065750Y-108315000D01*
X144907000Y-108473750D01*
X144653000Y-108473750D01*
X144494250Y-108315000D01*
X143853690Y-108315000D01*
X143620301Y-108411673D01*
X143441673Y-108590302D01*
X143345000Y-108823691D01*
X141135000Y-108823691D01*
X141038327Y-108590302D01*
X140859699Y-108411673D01*
X140626310Y-108315000D01*
X139985750Y-108315000D01*
X139827000Y-108473750D01*
X139573000Y-108473750D01*
X139414250Y-108315000D01*
X138773690Y-108315000D01*
X138540301Y-108411673D01*
X138361673Y-108590302D01*
X138265000Y-108823691D01*
X130250000Y-108823691D01*
X130250000Y-104203500D01*
X131813560Y-104203500D01*
X131813560Y-105346500D01*
X131857838Y-105581817D01*
X131996910Y-105797941D01*
X132209110Y-105942931D01*
X132461000Y-105993940D01*
X132969000Y-105993940D01*
X133204317Y-105949662D01*
X133350907Y-105855334D01*
X133479110Y-105942931D01*
X133731000Y-105993940D01*
X134239000Y-105993940D01*
X134416800Y-105960485D01*
X134416800Y-106045000D01*
X134480604Y-106365766D01*
X134662303Y-106637697D01*
X135297303Y-107272697D01*
X135569235Y-107454396D01*
X135890000Y-107518200D01*
X138606793Y-107518200D01*
X138648110Y-107546431D01*
X138900000Y-107597440D01*
X140500000Y-107597440D01*
X140735317Y-107553162D01*
X140951441Y-107414090D01*
X141096431Y-107201890D01*
X141147440Y-106950000D01*
X141147440Y-106788200D01*
X143332560Y-106788200D01*
X143332560Y-106950000D01*
X143376838Y-107185317D01*
X143515910Y-107401441D01*
X143728110Y-107546431D01*
X143980000Y-107597440D01*
X145580000Y-107597440D01*
X145815317Y-107553162D01*
X146031441Y-107414090D01*
X146176431Y-107201890D01*
X146227440Y-106950000D01*
X146227440Y-104950000D01*
X146183162Y-104714683D01*
X146044090Y-104498559D01*
X145831890Y-104353569D01*
X145580000Y-104302560D01*
X143980000Y-104302560D01*
X143744683Y-104346838D01*
X143528559Y-104485910D01*
X143383569Y-104698110D01*
X143332560Y-104950000D01*
X143332560Y-105111800D01*
X141147440Y-105111800D01*
X141147440Y-104950000D01*
X141103162Y-104714683D01*
X140964090Y-104498559D01*
X140751890Y-104353569D01*
X140500000Y-104302560D01*
X138900000Y-104302560D01*
X138664683Y-104346838D01*
X138448559Y-104485910D01*
X138303569Y-104698110D01*
X138252560Y-104950000D01*
X138252560Y-105841800D01*
X137181939Y-105841800D01*
X137230441Y-105810590D01*
X137375431Y-105598390D01*
X137426440Y-105346500D01*
X137426440Y-104203500D01*
X137382162Y-103968183D01*
X137243090Y-103752059D01*
X137030890Y-103607069D01*
X136779000Y-103556060D01*
X136271000Y-103556060D01*
X136093200Y-103589515D01*
X136093200Y-102582194D01*
X136821046Y-101854348D01*
X137053943Y-101758117D01*
X137317192Y-101495327D01*
X137459838Y-101151799D01*
X137460162Y-100779833D01*
X137318117Y-100436057D01*
X137055327Y-100172808D01*
X136711799Y-100030162D01*
X136339833Y-100029838D01*
X135996057Y-100171883D01*
X135732808Y-100434673D01*
X135635436Y-100669170D01*
X134662303Y-101642303D01*
X134480604Y-101914234D01*
X134416800Y-102235000D01*
X134416800Y-103592065D01*
X134239000Y-103556060D01*
X133731000Y-103556060D01*
X133495683Y-103600338D01*
X133349093Y-103694666D01*
X133220890Y-103607069D01*
X132969000Y-103556060D01*
X132461000Y-103556060D01*
X132225683Y-103600338D01*
X132009559Y-103739410D01*
X131864569Y-103951610D01*
X131813560Y-104203500D01*
X130250000Y-104203500D01*
X130250000Y-96335255D01*
X140741400Y-96335255D01*
X140741400Y-96704745D01*
X140855474Y-97278234D01*
X141180330Y-97764415D01*
X141666511Y-98089271D01*
X142240000Y-98203345D01*
X142655336Y-98120730D01*
X147007560Y-102472954D01*
X147007560Y-104350000D01*
X147051838Y-104585317D01*
X147190910Y-104801441D01*
X147403110Y-104946431D01*
X147655000Y-104997440D01*
X147750085Y-104997440D01*
X147955000Y-105038200D01*
X148159915Y-104997440D01*
X148255000Y-104997440D01*
X148490317Y-104953162D01*
X148589528Y-104889322D01*
X148673110Y-104946431D01*
X148925000Y-104997440D01*
X149525000Y-104997440D01*
X149760317Y-104953162D01*
X149850981Y-104894821D01*
X150068691Y-104985000D01*
X150209250Y-104985000D01*
X150368000Y-104826250D01*
X150368000Y-103377000D01*
X150348000Y-103377000D01*
X150348000Y-103123000D01*
X150368000Y-103123000D01*
X150368000Y-101673750D01*
X150209250Y-101515000D01*
X150068691Y-101515000D01*
X150063200Y-101517274D01*
X150063200Y-100114528D01*
X150159838Y-99881799D01*
X150160162Y-99509833D01*
X150018117Y-99166057D01*
X149755327Y-98902808D01*
X149411799Y-98760162D01*
X149039833Y-98759838D01*
X148696057Y-98901883D01*
X148432808Y-99164673D01*
X148290162Y-99508201D01*
X148289838Y-99880167D01*
X148386800Y-100114834D01*
X148386800Y-101481406D01*
X145054198Y-98148804D01*
X145353489Y-98089271D01*
X145839670Y-97764415D01*
X146046461Y-97454931D01*
X146417964Y-97870732D01*
X146945209Y-98124709D01*
X146960974Y-98127358D01*
X147193000Y-98006217D01*
X147193000Y-96647000D01*
X147173000Y-96647000D01*
X147173000Y-96393000D01*
X147193000Y-96393000D01*
X147193000Y-95033783D01*
X147447000Y-95033783D01*
X147447000Y-96393000D01*
X147467000Y-96393000D01*
X147467000Y-96647000D01*
X147447000Y-96647000D01*
X147447000Y-98006217D01*
X147679026Y-98127358D01*
X147694791Y-98124709D01*
X148222036Y-97870732D01*
X148593539Y-97454931D01*
X148800330Y-97764415D01*
X149286511Y-98089271D01*
X149860000Y-98203345D01*
X150275336Y-98120730D01*
X150926800Y-98772194D01*
X150926800Y-101517274D01*
X150921309Y-101515000D01*
X150780750Y-101515000D01*
X150622000Y-101673750D01*
X150622000Y-103123000D01*
X150642000Y-103123000D01*
X150642000Y-103377000D01*
X150622000Y-103377000D01*
X150622000Y-104826250D01*
X150780750Y-104985000D01*
X150921309Y-104985000D01*
X150926800Y-104982726D01*
X150926800Y-106045000D01*
X150990604Y-106365766D01*
X151172303Y-106637697D01*
X153807303Y-109272697D01*
X154079234Y-109454396D01*
X154400000Y-109518200D01*
X154720765Y-109454396D01*
X154767453Y-109423200D01*
X160847806Y-109423200D01*
X161112560Y-109687954D01*
X161112560Y-110950000D01*
X161156838Y-111185317D01*
X161295910Y-111401441D01*
X161508110Y-111546431D01*
X161760000Y-111597440D01*
X163360000Y-111597440D01*
X163595317Y-111553162D01*
X163811441Y-111414090D01*
X163956431Y-111201890D01*
X164007440Y-110950000D01*
X164007440Y-110788200D01*
X166192560Y-110788200D01*
X166192560Y-110950000D01*
X166236838Y-111185317D01*
X166375910Y-111401441D01*
X166588110Y-111546431D01*
X166840000Y-111597440D01*
X168440000Y-111597440D01*
X168675317Y-111553162D01*
X168891441Y-111414090D01*
X169036431Y-111201890D01*
X169087440Y-110950000D01*
X169087440Y-108950000D01*
X169043162Y-108714683D01*
X168904090Y-108498559D01*
X168691890Y-108353569D01*
X168440000Y-108302560D01*
X166840000Y-108302560D01*
X166604683Y-108346838D01*
X166388559Y-108485910D01*
X166243569Y-108698110D01*
X166192560Y-108950000D01*
X166192560Y-109111800D01*
X164007440Y-109111800D01*
X164007440Y-108950000D01*
X163963162Y-108714683D01*
X163824090Y-108498559D01*
X163611890Y-108353569D01*
X163360000Y-108302560D01*
X162097954Y-108302560D01*
X161787697Y-107992303D01*
X161515766Y-107810604D01*
X161195000Y-107746800D01*
X154652194Y-107746800D01*
X153141144Y-106235750D01*
X161125000Y-106235750D01*
X161125000Y-107076309D01*
X161221673Y-107309698D01*
X161400301Y-107488327D01*
X161633690Y-107585000D01*
X162274250Y-107585000D01*
X162433000Y-107426250D01*
X162433000Y-106077000D01*
X162687000Y-106077000D01*
X162687000Y-107426250D01*
X162845750Y-107585000D01*
X163486310Y-107585000D01*
X163719699Y-107488327D01*
X163898327Y-107309698D01*
X163995000Y-107076309D01*
X163995000Y-106235750D01*
X166205000Y-106235750D01*
X166205000Y-107076309D01*
X166301673Y-107309698D01*
X166480301Y-107488327D01*
X166713690Y-107585000D01*
X167354250Y-107585000D01*
X167513000Y-107426250D01*
X167513000Y-106077000D01*
X167767000Y-106077000D01*
X167767000Y-107426250D01*
X167925750Y-107585000D01*
X168566310Y-107585000D01*
X168799699Y-107488327D01*
X168978327Y-107309698D01*
X169075000Y-107076309D01*
X169075000Y-106235750D01*
X168916250Y-106077000D01*
X167767000Y-106077000D01*
X167513000Y-106077000D01*
X166363750Y-106077000D01*
X166205000Y-106235750D01*
X163995000Y-106235750D01*
X163836250Y-106077000D01*
X162687000Y-106077000D01*
X162433000Y-106077000D01*
X161283750Y-106077000D01*
X161125000Y-106235750D01*
X153141144Y-106235750D01*
X152603200Y-105697806D01*
X152603200Y-104982726D01*
X152608691Y-104985000D01*
X152749250Y-104985000D01*
X152908000Y-104826250D01*
X152908000Y-103377000D01*
X152888000Y-103377000D01*
X152888000Y-103123000D01*
X152908000Y-103123000D01*
X152908000Y-101673750D01*
X152749250Y-101515000D01*
X152608691Y-101515000D01*
X152603200Y-101517274D01*
X152603200Y-98425000D01*
X152539396Y-98104235D01*
X152527002Y-98085686D01*
X152527002Y-98006218D01*
X152759026Y-98127358D01*
X152774791Y-98124709D01*
X153302036Y-97870732D01*
X153466800Y-97686321D01*
X153466800Y-100545472D01*
X153370162Y-100778201D01*
X153369838Y-101150167D01*
X153466800Y-101384834D01*
X153466800Y-101517274D01*
X153461309Y-101515000D01*
X153320750Y-101515000D01*
X153162000Y-101673750D01*
X153162000Y-103123000D01*
X153182000Y-103123000D01*
X153182000Y-103377000D01*
X153162000Y-103377000D01*
X153162000Y-104826250D01*
X153320750Y-104985000D01*
X153461309Y-104985000D01*
X153678121Y-104895193D01*
X153753110Y-104946431D01*
X154005000Y-104997440D01*
X154100085Y-104997440D01*
X154305000Y-105038200D01*
X154509915Y-104997440D01*
X154605000Y-104997440D01*
X154840317Y-104953162D01*
X154930981Y-104894821D01*
X155148691Y-104985000D01*
X155289250Y-104985000D01*
X155448000Y-104826250D01*
X155448000Y-103377000D01*
X155428000Y-103377000D01*
X155428000Y-103123000D01*
X155448000Y-103123000D01*
X155448000Y-101673750D01*
X155289250Y-101515000D01*
X155148691Y-101515000D01*
X155143200Y-101517274D01*
X155143200Y-101384528D01*
X155239838Y-101151799D01*
X155240162Y-100779833D01*
X155143200Y-100545166D01*
X155143200Y-98162926D01*
X155513489Y-98089271D01*
X155999670Y-97764415D01*
X156206461Y-97454931D01*
X156577964Y-97870732D01*
X157105209Y-98124709D01*
X157120974Y-98127358D01*
X157343352Y-98011254D01*
X156548954Y-98805652D01*
X156316057Y-98901883D01*
X156052808Y-99164673D01*
X155910162Y-99508201D01*
X155909838Y-99880167D01*
X156006800Y-100114834D01*
X156006800Y-101517274D01*
X156001309Y-101515000D01*
X155860750Y-101515000D01*
X155702000Y-101673750D01*
X155702000Y-103123000D01*
X155722000Y-103123000D01*
X155722000Y-103377000D01*
X155702000Y-103377000D01*
X155702000Y-104826250D01*
X155860750Y-104985000D01*
X156001309Y-104985000D01*
X156218121Y-104895193D01*
X156293110Y-104946431D01*
X156545000Y-104997440D01*
X157145000Y-104997440D01*
X157380317Y-104953162D01*
X157479528Y-104889322D01*
X157563110Y-104946431D01*
X157815000Y-104997440D01*
X158415000Y-104997440D01*
X158650317Y-104953162D01*
X158749528Y-104889322D01*
X158833110Y-104946431D01*
X159085000Y-104997440D01*
X159180085Y-104997440D01*
X159385000Y-105038200D01*
X159589915Y-104997440D01*
X159685000Y-104997440D01*
X159920317Y-104953162D01*
X160121520Y-104823691D01*
X161125000Y-104823691D01*
X161125000Y-105664250D01*
X161283750Y-105823000D01*
X162433000Y-105823000D01*
X162433000Y-104473750D01*
X162687000Y-104473750D01*
X162687000Y-105823000D01*
X163836250Y-105823000D01*
X163995000Y-105664250D01*
X163995000Y-104823691D01*
X166205000Y-104823691D01*
X166205000Y-105664250D01*
X166363750Y-105823000D01*
X167513000Y-105823000D01*
X167513000Y-104473750D01*
X167767000Y-104473750D01*
X167767000Y-105823000D01*
X168916250Y-105823000D01*
X169075000Y-105664250D01*
X169075000Y-104823691D01*
X168978327Y-104590302D01*
X168799699Y-104411673D01*
X168566310Y-104315000D01*
X167925750Y-104315000D01*
X167767000Y-104473750D01*
X167513000Y-104473750D01*
X167354250Y-104315000D01*
X166713690Y-104315000D01*
X166480301Y-104411673D01*
X166301673Y-104590302D01*
X166205000Y-104823691D01*
X163995000Y-104823691D01*
X163898327Y-104590302D01*
X163719699Y-104411673D01*
X163486310Y-104315000D01*
X162845750Y-104315000D01*
X162687000Y-104473750D01*
X162433000Y-104473750D01*
X162274250Y-104315000D01*
X161633690Y-104315000D01*
X161400301Y-104411673D01*
X161221673Y-104590302D01*
X161125000Y-104823691D01*
X160121520Y-104823691D01*
X160136441Y-104814090D01*
X160281431Y-104601890D01*
X160332440Y-104350000D01*
X160332440Y-102472954D01*
X164621954Y-98183440D01*
X165963600Y-98183440D01*
X166198917Y-98139162D01*
X166415041Y-98000090D01*
X166560031Y-97787890D01*
X166611040Y-97536000D01*
X166611040Y-95504000D01*
X166566762Y-95268683D01*
X166427690Y-95052559D01*
X166215490Y-94907569D01*
X165963600Y-94856560D01*
X164236400Y-94856560D01*
X164001083Y-94900838D01*
X163784959Y-95039910D01*
X163639969Y-95252110D01*
X163631600Y-95293439D01*
X163619670Y-95275585D01*
X163133489Y-94950729D01*
X162560000Y-94836655D01*
X161986511Y-94950729D01*
X161500330Y-95275585D01*
X161290000Y-95590366D01*
X161079670Y-95275585D01*
X160593489Y-94950729D01*
X160020000Y-94836655D01*
X159446511Y-94950729D01*
X158960330Y-95275585D01*
X158753539Y-95585069D01*
X158382036Y-95169268D01*
X157854791Y-94915291D01*
X157839026Y-94912642D01*
X157607000Y-95033783D01*
X157607000Y-96393000D01*
X157627000Y-96393000D01*
X157627000Y-96647000D01*
X157607000Y-96647000D01*
X157607000Y-96667000D01*
X157353000Y-96667000D01*
X157353000Y-96647000D01*
X157333000Y-96647000D01*
X157333000Y-96393000D01*
X157353000Y-96393000D01*
X157353000Y-95033783D01*
X157120974Y-94912642D01*
X157105209Y-94915291D01*
X156577964Y-95169268D01*
X156206461Y-95585069D01*
X155999670Y-95275585D01*
X155513489Y-94950729D01*
X154940000Y-94836655D01*
X154366511Y-94950729D01*
X153880330Y-95275585D01*
X153673539Y-95585069D01*
X153302036Y-95169268D01*
X152774791Y-94915291D01*
X152759026Y-94912642D01*
X152527000Y-95033783D01*
X152527000Y-96393000D01*
X152547000Y-96393000D01*
X152547000Y-96647000D01*
X152527000Y-96647000D01*
X152527000Y-96667000D01*
X152273000Y-96667000D01*
X152273000Y-96647000D01*
X152253000Y-96647000D01*
X152253000Y-96393000D01*
X152273000Y-96393000D01*
X152273000Y-95033783D01*
X152040974Y-94912642D01*
X152025209Y-94915291D01*
X151497964Y-95169268D01*
X151126461Y-95585069D01*
X150919670Y-95275585D01*
X150433489Y-94950729D01*
X149860000Y-94836655D01*
X149286511Y-94950729D01*
X148800330Y-95275585D01*
X148593539Y-95585069D01*
X148222036Y-95169268D01*
X147694791Y-94915291D01*
X147679026Y-94912642D01*
X147447000Y-95033783D01*
X147193000Y-95033783D01*
X146960974Y-94912642D01*
X146945209Y-94915291D01*
X146417964Y-95169268D01*
X146046461Y-95585069D01*
X145839670Y-95275585D01*
X145353489Y-94950729D01*
X144780000Y-94836655D01*
X144206511Y-94950729D01*
X143720330Y-95275585D01*
X143510000Y-95590366D01*
X143299670Y-95275585D01*
X142813489Y-94950729D01*
X142240000Y-94836655D01*
X141666511Y-94950729D01*
X141180330Y-95275585D01*
X140855474Y-95761766D01*
X140741400Y-96335255D01*
X130250000Y-96335255D01*
X130250000Y-94690000D01*
X169470000Y-94690000D01*
X169470000Y-121210000D01*
M02*
