G04 #@! TF.FileFunction,Legend,Top*
%FSLAX46Y46*%
G04 Gerber Fmt 4.6, Leading zero omitted, Abs format (unit mm)*
G04 Created by KiCad (PCBNEW 4.0.6) date 03/10/17 18:33:18*
%MOMM*%
%LPD*%
G01*
G04 APERTURE LIST*
%ADD10C,0.150000*%
%ADD11C,0.250000*%
%ADD12C,0.100000*%
G04 APERTURE END LIST*
D10*
D11*
X140053572Y-67348214D02*
X139636905Y-67348214D01*
X139636905Y-68002976D02*
X139636905Y-66752976D01*
X140232143Y-66752976D01*
X140529763Y-66752976D02*
X141244048Y-66752976D01*
X140886905Y-68002976D02*
X140886905Y-66752976D01*
X141601191Y-66872024D02*
X141660715Y-66812500D01*
X141779763Y-66752976D01*
X142077382Y-66752976D01*
X142196429Y-66812500D01*
X142255953Y-66872024D01*
X142315477Y-66991071D01*
X142315477Y-67110119D01*
X142255953Y-67288690D01*
X141541667Y-68002976D01*
X142315477Y-68002976D01*
X142732143Y-66752976D02*
X143505953Y-66752976D01*
X143089286Y-67229167D01*
X143267858Y-67229167D01*
X143386905Y-67288690D01*
X143446429Y-67348214D01*
X143505953Y-67467262D01*
X143505953Y-67764881D01*
X143446429Y-67883929D01*
X143386905Y-67943452D01*
X143267858Y-68002976D01*
X142910715Y-68002976D01*
X142791667Y-67943452D01*
X142732143Y-67883929D01*
X144279762Y-66752976D02*
X144398810Y-66752976D01*
X144517858Y-66812500D01*
X144577381Y-66872024D01*
X144636905Y-66991071D01*
X144696429Y-67229167D01*
X144696429Y-67526786D01*
X144636905Y-67764881D01*
X144577381Y-67883929D01*
X144517858Y-67943452D01*
X144398810Y-68002976D01*
X144279762Y-68002976D01*
X144160715Y-67943452D01*
X144101191Y-67883929D01*
X144041667Y-67764881D01*
X143982143Y-67526786D01*
X143982143Y-67229167D01*
X144041667Y-66991071D01*
X144101191Y-66872024D01*
X144160715Y-66812500D01*
X144279762Y-66752976D01*
X145113095Y-66752976D02*
X145946429Y-68002976D01*
X145946429Y-66752976D02*
X145113095Y-68002976D01*
X147375000Y-66752976D02*
X147375000Y-67764881D01*
X147434524Y-67883929D01*
X147494048Y-67943452D01*
X147613095Y-68002976D01*
X147851191Y-68002976D01*
X147970238Y-67943452D01*
X148029762Y-67883929D01*
X148089286Y-67764881D01*
X148089286Y-66752976D01*
X148625000Y-67645833D02*
X149220238Y-67645833D01*
X148505953Y-68002976D02*
X148922619Y-66752976D01*
X149339286Y-68002976D01*
X150470239Y-68002976D02*
X150053572Y-67407738D01*
X149755953Y-68002976D02*
X149755953Y-66752976D01*
X150232144Y-66752976D01*
X150351191Y-66812500D01*
X150410715Y-66872024D01*
X150470239Y-66991071D01*
X150470239Y-67169643D01*
X150410715Y-67288690D01*
X150351191Y-67348214D01*
X150232144Y-67407738D01*
X149755953Y-67407738D01*
X150827382Y-66752976D02*
X151541667Y-66752976D01*
X151184524Y-68002976D02*
X151184524Y-66752976D01*
X140261906Y-70127976D02*
X139547620Y-70127976D01*
X139904763Y-70127976D02*
X139904763Y-68877976D01*
X139785715Y-69056548D01*
X139666668Y-69175595D01*
X139547620Y-69235119D01*
X141035715Y-68877976D02*
X141154763Y-68877976D01*
X141273811Y-68937500D01*
X141333334Y-68997024D01*
X141392858Y-69116071D01*
X141452382Y-69354167D01*
X141452382Y-69651786D01*
X141392858Y-69889881D01*
X141333334Y-70008929D01*
X141273811Y-70068452D01*
X141154763Y-70127976D01*
X141035715Y-70127976D01*
X140916668Y-70068452D01*
X140857144Y-70008929D01*
X140797620Y-69889881D01*
X140738096Y-69651786D01*
X140738096Y-69354167D01*
X140797620Y-69116071D01*
X140857144Y-68997024D01*
X140916668Y-68937500D01*
X141035715Y-68877976D01*
X142940477Y-70127976D02*
X142940477Y-68877976D01*
X143357144Y-69770833D01*
X143773810Y-68877976D01*
X143773810Y-70127976D01*
X144904762Y-70127976D02*
X144904762Y-69473214D01*
X144845239Y-69354167D01*
X144726191Y-69294643D01*
X144488096Y-69294643D01*
X144369048Y-69354167D01*
X144904762Y-70068452D02*
X144785715Y-70127976D01*
X144488096Y-70127976D01*
X144369048Y-70068452D01*
X144309524Y-69949405D01*
X144309524Y-69830357D01*
X144369048Y-69711310D01*
X144488096Y-69651786D01*
X144785715Y-69651786D01*
X144904762Y-69592262D01*
X145500000Y-70127976D02*
X145500000Y-69294643D01*
X145500000Y-69532738D02*
X145559524Y-69413690D01*
X145619048Y-69354167D01*
X145738095Y-69294643D01*
X145857143Y-69294643D01*
X147166667Y-68997024D02*
X147226191Y-68937500D01*
X147345239Y-68877976D01*
X147642858Y-68877976D01*
X147761905Y-68937500D01*
X147821429Y-68997024D01*
X147880953Y-69116071D01*
X147880953Y-69235119D01*
X147821429Y-69413690D01*
X147107143Y-70127976D01*
X147880953Y-70127976D01*
X148654762Y-68877976D02*
X148773810Y-68877976D01*
X148892858Y-68937500D01*
X148952381Y-68997024D01*
X149011905Y-69116071D01*
X149071429Y-69354167D01*
X149071429Y-69651786D01*
X149011905Y-69889881D01*
X148952381Y-70008929D01*
X148892858Y-70068452D01*
X148773810Y-70127976D01*
X148654762Y-70127976D01*
X148535715Y-70068452D01*
X148476191Y-70008929D01*
X148416667Y-69889881D01*
X148357143Y-69651786D01*
X148357143Y-69354167D01*
X148416667Y-69116071D01*
X148476191Y-68997024D01*
X148535715Y-68937500D01*
X148654762Y-68877976D01*
X150261905Y-70127976D02*
X149547619Y-70127976D01*
X149904762Y-70127976D02*
X149904762Y-68877976D01*
X149785714Y-69056548D01*
X149666667Y-69175595D01*
X149547619Y-69235119D01*
X150678571Y-68877976D02*
X151511905Y-68877976D01*
X150976190Y-70127976D01*
D10*
X175761905Y-89452381D02*
X175428571Y-88976190D01*
X175190476Y-89452381D02*
X175190476Y-88452381D01*
X175571429Y-88452381D01*
X175666667Y-88500000D01*
X175714286Y-88547619D01*
X175761905Y-88642857D01*
X175761905Y-88785714D01*
X175714286Y-88880952D01*
X175666667Y-88928571D01*
X175571429Y-88976190D01*
X175190476Y-88976190D01*
X176571429Y-89404762D02*
X176476191Y-89452381D01*
X176285714Y-89452381D01*
X176190476Y-89404762D01*
X176142857Y-89309524D01*
X176142857Y-88928571D01*
X176190476Y-88833333D01*
X176285714Y-88785714D01*
X176476191Y-88785714D01*
X176571429Y-88833333D01*
X176619048Y-88928571D01*
X176619048Y-89023810D01*
X176142857Y-89119048D01*
X177000000Y-89404762D02*
X177095238Y-89452381D01*
X177285714Y-89452381D01*
X177380953Y-89404762D01*
X177428572Y-89309524D01*
X177428572Y-89261905D01*
X177380953Y-89166667D01*
X177285714Y-89119048D01*
X177142857Y-89119048D01*
X177047619Y-89071429D01*
X177000000Y-88976190D01*
X177000000Y-88928571D01*
X177047619Y-88833333D01*
X177142857Y-88785714D01*
X177285714Y-88785714D01*
X177380953Y-88833333D01*
X178238096Y-89404762D02*
X178142858Y-89452381D01*
X177952381Y-89452381D01*
X177857143Y-89404762D01*
X177809524Y-89309524D01*
X177809524Y-88928571D01*
X177857143Y-88833333D01*
X177952381Y-88785714D01*
X178142858Y-88785714D01*
X178238096Y-88833333D01*
X178285715Y-88928571D01*
X178285715Y-89023810D01*
X177809524Y-89119048D01*
X178571429Y-88785714D02*
X178952381Y-88785714D01*
X178714286Y-88452381D02*
X178714286Y-89309524D01*
X178761905Y-89404762D01*
X178857143Y-89452381D01*
X178952381Y-89452381D01*
D11*
X176885714Y-71998810D02*
X177419047Y-73598810D01*
X177952381Y-71998810D01*
X179171429Y-73598810D02*
X179171429Y-71998810D01*
X179171429Y-73522619D02*
X179019048Y-73598810D01*
X178714286Y-73598810D01*
X178561905Y-73522619D01*
X178485714Y-73446429D01*
X178409524Y-73294048D01*
X178409524Y-72836905D01*
X178485714Y-72684524D01*
X178561905Y-72608333D01*
X178714286Y-72532143D01*
X179019048Y-72532143D01*
X179171429Y-72608333D01*
X180619048Y-73598810D02*
X180619048Y-71998810D01*
X180619048Y-73522619D02*
X180466667Y-73598810D01*
X180161905Y-73598810D01*
X180009524Y-73522619D01*
X179933333Y-73446429D01*
X179857143Y-73294048D01*
X179857143Y-72836905D01*
X179933333Y-72684524D01*
X180009524Y-72608333D01*
X180161905Y-72532143D01*
X180466667Y-72532143D01*
X180619048Y-72608333D01*
X176809523Y-74648810D02*
X177723809Y-74648810D01*
X177266666Y-76248810D02*
X177266666Y-74648810D01*
X178104761Y-74648810D02*
X179171428Y-76248810D01*
X179171428Y-74648810D02*
X178104761Y-76248810D01*
X179780952Y-76248810D02*
X179780952Y-74648810D01*
X180161905Y-74648810D01*
X180390476Y-74725000D01*
X180542857Y-74877381D01*
X180619048Y-75029762D01*
X180695238Y-75334524D01*
X180695238Y-75563095D01*
X180619048Y-75867857D01*
X180542857Y-76020238D01*
X180390476Y-76172619D01*
X180161905Y-76248810D01*
X179780952Y-76248810D01*
X177571428Y-78898810D02*
X177038095Y-78136905D01*
X176657142Y-78898810D02*
X176657142Y-77298810D01*
X177266666Y-77298810D01*
X177419047Y-77375000D01*
X177495238Y-77451190D01*
X177571428Y-77603571D01*
X177571428Y-77832143D01*
X177495238Y-77984524D01*
X177419047Y-78060714D01*
X177266666Y-78136905D01*
X176657142Y-78136905D01*
X178104761Y-77298810D02*
X179171428Y-78898810D01*
X179171428Y-77298810D02*
X178104761Y-78898810D01*
X179780952Y-78898810D02*
X179780952Y-77298810D01*
X180161905Y-77298810D01*
X180390476Y-77375000D01*
X180542857Y-77527381D01*
X180619048Y-77679762D01*
X180695238Y-77984524D01*
X180695238Y-78213095D01*
X180619048Y-78517857D01*
X180542857Y-78670238D01*
X180390476Y-78822619D01*
X180161905Y-78898810D01*
X179780952Y-78898810D01*
X177952380Y-81548810D02*
X177419047Y-80786905D01*
X177038094Y-81548810D02*
X177038094Y-79948810D01*
X177647618Y-79948810D01*
X177799999Y-80025000D01*
X177876190Y-80101190D01*
X177952380Y-80253571D01*
X177952380Y-80482143D01*
X177876190Y-80634524D01*
X177799999Y-80710714D01*
X177647618Y-80786905D01*
X177038094Y-80786905D01*
X178409523Y-79948810D02*
X179323809Y-79948810D01*
X178866666Y-81548810D02*
X178866666Y-79948810D01*
X179780952Y-81472619D02*
X180009523Y-81548810D01*
X180390476Y-81548810D01*
X180542857Y-81472619D01*
X180619047Y-81396429D01*
X180695238Y-81244048D01*
X180695238Y-81091667D01*
X180619047Y-80939286D01*
X180542857Y-80863095D01*
X180390476Y-80786905D01*
X180085714Y-80710714D01*
X179933333Y-80634524D01*
X179857142Y-80558333D01*
X179780952Y-80405952D01*
X179780952Y-80253571D01*
X179857142Y-80101190D01*
X179933333Y-80025000D01*
X180085714Y-79948810D01*
X180466666Y-79948810D01*
X180695238Y-80025000D01*
X176657142Y-79673000D02*
X181000000Y-79673000D01*
X177952380Y-84046429D02*
X177876190Y-84122619D01*
X177647618Y-84198810D01*
X177495237Y-84198810D01*
X177266666Y-84122619D01*
X177114285Y-83970238D01*
X177038094Y-83817857D01*
X176961904Y-83513095D01*
X176961904Y-83284524D01*
X177038094Y-82979762D01*
X177114285Y-82827381D01*
X177266666Y-82675000D01*
X177495237Y-82598810D01*
X177647618Y-82598810D01*
X177876190Y-82675000D01*
X177952380Y-82751190D01*
X178409523Y-82598810D02*
X179323809Y-82598810D01*
X178866666Y-84198810D02*
X178866666Y-82598810D01*
X179780952Y-84122619D02*
X180009523Y-84198810D01*
X180390476Y-84198810D01*
X180542857Y-84122619D01*
X180619047Y-84046429D01*
X180695238Y-83894048D01*
X180695238Y-83741667D01*
X180619047Y-83589286D01*
X180542857Y-83513095D01*
X180390476Y-83436905D01*
X180085714Y-83360714D01*
X179933333Y-83284524D01*
X179857142Y-83208333D01*
X179780952Y-83055952D01*
X179780952Y-82903571D01*
X179857142Y-82751190D01*
X179933333Y-82675000D01*
X180085714Y-82598810D01*
X180466666Y-82598810D01*
X180695238Y-82675000D01*
X176657142Y-82323000D02*
X181000000Y-82323000D01*
X177723810Y-85325000D02*
X177571429Y-85248810D01*
X177342857Y-85248810D01*
X177114286Y-85325000D01*
X176961905Y-85477381D01*
X176885714Y-85629762D01*
X176809524Y-85934524D01*
X176809524Y-86163095D01*
X176885714Y-86467857D01*
X176961905Y-86620238D01*
X177114286Y-86772619D01*
X177342857Y-86848810D01*
X177495238Y-86848810D01*
X177723810Y-86772619D01*
X177800000Y-86696429D01*
X177800000Y-86163095D01*
X177495238Y-86163095D01*
X178485714Y-85782143D02*
X178485714Y-86848810D01*
X178485714Y-85934524D02*
X178561905Y-85858333D01*
X178714286Y-85782143D01*
X178942857Y-85782143D01*
X179095238Y-85858333D01*
X179171429Y-86010714D01*
X179171429Y-86848810D01*
X180619048Y-86848810D02*
X180619048Y-85248810D01*
X180619048Y-86772619D02*
X180466667Y-86848810D01*
X180161905Y-86848810D01*
X180009524Y-86772619D01*
X179933333Y-86696429D01*
X179857143Y-86544048D01*
X179857143Y-86086905D01*
X179933333Y-85934524D01*
X180009524Y-85858333D01*
X180161905Y-85782143D01*
X180466667Y-85782143D01*
X180619048Y-85858333D01*
X163404762Y-64904762D02*
X162738095Y-63952381D01*
X162261904Y-64904762D02*
X162261904Y-62904762D01*
X163023809Y-62904762D01*
X163214285Y-63000000D01*
X163309524Y-63095238D01*
X163404762Y-63285714D01*
X163404762Y-63571429D01*
X163309524Y-63761905D01*
X163214285Y-63857143D01*
X163023809Y-63952381D01*
X162261904Y-63952381D01*
X164071428Y-62904762D02*
X165404762Y-64904762D01*
X165404762Y-62904762D02*
X164071428Y-64904762D01*
X150976190Y-62904762D02*
X152119047Y-62904762D01*
X151547619Y-64904762D02*
X151547619Y-62904762D01*
X152595238Y-62904762D02*
X153928572Y-64904762D01*
X153928572Y-62904762D02*
X152595238Y-64904762D01*
D10*
X149750000Y-73225000D02*
X147750000Y-73225000D01*
X147750000Y-75275000D02*
X149750000Y-75275000D01*
X149750000Y-78225000D02*
X147750000Y-78225000D01*
X147750000Y-80275000D02*
X149750000Y-80275000D01*
X149750000Y-83225000D02*
X147750000Y-83225000D01*
X147750000Y-85275000D02*
X149750000Y-85275000D01*
X169250000Y-83225000D02*
X167250000Y-83225000D01*
X167250000Y-85275000D02*
X169250000Y-85275000D01*
X169250000Y-88225000D02*
X167250000Y-88225000D01*
X167250000Y-90275000D02*
X169250000Y-90275000D01*
X167250000Y-74275000D02*
X169250000Y-74275000D01*
X169250000Y-72225000D02*
X167250000Y-72225000D01*
X156250000Y-64600000D02*
X157250000Y-64600000D01*
X157250000Y-62900000D02*
X156250000Y-62900000D01*
X167750000Y-64600000D02*
X168750000Y-64600000D01*
X168750000Y-62900000D02*
X167750000Y-62900000D01*
D12*
X142150000Y-82650000D02*
X142150000Y-83050000D01*
X142150000Y-83050000D02*
X140150000Y-83050000D01*
X140150000Y-75450000D02*
X142150000Y-75450000D01*
X142150000Y-75450000D02*
X142150000Y-75850000D01*
D10*
X155750000Y-75275000D02*
X157750000Y-75275000D01*
X157750000Y-73225000D02*
X155750000Y-73225000D01*
X184520000Y-74520000D02*
X184520000Y-87220000D01*
X184520000Y-87220000D02*
X181980000Y-87220000D01*
X181980000Y-87220000D02*
X181980000Y-74520000D01*
X184800000Y-71700000D02*
X184800000Y-73250000D01*
X184520000Y-74520000D02*
X181980000Y-74520000D01*
X181700000Y-73250000D02*
X181700000Y-71700000D01*
X181700000Y-71700000D02*
X184800000Y-71700000D01*
X157750000Y-80325000D02*
X155750000Y-80325000D01*
X155750000Y-78175000D02*
X157750000Y-78175000D01*
X155750000Y-83175000D02*
X157750000Y-83175000D01*
X157750000Y-85325000D02*
X155750000Y-85325000D01*
X169250000Y-95075000D02*
X167250000Y-95075000D01*
X167250000Y-92925000D02*
X169250000Y-92925000D01*
X169250000Y-69325000D02*
X167250000Y-69325000D01*
X167250000Y-67175000D02*
X169250000Y-67175000D01*
X155750000Y-67175000D02*
X157750000Y-67175000D01*
X157750000Y-69325000D02*
X155750000Y-69325000D01*
D12*
X176500000Y-93000000D02*
X177750000Y-93500000D01*
X178250000Y-92750000D02*
G75*
G03X178250000Y-92750000I-250000J0D01*
G01*
X178750000Y-92750000D02*
X178250000Y-92750000D01*
X176750000Y-92750000D02*
G75*
G03X176750000Y-92750000I-250000J0D01*
G01*
X175750000Y-92750000D02*
X176250000Y-92750000D01*
X174250000Y-94250000D02*
X174250000Y-95750000D01*
X174250000Y-95750000D02*
X180250000Y-95750000D01*
X180250000Y-95750000D02*
X180250000Y-94250000D01*
X180250000Y-91250000D02*
X180250000Y-89750000D01*
X180250000Y-89750000D02*
X174250000Y-89750000D01*
X174250000Y-89750000D02*
X174250000Y-91250000D01*
X169550000Y-77650000D02*
G75*
G03X169550000Y-77650000I-200000J0D01*
G01*
X165750000Y-77750000D02*
X165750000Y-77250000D01*
X165750000Y-77250000D02*
X166250000Y-77250000D01*
X166250000Y-81250000D02*
X165750000Y-81250000D01*
X165750000Y-81250000D02*
X165750000Y-80750000D01*
X169750000Y-80750000D02*
X169750000Y-81250000D01*
X169750000Y-81250000D02*
X169250000Y-81250000D01*
X169750000Y-77250000D02*
X169250000Y-77250000D01*
X169750000Y-77250000D02*
X169750000Y-77750000D01*
D10*
X148583334Y-76607143D02*
X148535715Y-76654762D01*
X148392858Y-76702381D01*
X148297620Y-76702381D01*
X148154762Y-76654762D01*
X148059524Y-76559524D01*
X148011905Y-76464286D01*
X147964286Y-76273810D01*
X147964286Y-76130952D01*
X148011905Y-75940476D01*
X148059524Y-75845238D01*
X148154762Y-75750000D01*
X148297620Y-75702381D01*
X148392858Y-75702381D01*
X148535715Y-75750000D01*
X148583334Y-75797619D01*
X149535715Y-76702381D02*
X148964286Y-76702381D01*
X149250000Y-76702381D02*
X149250000Y-75702381D01*
X149154762Y-75845238D01*
X149059524Y-75940476D01*
X148964286Y-75988095D01*
X148583334Y-81607143D02*
X148535715Y-81654762D01*
X148392858Y-81702381D01*
X148297620Y-81702381D01*
X148154762Y-81654762D01*
X148059524Y-81559524D01*
X148011905Y-81464286D01*
X147964286Y-81273810D01*
X147964286Y-81130952D01*
X148011905Y-80940476D01*
X148059524Y-80845238D01*
X148154762Y-80750000D01*
X148297620Y-80702381D01*
X148392858Y-80702381D01*
X148535715Y-80750000D01*
X148583334Y-80797619D01*
X148964286Y-80797619D02*
X149011905Y-80750000D01*
X149107143Y-80702381D01*
X149345239Y-80702381D01*
X149440477Y-80750000D01*
X149488096Y-80797619D01*
X149535715Y-80892857D01*
X149535715Y-80988095D01*
X149488096Y-81130952D01*
X148916667Y-81702381D01*
X149535715Y-81702381D01*
X148583334Y-86607143D02*
X148535715Y-86654762D01*
X148392858Y-86702381D01*
X148297620Y-86702381D01*
X148154762Y-86654762D01*
X148059524Y-86559524D01*
X148011905Y-86464286D01*
X147964286Y-86273810D01*
X147964286Y-86130952D01*
X148011905Y-85940476D01*
X148059524Y-85845238D01*
X148154762Y-85750000D01*
X148297620Y-85702381D01*
X148392858Y-85702381D01*
X148535715Y-85750000D01*
X148583334Y-85797619D01*
X148916667Y-85702381D02*
X149535715Y-85702381D01*
X149202381Y-86083333D01*
X149345239Y-86083333D01*
X149440477Y-86130952D01*
X149488096Y-86178571D01*
X149535715Y-86273810D01*
X149535715Y-86511905D01*
X149488096Y-86607143D01*
X149440477Y-86654762D01*
X149345239Y-86702381D01*
X149059524Y-86702381D01*
X148964286Y-86654762D01*
X148916667Y-86607143D01*
X168083334Y-86607143D02*
X168035715Y-86654762D01*
X167892858Y-86702381D01*
X167797620Y-86702381D01*
X167654762Y-86654762D01*
X167559524Y-86559524D01*
X167511905Y-86464286D01*
X167464286Y-86273810D01*
X167464286Y-86130952D01*
X167511905Y-85940476D01*
X167559524Y-85845238D01*
X167654762Y-85750000D01*
X167797620Y-85702381D01*
X167892858Y-85702381D01*
X168035715Y-85750000D01*
X168083334Y-85797619D01*
X168940477Y-86035714D02*
X168940477Y-86702381D01*
X168702381Y-85654762D02*
X168464286Y-86369048D01*
X169083334Y-86369048D01*
X168083334Y-91607143D02*
X168035715Y-91654762D01*
X167892858Y-91702381D01*
X167797620Y-91702381D01*
X167654762Y-91654762D01*
X167559524Y-91559524D01*
X167511905Y-91464286D01*
X167464286Y-91273810D01*
X167464286Y-91130952D01*
X167511905Y-90940476D01*
X167559524Y-90845238D01*
X167654762Y-90750000D01*
X167797620Y-90702381D01*
X167892858Y-90702381D01*
X168035715Y-90750000D01*
X168083334Y-90797619D01*
X168988096Y-90702381D02*
X168511905Y-90702381D01*
X168464286Y-91178571D01*
X168511905Y-91130952D01*
X168607143Y-91083333D01*
X168845239Y-91083333D01*
X168940477Y-91130952D01*
X168988096Y-91178571D01*
X169035715Y-91273810D01*
X169035715Y-91511905D01*
X168988096Y-91607143D01*
X168940477Y-91654762D01*
X168845239Y-91702381D01*
X168607143Y-91702381D01*
X168511905Y-91654762D01*
X168464286Y-91607143D01*
X168083334Y-75607143D02*
X168035715Y-75654762D01*
X167892858Y-75702381D01*
X167797620Y-75702381D01*
X167654762Y-75654762D01*
X167559524Y-75559524D01*
X167511905Y-75464286D01*
X167464286Y-75273810D01*
X167464286Y-75130952D01*
X167511905Y-74940476D01*
X167559524Y-74845238D01*
X167654762Y-74750000D01*
X167797620Y-74702381D01*
X167892858Y-74702381D01*
X168035715Y-74750000D01*
X168083334Y-74797619D01*
X168940477Y-74702381D02*
X168750000Y-74702381D01*
X168654762Y-74750000D01*
X168607143Y-74797619D01*
X168511905Y-74940476D01*
X168464286Y-75130952D01*
X168464286Y-75511905D01*
X168511905Y-75607143D01*
X168559524Y-75654762D01*
X168654762Y-75702381D01*
X168845239Y-75702381D01*
X168940477Y-75654762D01*
X168988096Y-75607143D01*
X169035715Y-75511905D01*
X169035715Y-75273810D01*
X168988096Y-75178571D01*
X168940477Y-75130952D01*
X168845239Y-75083333D01*
X168654762Y-75083333D01*
X168559524Y-75130952D01*
X168511905Y-75178571D01*
X168464286Y-75273810D01*
X156011905Y-66302381D02*
X156011905Y-65302381D01*
X156250000Y-65302381D01*
X156392858Y-65350000D01*
X156488096Y-65445238D01*
X156535715Y-65540476D01*
X156583334Y-65730952D01*
X156583334Y-65873810D01*
X156535715Y-66064286D01*
X156488096Y-66159524D01*
X156392858Y-66254762D01*
X156250000Y-66302381D01*
X156011905Y-66302381D01*
X157535715Y-66302381D02*
X156964286Y-66302381D01*
X157250000Y-66302381D02*
X157250000Y-65302381D01*
X157154762Y-65445238D01*
X157059524Y-65540476D01*
X156964286Y-65588095D01*
X167511905Y-66302381D02*
X167511905Y-65302381D01*
X167750000Y-65302381D01*
X167892858Y-65350000D01*
X167988096Y-65445238D01*
X168035715Y-65540476D01*
X168083334Y-65730952D01*
X168083334Y-65873810D01*
X168035715Y-66064286D01*
X167988096Y-66159524D01*
X167892858Y-66254762D01*
X167750000Y-66302381D01*
X167511905Y-66302381D01*
X168464286Y-65397619D02*
X168511905Y-65350000D01*
X168607143Y-65302381D01*
X168845239Y-65302381D01*
X168940477Y-65350000D01*
X168988096Y-65397619D01*
X169035715Y-65492857D01*
X169035715Y-65588095D01*
X168988096Y-65730952D01*
X168416667Y-66302381D01*
X169035715Y-66302381D01*
X143202381Y-82333333D02*
X143916667Y-82333333D01*
X144059524Y-82380953D01*
X144154762Y-82476191D01*
X144202381Y-82619048D01*
X144202381Y-82714286D01*
X144202381Y-81333333D02*
X144202381Y-81904762D01*
X144202381Y-81619048D02*
X143202381Y-81619048D01*
X143345238Y-81714286D01*
X143440476Y-81809524D01*
X143488095Y-81904762D01*
X156583334Y-76702381D02*
X156107143Y-76702381D01*
X156107143Y-75702381D01*
X157440477Y-76702381D02*
X156869048Y-76702381D01*
X157154762Y-76702381D02*
X157154762Y-75702381D01*
X157059524Y-75845238D01*
X156964286Y-75940476D01*
X156869048Y-75988095D01*
X182511905Y-71202381D02*
X182511905Y-70202381D01*
X182892858Y-70202381D01*
X182988096Y-70250000D01*
X183035715Y-70297619D01*
X183083334Y-70392857D01*
X183083334Y-70535714D01*
X183035715Y-70630952D01*
X182988096Y-70678571D01*
X182892858Y-70726190D01*
X182511905Y-70726190D01*
X184035715Y-71202381D02*
X183464286Y-71202381D01*
X183750000Y-71202381D02*
X183750000Y-70202381D01*
X183654762Y-70345238D01*
X183559524Y-70440476D01*
X183464286Y-70488095D01*
X156583334Y-81702381D02*
X156250000Y-81226190D01*
X156011905Y-81702381D02*
X156011905Y-80702381D01*
X156392858Y-80702381D01*
X156488096Y-80750000D01*
X156535715Y-80797619D01*
X156583334Y-80892857D01*
X156583334Y-81035714D01*
X156535715Y-81130952D01*
X156488096Y-81178571D01*
X156392858Y-81226190D01*
X156011905Y-81226190D01*
X157535715Y-81702381D02*
X156964286Y-81702381D01*
X157250000Y-81702381D02*
X157250000Y-80702381D01*
X157154762Y-80845238D01*
X157059524Y-80940476D01*
X156964286Y-80988095D01*
X156583334Y-86702381D02*
X156250000Y-86226190D01*
X156011905Y-86702381D02*
X156011905Y-85702381D01*
X156392858Y-85702381D01*
X156488096Y-85750000D01*
X156535715Y-85797619D01*
X156583334Y-85892857D01*
X156583334Y-86035714D01*
X156535715Y-86130952D01*
X156488096Y-86178571D01*
X156392858Y-86226190D01*
X156011905Y-86226190D01*
X156964286Y-85797619D02*
X157011905Y-85750000D01*
X157107143Y-85702381D01*
X157345239Y-85702381D01*
X157440477Y-85750000D01*
X157488096Y-85797619D01*
X157535715Y-85892857D01*
X157535715Y-85988095D01*
X157488096Y-86130952D01*
X156916667Y-86702381D01*
X157535715Y-86702381D01*
X168083334Y-96452381D02*
X167750000Y-95976190D01*
X167511905Y-96452381D02*
X167511905Y-95452381D01*
X167892858Y-95452381D01*
X167988096Y-95500000D01*
X168035715Y-95547619D01*
X168083334Y-95642857D01*
X168083334Y-95785714D01*
X168035715Y-95880952D01*
X167988096Y-95928571D01*
X167892858Y-95976190D01*
X167511905Y-95976190D01*
X168416667Y-95452381D02*
X169035715Y-95452381D01*
X168702381Y-95833333D01*
X168845239Y-95833333D01*
X168940477Y-95880952D01*
X168988096Y-95928571D01*
X169035715Y-96023810D01*
X169035715Y-96261905D01*
X168988096Y-96357143D01*
X168940477Y-96404762D01*
X168845239Y-96452381D01*
X168559524Y-96452381D01*
X168464286Y-96404762D01*
X168416667Y-96357143D01*
X168083334Y-70702381D02*
X167750000Y-70226190D01*
X167511905Y-70702381D02*
X167511905Y-69702381D01*
X167892858Y-69702381D01*
X167988096Y-69750000D01*
X168035715Y-69797619D01*
X168083334Y-69892857D01*
X168083334Y-70035714D01*
X168035715Y-70130952D01*
X167988096Y-70178571D01*
X167892858Y-70226190D01*
X167511905Y-70226190D01*
X168940477Y-70035714D02*
X168940477Y-70702381D01*
X168702381Y-69654762D02*
X168464286Y-70369048D01*
X169083334Y-70369048D01*
X156583334Y-70702381D02*
X156250000Y-70226190D01*
X156011905Y-70702381D02*
X156011905Y-69702381D01*
X156392858Y-69702381D01*
X156488096Y-69750000D01*
X156535715Y-69797619D01*
X156583334Y-69892857D01*
X156583334Y-70035714D01*
X156535715Y-70130952D01*
X156488096Y-70178571D01*
X156392858Y-70226190D01*
X156011905Y-70226190D01*
X157488096Y-69702381D02*
X157011905Y-69702381D01*
X156964286Y-70178571D01*
X157011905Y-70130952D01*
X157107143Y-70083333D01*
X157345239Y-70083333D01*
X157440477Y-70130952D01*
X157488096Y-70178571D01*
X157535715Y-70273810D01*
X157535715Y-70511905D01*
X157488096Y-70607143D01*
X157440477Y-70654762D01*
X157345239Y-70702381D01*
X157107143Y-70702381D01*
X157011905Y-70654762D01*
X156964286Y-70607143D01*
X173154762Y-93511905D02*
X173202381Y-93369048D01*
X173202381Y-93130952D01*
X173154762Y-93035714D01*
X173107143Y-92988095D01*
X173011905Y-92940476D01*
X172916667Y-92940476D01*
X172821429Y-92988095D01*
X172773810Y-93035714D01*
X172726190Y-93130952D01*
X172678571Y-93321429D01*
X172630952Y-93416667D01*
X172583333Y-93464286D01*
X172488095Y-93511905D01*
X172392857Y-93511905D01*
X172297619Y-93464286D01*
X172250000Y-93416667D01*
X172202381Y-93321429D01*
X172202381Y-93083333D01*
X172250000Y-92940476D01*
X173202381Y-91988095D02*
X173202381Y-92559524D01*
X173202381Y-92273810D02*
X172202381Y-92273810D01*
X172345238Y-92369048D01*
X172440476Y-92464286D01*
X172488095Y-92559524D01*
X163702381Y-80011905D02*
X164511905Y-80011905D01*
X164607143Y-79964286D01*
X164654762Y-79916667D01*
X164702381Y-79821429D01*
X164702381Y-79630952D01*
X164654762Y-79535714D01*
X164607143Y-79488095D01*
X164511905Y-79440476D01*
X163702381Y-79440476D01*
X164702381Y-78440476D02*
X164702381Y-79011905D01*
X164702381Y-78726191D02*
X163702381Y-78726191D01*
X163845238Y-78821429D01*
X163940476Y-78916667D01*
X163988095Y-79011905D01*
M02*
