G04 #@! TF.FileFunction,Profile,NP*
%FSLAX46Y46*%
G04 Gerber Fmt 4.6, Leading zero omitted, Abs format (unit mm)*
G04 Created by KiCad (PCBNEW 4.0.6) date 03/10/17 18:33:18*
%MOMM*%
%LPD*%
G01*
G04 APERTURE LIST*
%ADD10C,0.150000*%
%ADD11C,0.050000*%
G04 APERTURE END LIST*
D10*
D11*
X138625000Y-82475000D02*
X138625000Y-83025000D01*
X139775000Y-82475000D02*
X138625000Y-82475000D01*
X139775000Y-83025000D02*
X139775000Y-82475000D01*
X138625000Y-83025000D02*
X139775000Y-83025000D01*
X139775000Y-75475000D02*
X138625000Y-75475000D01*
X139775000Y-76025000D02*
X139775000Y-75475000D01*
X138625000Y-76025000D02*
X139775000Y-76025000D01*
X138625000Y-75475000D02*
X138625000Y-76025000D01*
X141625000Y-81325000D02*
X141625000Y-82175000D01*
X142175000Y-81325000D02*
X141625000Y-81325000D01*
X142175000Y-82175000D02*
X142175000Y-81325000D01*
X141625000Y-82175000D02*
X142175000Y-82175000D01*
X141625000Y-76325000D02*
X141625000Y-77175000D01*
X142175000Y-76325000D02*
X141625000Y-76325000D01*
X142175000Y-77175000D02*
X142175000Y-76325000D01*
X141625000Y-77175000D02*
X142175000Y-77175000D01*
D10*
X137750000Y-97250000D02*
X137750000Y-79250000D01*
X185750000Y-97250000D02*
X137750000Y-97250000D01*
X185750000Y-61250000D02*
X185750000Y-97250000D01*
X137750000Y-61250000D02*
X185750000Y-61250000D01*
X137750000Y-79250000D02*
X137750000Y-61250000D01*
M02*
