G04 #@! TF.FileFunction,Copper,L1,Top,Signal*
%FSLAX46Y46*%
G04 Gerber Fmt 4.6, Leading zero omitted, Abs format (unit mm)*
G04 Created by KiCad (PCBNEW 4.0.6) date 03/10/17 18:33:18*
%MOMM*%
%LPD*%
G01*
G04 APERTURE LIST*
%ADD10C,0.150000*%
%ADD11R,2.000000X1.600000*%
%ADD12R,1.500000X1.250000*%
%ADD13R,1.550000X1.500000*%
%ADD14R,1.350000X0.400000*%
%ADD15O,1.550000X0.750000*%
%ADD16O,0.750000X1.250000*%
%ADD17R,1.550000X1.200000*%
%ADD18R,2.032000X1.727200*%
%ADD19O,2.032000X1.727200*%
%ADD20R,2.000000X1.700000*%
%ADD21C,1.500000*%
%ADD22R,0.300000X1.120000*%
%ADD23R,1.120000X0.300000*%
%ADD24R,2.150000X2.150000*%
%ADD25C,0.600000*%
%ADD26C,0.300000*%
%ADD27C,0.508000*%
G04 APERTURE END LIST*
D10*
D11*
X146750000Y-74250000D03*
X150750000Y-74250000D03*
X146750000Y-79250000D03*
X150750000Y-79250000D03*
X146750000Y-84250000D03*
X150750000Y-84250000D03*
X166250000Y-84250000D03*
X170250000Y-84250000D03*
X166250000Y-89250000D03*
X170250000Y-89250000D03*
X170250000Y-73250000D03*
X166250000Y-73250000D03*
D12*
X158000000Y-63750000D03*
X155500000Y-63750000D03*
X169500000Y-63750000D03*
X167000000Y-63750000D03*
D13*
X139200000Y-78250000D03*
X139200000Y-80250000D03*
D14*
X141900000Y-77950000D03*
X141900000Y-78600000D03*
X141900000Y-79250000D03*
X141900000Y-79900000D03*
X141900000Y-80550000D03*
D15*
X139200000Y-75750000D03*
X139200000Y-82750000D03*
D16*
X141900000Y-76750000D03*
X141900000Y-81750000D03*
D17*
X139200000Y-76350000D03*
X139200000Y-82150000D03*
D11*
X158750000Y-74250000D03*
X154750000Y-74250000D03*
D18*
X183250000Y-72900000D03*
D19*
X183250000Y-75790000D03*
X183250000Y-78330000D03*
X183250000Y-80870000D03*
X183250000Y-83410000D03*
X183250000Y-85950000D03*
D20*
X154750000Y-79250000D03*
X158750000Y-79250000D03*
X158750000Y-84250000D03*
X154750000Y-84250000D03*
X166250000Y-94000000D03*
X170250000Y-94000000D03*
X166250000Y-68250000D03*
X170250000Y-68250000D03*
X158750000Y-68250000D03*
X154750000Y-68250000D03*
D21*
X174750000Y-92750000D03*
X179750000Y-92750000D03*
D22*
X168725000Y-77240000D03*
X168075000Y-77240000D03*
X167425000Y-77240000D03*
X166775000Y-77240000D03*
D23*
X165740000Y-78275000D03*
X165740000Y-78925000D03*
X165740000Y-79575000D03*
X165740000Y-80225000D03*
D22*
X166775000Y-81260000D03*
X167425000Y-81260000D03*
X168075000Y-81260000D03*
X168725000Y-81260000D03*
D23*
X169760000Y-80225000D03*
X169760000Y-79575000D03*
X169760000Y-78925000D03*
X169760000Y-78275000D03*
D24*
X167750000Y-79250000D03*
D25*
X140000000Y-74000000D03*
X142000000Y-74000000D03*
X140000000Y-84000000D03*
X142000000Y-84000000D03*
X152750000Y-74250000D03*
X152750000Y-79250000D03*
X152750000Y-84250000D03*
X168250000Y-84250000D03*
X168250000Y-73250000D03*
X167750000Y-79250000D03*
X166250000Y-86750000D03*
X162250000Y-74250000D03*
X163250000Y-80750000D03*
X163250000Y-70250000D03*
X164250000Y-76750000D03*
X160250000Y-63750000D03*
X168250000Y-82500000D03*
X171750000Y-63750000D03*
X170000000Y-75250000D03*
X171250000Y-78250000D03*
X166250000Y-75250000D03*
D26*
X146750000Y-74250000D02*
X148250000Y-74250000D01*
X153250000Y-75750000D02*
X154750000Y-74250000D01*
X149750000Y-75750000D02*
X153250000Y-75750000D01*
X148250000Y-74250000D02*
X149750000Y-75750000D01*
X141900000Y-77950000D02*
X143050000Y-77950000D01*
X143050000Y-77950000D02*
X146750000Y-74250000D01*
X141900000Y-81750000D02*
X139600000Y-81750000D01*
X139600000Y-81750000D02*
X139200000Y-82150000D01*
X139200000Y-75750000D02*
X139200000Y-74800000D01*
X139200000Y-74800000D02*
X140000000Y-74000000D01*
X141900000Y-76750000D02*
X141900000Y-74100000D01*
X141900000Y-74100000D02*
X142000000Y-74000000D01*
X139200000Y-82750000D02*
X139200000Y-83200000D01*
X139200000Y-83200000D02*
X140000000Y-84000000D01*
X141900000Y-81750000D02*
X141900000Y-83900000D01*
X141900000Y-83900000D02*
X142000000Y-84000000D01*
X141900000Y-76750000D02*
X139600000Y-76750000D01*
X139600000Y-76750000D02*
X139200000Y-76350000D01*
X141900000Y-80550000D02*
X139500000Y-80550000D01*
X139500000Y-80550000D02*
X139200000Y-80250000D01*
X139200000Y-82150000D02*
X139200000Y-82750000D01*
X139200000Y-82150000D02*
X139200000Y-80250000D01*
X139200000Y-80250000D02*
X139200000Y-78250000D01*
X139200000Y-78250000D02*
X139200000Y-76350000D01*
X139200000Y-76350000D02*
X139200000Y-75750000D01*
X141900000Y-80550000D02*
X141900000Y-81750000D01*
X150750000Y-74250000D02*
X152750000Y-74250000D01*
X150750000Y-79250000D02*
X152750000Y-79250000D01*
X150750000Y-84250000D02*
X152750000Y-84250000D01*
X170250000Y-84250000D02*
X168250000Y-84250000D01*
X166250000Y-73250000D02*
X168250000Y-73250000D01*
X169760000Y-80225000D02*
X168725000Y-80225000D01*
X168725000Y-80225000D02*
X167750000Y-79250000D01*
X167425000Y-77240000D02*
X167425000Y-78925000D01*
X167425000Y-78925000D02*
X167750000Y-79250000D01*
X146750000Y-79250000D02*
X148250000Y-79250000D01*
X153250000Y-80750000D02*
X154750000Y-79250000D01*
X149750000Y-80750000D02*
X153250000Y-80750000D01*
X148250000Y-79250000D02*
X149750000Y-80750000D01*
X141900000Y-78600000D02*
X146100000Y-78600000D01*
X146100000Y-78600000D02*
X146750000Y-79250000D01*
X146750000Y-84250000D02*
X148250000Y-84250000D01*
X153250000Y-85750000D02*
X154750000Y-84250000D01*
X149750000Y-85750000D02*
X153250000Y-85750000D01*
X148250000Y-84250000D02*
X149750000Y-85750000D01*
X141900000Y-79250000D02*
X143750000Y-79250000D01*
X146750000Y-82250000D02*
X146750000Y-84250000D01*
X143750000Y-79250000D02*
X146750000Y-82250000D01*
X158750000Y-74250000D02*
X162250000Y-74250000D01*
X167425000Y-81260000D02*
X167425000Y-83075000D01*
X167425000Y-83075000D02*
X166250000Y-84250000D01*
X166250000Y-89250000D02*
X166250000Y-86750000D01*
X166250000Y-86750000D02*
X166250000Y-84250000D01*
X168725000Y-77240000D02*
X169760000Y-77240000D01*
X171000000Y-76000000D02*
X171000000Y-74000000D01*
X169760000Y-77240000D02*
X171000000Y-76000000D01*
X171000000Y-74000000D02*
X170250000Y-73250000D01*
X163500000Y-80500000D02*
X161000000Y-83000000D01*
X163500000Y-94000000D02*
X166250000Y-94000000D01*
X161000000Y-91500000D02*
X163500000Y-94000000D01*
X161000000Y-83000000D02*
X161000000Y-91500000D01*
X165740000Y-80225000D02*
X163775000Y-80225000D01*
X163775000Y-80225000D02*
X163500000Y-80500000D01*
X163500000Y-80500000D02*
X163250000Y-80750000D01*
X170250000Y-73250000D02*
X182900000Y-73250000D01*
X182900000Y-73250000D02*
X183250000Y-72900000D01*
X170250000Y-70250000D02*
X163250000Y-70250000D01*
X163250000Y-70250000D02*
X160750000Y-70250000D01*
X160750000Y-70250000D02*
X158750000Y-68250000D01*
X170250000Y-73250000D02*
X170250000Y-70250000D01*
X170250000Y-70250000D02*
X170250000Y-68250000D01*
X158000000Y-63750000D02*
X160250000Y-63750000D01*
X164250000Y-76750000D02*
X165740000Y-78240000D01*
X165740000Y-78240000D02*
X165740000Y-78275000D01*
X154750000Y-68250000D02*
X154750000Y-64500000D01*
X154750000Y-64500000D02*
X155500000Y-63750000D01*
X169500000Y-63750000D02*
X171750000Y-63750000D01*
X168075000Y-82325000D02*
X168075000Y-81260000D01*
X168250000Y-82500000D02*
X168075000Y-82325000D01*
X166250000Y-68250000D02*
X166250000Y-64500000D01*
X166250000Y-64500000D02*
X167000000Y-63750000D01*
X169760000Y-78925000D02*
X180115000Y-78925000D01*
X180115000Y-78925000D02*
X183250000Y-75790000D01*
X168075000Y-77240000D02*
X168075000Y-75925000D01*
X168750000Y-75250000D02*
X170000000Y-75250000D01*
X168075000Y-75925000D02*
X168750000Y-75250000D01*
X169760000Y-78275000D02*
X171225000Y-78275000D01*
X171225000Y-78275000D02*
X171250000Y-78250000D01*
X166775000Y-77240000D02*
X166775000Y-75775000D01*
X166775000Y-75775000D02*
X166250000Y-75250000D01*
X165740000Y-79575000D02*
X159075000Y-79575000D01*
X159075000Y-79575000D02*
X158750000Y-79250000D01*
X165740000Y-78925000D02*
X161425000Y-78925000D01*
X157250000Y-84250000D02*
X156750000Y-83750000D01*
X156750000Y-83750000D02*
X156750000Y-78250000D01*
X156750000Y-78250000D02*
X157250000Y-77750000D01*
X157250000Y-77750000D02*
X160250000Y-77750000D01*
X157250000Y-84250000D02*
X158750000Y-84250000D01*
X161425000Y-78925000D02*
X160250000Y-77750000D01*
X166775000Y-81260000D02*
X164240000Y-81260000D01*
X168750000Y-92500000D02*
X170250000Y-94000000D01*
X163500000Y-92500000D02*
X168750000Y-92500000D01*
X162000000Y-91000000D02*
X163500000Y-92500000D01*
X162000000Y-83500000D02*
X162000000Y-91000000D01*
X164240000Y-81260000D02*
X162000000Y-83500000D01*
X170250000Y-94000000D02*
X173500000Y-94000000D01*
X173500000Y-94000000D02*
X174750000Y-92750000D01*
D27*
G36*
X181560908Y-78952090D02*
X181913294Y-79479473D01*
X182093675Y-79600000D01*
X181913294Y-79720527D01*
X181560908Y-80247910D01*
X181437167Y-80870000D01*
X181560908Y-81492090D01*
X181913294Y-82019473D01*
X182093675Y-82140000D01*
X181913294Y-82260527D01*
X181560908Y-82787910D01*
X181437167Y-83410000D01*
X181560908Y-84032090D01*
X181913294Y-84559473D01*
X182124424Y-84700545D01*
X181974559Y-84797940D01*
X181617240Y-85278352D01*
X181729002Y-85518200D01*
X182742000Y-85518200D01*
X182742000Y-85184000D01*
X183758000Y-85184000D01*
X183758000Y-85518200D01*
X184016000Y-85518200D01*
X184016000Y-86381800D01*
X183758000Y-86381800D01*
X183758000Y-87328580D01*
X183999080Y-87444134D01*
X184525441Y-87102060D01*
X184827457Y-86696002D01*
X184913000Y-86696002D01*
X184913000Y-96413000D01*
X138587000Y-96413000D01*
X138587000Y-83860250D01*
X138634147Y-83877058D01*
X138699177Y-83812000D01*
X139700823Y-83812000D01*
X139765853Y-83877058D01*
X140184535Y-83727797D01*
X140514227Y-83429675D01*
X140678295Y-83110622D01*
X140659405Y-83088901D01*
X140737000Y-82901571D01*
X140737000Y-82640500D01*
X140588795Y-82492295D01*
X140678295Y-82389378D01*
X140514227Y-82070325D01*
X140270570Y-81850000D01*
X140546500Y-81850000D01*
X140737000Y-81659500D01*
X140737000Y-81398429D01*
X140695423Y-81298053D01*
X140793362Y-81395992D01*
X140838000Y-81414482D01*
X140838000Y-82175000D01*
X140841001Y-82190088D01*
X140795284Y-82238249D01*
X140897537Y-82474313D01*
X140897907Y-82476172D01*
X140899145Y-82478024D01*
X140970549Y-82642870D01*
X141287315Y-82949620D01*
X141539378Y-83078295D01*
X141673106Y-82962000D01*
X142126894Y-82962000D01*
X142260622Y-83078295D01*
X142512685Y-82949620D01*
X142829451Y-82642870D01*
X142900855Y-82478024D01*
X142902093Y-82476172D01*
X142902463Y-82474313D01*
X143004716Y-82238249D01*
X142958999Y-82190088D01*
X142962000Y-82175000D01*
X142962000Y-81414482D01*
X143006638Y-81395992D01*
X143220992Y-81181638D01*
X143337000Y-80901571D01*
X143337000Y-80840500D01*
X143146500Y-80650000D01*
X143121449Y-80650000D01*
X143290717Y-80402269D01*
X143315217Y-80281283D01*
X143337000Y-80259500D01*
X143337000Y-80198429D01*
X143333639Y-80190315D01*
X143339373Y-80162000D01*
X143372238Y-80162000D01*
X145838000Y-82627763D01*
X145838000Y-82673072D01*
X145750000Y-82673072D01*
X145467620Y-82726205D01*
X145208271Y-82893092D01*
X145034283Y-83147731D01*
X144973072Y-83450000D01*
X144973072Y-85050000D01*
X145026205Y-85332380D01*
X145193092Y-85591729D01*
X145447731Y-85765717D01*
X145750000Y-85826928D01*
X147750000Y-85826928D01*
X148032380Y-85773795D01*
X148291729Y-85606908D01*
X148302046Y-85591809D01*
X149105118Y-86394881D01*
X149400992Y-86592578D01*
X149458896Y-86604096D01*
X149750000Y-86662000D01*
X153250000Y-86662000D01*
X153599007Y-86592578D01*
X153894881Y-86394881D01*
X154412834Y-85876928D01*
X155750000Y-85876928D01*
X156032380Y-85823795D01*
X156291729Y-85656908D01*
X156465717Y-85402269D01*
X156526928Y-85100000D01*
X156526928Y-84816691D01*
X156605119Y-84894882D01*
X156900993Y-85092578D01*
X156974424Y-85107184D01*
X157026205Y-85382380D01*
X157193092Y-85641729D01*
X157447731Y-85815717D01*
X157750000Y-85876928D01*
X159750000Y-85876928D01*
X160032380Y-85823795D01*
X160088000Y-85788004D01*
X160088000Y-91500000D01*
X160155233Y-91838001D01*
X160157422Y-91849007D01*
X160355119Y-92144881D01*
X162855119Y-94644881D01*
X163150993Y-94842578D01*
X163500000Y-94912000D01*
X164484738Y-94912000D01*
X164526205Y-95132380D01*
X164693092Y-95391729D01*
X164947731Y-95565717D01*
X165250000Y-95626928D01*
X167250000Y-95626928D01*
X167532380Y-95573795D01*
X167791729Y-95406908D01*
X167965717Y-95152269D01*
X168026928Y-94850000D01*
X168026928Y-93412000D01*
X168372238Y-93412000D01*
X168473072Y-93512834D01*
X168473072Y-94850000D01*
X168526205Y-95132380D01*
X168693092Y-95391729D01*
X168947731Y-95565717D01*
X169250000Y-95626928D01*
X171250000Y-95626928D01*
X171532380Y-95573795D01*
X171791729Y-95406908D01*
X171965717Y-95152269D01*
X172014373Y-94912000D01*
X173500000Y-94912000D01*
X173849007Y-94842578D01*
X174144881Y-94644881D01*
X174527955Y-94261807D01*
X175049436Y-94262262D01*
X175605360Y-94032559D01*
X175705076Y-93933017D01*
X179097313Y-93933017D01*
X179174456Y-94180156D01*
X179765564Y-94291543D01*
X180325544Y-94180156D01*
X180402687Y-93933017D01*
X179750000Y-93280330D01*
X179097313Y-93933017D01*
X175705076Y-93933017D01*
X176031064Y-93607598D01*
X176261737Y-93052075D01*
X176261987Y-92765564D01*
X178208457Y-92765564D01*
X178319844Y-93325544D01*
X178566983Y-93402687D01*
X179219670Y-92750000D01*
X180280330Y-92750000D01*
X180933017Y-93402687D01*
X181180156Y-93325544D01*
X181291543Y-92734436D01*
X181180156Y-92174456D01*
X180933017Y-92097313D01*
X180280330Y-92750000D01*
X179219670Y-92750000D01*
X178566983Y-92097313D01*
X178319844Y-92174456D01*
X178208457Y-92765564D01*
X176261987Y-92765564D01*
X176262262Y-92450564D01*
X176032559Y-91894640D01*
X175705474Y-91566983D01*
X179097313Y-91566983D01*
X179750000Y-92219670D01*
X180402687Y-91566983D01*
X180325544Y-91319844D01*
X179734436Y-91208457D01*
X179174456Y-91319844D01*
X179097313Y-91566983D01*
X175705474Y-91566983D01*
X175607598Y-91468936D01*
X175052075Y-91238263D01*
X174450564Y-91237738D01*
X173894640Y-91467441D01*
X173468936Y-91892402D01*
X173238263Y-92447925D01*
X173237805Y-92972433D01*
X173122238Y-93088000D01*
X172015262Y-93088000D01*
X171973795Y-92867620D01*
X171806908Y-92608271D01*
X171552269Y-92434283D01*
X171250000Y-92373072D01*
X169912834Y-92373072D01*
X169394881Y-91855119D01*
X169099007Y-91657422D01*
X168750000Y-91588000D01*
X163877763Y-91588000D01*
X162912000Y-90622238D01*
X162912000Y-83877762D01*
X164617763Y-82172000D01*
X165946004Y-82172000D01*
X166068092Y-82361729D01*
X166322731Y-82535717D01*
X166513000Y-82574247D01*
X166513000Y-82673072D01*
X165250000Y-82673072D01*
X164967620Y-82726205D01*
X164708271Y-82893092D01*
X164534283Y-83147731D01*
X164473072Y-83450000D01*
X164473072Y-85050000D01*
X164526205Y-85332380D01*
X164693092Y-85591729D01*
X164947731Y-85765717D01*
X165250000Y-85826928D01*
X165338000Y-85826928D01*
X165338000Y-86177033D01*
X165188185Y-86537828D01*
X165187816Y-86960318D01*
X165338000Y-87323792D01*
X165338000Y-87673072D01*
X165250000Y-87673072D01*
X164967620Y-87726205D01*
X164708271Y-87893092D01*
X164534283Y-88147731D01*
X164473072Y-88450000D01*
X164473072Y-90050000D01*
X164526205Y-90332380D01*
X164693092Y-90591729D01*
X164947731Y-90765717D01*
X165250000Y-90826928D01*
X167250000Y-90826928D01*
X167532380Y-90773795D01*
X167791729Y-90606908D01*
X167965717Y-90352269D01*
X168026928Y-90050000D01*
X168026928Y-89840500D01*
X168488000Y-89840500D01*
X168488000Y-90201571D01*
X168604008Y-90481638D01*
X168818362Y-90695992D01*
X169098429Y-90812000D01*
X169559500Y-90812000D01*
X169750000Y-90621500D01*
X169750000Y-89650000D01*
X170750000Y-89650000D01*
X170750000Y-90621500D01*
X170940500Y-90812000D01*
X171401571Y-90812000D01*
X171681638Y-90695992D01*
X171895992Y-90481638D01*
X172012000Y-90201571D01*
X172012000Y-89840500D01*
X171821500Y-89650000D01*
X170750000Y-89650000D01*
X169750000Y-89650000D01*
X168678500Y-89650000D01*
X168488000Y-89840500D01*
X168026928Y-89840500D01*
X168026928Y-88450000D01*
X167998409Y-88298429D01*
X168488000Y-88298429D01*
X168488000Y-88659500D01*
X168678500Y-88850000D01*
X169750000Y-88850000D01*
X169750000Y-87878500D01*
X170750000Y-87878500D01*
X170750000Y-88850000D01*
X171821500Y-88850000D01*
X172012000Y-88659500D01*
X172012000Y-88298429D01*
X171895992Y-88018362D01*
X171681638Y-87804008D01*
X171401571Y-87688000D01*
X170940500Y-87688000D01*
X170750000Y-87878500D01*
X169750000Y-87878500D01*
X169559500Y-87688000D01*
X169098429Y-87688000D01*
X168818362Y-87804008D01*
X168604008Y-88018362D01*
X168488000Y-88298429D01*
X167998409Y-88298429D01*
X167973795Y-88167620D01*
X167806908Y-87908271D01*
X167552269Y-87734283D01*
X167250000Y-87673072D01*
X167162000Y-87673072D01*
X167162000Y-87322967D01*
X167311815Y-86962172D01*
X167312112Y-86621648D01*
X181617240Y-86621648D01*
X181974559Y-87102060D01*
X182500920Y-87444134D01*
X182742000Y-87328580D01*
X182742000Y-86381800D01*
X181729002Y-86381800D01*
X181617240Y-86621648D01*
X167312112Y-86621648D01*
X167312184Y-86539682D01*
X167162000Y-86176208D01*
X167162000Y-85826928D01*
X167250000Y-85826928D01*
X167532380Y-85773795D01*
X167791729Y-85606908D01*
X167965717Y-85352269D01*
X168026928Y-85050000D01*
X168026928Y-84840500D01*
X168488000Y-84840500D01*
X168488000Y-85201571D01*
X168604008Y-85481638D01*
X168818362Y-85695992D01*
X169098429Y-85812000D01*
X169559500Y-85812000D01*
X169750000Y-85621500D01*
X169750000Y-84650000D01*
X170750000Y-84650000D01*
X170750000Y-85621500D01*
X170940500Y-85812000D01*
X171401571Y-85812000D01*
X171681638Y-85695992D01*
X171895992Y-85481638D01*
X172012000Y-85201571D01*
X172012000Y-84840500D01*
X171821500Y-84650000D01*
X170750000Y-84650000D01*
X169750000Y-84650000D01*
X168678500Y-84650000D01*
X168488000Y-84840500D01*
X168026928Y-84840500D01*
X168026928Y-83762834D01*
X168069881Y-83719881D01*
X168175417Y-83561935D01*
X168460318Y-83562184D01*
X168488000Y-83550746D01*
X168488000Y-83659500D01*
X168678500Y-83850000D01*
X169750000Y-83850000D01*
X169750000Y-82878500D01*
X170750000Y-82878500D01*
X170750000Y-83850000D01*
X171821500Y-83850000D01*
X172012000Y-83659500D01*
X172012000Y-83298429D01*
X171895992Y-83018362D01*
X171681638Y-82804008D01*
X171401571Y-82688000D01*
X170940500Y-82688000D01*
X170750000Y-82878500D01*
X169750000Y-82878500D01*
X169559500Y-82688000D01*
X169311836Y-82688000D01*
X169312049Y-82444268D01*
X169416729Y-82376908D01*
X169590717Y-82122269D01*
X169651928Y-81820000D01*
X169651928Y-80700000D01*
X169614659Y-80501928D01*
X170040000Y-80501928D01*
X170040000Y-80946500D01*
X170230500Y-81137000D01*
X170471571Y-81137000D01*
X170751638Y-81020992D01*
X170965992Y-80806638D01*
X171082000Y-80526571D01*
X171082000Y-80490500D01*
X170891500Y-80300000D01*
X170833613Y-80300000D01*
X170861729Y-80281908D01*
X171035717Y-80027269D01*
X171041173Y-80000327D01*
X171082000Y-79959500D01*
X171082000Y-79923429D01*
X171065038Y-79882479D01*
X171074247Y-79837000D01*
X180115000Y-79837000D01*
X180464007Y-79767578D01*
X180759881Y-79569881D01*
X181530507Y-78799255D01*
X181560908Y-78952090D01*
X181560908Y-78952090D01*
G37*
X181560908Y-78952090D02*
X181913294Y-79479473D01*
X182093675Y-79600000D01*
X181913294Y-79720527D01*
X181560908Y-80247910D01*
X181437167Y-80870000D01*
X181560908Y-81492090D01*
X181913294Y-82019473D01*
X182093675Y-82140000D01*
X181913294Y-82260527D01*
X181560908Y-82787910D01*
X181437167Y-83410000D01*
X181560908Y-84032090D01*
X181913294Y-84559473D01*
X182124424Y-84700545D01*
X181974559Y-84797940D01*
X181617240Y-85278352D01*
X181729002Y-85518200D01*
X182742000Y-85518200D01*
X182742000Y-85184000D01*
X183758000Y-85184000D01*
X183758000Y-85518200D01*
X184016000Y-85518200D01*
X184016000Y-86381800D01*
X183758000Y-86381800D01*
X183758000Y-87328580D01*
X183999080Y-87444134D01*
X184525441Y-87102060D01*
X184827457Y-86696002D01*
X184913000Y-86696002D01*
X184913000Y-96413000D01*
X138587000Y-96413000D01*
X138587000Y-83860250D01*
X138634147Y-83877058D01*
X138699177Y-83812000D01*
X139700823Y-83812000D01*
X139765853Y-83877058D01*
X140184535Y-83727797D01*
X140514227Y-83429675D01*
X140678295Y-83110622D01*
X140659405Y-83088901D01*
X140737000Y-82901571D01*
X140737000Y-82640500D01*
X140588795Y-82492295D01*
X140678295Y-82389378D01*
X140514227Y-82070325D01*
X140270570Y-81850000D01*
X140546500Y-81850000D01*
X140737000Y-81659500D01*
X140737000Y-81398429D01*
X140695423Y-81298053D01*
X140793362Y-81395992D01*
X140838000Y-81414482D01*
X140838000Y-82175000D01*
X140841001Y-82190088D01*
X140795284Y-82238249D01*
X140897537Y-82474313D01*
X140897907Y-82476172D01*
X140899145Y-82478024D01*
X140970549Y-82642870D01*
X141287315Y-82949620D01*
X141539378Y-83078295D01*
X141673106Y-82962000D01*
X142126894Y-82962000D01*
X142260622Y-83078295D01*
X142512685Y-82949620D01*
X142829451Y-82642870D01*
X142900855Y-82478024D01*
X142902093Y-82476172D01*
X142902463Y-82474313D01*
X143004716Y-82238249D01*
X142958999Y-82190088D01*
X142962000Y-82175000D01*
X142962000Y-81414482D01*
X143006638Y-81395992D01*
X143220992Y-81181638D01*
X143337000Y-80901571D01*
X143337000Y-80840500D01*
X143146500Y-80650000D01*
X143121449Y-80650000D01*
X143290717Y-80402269D01*
X143315217Y-80281283D01*
X143337000Y-80259500D01*
X143337000Y-80198429D01*
X143333639Y-80190315D01*
X143339373Y-80162000D01*
X143372238Y-80162000D01*
X145838000Y-82627763D01*
X145838000Y-82673072D01*
X145750000Y-82673072D01*
X145467620Y-82726205D01*
X145208271Y-82893092D01*
X145034283Y-83147731D01*
X144973072Y-83450000D01*
X144973072Y-85050000D01*
X145026205Y-85332380D01*
X145193092Y-85591729D01*
X145447731Y-85765717D01*
X145750000Y-85826928D01*
X147750000Y-85826928D01*
X148032380Y-85773795D01*
X148291729Y-85606908D01*
X148302046Y-85591809D01*
X149105118Y-86394881D01*
X149400992Y-86592578D01*
X149458896Y-86604096D01*
X149750000Y-86662000D01*
X153250000Y-86662000D01*
X153599007Y-86592578D01*
X153894881Y-86394881D01*
X154412834Y-85876928D01*
X155750000Y-85876928D01*
X156032380Y-85823795D01*
X156291729Y-85656908D01*
X156465717Y-85402269D01*
X156526928Y-85100000D01*
X156526928Y-84816691D01*
X156605119Y-84894882D01*
X156900993Y-85092578D01*
X156974424Y-85107184D01*
X157026205Y-85382380D01*
X157193092Y-85641729D01*
X157447731Y-85815717D01*
X157750000Y-85876928D01*
X159750000Y-85876928D01*
X160032380Y-85823795D01*
X160088000Y-85788004D01*
X160088000Y-91500000D01*
X160155233Y-91838001D01*
X160157422Y-91849007D01*
X160355119Y-92144881D01*
X162855119Y-94644881D01*
X163150993Y-94842578D01*
X163500000Y-94912000D01*
X164484738Y-94912000D01*
X164526205Y-95132380D01*
X164693092Y-95391729D01*
X164947731Y-95565717D01*
X165250000Y-95626928D01*
X167250000Y-95626928D01*
X167532380Y-95573795D01*
X167791729Y-95406908D01*
X167965717Y-95152269D01*
X168026928Y-94850000D01*
X168026928Y-93412000D01*
X168372238Y-93412000D01*
X168473072Y-93512834D01*
X168473072Y-94850000D01*
X168526205Y-95132380D01*
X168693092Y-95391729D01*
X168947731Y-95565717D01*
X169250000Y-95626928D01*
X171250000Y-95626928D01*
X171532380Y-95573795D01*
X171791729Y-95406908D01*
X171965717Y-95152269D01*
X172014373Y-94912000D01*
X173500000Y-94912000D01*
X173849007Y-94842578D01*
X174144881Y-94644881D01*
X174527955Y-94261807D01*
X175049436Y-94262262D01*
X175605360Y-94032559D01*
X175705076Y-93933017D01*
X179097313Y-93933017D01*
X179174456Y-94180156D01*
X179765564Y-94291543D01*
X180325544Y-94180156D01*
X180402687Y-93933017D01*
X179750000Y-93280330D01*
X179097313Y-93933017D01*
X175705076Y-93933017D01*
X176031064Y-93607598D01*
X176261737Y-93052075D01*
X176261987Y-92765564D01*
X178208457Y-92765564D01*
X178319844Y-93325544D01*
X178566983Y-93402687D01*
X179219670Y-92750000D01*
X180280330Y-92750000D01*
X180933017Y-93402687D01*
X181180156Y-93325544D01*
X181291543Y-92734436D01*
X181180156Y-92174456D01*
X180933017Y-92097313D01*
X180280330Y-92750000D01*
X179219670Y-92750000D01*
X178566983Y-92097313D01*
X178319844Y-92174456D01*
X178208457Y-92765564D01*
X176261987Y-92765564D01*
X176262262Y-92450564D01*
X176032559Y-91894640D01*
X175705474Y-91566983D01*
X179097313Y-91566983D01*
X179750000Y-92219670D01*
X180402687Y-91566983D01*
X180325544Y-91319844D01*
X179734436Y-91208457D01*
X179174456Y-91319844D01*
X179097313Y-91566983D01*
X175705474Y-91566983D01*
X175607598Y-91468936D01*
X175052075Y-91238263D01*
X174450564Y-91237738D01*
X173894640Y-91467441D01*
X173468936Y-91892402D01*
X173238263Y-92447925D01*
X173237805Y-92972433D01*
X173122238Y-93088000D01*
X172015262Y-93088000D01*
X171973795Y-92867620D01*
X171806908Y-92608271D01*
X171552269Y-92434283D01*
X171250000Y-92373072D01*
X169912834Y-92373072D01*
X169394881Y-91855119D01*
X169099007Y-91657422D01*
X168750000Y-91588000D01*
X163877763Y-91588000D01*
X162912000Y-90622238D01*
X162912000Y-83877762D01*
X164617763Y-82172000D01*
X165946004Y-82172000D01*
X166068092Y-82361729D01*
X166322731Y-82535717D01*
X166513000Y-82574247D01*
X166513000Y-82673072D01*
X165250000Y-82673072D01*
X164967620Y-82726205D01*
X164708271Y-82893092D01*
X164534283Y-83147731D01*
X164473072Y-83450000D01*
X164473072Y-85050000D01*
X164526205Y-85332380D01*
X164693092Y-85591729D01*
X164947731Y-85765717D01*
X165250000Y-85826928D01*
X165338000Y-85826928D01*
X165338000Y-86177033D01*
X165188185Y-86537828D01*
X165187816Y-86960318D01*
X165338000Y-87323792D01*
X165338000Y-87673072D01*
X165250000Y-87673072D01*
X164967620Y-87726205D01*
X164708271Y-87893092D01*
X164534283Y-88147731D01*
X164473072Y-88450000D01*
X164473072Y-90050000D01*
X164526205Y-90332380D01*
X164693092Y-90591729D01*
X164947731Y-90765717D01*
X165250000Y-90826928D01*
X167250000Y-90826928D01*
X167532380Y-90773795D01*
X167791729Y-90606908D01*
X167965717Y-90352269D01*
X168026928Y-90050000D01*
X168026928Y-89840500D01*
X168488000Y-89840500D01*
X168488000Y-90201571D01*
X168604008Y-90481638D01*
X168818362Y-90695992D01*
X169098429Y-90812000D01*
X169559500Y-90812000D01*
X169750000Y-90621500D01*
X169750000Y-89650000D01*
X170750000Y-89650000D01*
X170750000Y-90621500D01*
X170940500Y-90812000D01*
X171401571Y-90812000D01*
X171681638Y-90695992D01*
X171895992Y-90481638D01*
X172012000Y-90201571D01*
X172012000Y-89840500D01*
X171821500Y-89650000D01*
X170750000Y-89650000D01*
X169750000Y-89650000D01*
X168678500Y-89650000D01*
X168488000Y-89840500D01*
X168026928Y-89840500D01*
X168026928Y-88450000D01*
X167998409Y-88298429D01*
X168488000Y-88298429D01*
X168488000Y-88659500D01*
X168678500Y-88850000D01*
X169750000Y-88850000D01*
X169750000Y-87878500D01*
X170750000Y-87878500D01*
X170750000Y-88850000D01*
X171821500Y-88850000D01*
X172012000Y-88659500D01*
X172012000Y-88298429D01*
X171895992Y-88018362D01*
X171681638Y-87804008D01*
X171401571Y-87688000D01*
X170940500Y-87688000D01*
X170750000Y-87878500D01*
X169750000Y-87878500D01*
X169559500Y-87688000D01*
X169098429Y-87688000D01*
X168818362Y-87804008D01*
X168604008Y-88018362D01*
X168488000Y-88298429D01*
X167998409Y-88298429D01*
X167973795Y-88167620D01*
X167806908Y-87908271D01*
X167552269Y-87734283D01*
X167250000Y-87673072D01*
X167162000Y-87673072D01*
X167162000Y-87322967D01*
X167311815Y-86962172D01*
X167312112Y-86621648D01*
X181617240Y-86621648D01*
X181974559Y-87102060D01*
X182500920Y-87444134D01*
X182742000Y-87328580D01*
X182742000Y-86381800D01*
X181729002Y-86381800D01*
X181617240Y-86621648D01*
X167312112Y-86621648D01*
X167312184Y-86539682D01*
X167162000Y-86176208D01*
X167162000Y-85826928D01*
X167250000Y-85826928D01*
X167532380Y-85773795D01*
X167791729Y-85606908D01*
X167965717Y-85352269D01*
X168026928Y-85050000D01*
X168026928Y-84840500D01*
X168488000Y-84840500D01*
X168488000Y-85201571D01*
X168604008Y-85481638D01*
X168818362Y-85695992D01*
X169098429Y-85812000D01*
X169559500Y-85812000D01*
X169750000Y-85621500D01*
X169750000Y-84650000D01*
X170750000Y-84650000D01*
X170750000Y-85621500D01*
X170940500Y-85812000D01*
X171401571Y-85812000D01*
X171681638Y-85695992D01*
X171895992Y-85481638D01*
X172012000Y-85201571D01*
X172012000Y-84840500D01*
X171821500Y-84650000D01*
X170750000Y-84650000D01*
X169750000Y-84650000D01*
X168678500Y-84650000D01*
X168488000Y-84840500D01*
X168026928Y-84840500D01*
X168026928Y-83762834D01*
X168069881Y-83719881D01*
X168175417Y-83561935D01*
X168460318Y-83562184D01*
X168488000Y-83550746D01*
X168488000Y-83659500D01*
X168678500Y-83850000D01*
X169750000Y-83850000D01*
X169750000Y-82878500D01*
X170750000Y-82878500D01*
X170750000Y-83850000D01*
X171821500Y-83850000D01*
X172012000Y-83659500D01*
X172012000Y-83298429D01*
X171895992Y-83018362D01*
X171681638Y-82804008D01*
X171401571Y-82688000D01*
X170940500Y-82688000D01*
X170750000Y-82878500D01*
X169750000Y-82878500D01*
X169559500Y-82688000D01*
X169311836Y-82688000D01*
X169312049Y-82444268D01*
X169416729Y-82376908D01*
X169590717Y-82122269D01*
X169651928Y-81820000D01*
X169651928Y-80700000D01*
X169614659Y-80501928D01*
X170040000Y-80501928D01*
X170040000Y-80946500D01*
X170230500Y-81137000D01*
X170471571Y-81137000D01*
X170751638Y-81020992D01*
X170965992Y-80806638D01*
X171082000Y-80526571D01*
X171082000Y-80490500D01*
X170891500Y-80300000D01*
X170833613Y-80300000D01*
X170861729Y-80281908D01*
X171035717Y-80027269D01*
X171041173Y-80000327D01*
X171082000Y-79959500D01*
X171082000Y-79923429D01*
X171065038Y-79882479D01*
X171074247Y-79837000D01*
X180115000Y-79837000D01*
X180464007Y-79767578D01*
X180759881Y-79569881D01*
X181530507Y-78799255D01*
X181560908Y-78952090D01*
G36*
X149105118Y-81394881D02*
X149400992Y-81592578D01*
X149439336Y-81600205D01*
X149750000Y-81662000D01*
X153250000Y-81662000D01*
X153599007Y-81592578D01*
X153894881Y-81394881D01*
X154412834Y-80876928D01*
X155750000Y-80876928D01*
X155838000Y-80860370D01*
X155838000Y-82640892D01*
X155750000Y-82623072D01*
X153750000Y-82623072D01*
X153467620Y-82676205D01*
X153208271Y-82843092D01*
X153034283Y-83097731D01*
X152973072Y-83400000D01*
X152973072Y-84737166D01*
X152872238Y-84838000D01*
X152509500Y-84838000D01*
X152321500Y-84650000D01*
X151250000Y-84650000D01*
X151250000Y-84838000D01*
X150250000Y-84838000D01*
X150250000Y-84650000D01*
X149984000Y-84650000D01*
X149984000Y-83850000D01*
X150250000Y-83850000D01*
X150250000Y-82878500D01*
X151250000Y-82878500D01*
X151250000Y-83850000D01*
X152321500Y-83850000D01*
X152512000Y-83659500D01*
X152512000Y-83298429D01*
X152395992Y-83018362D01*
X152181638Y-82804008D01*
X151901571Y-82688000D01*
X151440500Y-82688000D01*
X151250000Y-82878500D01*
X150250000Y-82878500D01*
X150059500Y-82688000D01*
X149598429Y-82688000D01*
X149318362Y-82804008D01*
X149104008Y-83018362D01*
X148988000Y-83298429D01*
X148988000Y-83698238D01*
X148894881Y-83605119D01*
X148599007Y-83407422D01*
X148561694Y-83400000D01*
X148515802Y-83390872D01*
X148473795Y-83167620D01*
X148306908Y-82908271D01*
X148052269Y-82734283D01*
X147750000Y-82673072D01*
X147662000Y-82673072D01*
X147662000Y-82250000D01*
X147592578Y-81900993D01*
X147590338Y-81897640D01*
X147394882Y-81605119D01*
X146616691Y-80826928D01*
X147750000Y-80826928D01*
X148032380Y-80773795D01*
X148291729Y-80606908D01*
X148302046Y-80591809D01*
X149105118Y-81394881D01*
X149105118Y-81394881D01*
G37*
X149105118Y-81394881D02*
X149400992Y-81592578D01*
X149439336Y-81600205D01*
X149750000Y-81662000D01*
X153250000Y-81662000D01*
X153599007Y-81592578D01*
X153894881Y-81394881D01*
X154412834Y-80876928D01*
X155750000Y-80876928D01*
X155838000Y-80860370D01*
X155838000Y-82640892D01*
X155750000Y-82623072D01*
X153750000Y-82623072D01*
X153467620Y-82676205D01*
X153208271Y-82843092D01*
X153034283Y-83097731D01*
X152973072Y-83400000D01*
X152973072Y-84737166D01*
X152872238Y-84838000D01*
X152509500Y-84838000D01*
X152321500Y-84650000D01*
X151250000Y-84650000D01*
X151250000Y-84838000D01*
X150250000Y-84838000D01*
X150250000Y-84650000D01*
X149984000Y-84650000D01*
X149984000Y-83850000D01*
X150250000Y-83850000D01*
X150250000Y-82878500D01*
X151250000Y-82878500D01*
X151250000Y-83850000D01*
X152321500Y-83850000D01*
X152512000Y-83659500D01*
X152512000Y-83298429D01*
X152395992Y-83018362D01*
X152181638Y-82804008D01*
X151901571Y-82688000D01*
X151440500Y-82688000D01*
X151250000Y-82878500D01*
X150250000Y-82878500D01*
X150059500Y-82688000D01*
X149598429Y-82688000D01*
X149318362Y-82804008D01*
X149104008Y-83018362D01*
X148988000Y-83298429D01*
X148988000Y-83698238D01*
X148894881Y-83605119D01*
X148599007Y-83407422D01*
X148561694Y-83400000D01*
X148515802Y-83390872D01*
X148473795Y-83167620D01*
X148306908Y-82908271D01*
X148052269Y-82734283D01*
X147750000Y-82673072D01*
X147662000Y-82673072D01*
X147662000Y-82250000D01*
X147592578Y-81900993D01*
X147590338Y-81897640D01*
X147394882Y-81605119D01*
X146616691Y-80826928D01*
X147750000Y-80826928D01*
X148032380Y-80773795D01*
X148291729Y-80606908D01*
X148302046Y-80591809D01*
X149105118Y-81394881D01*
G36*
X139587500Y-77875000D02*
X139966000Y-77875000D01*
X139966000Y-78625000D01*
X139587500Y-78625000D01*
X139587500Y-79875000D01*
X139966000Y-79875000D01*
X139966000Y-80625000D01*
X139587500Y-80625000D01*
X139587500Y-81000000D01*
X138812500Y-81000000D01*
X138812500Y-80625000D01*
X138587000Y-80625000D01*
X138587000Y-79875000D01*
X138812500Y-79875000D01*
X138812500Y-78625000D01*
X138587000Y-78625000D01*
X138587000Y-77875000D01*
X138812500Y-77875000D01*
X138812500Y-77500000D01*
X139587500Y-77500000D01*
X139587500Y-77875000D01*
X139587500Y-77875000D01*
G37*
X139587500Y-77875000D02*
X139966000Y-77875000D01*
X139966000Y-78625000D01*
X139587500Y-78625000D01*
X139587500Y-79875000D01*
X139966000Y-79875000D01*
X139966000Y-80625000D01*
X139587500Y-80625000D01*
X139587500Y-81000000D01*
X138812500Y-81000000D01*
X138812500Y-80625000D01*
X138587000Y-80625000D01*
X138587000Y-79875000D01*
X138812500Y-79875000D01*
X138812500Y-78625000D01*
X138587000Y-78625000D01*
X138587000Y-77875000D01*
X138812500Y-77875000D01*
X138812500Y-77500000D01*
X139587500Y-77500000D01*
X139587500Y-77875000D01*
G36*
X167622731Y-78515717D02*
X167649673Y-78521173D01*
X167690500Y-78562000D01*
X167726571Y-78562000D01*
X167767521Y-78545038D01*
X167925000Y-78576928D01*
X168225000Y-78576928D01*
X168287500Y-78565168D01*
X168287500Y-78712500D01*
X168435729Y-78712500D01*
X168423072Y-78775000D01*
X168423072Y-79075000D01*
X168457209Y-79256425D01*
X168423072Y-79425000D01*
X168423072Y-79725000D01*
X168434832Y-79787500D01*
X168287500Y-79787500D01*
X168287500Y-79935729D01*
X168225000Y-79923072D01*
X167925000Y-79923072D01*
X167743575Y-79957209D01*
X167575000Y-79923072D01*
X167275000Y-79923072D01*
X167212500Y-79934832D01*
X167212500Y-79787500D01*
X167064271Y-79787500D01*
X167076928Y-79725000D01*
X167076928Y-79425000D01*
X167042791Y-79243575D01*
X167076928Y-79075000D01*
X167076928Y-78775000D01*
X167065168Y-78712500D01*
X167212500Y-78712500D01*
X167212500Y-78520500D01*
X167269223Y-78484000D01*
X167576312Y-78484000D01*
X167622731Y-78515717D01*
X167622731Y-78515717D01*
G37*
X167622731Y-78515717D02*
X167649673Y-78521173D01*
X167690500Y-78562000D01*
X167726571Y-78562000D01*
X167767521Y-78545038D01*
X167925000Y-78576928D01*
X168225000Y-78576928D01*
X168287500Y-78565168D01*
X168287500Y-78712500D01*
X168435729Y-78712500D01*
X168423072Y-78775000D01*
X168423072Y-79075000D01*
X168457209Y-79256425D01*
X168423072Y-79425000D01*
X168423072Y-79725000D01*
X168434832Y-79787500D01*
X168287500Y-79787500D01*
X168287500Y-79935729D01*
X168225000Y-79923072D01*
X167925000Y-79923072D01*
X167743575Y-79957209D01*
X167575000Y-79923072D01*
X167275000Y-79923072D01*
X167212500Y-79934832D01*
X167212500Y-79787500D01*
X167064271Y-79787500D01*
X167076928Y-79725000D01*
X167076928Y-79425000D01*
X167042791Y-79243575D01*
X167076928Y-79075000D01*
X167076928Y-78775000D01*
X167065168Y-78712500D01*
X167212500Y-78712500D01*
X167212500Y-78520500D01*
X167269223Y-78484000D01*
X167576312Y-78484000D01*
X167622731Y-78515717D01*
G36*
X184913000Y-71634678D02*
X184822908Y-71494671D01*
X184568269Y-71320683D01*
X184266000Y-71259472D01*
X182234000Y-71259472D01*
X181951620Y-71312605D01*
X181692271Y-71479492D01*
X181518283Y-71734131D01*
X181457072Y-72036400D01*
X181457072Y-72338000D01*
X172005854Y-72338000D01*
X171973795Y-72167620D01*
X171806908Y-71908271D01*
X171552269Y-71734283D01*
X171250000Y-71673072D01*
X171162000Y-71673072D01*
X171162000Y-69876928D01*
X171250000Y-69876928D01*
X171532380Y-69823795D01*
X171791729Y-69656908D01*
X171965717Y-69402269D01*
X172026928Y-69100000D01*
X172026928Y-67400000D01*
X171973795Y-67117620D01*
X171806908Y-66858271D01*
X171552269Y-66684283D01*
X171250000Y-66623072D01*
X169250000Y-66623072D01*
X168967620Y-66676205D01*
X168708271Y-66843092D01*
X168534283Y-67097731D01*
X168473072Y-67400000D01*
X168473072Y-69100000D01*
X168517854Y-69338000D01*
X167978732Y-69338000D01*
X168026928Y-69100000D01*
X168026928Y-67400000D01*
X167973795Y-67117620D01*
X167806908Y-66858271D01*
X167552269Y-66684283D01*
X167250000Y-66623072D01*
X167162000Y-66623072D01*
X167162000Y-65151928D01*
X167750000Y-65151928D01*
X168032380Y-65098795D01*
X168252372Y-64957234D01*
X168447731Y-65090717D01*
X168750000Y-65151928D01*
X170250000Y-65151928D01*
X170532380Y-65098795D01*
X170791729Y-64931908D01*
X170965717Y-64677269D01*
X170968809Y-64662000D01*
X171177033Y-64662000D01*
X171537828Y-64811815D01*
X171960318Y-64812184D01*
X172350789Y-64650845D01*
X172649795Y-64352360D01*
X172811815Y-63962172D01*
X172812184Y-63539682D01*
X172650845Y-63149211D01*
X172352360Y-62850205D01*
X171962172Y-62688185D01*
X171539682Y-62687816D01*
X171176208Y-62838000D01*
X170970822Y-62838000D01*
X170806908Y-62583271D01*
X170552269Y-62409283D01*
X170250000Y-62348072D01*
X168750000Y-62348072D01*
X168467620Y-62401205D01*
X168247628Y-62542766D01*
X168052269Y-62409283D01*
X167750000Y-62348072D01*
X166250000Y-62348072D01*
X165967620Y-62401205D01*
X165708271Y-62568092D01*
X165534283Y-62822731D01*
X165473072Y-63125000D01*
X165473072Y-64052741D01*
X165407422Y-64150993D01*
X165338000Y-64500000D01*
X165338000Y-66623072D01*
X165250000Y-66623072D01*
X164967620Y-66676205D01*
X164708271Y-66843092D01*
X164534283Y-67097731D01*
X164473072Y-67400000D01*
X164473072Y-69100000D01*
X164517854Y-69338000D01*
X163822967Y-69338000D01*
X163462172Y-69188185D01*
X163039682Y-69187816D01*
X162676208Y-69338000D01*
X161127762Y-69338000D01*
X160526928Y-68737166D01*
X160526928Y-67400000D01*
X160473795Y-67117620D01*
X160306908Y-66858271D01*
X160052269Y-66684283D01*
X159750000Y-66623072D01*
X157750000Y-66623072D01*
X157467620Y-66676205D01*
X157208271Y-66843092D01*
X157034283Y-67097731D01*
X156973072Y-67400000D01*
X156973072Y-69100000D01*
X157026205Y-69382380D01*
X157193092Y-69641729D01*
X157447731Y-69815717D01*
X157750000Y-69876928D01*
X159087166Y-69876928D01*
X160105119Y-70894881D01*
X160400993Y-71092578D01*
X160750000Y-71162000D01*
X162677033Y-71162000D01*
X163037828Y-71311815D01*
X163460318Y-71312184D01*
X163823792Y-71162000D01*
X169338000Y-71162000D01*
X169338000Y-71673072D01*
X169250000Y-71673072D01*
X168967620Y-71726205D01*
X168708271Y-71893092D01*
X168534283Y-72147731D01*
X168473072Y-72450000D01*
X168473072Y-74050000D01*
X168526205Y-74332380D01*
X168554806Y-74376827D01*
X168458896Y-74395904D01*
X168400992Y-74407422D01*
X168105119Y-74605119D01*
X167484063Y-75226175D01*
X167419881Y-75130119D01*
X167300031Y-75010269D01*
X167218108Y-74812000D01*
X167401571Y-74812000D01*
X167681638Y-74695992D01*
X167895992Y-74481638D01*
X168012000Y-74201571D01*
X168012000Y-73840500D01*
X167821500Y-73650000D01*
X166750000Y-73650000D01*
X166750000Y-74016000D01*
X165750000Y-74016000D01*
X165750000Y-73650000D01*
X164678500Y-73650000D01*
X164488000Y-73840500D01*
X164488000Y-74201571D01*
X164604008Y-74481638D01*
X164818362Y-74695992D01*
X165098429Y-74812000D01*
X165281957Y-74812000D01*
X165188185Y-75037828D01*
X165187816Y-75460318D01*
X165349155Y-75850789D01*
X165647640Y-76149795D01*
X165863000Y-76239220D01*
X165863000Y-76606283D01*
X165848072Y-76680000D01*
X165848072Y-77058309D01*
X165300031Y-76510268D01*
X165150845Y-76149211D01*
X164852360Y-75850205D01*
X164462172Y-75688185D01*
X164039682Y-75687816D01*
X163649211Y-75849155D01*
X163350205Y-76147640D01*
X163188185Y-76537828D01*
X163187816Y-76960318D01*
X163349155Y-77350789D01*
X163647640Y-77649795D01*
X164010851Y-77800613D01*
X164223238Y-78013000D01*
X161802762Y-78013000D01*
X160894881Y-77105119D01*
X160599007Y-76907422D01*
X160250000Y-76838000D01*
X157250000Y-76838000D01*
X156900993Y-76907422D01*
X156605119Y-77105118D01*
X156105119Y-77605119D01*
X156052229Y-77684275D01*
X155750000Y-77623072D01*
X153750000Y-77623072D01*
X153467620Y-77676205D01*
X153208271Y-77843092D01*
X153034283Y-78097731D01*
X152973072Y-78400000D01*
X152973072Y-79737166D01*
X152872238Y-79838000D01*
X152509500Y-79838000D01*
X152321500Y-79650000D01*
X151250000Y-79650000D01*
X151250000Y-79838000D01*
X150250000Y-79838000D01*
X150250000Y-79650000D01*
X149984000Y-79650000D01*
X149984000Y-78850000D01*
X150250000Y-78850000D01*
X150250000Y-77878500D01*
X151250000Y-77878500D01*
X151250000Y-78850000D01*
X152321500Y-78850000D01*
X152512000Y-78659500D01*
X152512000Y-78298429D01*
X152395992Y-78018362D01*
X152181638Y-77804008D01*
X151901571Y-77688000D01*
X151440500Y-77688000D01*
X151250000Y-77878500D01*
X150250000Y-77878500D01*
X150059500Y-77688000D01*
X149598429Y-77688000D01*
X149318362Y-77804008D01*
X149104008Y-78018362D01*
X148988000Y-78298429D01*
X148988000Y-78698238D01*
X148894881Y-78605119D01*
X148599007Y-78407422D01*
X148561694Y-78400000D01*
X148515802Y-78390872D01*
X148473795Y-78167620D01*
X148306908Y-77908271D01*
X148052269Y-77734283D01*
X147750000Y-77673072D01*
X145750000Y-77673072D01*
X145670664Y-77688000D01*
X144601762Y-77688000D01*
X146462835Y-75826928D01*
X147750000Y-75826928D01*
X148032380Y-75773795D01*
X148291729Y-75606908D01*
X148302046Y-75591809D01*
X149105118Y-76394881D01*
X149400992Y-76592578D01*
X149413767Y-76595119D01*
X149750000Y-76662000D01*
X153250000Y-76662000D01*
X153599007Y-76592578D01*
X153894881Y-76394881D01*
X154462834Y-75826928D01*
X155750000Y-75826928D01*
X156032380Y-75773795D01*
X156291729Y-75606908D01*
X156465717Y-75352269D01*
X156526928Y-75050000D01*
X156526928Y-73450000D01*
X156973072Y-73450000D01*
X156973072Y-75050000D01*
X157026205Y-75332380D01*
X157193092Y-75591729D01*
X157447731Y-75765717D01*
X157750000Y-75826928D01*
X159750000Y-75826928D01*
X160032380Y-75773795D01*
X160291729Y-75606908D01*
X160465717Y-75352269D01*
X160504247Y-75162000D01*
X161677033Y-75162000D01*
X162037828Y-75311815D01*
X162460318Y-75312184D01*
X162850789Y-75150845D01*
X163149795Y-74852360D01*
X163311815Y-74462172D01*
X163312184Y-74039682D01*
X163150845Y-73649211D01*
X162852360Y-73350205D01*
X162462172Y-73188185D01*
X162039682Y-73187816D01*
X161676208Y-73338000D01*
X160505854Y-73338000D01*
X160473795Y-73167620D01*
X160306908Y-72908271D01*
X160052269Y-72734283D01*
X159750000Y-72673072D01*
X157750000Y-72673072D01*
X157467620Y-72726205D01*
X157208271Y-72893092D01*
X157034283Y-73147731D01*
X156973072Y-73450000D01*
X156526928Y-73450000D01*
X156473795Y-73167620D01*
X156306908Y-72908271D01*
X156052269Y-72734283D01*
X155750000Y-72673072D01*
X153750000Y-72673072D01*
X153467620Y-72726205D01*
X153208271Y-72893092D01*
X153034283Y-73147731D01*
X152973072Y-73450000D01*
X152973072Y-74737166D01*
X152872238Y-74838000D01*
X152509500Y-74838000D01*
X152321500Y-74650000D01*
X151250000Y-74650000D01*
X151250000Y-74838000D01*
X150250000Y-74838000D01*
X150250000Y-74650000D01*
X149984000Y-74650000D01*
X149984000Y-73850000D01*
X150250000Y-73850000D01*
X150250000Y-72878500D01*
X151250000Y-72878500D01*
X151250000Y-73850000D01*
X152321500Y-73850000D01*
X152512000Y-73659500D01*
X152512000Y-73298429D01*
X152395992Y-73018362D01*
X152181638Y-72804008D01*
X151901571Y-72688000D01*
X151440500Y-72688000D01*
X151250000Y-72878500D01*
X150250000Y-72878500D01*
X150059500Y-72688000D01*
X149598429Y-72688000D01*
X149318362Y-72804008D01*
X149104008Y-73018362D01*
X148988000Y-73298429D01*
X148988000Y-73698238D01*
X148894881Y-73605119D01*
X148599007Y-73407422D01*
X148515802Y-73390872D01*
X148473795Y-73167620D01*
X148306908Y-72908271D01*
X148052269Y-72734283D01*
X147750000Y-72673072D01*
X145750000Y-72673072D01*
X145467620Y-72726205D01*
X145208271Y-72893092D01*
X145034283Y-73147731D01*
X144973072Y-73450000D01*
X144973072Y-74737165D01*
X143037000Y-76673238D01*
X143037000Y-76003998D01*
X142893068Y-76003998D01*
X142829451Y-75857130D01*
X142512685Y-75550380D01*
X142260622Y-75421705D01*
X142126894Y-75538000D01*
X141673106Y-75538000D01*
X141539378Y-75421705D01*
X141287315Y-75550380D01*
X140970549Y-75857130D01*
X140899145Y-76021976D01*
X140897907Y-76023828D01*
X140897537Y-76025687D01*
X140795284Y-76261751D01*
X140841001Y-76309912D01*
X140838000Y-76325000D01*
X140838000Y-77093526D01*
X140704840Y-77179213D01*
X140737000Y-77101571D01*
X140737000Y-76840500D01*
X140546500Y-76650000D01*
X140270570Y-76650000D01*
X140514227Y-76429675D01*
X140678295Y-76110622D01*
X140588795Y-76007705D01*
X140737000Y-75859500D01*
X140737000Y-75598429D01*
X140659405Y-75411099D01*
X140678295Y-75389378D01*
X140514227Y-75070325D01*
X140184535Y-74772203D01*
X139765853Y-74622942D01*
X139700823Y-74688000D01*
X138699177Y-74688000D01*
X138634147Y-74622942D01*
X138587000Y-74639750D01*
X138587000Y-72298429D01*
X164488000Y-72298429D01*
X164488000Y-72659500D01*
X164678500Y-72850000D01*
X165750000Y-72850000D01*
X165750000Y-71878500D01*
X166750000Y-71878500D01*
X166750000Y-72850000D01*
X167821500Y-72850000D01*
X168012000Y-72659500D01*
X168012000Y-72298429D01*
X167895992Y-72018362D01*
X167681638Y-71804008D01*
X167401571Y-71688000D01*
X166940500Y-71688000D01*
X166750000Y-71878500D01*
X165750000Y-71878500D01*
X165559500Y-71688000D01*
X165098429Y-71688000D01*
X164818362Y-71804008D01*
X164604008Y-72018362D01*
X164488000Y-72298429D01*
X138587000Y-72298429D01*
X138587000Y-67400000D01*
X152973072Y-67400000D01*
X152973072Y-69100000D01*
X153026205Y-69382380D01*
X153193092Y-69641729D01*
X153447731Y-69815717D01*
X153750000Y-69876928D01*
X155750000Y-69876928D01*
X156032380Y-69823795D01*
X156291729Y-69656908D01*
X156465717Y-69402269D01*
X156526928Y-69100000D01*
X156526928Y-67400000D01*
X156473795Y-67117620D01*
X156306908Y-66858271D01*
X156052269Y-66684283D01*
X155750000Y-66623072D01*
X155662000Y-66623072D01*
X155662000Y-65151928D01*
X156250000Y-65151928D01*
X156532380Y-65098795D01*
X156752372Y-64957234D01*
X156947731Y-65090717D01*
X157250000Y-65151928D01*
X158750000Y-65151928D01*
X159032380Y-65098795D01*
X159291729Y-64931908D01*
X159465717Y-64677269D01*
X159468809Y-64662000D01*
X159677033Y-64662000D01*
X160037828Y-64811815D01*
X160460318Y-64812184D01*
X160850789Y-64650845D01*
X161149795Y-64352360D01*
X161311815Y-63962172D01*
X161312184Y-63539682D01*
X161150845Y-63149211D01*
X160852360Y-62850205D01*
X160462172Y-62688185D01*
X160039682Y-62687816D01*
X159676208Y-62838000D01*
X159470822Y-62838000D01*
X159306908Y-62583271D01*
X159052269Y-62409283D01*
X158750000Y-62348072D01*
X157250000Y-62348072D01*
X156967620Y-62401205D01*
X156747628Y-62542766D01*
X156552269Y-62409283D01*
X156250000Y-62348072D01*
X154750000Y-62348072D01*
X154467620Y-62401205D01*
X154208271Y-62568092D01*
X154034283Y-62822731D01*
X153973072Y-63125000D01*
X153973072Y-64052741D01*
X153907422Y-64150993D01*
X153838000Y-64500000D01*
X153838000Y-66623072D01*
X153750000Y-66623072D01*
X153467620Y-66676205D01*
X153208271Y-66843092D01*
X153034283Y-67097731D01*
X152973072Y-67400000D01*
X138587000Y-67400000D01*
X138587000Y-62087000D01*
X184913000Y-62087000D01*
X184913000Y-71634678D01*
X184913000Y-71634678D01*
G37*
X184913000Y-71634678D02*
X184822908Y-71494671D01*
X184568269Y-71320683D01*
X184266000Y-71259472D01*
X182234000Y-71259472D01*
X181951620Y-71312605D01*
X181692271Y-71479492D01*
X181518283Y-71734131D01*
X181457072Y-72036400D01*
X181457072Y-72338000D01*
X172005854Y-72338000D01*
X171973795Y-72167620D01*
X171806908Y-71908271D01*
X171552269Y-71734283D01*
X171250000Y-71673072D01*
X171162000Y-71673072D01*
X171162000Y-69876928D01*
X171250000Y-69876928D01*
X171532380Y-69823795D01*
X171791729Y-69656908D01*
X171965717Y-69402269D01*
X172026928Y-69100000D01*
X172026928Y-67400000D01*
X171973795Y-67117620D01*
X171806908Y-66858271D01*
X171552269Y-66684283D01*
X171250000Y-66623072D01*
X169250000Y-66623072D01*
X168967620Y-66676205D01*
X168708271Y-66843092D01*
X168534283Y-67097731D01*
X168473072Y-67400000D01*
X168473072Y-69100000D01*
X168517854Y-69338000D01*
X167978732Y-69338000D01*
X168026928Y-69100000D01*
X168026928Y-67400000D01*
X167973795Y-67117620D01*
X167806908Y-66858271D01*
X167552269Y-66684283D01*
X167250000Y-66623072D01*
X167162000Y-66623072D01*
X167162000Y-65151928D01*
X167750000Y-65151928D01*
X168032380Y-65098795D01*
X168252372Y-64957234D01*
X168447731Y-65090717D01*
X168750000Y-65151928D01*
X170250000Y-65151928D01*
X170532380Y-65098795D01*
X170791729Y-64931908D01*
X170965717Y-64677269D01*
X170968809Y-64662000D01*
X171177033Y-64662000D01*
X171537828Y-64811815D01*
X171960318Y-64812184D01*
X172350789Y-64650845D01*
X172649795Y-64352360D01*
X172811815Y-63962172D01*
X172812184Y-63539682D01*
X172650845Y-63149211D01*
X172352360Y-62850205D01*
X171962172Y-62688185D01*
X171539682Y-62687816D01*
X171176208Y-62838000D01*
X170970822Y-62838000D01*
X170806908Y-62583271D01*
X170552269Y-62409283D01*
X170250000Y-62348072D01*
X168750000Y-62348072D01*
X168467620Y-62401205D01*
X168247628Y-62542766D01*
X168052269Y-62409283D01*
X167750000Y-62348072D01*
X166250000Y-62348072D01*
X165967620Y-62401205D01*
X165708271Y-62568092D01*
X165534283Y-62822731D01*
X165473072Y-63125000D01*
X165473072Y-64052741D01*
X165407422Y-64150993D01*
X165338000Y-64500000D01*
X165338000Y-66623072D01*
X165250000Y-66623072D01*
X164967620Y-66676205D01*
X164708271Y-66843092D01*
X164534283Y-67097731D01*
X164473072Y-67400000D01*
X164473072Y-69100000D01*
X164517854Y-69338000D01*
X163822967Y-69338000D01*
X163462172Y-69188185D01*
X163039682Y-69187816D01*
X162676208Y-69338000D01*
X161127762Y-69338000D01*
X160526928Y-68737166D01*
X160526928Y-67400000D01*
X160473795Y-67117620D01*
X160306908Y-66858271D01*
X160052269Y-66684283D01*
X159750000Y-66623072D01*
X157750000Y-66623072D01*
X157467620Y-66676205D01*
X157208271Y-66843092D01*
X157034283Y-67097731D01*
X156973072Y-67400000D01*
X156973072Y-69100000D01*
X157026205Y-69382380D01*
X157193092Y-69641729D01*
X157447731Y-69815717D01*
X157750000Y-69876928D01*
X159087166Y-69876928D01*
X160105119Y-70894881D01*
X160400993Y-71092578D01*
X160750000Y-71162000D01*
X162677033Y-71162000D01*
X163037828Y-71311815D01*
X163460318Y-71312184D01*
X163823792Y-71162000D01*
X169338000Y-71162000D01*
X169338000Y-71673072D01*
X169250000Y-71673072D01*
X168967620Y-71726205D01*
X168708271Y-71893092D01*
X168534283Y-72147731D01*
X168473072Y-72450000D01*
X168473072Y-74050000D01*
X168526205Y-74332380D01*
X168554806Y-74376827D01*
X168458896Y-74395904D01*
X168400992Y-74407422D01*
X168105119Y-74605119D01*
X167484063Y-75226175D01*
X167419881Y-75130119D01*
X167300031Y-75010269D01*
X167218108Y-74812000D01*
X167401571Y-74812000D01*
X167681638Y-74695992D01*
X167895992Y-74481638D01*
X168012000Y-74201571D01*
X168012000Y-73840500D01*
X167821500Y-73650000D01*
X166750000Y-73650000D01*
X166750000Y-74016000D01*
X165750000Y-74016000D01*
X165750000Y-73650000D01*
X164678500Y-73650000D01*
X164488000Y-73840500D01*
X164488000Y-74201571D01*
X164604008Y-74481638D01*
X164818362Y-74695992D01*
X165098429Y-74812000D01*
X165281957Y-74812000D01*
X165188185Y-75037828D01*
X165187816Y-75460318D01*
X165349155Y-75850789D01*
X165647640Y-76149795D01*
X165863000Y-76239220D01*
X165863000Y-76606283D01*
X165848072Y-76680000D01*
X165848072Y-77058309D01*
X165300031Y-76510268D01*
X165150845Y-76149211D01*
X164852360Y-75850205D01*
X164462172Y-75688185D01*
X164039682Y-75687816D01*
X163649211Y-75849155D01*
X163350205Y-76147640D01*
X163188185Y-76537828D01*
X163187816Y-76960318D01*
X163349155Y-77350789D01*
X163647640Y-77649795D01*
X164010851Y-77800613D01*
X164223238Y-78013000D01*
X161802762Y-78013000D01*
X160894881Y-77105119D01*
X160599007Y-76907422D01*
X160250000Y-76838000D01*
X157250000Y-76838000D01*
X156900993Y-76907422D01*
X156605119Y-77105118D01*
X156105119Y-77605119D01*
X156052229Y-77684275D01*
X155750000Y-77623072D01*
X153750000Y-77623072D01*
X153467620Y-77676205D01*
X153208271Y-77843092D01*
X153034283Y-78097731D01*
X152973072Y-78400000D01*
X152973072Y-79737166D01*
X152872238Y-79838000D01*
X152509500Y-79838000D01*
X152321500Y-79650000D01*
X151250000Y-79650000D01*
X151250000Y-79838000D01*
X150250000Y-79838000D01*
X150250000Y-79650000D01*
X149984000Y-79650000D01*
X149984000Y-78850000D01*
X150250000Y-78850000D01*
X150250000Y-77878500D01*
X151250000Y-77878500D01*
X151250000Y-78850000D01*
X152321500Y-78850000D01*
X152512000Y-78659500D01*
X152512000Y-78298429D01*
X152395992Y-78018362D01*
X152181638Y-77804008D01*
X151901571Y-77688000D01*
X151440500Y-77688000D01*
X151250000Y-77878500D01*
X150250000Y-77878500D01*
X150059500Y-77688000D01*
X149598429Y-77688000D01*
X149318362Y-77804008D01*
X149104008Y-78018362D01*
X148988000Y-78298429D01*
X148988000Y-78698238D01*
X148894881Y-78605119D01*
X148599007Y-78407422D01*
X148561694Y-78400000D01*
X148515802Y-78390872D01*
X148473795Y-78167620D01*
X148306908Y-77908271D01*
X148052269Y-77734283D01*
X147750000Y-77673072D01*
X145750000Y-77673072D01*
X145670664Y-77688000D01*
X144601762Y-77688000D01*
X146462835Y-75826928D01*
X147750000Y-75826928D01*
X148032380Y-75773795D01*
X148291729Y-75606908D01*
X148302046Y-75591809D01*
X149105118Y-76394881D01*
X149400992Y-76592578D01*
X149413767Y-76595119D01*
X149750000Y-76662000D01*
X153250000Y-76662000D01*
X153599007Y-76592578D01*
X153894881Y-76394881D01*
X154462834Y-75826928D01*
X155750000Y-75826928D01*
X156032380Y-75773795D01*
X156291729Y-75606908D01*
X156465717Y-75352269D01*
X156526928Y-75050000D01*
X156526928Y-73450000D01*
X156973072Y-73450000D01*
X156973072Y-75050000D01*
X157026205Y-75332380D01*
X157193092Y-75591729D01*
X157447731Y-75765717D01*
X157750000Y-75826928D01*
X159750000Y-75826928D01*
X160032380Y-75773795D01*
X160291729Y-75606908D01*
X160465717Y-75352269D01*
X160504247Y-75162000D01*
X161677033Y-75162000D01*
X162037828Y-75311815D01*
X162460318Y-75312184D01*
X162850789Y-75150845D01*
X163149795Y-74852360D01*
X163311815Y-74462172D01*
X163312184Y-74039682D01*
X163150845Y-73649211D01*
X162852360Y-73350205D01*
X162462172Y-73188185D01*
X162039682Y-73187816D01*
X161676208Y-73338000D01*
X160505854Y-73338000D01*
X160473795Y-73167620D01*
X160306908Y-72908271D01*
X160052269Y-72734283D01*
X159750000Y-72673072D01*
X157750000Y-72673072D01*
X157467620Y-72726205D01*
X157208271Y-72893092D01*
X157034283Y-73147731D01*
X156973072Y-73450000D01*
X156526928Y-73450000D01*
X156473795Y-73167620D01*
X156306908Y-72908271D01*
X156052269Y-72734283D01*
X155750000Y-72673072D01*
X153750000Y-72673072D01*
X153467620Y-72726205D01*
X153208271Y-72893092D01*
X153034283Y-73147731D01*
X152973072Y-73450000D01*
X152973072Y-74737166D01*
X152872238Y-74838000D01*
X152509500Y-74838000D01*
X152321500Y-74650000D01*
X151250000Y-74650000D01*
X151250000Y-74838000D01*
X150250000Y-74838000D01*
X150250000Y-74650000D01*
X149984000Y-74650000D01*
X149984000Y-73850000D01*
X150250000Y-73850000D01*
X150250000Y-72878500D01*
X151250000Y-72878500D01*
X151250000Y-73850000D01*
X152321500Y-73850000D01*
X152512000Y-73659500D01*
X152512000Y-73298429D01*
X152395992Y-73018362D01*
X152181638Y-72804008D01*
X151901571Y-72688000D01*
X151440500Y-72688000D01*
X151250000Y-72878500D01*
X150250000Y-72878500D01*
X150059500Y-72688000D01*
X149598429Y-72688000D01*
X149318362Y-72804008D01*
X149104008Y-73018362D01*
X148988000Y-73298429D01*
X148988000Y-73698238D01*
X148894881Y-73605119D01*
X148599007Y-73407422D01*
X148515802Y-73390872D01*
X148473795Y-73167620D01*
X148306908Y-72908271D01*
X148052269Y-72734283D01*
X147750000Y-72673072D01*
X145750000Y-72673072D01*
X145467620Y-72726205D01*
X145208271Y-72893092D01*
X145034283Y-73147731D01*
X144973072Y-73450000D01*
X144973072Y-74737165D01*
X143037000Y-76673238D01*
X143037000Y-76003998D01*
X142893068Y-76003998D01*
X142829451Y-75857130D01*
X142512685Y-75550380D01*
X142260622Y-75421705D01*
X142126894Y-75538000D01*
X141673106Y-75538000D01*
X141539378Y-75421705D01*
X141287315Y-75550380D01*
X140970549Y-75857130D01*
X140899145Y-76021976D01*
X140897907Y-76023828D01*
X140897537Y-76025687D01*
X140795284Y-76261751D01*
X140841001Y-76309912D01*
X140838000Y-76325000D01*
X140838000Y-77093526D01*
X140704840Y-77179213D01*
X140737000Y-77101571D01*
X140737000Y-76840500D01*
X140546500Y-76650000D01*
X140270570Y-76650000D01*
X140514227Y-76429675D01*
X140678295Y-76110622D01*
X140588795Y-76007705D01*
X140737000Y-75859500D01*
X140737000Y-75598429D01*
X140659405Y-75411099D01*
X140678295Y-75389378D01*
X140514227Y-75070325D01*
X140184535Y-74772203D01*
X139765853Y-74622942D01*
X139700823Y-74688000D01*
X138699177Y-74688000D01*
X138634147Y-74622942D01*
X138587000Y-74639750D01*
X138587000Y-72298429D01*
X164488000Y-72298429D01*
X164488000Y-72659500D01*
X164678500Y-72850000D01*
X165750000Y-72850000D01*
X165750000Y-71878500D01*
X166750000Y-71878500D01*
X166750000Y-72850000D01*
X167821500Y-72850000D01*
X168012000Y-72659500D01*
X168012000Y-72298429D01*
X167895992Y-72018362D01*
X167681638Y-71804008D01*
X167401571Y-71688000D01*
X166940500Y-71688000D01*
X166750000Y-71878500D01*
X165750000Y-71878500D01*
X165559500Y-71688000D01*
X165098429Y-71688000D01*
X164818362Y-71804008D01*
X164604008Y-72018362D01*
X164488000Y-72298429D01*
X138587000Y-72298429D01*
X138587000Y-67400000D01*
X152973072Y-67400000D01*
X152973072Y-69100000D01*
X153026205Y-69382380D01*
X153193092Y-69641729D01*
X153447731Y-69815717D01*
X153750000Y-69876928D01*
X155750000Y-69876928D01*
X156032380Y-69823795D01*
X156291729Y-69656908D01*
X156465717Y-69402269D01*
X156526928Y-69100000D01*
X156526928Y-67400000D01*
X156473795Y-67117620D01*
X156306908Y-66858271D01*
X156052269Y-66684283D01*
X155750000Y-66623072D01*
X155662000Y-66623072D01*
X155662000Y-65151928D01*
X156250000Y-65151928D01*
X156532380Y-65098795D01*
X156752372Y-64957234D01*
X156947731Y-65090717D01*
X157250000Y-65151928D01*
X158750000Y-65151928D01*
X159032380Y-65098795D01*
X159291729Y-64931908D01*
X159465717Y-64677269D01*
X159468809Y-64662000D01*
X159677033Y-64662000D01*
X160037828Y-64811815D01*
X160460318Y-64812184D01*
X160850789Y-64650845D01*
X161149795Y-64352360D01*
X161311815Y-63962172D01*
X161312184Y-63539682D01*
X161150845Y-63149211D01*
X160852360Y-62850205D01*
X160462172Y-62688185D01*
X160039682Y-62687816D01*
X159676208Y-62838000D01*
X159470822Y-62838000D01*
X159306908Y-62583271D01*
X159052269Y-62409283D01*
X158750000Y-62348072D01*
X157250000Y-62348072D01*
X156967620Y-62401205D01*
X156747628Y-62542766D01*
X156552269Y-62409283D01*
X156250000Y-62348072D01*
X154750000Y-62348072D01*
X154467620Y-62401205D01*
X154208271Y-62568092D01*
X154034283Y-62822731D01*
X153973072Y-63125000D01*
X153973072Y-64052741D01*
X153907422Y-64150993D01*
X153838000Y-64500000D01*
X153838000Y-66623072D01*
X153750000Y-66623072D01*
X153467620Y-66676205D01*
X153208271Y-66843092D01*
X153034283Y-67097731D01*
X152973072Y-67400000D01*
X138587000Y-67400000D01*
X138587000Y-62087000D01*
X184913000Y-62087000D01*
X184913000Y-71634678D01*
M02*
