G04 #@! TF.FileFunction,Legend,Top*
%FSLAX46Y46*%
G04 Gerber Fmt 4.6, Leading zero omitted, Abs format (unit mm)*
G04 Created by KiCad (PCBNEW 4.0.6) date 03/10/17 18:36:09*
%MOMM*%
%LPD*%
G01*
G04 APERTURE LIST*
%ADD10C,0.150000*%
%ADD11C,0.127000*%
%ADD12C,0.254000*%
%ADD13C,0.200000*%
%ADD14C,0.190500*%
%ADD15C,0.100000*%
G04 APERTURE END LIST*
D10*
D11*
X130302000Y-103595714D02*
X130302000Y-102833714D01*
X130628571Y-102906286D02*
X130664857Y-102870000D01*
X130737428Y-102833714D01*
X130918857Y-102833714D01*
X130991428Y-102870000D01*
X131027714Y-102906286D01*
X131063999Y-102978857D01*
X131063999Y-103051429D01*
X131027714Y-103160286D01*
X130592285Y-103595714D01*
X131063999Y-103595714D01*
X131825999Y-103523143D02*
X131789713Y-103559429D01*
X131680856Y-103595714D01*
X131608285Y-103595714D01*
X131499428Y-103559429D01*
X131426856Y-103486857D01*
X131390571Y-103414286D01*
X131354285Y-103269143D01*
X131354285Y-103160286D01*
X131390571Y-103015143D01*
X131426856Y-102942571D01*
X131499428Y-102870000D01*
X131608285Y-102833714D01*
X131680856Y-102833714D01*
X131789713Y-102870000D01*
X131825999Y-102906286D01*
X132733142Y-103595714D02*
X132733142Y-102833714D01*
X133095999Y-103087714D02*
X133095999Y-103595714D01*
X133095999Y-103160286D02*
X133132284Y-103124000D01*
X133204856Y-103087714D01*
X133313713Y-103087714D01*
X133386284Y-103124000D01*
X133422570Y-103196571D01*
X133422570Y-103595714D01*
X133676570Y-103087714D02*
X133966856Y-103087714D01*
X133785428Y-102833714D02*
X133785428Y-103486857D01*
X133821713Y-103559429D01*
X133894285Y-103595714D01*
X133966856Y-103595714D01*
X134511142Y-103559429D02*
X134438571Y-103595714D01*
X134293428Y-103595714D01*
X134220857Y-103559429D01*
X134184571Y-103486857D01*
X134184571Y-103196571D01*
X134220857Y-103124000D01*
X134293428Y-103087714D01*
X134438571Y-103087714D01*
X134511142Y-103124000D01*
X134547428Y-103196571D01*
X134547428Y-103269143D01*
X134184571Y-103341714D01*
X134874000Y-103595714D02*
X134874000Y-103087714D01*
X134874000Y-103232857D02*
X134910285Y-103160286D01*
X134946571Y-103124000D01*
X135019142Y-103087714D01*
X135091714Y-103087714D01*
X135236856Y-103087714D02*
X135527142Y-103087714D01*
X135345714Y-103595714D02*
X135345714Y-102942571D01*
X135381999Y-102870000D01*
X135454571Y-102833714D01*
X135527142Y-102833714D01*
X136107714Y-103595714D02*
X136107714Y-103196571D01*
X136071428Y-103124000D01*
X135998857Y-103087714D01*
X135853714Y-103087714D01*
X135781143Y-103124000D01*
X136107714Y-103559429D02*
X136035143Y-103595714D01*
X135853714Y-103595714D01*
X135781143Y-103559429D01*
X135744857Y-103486857D01*
X135744857Y-103414286D01*
X135781143Y-103341714D01*
X135853714Y-103305429D01*
X136035143Y-103305429D01*
X136107714Y-103269143D01*
X136797143Y-103559429D02*
X136724572Y-103595714D01*
X136579429Y-103595714D01*
X136506857Y-103559429D01*
X136470572Y-103523143D01*
X136434286Y-103450571D01*
X136434286Y-103232857D01*
X136470572Y-103160286D01*
X136506857Y-103124000D01*
X136579429Y-103087714D01*
X136724572Y-103087714D01*
X136797143Y-103124000D01*
X137414000Y-103559429D02*
X137341429Y-103595714D01*
X137196286Y-103595714D01*
X137123715Y-103559429D01*
X137087429Y-103486857D01*
X137087429Y-103196571D01*
X137123715Y-103124000D01*
X137196286Y-103087714D01*
X137341429Y-103087714D01*
X137414000Y-103124000D01*
X137450286Y-103196571D01*
X137450286Y-103269143D01*
X137087429Y-103341714D01*
X130066142Y-104865714D02*
X130066142Y-104103714D01*
X130320142Y-104648000D01*
X130574142Y-104103714D01*
X130574142Y-104865714D01*
X131263570Y-104865714D02*
X131263570Y-104466571D01*
X131227284Y-104394000D01*
X131154713Y-104357714D01*
X131009570Y-104357714D01*
X130936999Y-104394000D01*
X131263570Y-104829429D02*
X131190999Y-104865714D01*
X131009570Y-104865714D01*
X130936999Y-104829429D01*
X130900713Y-104756857D01*
X130900713Y-104684286D01*
X130936999Y-104611714D01*
X131009570Y-104575429D01*
X131190999Y-104575429D01*
X131263570Y-104539143D01*
X131952999Y-104357714D02*
X131952999Y-104974571D01*
X131916713Y-105047143D01*
X131880428Y-105083429D01*
X131807856Y-105119714D01*
X131698999Y-105119714D01*
X131626428Y-105083429D01*
X131952999Y-104829429D02*
X131880428Y-104865714D01*
X131735285Y-104865714D01*
X131662713Y-104829429D01*
X131626428Y-104793143D01*
X131590142Y-104720571D01*
X131590142Y-104502857D01*
X131626428Y-104430286D01*
X131662713Y-104394000D01*
X131735285Y-104357714D01*
X131880428Y-104357714D01*
X131952999Y-104394000D01*
X132315857Y-104357714D02*
X132315857Y-104865714D01*
X132315857Y-104430286D02*
X132352142Y-104394000D01*
X132424714Y-104357714D01*
X132533571Y-104357714D01*
X132606142Y-104394000D01*
X132642428Y-104466571D01*
X132642428Y-104865714D01*
X133295571Y-104829429D02*
X133223000Y-104865714D01*
X133077857Y-104865714D01*
X133005286Y-104829429D01*
X132969000Y-104756857D01*
X132969000Y-104466571D01*
X133005286Y-104394000D01*
X133077857Y-104357714D01*
X133223000Y-104357714D01*
X133295571Y-104394000D01*
X133331857Y-104466571D01*
X133331857Y-104539143D01*
X132969000Y-104611714D01*
X133549571Y-104357714D02*
X133839857Y-104357714D01*
X133658429Y-104103714D02*
X133658429Y-104756857D01*
X133694714Y-104829429D01*
X133767286Y-104865714D01*
X133839857Y-104865714D01*
X134202715Y-104865714D02*
X134130143Y-104829429D01*
X134093858Y-104793143D01*
X134057572Y-104720571D01*
X134057572Y-104502857D01*
X134093858Y-104430286D01*
X134130143Y-104394000D01*
X134202715Y-104357714D01*
X134311572Y-104357714D01*
X134384143Y-104394000D01*
X134420429Y-104430286D01*
X134456715Y-104502857D01*
X134456715Y-104720571D01*
X134420429Y-104793143D01*
X134384143Y-104829429D01*
X134311572Y-104865714D01*
X134202715Y-104865714D01*
X134783287Y-104865714D02*
X134783287Y-104357714D01*
X134783287Y-104430286D02*
X134819572Y-104394000D01*
X134892144Y-104357714D01*
X135001001Y-104357714D01*
X135073572Y-104394000D01*
X135109858Y-104466571D01*
X135109858Y-104865714D01*
X135109858Y-104466571D02*
X135146144Y-104394000D01*
X135218715Y-104357714D01*
X135327572Y-104357714D01*
X135400144Y-104394000D01*
X135436429Y-104466571D01*
X135436429Y-104865714D01*
X136089572Y-104829429D02*
X136017001Y-104865714D01*
X135871858Y-104865714D01*
X135799287Y-104829429D01*
X135763001Y-104756857D01*
X135763001Y-104466571D01*
X135799287Y-104394000D01*
X135871858Y-104357714D01*
X136017001Y-104357714D01*
X136089572Y-104394000D01*
X136125858Y-104466571D01*
X136125858Y-104539143D01*
X135763001Y-104611714D01*
X136343572Y-104357714D02*
X136633858Y-104357714D01*
X136452430Y-104103714D02*
X136452430Y-104756857D01*
X136488715Y-104829429D01*
X136561287Y-104865714D01*
X136633858Y-104865714D01*
X137178144Y-104829429D02*
X137105573Y-104865714D01*
X136960430Y-104865714D01*
X136887859Y-104829429D01*
X136851573Y-104756857D01*
X136851573Y-104466571D01*
X136887859Y-104394000D01*
X136960430Y-104357714D01*
X137105573Y-104357714D01*
X137178144Y-104394000D01*
X137214430Y-104466571D01*
X137214430Y-104539143D01*
X136851573Y-104611714D01*
X137541002Y-104865714D02*
X137541002Y-104357714D01*
X137541002Y-104502857D02*
X137577287Y-104430286D01*
X137613573Y-104394000D01*
X137686144Y-104357714D01*
X137758716Y-104357714D01*
X129975428Y-105918000D02*
X130338285Y-105918000D01*
X129902856Y-106135714D02*
X130156856Y-105373714D01*
X130410856Y-106135714D01*
X130991428Y-106099429D02*
X130918857Y-106135714D01*
X130773714Y-106135714D01*
X130701142Y-106099429D01*
X130664857Y-106063143D01*
X130628571Y-105990571D01*
X130628571Y-105772857D01*
X130664857Y-105700286D01*
X130701142Y-105664000D01*
X130773714Y-105627714D01*
X130918857Y-105627714D01*
X130991428Y-105664000D01*
X131644571Y-106099429D02*
X131572000Y-106135714D01*
X131426857Y-106135714D01*
X131354285Y-106099429D01*
X131318000Y-106063143D01*
X131281714Y-105990571D01*
X131281714Y-105772857D01*
X131318000Y-105700286D01*
X131354285Y-105664000D01*
X131426857Y-105627714D01*
X131572000Y-105627714D01*
X131644571Y-105664000D01*
X132261428Y-106099429D02*
X132188857Y-106135714D01*
X132043714Y-106135714D01*
X131971143Y-106099429D01*
X131934857Y-106026857D01*
X131934857Y-105736571D01*
X131971143Y-105664000D01*
X132043714Y-105627714D01*
X132188857Y-105627714D01*
X132261428Y-105664000D01*
X132297714Y-105736571D01*
X132297714Y-105809143D01*
X131934857Y-105881714D01*
X132733143Y-106135714D02*
X132660571Y-106099429D01*
X132624286Y-106026857D01*
X132624286Y-105373714D01*
X133313714Y-106099429D02*
X133241143Y-106135714D01*
X133096000Y-106135714D01*
X133023429Y-106099429D01*
X132987143Y-106026857D01*
X132987143Y-105736571D01*
X133023429Y-105664000D01*
X133096000Y-105627714D01*
X133241143Y-105627714D01*
X133313714Y-105664000D01*
X133350000Y-105736571D01*
X133350000Y-105809143D01*
X132987143Y-105881714D01*
X133676572Y-106135714D02*
X133676572Y-105627714D01*
X133676572Y-105772857D02*
X133712857Y-105700286D01*
X133749143Y-105664000D01*
X133821714Y-105627714D01*
X133894286Y-105627714D01*
X134257143Y-106135714D02*
X134184571Y-106099429D01*
X134148286Y-106063143D01*
X134112000Y-105990571D01*
X134112000Y-105772857D01*
X134148286Y-105700286D01*
X134184571Y-105664000D01*
X134257143Y-105627714D01*
X134366000Y-105627714D01*
X134438571Y-105664000D01*
X134474857Y-105700286D01*
X134511143Y-105772857D01*
X134511143Y-105990571D01*
X134474857Y-106063143D01*
X134438571Y-106099429D01*
X134366000Y-106135714D01*
X134257143Y-106135714D01*
X134837715Y-106135714D02*
X134837715Y-105627714D01*
X134837715Y-105700286D02*
X134874000Y-105664000D01*
X134946572Y-105627714D01*
X135055429Y-105627714D01*
X135128000Y-105664000D01*
X135164286Y-105736571D01*
X135164286Y-106135714D01*
X135164286Y-105736571D02*
X135200572Y-105664000D01*
X135273143Y-105627714D01*
X135382000Y-105627714D01*
X135454572Y-105664000D01*
X135490857Y-105736571D01*
X135490857Y-106135714D01*
X136144000Y-106099429D02*
X136071429Y-106135714D01*
X135926286Y-106135714D01*
X135853715Y-106099429D01*
X135817429Y-106026857D01*
X135817429Y-105736571D01*
X135853715Y-105664000D01*
X135926286Y-105627714D01*
X136071429Y-105627714D01*
X136144000Y-105664000D01*
X136180286Y-105736571D01*
X136180286Y-105809143D01*
X135817429Y-105881714D01*
X136398000Y-105627714D02*
X136688286Y-105627714D01*
X136506858Y-105373714D02*
X136506858Y-106026857D01*
X136543143Y-106099429D01*
X136615715Y-106135714D01*
X136688286Y-106135714D01*
X137232572Y-106099429D02*
X137160001Y-106135714D01*
X137014858Y-106135714D01*
X136942287Y-106099429D01*
X136906001Y-106026857D01*
X136906001Y-105736571D01*
X136942287Y-105664000D01*
X137014858Y-105627714D01*
X137160001Y-105627714D01*
X137232572Y-105664000D01*
X137268858Y-105736571D01*
X137268858Y-105809143D01*
X136906001Y-105881714D01*
X137595430Y-106135714D02*
X137595430Y-105627714D01*
X137595430Y-105772857D02*
X137631715Y-105700286D01*
X137668001Y-105664000D01*
X137740572Y-105627714D01*
X137813144Y-105627714D01*
X130664858Y-107405714D02*
X130229430Y-107405714D01*
X130447144Y-107405714D02*
X130447144Y-106643714D01*
X130374573Y-106752571D01*
X130302001Y-106825143D01*
X130229430Y-106861429D01*
X131136572Y-106643714D02*
X131209144Y-106643714D01*
X131281715Y-106680000D01*
X131318001Y-106716286D01*
X131354287Y-106788857D01*
X131390572Y-106934000D01*
X131390572Y-107115429D01*
X131354287Y-107260571D01*
X131318001Y-107333143D01*
X131281715Y-107369429D01*
X131209144Y-107405714D01*
X131136572Y-107405714D01*
X131064001Y-107369429D01*
X131027715Y-107333143D01*
X130991430Y-107260571D01*
X130955144Y-107115429D01*
X130955144Y-106934000D01*
X130991430Y-106788857D01*
X131027715Y-106716286D01*
X131064001Y-106680000D01*
X131136572Y-106643714D01*
X132297715Y-107405714D02*
X132297715Y-106643714D01*
X132551715Y-107188000D01*
X132805715Y-106643714D01*
X132805715Y-107405714D01*
X133495143Y-107405714D02*
X133495143Y-107006571D01*
X133458857Y-106934000D01*
X133386286Y-106897714D01*
X133241143Y-106897714D01*
X133168572Y-106934000D01*
X133495143Y-107369429D02*
X133422572Y-107405714D01*
X133241143Y-107405714D01*
X133168572Y-107369429D01*
X133132286Y-107296857D01*
X133132286Y-107224286D01*
X133168572Y-107151714D01*
X133241143Y-107115429D01*
X133422572Y-107115429D01*
X133495143Y-107079143D01*
X133858001Y-107405714D02*
X133858001Y-106897714D01*
X133858001Y-107042857D02*
X133894286Y-106970286D01*
X133930572Y-106934000D01*
X134003143Y-106897714D01*
X134075715Y-106897714D01*
X134874000Y-106716286D02*
X134910286Y-106680000D01*
X134982857Y-106643714D01*
X135164286Y-106643714D01*
X135236857Y-106680000D01*
X135273143Y-106716286D01*
X135309428Y-106788857D01*
X135309428Y-106861429D01*
X135273143Y-106970286D01*
X134837714Y-107405714D01*
X135309428Y-107405714D01*
X135781142Y-106643714D02*
X135853714Y-106643714D01*
X135926285Y-106680000D01*
X135962571Y-106716286D01*
X135998857Y-106788857D01*
X136035142Y-106934000D01*
X136035142Y-107115429D01*
X135998857Y-107260571D01*
X135962571Y-107333143D01*
X135926285Y-107369429D01*
X135853714Y-107405714D01*
X135781142Y-107405714D01*
X135708571Y-107369429D01*
X135672285Y-107333143D01*
X135636000Y-107260571D01*
X135599714Y-107115429D01*
X135599714Y-106934000D01*
X135636000Y-106788857D01*
X135672285Y-106716286D01*
X135708571Y-106680000D01*
X135781142Y-106643714D01*
X136760856Y-107405714D02*
X136325428Y-107405714D01*
X136543142Y-107405714D02*
X136543142Y-106643714D01*
X136470571Y-106752571D01*
X136397999Y-106825143D01*
X136325428Y-106861429D01*
X137014856Y-106643714D02*
X137522856Y-106643714D01*
X137196285Y-107405714D01*
X143806333Y-118766167D02*
X144229667Y-118766167D01*
X143721667Y-119020167D02*
X144018000Y-118131167D01*
X144314333Y-119020167D01*
X144991667Y-118977833D02*
X144907000Y-119020167D01*
X144737667Y-119020167D01*
X144653000Y-118977833D01*
X144610667Y-118935500D01*
X144568333Y-118850833D01*
X144568333Y-118596833D01*
X144610667Y-118512167D01*
X144653000Y-118469833D01*
X144737667Y-118427500D01*
X144907000Y-118427500D01*
X144991667Y-118469833D01*
X145753667Y-118977833D02*
X145669000Y-119020167D01*
X145499667Y-119020167D01*
X145415000Y-118977833D01*
X145372667Y-118935500D01*
X145330333Y-118850833D01*
X145330333Y-118596833D01*
X145372667Y-118512167D01*
X145415000Y-118469833D01*
X145499667Y-118427500D01*
X145669000Y-118427500D01*
X145753667Y-118469833D01*
X143679334Y-114194167D02*
X143679334Y-113305167D01*
X143975667Y-113940167D01*
X144272000Y-113305167D01*
X144272000Y-114194167D01*
X145076334Y-114194167D02*
X145076334Y-113728500D01*
X145034000Y-113643833D01*
X144949334Y-113601500D01*
X144780000Y-113601500D01*
X144695334Y-113643833D01*
X145076334Y-114151833D02*
X144991667Y-114194167D01*
X144780000Y-114194167D01*
X144695334Y-114151833D01*
X144653000Y-114067167D01*
X144653000Y-113982500D01*
X144695334Y-113897833D01*
X144780000Y-113855500D01*
X144991667Y-113855500D01*
X145076334Y-113813167D01*
X145880667Y-113601500D02*
X145880667Y-114321167D01*
X145838333Y-114405833D01*
X145796000Y-114448167D01*
X145711333Y-114490500D01*
X145584333Y-114490500D01*
X145499667Y-114448167D01*
X145880667Y-114151833D02*
X145796000Y-114194167D01*
X145626667Y-114194167D01*
X145542000Y-114151833D01*
X145499667Y-114109500D01*
X145457333Y-114024833D01*
X145457333Y-113770833D01*
X145499667Y-113686167D01*
X145542000Y-113643833D01*
X145626667Y-113601500D01*
X145796000Y-113601500D01*
X145880667Y-113643833D01*
D12*
X144907000Y-106045000D02*
G75*
G03X144907000Y-106045000I-127000J0D01*
G01*
D13*
X144780000Y-106045000D02*
X144780000Y-108585000D01*
X142240000Y-106045000D02*
X144780000Y-106045000D01*
D12*
X145542001Y-108433810D02*
X145542001Y-108917619D01*
X145203334Y-107901619D02*
X145542001Y-108433810D01*
X145880667Y-107901619D01*
X141901334Y-106504619D02*
X142578667Y-107520619D01*
X142578667Y-106504619D02*
X141901334Y-107520619D01*
X146219334Y-103964619D02*
X146896667Y-103964619D01*
X146219334Y-104980619D01*
X146896667Y-104980619D01*
D13*
X146050000Y-106045000D02*
G75*
G03X146050000Y-106045000I-1270000J0D01*
G01*
D14*
X157697714Y-119307429D02*
X158459714Y-119053429D01*
X157697714Y-118799429D01*
X158459714Y-118218857D02*
X157697714Y-118218857D01*
X158423429Y-118218857D02*
X158459714Y-118291428D01*
X158459714Y-118436571D01*
X158423429Y-118509143D01*
X158387143Y-118545428D01*
X158314571Y-118581714D01*
X158096857Y-118581714D01*
X158024286Y-118545428D01*
X157988000Y-118509143D01*
X157951714Y-118436571D01*
X157951714Y-118291428D01*
X157988000Y-118218857D01*
X158459714Y-117529428D02*
X157697714Y-117529428D01*
X158423429Y-117529428D02*
X158459714Y-117601999D01*
X158459714Y-117747142D01*
X158423429Y-117819714D01*
X158387143Y-117855999D01*
X158314571Y-117892285D01*
X158096857Y-117892285D01*
X158024286Y-117855999D01*
X157988000Y-117819714D01*
X157951714Y-117747142D01*
X157951714Y-117601999D01*
X157988000Y-117529428D01*
X158423429Y-116622285D02*
X158459714Y-116513428D01*
X158459714Y-116331999D01*
X158423429Y-116259428D01*
X158387143Y-116223142D01*
X158314571Y-116186857D01*
X158242000Y-116186857D01*
X158169429Y-116223142D01*
X158133143Y-116259428D01*
X158096857Y-116331999D01*
X158060571Y-116477142D01*
X158024286Y-116549714D01*
X157988000Y-116585999D01*
X157915429Y-116622285D01*
X157842857Y-116622285D01*
X157770286Y-116585999D01*
X157734000Y-116549714D01*
X157697714Y-116477142D01*
X157697714Y-116295714D01*
X157734000Y-116186857D01*
X158387143Y-115424857D02*
X158423429Y-115461143D01*
X158459714Y-115570000D01*
X158459714Y-115642571D01*
X158423429Y-115751428D01*
X158350857Y-115824000D01*
X158278286Y-115860285D01*
X158133143Y-115896571D01*
X158024286Y-115896571D01*
X157879143Y-115860285D01*
X157806571Y-115824000D01*
X157734000Y-115751428D01*
X157697714Y-115642571D01*
X157697714Y-115570000D01*
X157734000Y-115461143D01*
X157770286Y-115424857D01*
X158459714Y-114735428D02*
X158459714Y-115098285D01*
X157697714Y-115098285D01*
X158423429Y-113937143D02*
X158459714Y-113828286D01*
X158459714Y-113646857D01*
X158423429Y-113574286D01*
X158387143Y-113538000D01*
X158314571Y-113501715D01*
X158242000Y-113501715D01*
X158169429Y-113538000D01*
X158133143Y-113574286D01*
X158096857Y-113646857D01*
X158060571Y-113792000D01*
X158024286Y-113864572D01*
X157988000Y-113900857D01*
X157915429Y-113937143D01*
X157842857Y-113937143D01*
X157770286Y-113900857D01*
X157734000Y-113864572D01*
X157697714Y-113792000D01*
X157697714Y-113610572D01*
X157734000Y-113501715D01*
X158459714Y-113175143D02*
X157697714Y-113175143D01*
X157697714Y-112993715D01*
X157734000Y-112884858D01*
X157806571Y-112812286D01*
X157879143Y-112776001D01*
X158024286Y-112739715D01*
X158133143Y-112739715D01*
X158278286Y-112776001D01*
X158350857Y-112812286D01*
X158423429Y-112884858D01*
X158459714Y-112993715D01*
X158459714Y-113175143D01*
X158242000Y-112449429D02*
X158242000Y-112086572D01*
X158459714Y-112522001D02*
X157697714Y-112268001D01*
X158459714Y-112014001D01*
X157734000Y-110780287D02*
X157697714Y-110852858D01*
X157697714Y-110961715D01*
X157734000Y-111070572D01*
X157806571Y-111143144D01*
X157879143Y-111179429D01*
X158024286Y-111215715D01*
X158133143Y-111215715D01*
X158278286Y-111179429D01*
X158350857Y-111143144D01*
X158423429Y-111070572D01*
X158459714Y-110961715D01*
X158459714Y-110889144D01*
X158423429Y-110780287D01*
X158387143Y-110744001D01*
X158133143Y-110744001D01*
X158133143Y-110889144D01*
X157951714Y-110417429D02*
X158459714Y-110417429D01*
X158024286Y-110417429D02*
X157988000Y-110381144D01*
X157951714Y-110308572D01*
X157951714Y-110199715D01*
X157988000Y-110127144D01*
X158060571Y-110090858D01*
X158459714Y-110090858D01*
X158459714Y-109401429D02*
X157697714Y-109401429D01*
X158423429Y-109401429D02*
X158459714Y-109474000D01*
X158459714Y-109619143D01*
X158423429Y-109691715D01*
X158387143Y-109728000D01*
X158314571Y-109764286D01*
X158096857Y-109764286D01*
X158024286Y-109728000D01*
X157988000Y-109691715D01*
X157951714Y-109619143D01*
X157951714Y-109474000D01*
X157988000Y-109401429D01*
X131826000Y-109800571D02*
X131862286Y-109728000D01*
X131862286Y-109619143D01*
X131826000Y-109510286D01*
X131753429Y-109437714D01*
X131680857Y-109401429D01*
X131535714Y-109365143D01*
X131426857Y-109365143D01*
X131281714Y-109401429D01*
X131209143Y-109437714D01*
X131136571Y-109510286D01*
X131100286Y-109619143D01*
X131100286Y-109691714D01*
X131136571Y-109800571D01*
X131172857Y-109836857D01*
X131426857Y-109836857D01*
X131426857Y-109691714D01*
X131608286Y-110163429D02*
X131100286Y-110163429D01*
X131535714Y-110163429D02*
X131572000Y-110199714D01*
X131608286Y-110272286D01*
X131608286Y-110381143D01*
X131572000Y-110453714D01*
X131499429Y-110490000D01*
X131100286Y-110490000D01*
X131100286Y-111179429D02*
X131862286Y-111179429D01*
X131136571Y-111179429D02*
X131100286Y-111106858D01*
X131100286Y-110961715D01*
X131136571Y-110889143D01*
X131172857Y-110852858D01*
X131245429Y-110816572D01*
X131463143Y-110816572D01*
X131535714Y-110852858D01*
X131572000Y-110889143D01*
X131608286Y-110961715D01*
X131608286Y-111106858D01*
X131572000Y-111179429D01*
X131100286Y-112122858D02*
X131862286Y-112122858D01*
X131318000Y-112376858D01*
X131862286Y-112630858D01*
X131100286Y-112630858D01*
X131100286Y-113392857D02*
X131100286Y-112957429D01*
X131100286Y-113175143D02*
X131862286Y-113175143D01*
X131753429Y-113102572D01*
X131680857Y-113030000D01*
X131644571Y-112957429D01*
X131318000Y-114844285D02*
X131318000Y-115207142D01*
X131100286Y-114771713D02*
X131862286Y-115025713D01*
X131100286Y-115279713D01*
X131100286Y-115932856D02*
X131100286Y-115497428D01*
X131100286Y-115715142D02*
X131862286Y-115715142D01*
X131753429Y-115642571D01*
X131680857Y-115569999D01*
X131644571Y-115497428D01*
X131318000Y-117384284D02*
X131318000Y-117747141D01*
X131100286Y-117311712D02*
X131862286Y-117565712D01*
X131100286Y-117819712D01*
X131789714Y-118037427D02*
X131826000Y-118073713D01*
X131862286Y-118146284D01*
X131862286Y-118327713D01*
X131826000Y-118400284D01*
X131789714Y-118436570D01*
X131717143Y-118472855D01*
X131644571Y-118472855D01*
X131535714Y-118436570D01*
X131100286Y-118001141D01*
X131100286Y-118472855D01*
D15*
X144680000Y-116040000D02*
G75*
G03X144680000Y-116040000I-200000J0D01*
G01*
X145780000Y-117840000D02*
X143780000Y-117840000D01*
X145780000Y-115840000D02*
X143780000Y-115840000D01*
D10*
X152130000Y-110735000D02*
X150130000Y-110735000D01*
X150130000Y-112785000D02*
X152130000Y-112785000D01*
X152130000Y-115815000D02*
X150130000Y-115815000D01*
X150130000Y-117865000D02*
X152130000Y-117865000D01*
X152130000Y-105655000D02*
X150130000Y-105655000D01*
X150130000Y-107705000D02*
X152130000Y-107705000D01*
X152130000Y-120895000D02*
X150130000Y-120895000D01*
X150130000Y-122945000D02*
X152130000Y-122945000D01*
X139310000Y-108855000D02*
X139310000Y-110855000D01*
X141360000Y-110855000D02*
X141360000Y-108855000D01*
X139310000Y-117745000D02*
X139310000Y-119745000D01*
X141360000Y-119745000D02*
X141360000Y-117745000D01*
X161925000Y-116840000D02*
X161925000Y-109220000D01*
X159385000Y-116840000D02*
X159385000Y-109220000D01*
X159105000Y-119660000D02*
X159105000Y-118110000D01*
X161925000Y-109220000D02*
X159385000Y-109220000D01*
X159385000Y-116840000D02*
X161925000Y-116840000D01*
X162205000Y-118110000D02*
X162205000Y-119660000D01*
X162205000Y-119660000D02*
X159105000Y-119660000D01*
X127635000Y-111760000D02*
X127635000Y-119380000D01*
X130175000Y-111760000D02*
X130175000Y-119380000D01*
X130455000Y-108940000D02*
X130455000Y-110490000D01*
X127635000Y-119380000D02*
X130175000Y-119380000D01*
X130175000Y-111760000D02*
X127635000Y-111760000D01*
X127355000Y-110490000D02*
X127355000Y-108940000D01*
X127355000Y-108940000D02*
X130455000Y-108940000D01*
X159496000Y-124519000D02*
X157496000Y-124519000D01*
X157496000Y-122369000D02*
X159496000Y-122369000D01*
X159496000Y-106231000D02*
X157496000Y-106231000D01*
X157496000Y-104081000D02*
X159496000Y-104081000D01*
D15*
X144680000Y-110960000D02*
G75*
G03X144680000Y-110960000I-200000J0D01*
G01*
X145780000Y-112760000D02*
X143780000Y-112760000D01*
X145780000Y-110760000D02*
X143780000Y-110760000D01*
D10*
X150981834Y-110172500D02*
X150939500Y-110214833D01*
X150812500Y-110257167D01*
X150727834Y-110257167D01*
X150600834Y-110214833D01*
X150516167Y-110130167D01*
X150473834Y-110045500D01*
X150431500Y-109876167D01*
X150431500Y-109749167D01*
X150473834Y-109579833D01*
X150516167Y-109495167D01*
X150600834Y-109410500D01*
X150727834Y-109368167D01*
X150812500Y-109368167D01*
X150939500Y-109410500D01*
X150981834Y-109452833D01*
X151828500Y-110257167D02*
X151320500Y-110257167D01*
X151574500Y-110257167D02*
X151574500Y-109368167D01*
X151489834Y-109495167D01*
X151405167Y-109579833D01*
X151320500Y-109622167D01*
X150981834Y-115252500D02*
X150939500Y-115294833D01*
X150812500Y-115337167D01*
X150727834Y-115337167D01*
X150600834Y-115294833D01*
X150516167Y-115210167D01*
X150473834Y-115125500D01*
X150431500Y-114956167D01*
X150431500Y-114829167D01*
X150473834Y-114659833D01*
X150516167Y-114575167D01*
X150600834Y-114490500D01*
X150727834Y-114448167D01*
X150812500Y-114448167D01*
X150939500Y-114490500D01*
X150981834Y-114532833D01*
X151320500Y-114532833D02*
X151362834Y-114490500D01*
X151447500Y-114448167D01*
X151659167Y-114448167D01*
X151743834Y-114490500D01*
X151786167Y-114532833D01*
X151828500Y-114617500D01*
X151828500Y-114702167D01*
X151786167Y-114829167D01*
X151278167Y-115337167D01*
X151828500Y-115337167D01*
X150981834Y-105092500D02*
X150939500Y-105134833D01*
X150812500Y-105177167D01*
X150727834Y-105177167D01*
X150600834Y-105134833D01*
X150516167Y-105050167D01*
X150473834Y-104965500D01*
X150431500Y-104796167D01*
X150431500Y-104669167D01*
X150473834Y-104499833D01*
X150516167Y-104415167D01*
X150600834Y-104330500D01*
X150727834Y-104288167D01*
X150812500Y-104288167D01*
X150939500Y-104330500D01*
X150981834Y-104372833D01*
X151278167Y-104288167D02*
X151828500Y-104288167D01*
X151532167Y-104626833D01*
X151659167Y-104626833D01*
X151743834Y-104669167D01*
X151786167Y-104711500D01*
X151828500Y-104796167D01*
X151828500Y-105007833D01*
X151786167Y-105092500D01*
X151743834Y-105134833D01*
X151659167Y-105177167D01*
X151405167Y-105177167D01*
X151320500Y-105134833D01*
X151278167Y-105092500D01*
X150981834Y-120332500D02*
X150939500Y-120374833D01*
X150812500Y-120417167D01*
X150727834Y-120417167D01*
X150600834Y-120374833D01*
X150516167Y-120290167D01*
X150473834Y-120205500D01*
X150431500Y-120036167D01*
X150431500Y-119909167D01*
X150473834Y-119739833D01*
X150516167Y-119655167D01*
X150600834Y-119570500D01*
X150727834Y-119528167D01*
X150812500Y-119528167D01*
X150939500Y-119570500D01*
X150981834Y-119612833D01*
X151743834Y-119824500D02*
X151743834Y-120417167D01*
X151532167Y-119485833D02*
X151320500Y-120120833D01*
X151870834Y-120120833D01*
X140652500Y-105558166D02*
X140694833Y-105600500D01*
X140737167Y-105727500D01*
X140737167Y-105812166D01*
X140694833Y-105939166D01*
X140610167Y-106023833D01*
X140525500Y-106066166D01*
X140356167Y-106108500D01*
X140229167Y-106108500D01*
X140059833Y-106066166D01*
X139975167Y-106023833D01*
X139890500Y-105939166D01*
X139848167Y-105812166D01*
X139848167Y-105727500D01*
X139890500Y-105600500D01*
X139932833Y-105558166D01*
X139848167Y-104753833D02*
X139848167Y-105177166D01*
X140271500Y-105219500D01*
X140229167Y-105177166D01*
X140186833Y-105092500D01*
X140186833Y-104880833D01*
X140229167Y-104796166D01*
X140271500Y-104753833D01*
X140356167Y-104711500D01*
X140567833Y-104711500D01*
X140652500Y-104753833D01*
X140694833Y-104796166D01*
X140737167Y-104880833D01*
X140737167Y-105092500D01*
X140694833Y-105177166D01*
X140652500Y-105219500D01*
X140652500Y-114448166D02*
X140694833Y-114490500D01*
X140737167Y-114617500D01*
X140737167Y-114702166D01*
X140694833Y-114829166D01*
X140610167Y-114913833D01*
X140525500Y-114956166D01*
X140356167Y-114998500D01*
X140229167Y-114998500D01*
X140059833Y-114956166D01*
X139975167Y-114913833D01*
X139890500Y-114829166D01*
X139848167Y-114702166D01*
X139848167Y-114617500D01*
X139890500Y-114490500D01*
X139932833Y-114448166D01*
X139848167Y-113686166D02*
X139848167Y-113855500D01*
X139890500Y-113940166D01*
X139932833Y-113982500D01*
X140059833Y-114067166D01*
X140229167Y-114109500D01*
X140567833Y-114109500D01*
X140652500Y-114067166D01*
X140694833Y-114024833D01*
X140737167Y-113940166D01*
X140737167Y-113770833D01*
X140694833Y-113686166D01*
X140652500Y-113643833D01*
X140567833Y-113601500D01*
X140356167Y-113601500D01*
X140271500Y-113643833D01*
X140229167Y-113686166D01*
X140186833Y-113770833D01*
X140186833Y-113940166D01*
X140229167Y-114024833D01*
X140271500Y-114067166D01*
X140356167Y-114109500D01*
X158347834Y-125878167D02*
X158051500Y-125454833D01*
X157839834Y-125878167D02*
X157839834Y-124989167D01*
X158178500Y-124989167D01*
X158263167Y-125031500D01*
X158305500Y-125073833D01*
X158347834Y-125158500D01*
X158347834Y-125285500D01*
X158305500Y-125370167D01*
X158263167Y-125412500D01*
X158178500Y-125454833D01*
X157839834Y-125454833D01*
X159194500Y-125878167D02*
X158686500Y-125878167D01*
X158940500Y-125878167D02*
X158940500Y-124989167D01*
X158855834Y-125116167D01*
X158771167Y-125200833D01*
X158686500Y-125243167D01*
X158347834Y-103526167D02*
X158051500Y-103102833D01*
X157839834Y-103526167D02*
X157839834Y-102637167D01*
X158178500Y-102637167D01*
X158263167Y-102679500D01*
X158305500Y-102721833D01*
X158347834Y-102806500D01*
X158347834Y-102933500D01*
X158305500Y-103018167D01*
X158263167Y-103060500D01*
X158178500Y-103102833D01*
X157839834Y-103102833D01*
X158686500Y-102721833D02*
X158728834Y-102679500D01*
X158813500Y-102637167D01*
X159025167Y-102637167D01*
X159109834Y-102679500D01*
X159152167Y-102721833D01*
X159194500Y-102806500D01*
X159194500Y-102891167D01*
X159152167Y-103018167D01*
X158644167Y-103526167D01*
X159194500Y-103526167D01*
M02*
