G04 #@! TF.FileFunction,Copper,L1,Top,Signal*
%FSLAX46Y46*%
G04 Gerber Fmt 4.6, Leading zero omitted, Abs format (unit mm)*
G04 Created by KiCad (PCBNEW 4.0.6) date 03/10/17 18:36:09*
%MOMM*%
%LPD*%
G01*
G04 APERTURE LIST*
%ADD10C,0.150000*%
%ADD11R,1.100000X0.225000*%
%ADD12R,2.000000X1.600000*%
%ADD13R,1.600000X2.000000*%
%ADD14R,2.032000X1.727200*%
%ADD15O,2.032000X1.727200*%
%ADD16R,2.000000X1.700000*%
%ADD17C,0.600000*%
%ADD18C,0.254000*%
%ADD19C,0.508000*%
G04 APERTURE END LIST*
D10*
D11*
X143630000Y-116040000D03*
X143630000Y-116440000D03*
X143630000Y-116840000D03*
X143630000Y-117240000D03*
X143630000Y-117640000D03*
X145930000Y-117640000D03*
X145930000Y-117240000D03*
X145930000Y-116840000D03*
X145930000Y-116440000D03*
X145930000Y-116040000D03*
D12*
X149130000Y-111760000D03*
X153130000Y-111760000D03*
X149130000Y-116840000D03*
X153130000Y-116840000D03*
X149130000Y-106680000D03*
X153130000Y-106680000D03*
X149130000Y-121920000D03*
X153130000Y-121920000D03*
D13*
X140335000Y-111855000D03*
X140335000Y-107855000D03*
X140335000Y-120745000D03*
X140335000Y-116745000D03*
D14*
X160655000Y-118110000D03*
D15*
X160655000Y-115570000D03*
X160655000Y-113030000D03*
X160655000Y-110490000D03*
D14*
X128905000Y-110490000D03*
D15*
X128905000Y-113030000D03*
X128905000Y-115570000D03*
X128905000Y-118110000D03*
D16*
X156496000Y-123444000D03*
X160496000Y-123444000D03*
X156496000Y-105156000D03*
X160496000Y-105156000D03*
D11*
X143630000Y-110960000D03*
X143630000Y-111360000D03*
X143630000Y-111760000D03*
X143630000Y-112160000D03*
X143630000Y-112560000D03*
X145930000Y-112560000D03*
X145930000Y-112160000D03*
X145930000Y-111760000D03*
X145930000Y-111360000D03*
X145930000Y-110960000D03*
D17*
X154940000Y-118110000D03*
X144907000Y-117094000D03*
X142875000Y-113665000D03*
X146812000Y-109982000D03*
X138049000Y-114808000D03*
X138049000Y-112014000D03*
X138049000Y-117348000D03*
X151003000Y-106680000D03*
X151003000Y-111760000D03*
X151003000Y-116840000D03*
X151003000Y-121920000D03*
X146812000Y-121920000D03*
X143002000Y-115062000D03*
X144780000Y-114935000D03*
X146050000Y-114935000D03*
X147320000Y-110998000D03*
X142240000Y-116205000D03*
X142240000Y-118745000D03*
D18*
X154940000Y-119380000D02*
X154940000Y-121888000D01*
X154940000Y-115570000D02*
X154940000Y-118110000D01*
X154940000Y-118110000D02*
X154940000Y-119380000D01*
X153670000Y-114300000D02*
X154940000Y-115570000D01*
X154940000Y-121888000D02*
X156496000Y-123444000D01*
X154940000Y-109855000D02*
X154940000Y-106712000D01*
X154940000Y-106712000D02*
X156496000Y-105156000D01*
X153670000Y-114300000D02*
X154940000Y-113030000D01*
X154940000Y-113030000D02*
X154940000Y-109855000D01*
X154940000Y-109855000D02*
X154940000Y-109760000D01*
X143630000Y-116040000D02*
X142964000Y-116040000D01*
X140335000Y-113411000D02*
X140335000Y-111855000D01*
X142964000Y-116040000D02*
X140335000Y-113411000D01*
X145930000Y-111760000D02*
X149130000Y-111760000D01*
X143630000Y-111360000D02*
X140830000Y-111360000D01*
X140830000Y-111360000D02*
X140335000Y-111855000D01*
X143630000Y-111360000D02*
X144634000Y-111360000D01*
X145034000Y-111760000D02*
X144780000Y-111506000D01*
X145034000Y-111760000D02*
X145930000Y-111760000D01*
X144634000Y-111360000D02*
X144780000Y-111506000D01*
X149130000Y-114300000D02*
X153670000Y-114300000D01*
X140430000Y-111760000D02*
X140335000Y-111855000D01*
X148730000Y-112160000D02*
X149130000Y-111760000D01*
X145930000Y-116840000D02*
X149130000Y-116840000D01*
X149130000Y-111760000D02*
X149130000Y-114300000D01*
X149130000Y-114300000D02*
X149130000Y-116840000D01*
X143630000Y-112910000D02*
X142875000Y-113665000D01*
X143630000Y-112560000D02*
X143630000Y-112910000D01*
X145930000Y-110960000D02*
X145930000Y-110864000D01*
X145930000Y-110864000D02*
X146812000Y-109982000D01*
X145930000Y-117640000D02*
X145199000Y-117640000D01*
X144907000Y-117348000D02*
X144907000Y-117094000D01*
X145199000Y-117640000D02*
X144907000Y-117348000D01*
X145930000Y-117240000D02*
X145053000Y-117240000D01*
X145307000Y-116440000D02*
X144907000Y-116840000D01*
X145307000Y-116440000D02*
X145930000Y-116440000D01*
X144907000Y-117094000D02*
X144907000Y-116840000D01*
X145053000Y-117240000D02*
X144907000Y-117094000D01*
X140335000Y-116745000D02*
X139986000Y-116745000D01*
X139986000Y-116745000D02*
X138049000Y-114808000D01*
X138049000Y-117348000D02*
X138049000Y-114808000D01*
X138049000Y-112014000D02*
X138049000Y-108966000D01*
X138049000Y-114808000D02*
X138049000Y-112014000D01*
X138049000Y-108966000D02*
X139160000Y-107855000D01*
X139160000Y-107855000D02*
X140335000Y-107855000D01*
X153130000Y-106680000D02*
X151003000Y-106680000D01*
X151003000Y-111760000D02*
X153130000Y-111760000D01*
X153130000Y-116840000D02*
X151003000Y-116840000D01*
X151003000Y-121920000D02*
X153130000Y-121920000D01*
X143630000Y-110960000D02*
X144850000Y-110960000D01*
X144850000Y-110960000D02*
X149130000Y-106680000D01*
X149130000Y-121920000D02*
X146812000Y-121920000D01*
X142094000Y-112160000D02*
X143630000Y-112160000D01*
X141732000Y-113792000D02*
X143002000Y-115062000D01*
X141732000Y-112522000D02*
X141732000Y-113792000D01*
X142094000Y-112160000D02*
X141732000Y-112522000D01*
X149130000Y-121920000D02*
X149130000Y-121825000D01*
X143630000Y-117240000D02*
X142475000Y-117240000D01*
X140335000Y-119380000D02*
X140335000Y-120745000D01*
X142475000Y-117240000D02*
X140335000Y-119380000D01*
X160655000Y-115570000D02*
X159385000Y-115570000D01*
X158115000Y-121063000D02*
X160496000Y-123444000D01*
X158115000Y-116840000D02*
X158115000Y-121063000D01*
X159385000Y-115570000D02*
X158115000Y-116840000D01*
X145930000Y-112160000D02*
X145015000Y-112160000D01*
X144780000Y-112395000D02*
X144780000Y-114935000D01*
X145015000Y-112160000D02*
X144780000Y-112395000D01*
X144545000Y-116440000D02*
X144780000Y-116205000D01*
X144780000Y-116205000D02*
X144780000Y-114935000D01*
X144545000Y-116440000D02*
X143630000Y-116440000D01*
X160655000Y-113030000D02*
X159385000Y-113030000D01*
X158115000Y-107537000D02*
X160496000Y-105156000D01*
X158115000Y-111760000D02*
X158115000Y-107537000D01*
X159385000Y-113030000D02*
X158115000Y-111760000D01*
X145930000Y-112560000D02*
X145930000Y-114815000D01*
X145930000Y-114815000D02*
X146050000Y-114935000D01*
X145930000Y-115055000D02*
X146050000Y-114935000D01*
X145930000Y-115055000D02*
X145930000Y-116040000D01*
X146958000Y-111360000D02*
X147320000Y-110998000D01*
X146958000Y-111360000D02*
X145930000Y-111360000D01*
X142875000Y-116840000D02*
X143630000Y-116840000D01*
X142875000Y-116840000D02*
X142240000Y-116205000D01*
X142240000Y-118745000D02*
X143345000Y-117640000D01*
X143630000Y-117640000D02*
X143345000Y-117640000D01*
D19*
G36*
X161723000Y-103575041D02*
X161496000Y-103529072D01*
X159496000Y-103529072D01*
X159213620Y-103582205D01*
X158954271Y-103749092D01*
X158780283Y-104003731D01*
X158719072Y-104306000D01*
X158719072Y-105675692D01*
X158243514Y-106151250D01*
X158272928Y-106006000D01*
X158272928Y-104306000D01*
X158219795Y-104023620D01*
X158052908Y-103764271D01*
X157798269Y-103590283D01*
X157496000Y-103529072D01*
X155496000Y-103529072D01*
X155213620Y-103582205D01*
X154954271Y-103749092D01*
X154780283Y-104003731D01*
X154719072Y-104306000D01*
X154719072Y-105391442D01*
X154561638Y-105234008D01*
X154281571Y-105118000D01*
X153820500Y-105118000D01*
X153630000Y-105308500D01*
X153630000Y-106280000D01*
X153896000Y-106280000D01*
X153896000Y-107080000D01*
X153630000Y-107080000D01*
X153630000Y-108051500D01*
X153820500Y-108242000D01*
X154051000Y-108242000D01*
X154051000Y-110198000D01*
X153820500Y-110198000D01*
X153630000Y-110388500D01*
X153630000Y-111360000D01*
X153896000Y-111360000D01*
X153896000Y-112160000D01*
X153630000Y-112160000D01*
X153630000Y-113082764D01*
X153301764Y-113411000D01*
X150019000Y-113411000D01*
X150019000Y-113336928D01*
X150130000Y-113336928D01*
X150412380Y-113283795D01*
X150671729Y-113116908D01*
X150845717Y-112862269D01*
X150906928Y-112560000D01*
X150906928Y-112350500D01*
X151368000Y-112350500D01*
X151368000Y-112711571D01*
X151484008Y-112991638D01*
X151698362Y-113205992D01*
X151978429Y-113322000D01*
X152439500Y-113322000D01*
X152630000Y-113131500D01*
X152630000Y-112160000D01*
X151558500Y-112160000D01*
X151368000Y-112350500D01*
X150906928Y-112350500D01*
X150906928Y-110960000D01*
X150878409Y-110808429D01*
X151368000Y-110808429D01*
X151368000Y-111169500D01*
X151558500Y-111360000D01*
X152630000Y-111360000D01*
X152630000Y-110388500D01*
X152439500Y-110198000D01*
X151978429Y-110198000D01*
X151698362Y-110314008D01*
X151484008Y-110528362D01*
X151368000Y-110808429D01*
X150878409Y-110808429D01*
X150853795Y-110677620D01*
X150686908Y-110418271D01*
X150432269Y-110244283D01*
X150130000Y-110183072D01*
X148130000Y-110183072D01*
X148026517Y-110202544D01*
X147922360Y-110098205D01*
X147532172Y-109936185D01*
X147131401Y-109935835D01*
X148810308Y-108256928D01*
X150130000Y-108256928D01*
X150412380Y-108203795D01*
X150671729Y-108036908D01*
X150845717Y-107782269D01*
X150906928Y-107480000D01*
X150906928Y-107270500D01*
X151368000Y-107270500D01*
X151368000Y-107631571D01*
X151484008Y-107911638D01*
X151698362Y-108125992D01*
X151978429Y-108242000D01*
X152439500Y-108242000D01*
X152630000Y-108051500D01*
X152630000Y-107080000D01*
X151558500Y-107080000D01*
X151368000Y-107270500D01*
X150906928Y-107270500D01*
X150906928Y-105880000D01*
X150878409Y-105728429D01*
X151368000Y-105728429D01*
X151368000Y-106089500D01*
X151558500Y-106280000D01*
X152630000Y-106280000D01*
X152630000Y-105308500D01*
X152439500Y-105118000D01*
X151978429Y-105118000D01*
X151698362Y-105234008D01*
X151484008Y-105448362D01*
X151368000Y-105728429D01*
X150878409Y-105728429D01*
X150853795Y-105597620D01*
X150686908Y-105338271D01*
X150432269Y-105164283D01*
X150130000Y-105103072D01*
X148130000Y-105103072D01*
X147847620Y-105156205D01*
X147588271Y-105323092D01*
X147414283Y-105577731D01*
X147353072Y-105880000D01*
X147353072Y-107199692D01*
X144481764Y-110071000D01*
X144182114Y-110071000D01*
X144180000Y-110070572D01*
X143080000Y-110070572D01*
X142797620Y-110123705D01*
X142538271Y-110290592D01*
X142415003Y-110471000D01*
X141793404Y-110471000D01*
X141691908Y-110313271D01*
X141437269Y-110139283D01*
X141135000Y-110078072D01*
X139535000Y-110078072D01*
X139252620Y-110131205D01*
X138993271Y-110298092D01*
X138819283Y-110552731D01*
X138758072Y-110855000D01*
X138758072Y-112855000D01*
X138811205Y-113137380D01*
X138978092Y-113396729D01*
X139232731Y-113570717D01*
X139488054Y-113622421D01*
X139513671Y-113751206D01*
X139653045Y-113959794D01*
X139706382Y-114039618D01*
X140787632Y-115120868D01*
X140735000Y-115173500D01*
X140735000Y-116245000D01*
X141101000Y-116245000D01*
X141101000Y-117245000D01*
X140735000Y-117245000D01*
X140735000Y-117511000D01*
X139935000Y-117511000D01*
X139935000Y-117245000D01*
X138963500Y-117245000D01*
X138773000Y-117435500D01*
X138773000Y-117896571D01*
X138889008Y-118176638D01*
X139103362Y-118390992D01*
X139383429Y-118507000D01*
X139950764Y-118507000D01*
X139706382Y-118751382D01*
X139561594Y-118968072D01*
X139535000Y-118968072D01*
X139252620Y-119021205D01*
X138993271Y-119188092D01*
X138819283Y-119442731D01*
X138758072Y-119745000D01*
X138758072Y-121745000D01*
X138811205Y-122027380D01*
X138978092Y-122286729D01*
X139232731Y-122460717D01*
X139535000Y-122521928D01*
X141135000Y-122521928D01*
X141417380Y-122468795D01*
X141676729Y-122301908D01*
X141793971Y-122130318D01*
X145749816Y-122130318D01*
X145911155Y-122520789D01*
X146209640Y-122819795D01*
X146599828Y-122981815D01*
X147022318Y-122982184D01*
X147374986Y-122836465D01*
X147406205Y-123002380D01*
X147573092Y-123261729D01*
X147827731Y-123435717D01*
X148130000Y-123496928D01*
X150130000Y-123496928D01*
X150412380Y-123443795D01*
X150671729Y-123276908D01*
X150845717Y-123022269D01*
X150906928Y-122720000D01*
X150906928Y-122510500D01*
X151368000Y-122510500D01*
X151368000Y-122871571D01*
X151484008Y-123151638D01*
X151698362Y-123365992D01*
X151978429Y-123482000D01*
X152439500Y-123482000D01*
X152630000Y-123291500D01*
X152630000Y-122320000D01*
X151558500Y-122320000D01*
X151368000Y-122510500D01*
X150906928Y-122510500D01*
X150906928Y-121120000D01*
X150878409Y-120968429D01*
X151368000Y-120968429D01*
X151368000Y-121329500D01*
X151558500Y-121520000D01*
X152630000Y-121520000D01*
X152630000Y-120548500D01*
X152439500Y-120358000D01*
X151978429Y-120358000D01*
X151698362Y-120474008D01*
X151484008Y-120688362D01*
X151368000Y-120968429D01*
X150878409Y-120968429D01*
X150853795Y-120837620D01*
X150686908Y-120578271D01*
X150432269Y-120404283D01*
X150130000Y-120343072D01*
X148130000Y-120343072D01*
X147847620Y-120396205D01*
X147588271Y-120563092D01*
X147414283Y-120817731D01*
X147376467Y-121004471D01*
X147024172Y-120858185D01*
X146601682Y-120857816D01*
X146211211Y-121019155D01*
X145912205Y-121317640D01*
X145750185Y-121707828D01*
X145749816Y-122130318D01*
X141793971Y-122130318D01*
X141850717Y-122047269D01*
X141911928Y-121745000D01*
X141911928Y-119758689D01*
X142027828Y-119806815D01*
X142450318Y-119807184D01*
X142840789Y-119645845D01*
X143139795Y-119347360D01*
X143301815Y-118957172D01*
X143301830Y-118940406D01*
X143712808Y-118529428D01*
X144180000Y-118529428D01*
X144462380Y-118476295D01*
X144618000Y-118376156D01*
X144618000Y-118386002D01*
X144935872Y-118386002D01*
X144948362Y-118398492D01*
X145228429Y-118514500D01*
X145464500Y-118514500D01*
X145655000Y-118324000D01*
X145655000Y-117729428D01*
X146205000Y-117729428D01*
X146205000Y-118324000D01*
X146395500Y-118514500D01*
X146631571Y-118514500D01*
X146911638Y-118398492D01*
X146924128Y-118386002D01*
X147242000Y-118386002D01*
X147242000Y-117729000D01*
X147369818Y-117729000D01*
X147406205Y-117922380D01*
X147573092Y-118181729D01*
X147827731Y-118355717D01*
X148130000Y-118416928D01*
X150130000Y-118416928D01*
X150412380Y-118363795D01*
X150671729Y-118196908D01*
X150845717Y-117942269D01*
X150906928Y-117640000D01*
X150906928Y-117430500D01*
X151368000Y-117430500D01*
X151368000Y-117791571D01*
X151484008Y-118071638D01*
X151698362Y-118285992D01*
X151978429Y-118402000D01*
X152439500Y-118402000D01*
X152630000Y-118211500D01*
X152630000Y-117240000D01*
X151558500Y-117240000D01*
X151368000Y-117430500D01*
X150906928Y-117430500D01*
X150906928Y-116040000D01*
X150878409Y-115888429D01*
X151368000Y-115888429D01*
X151368000Y-116249500D01*
X151558500Y-116440000D01*
X152630000Y-116440000D01*
X152630000Y-115468500D01*
X152439500Y-115278000D01*
X151978429Y-115278000D01*
X151698362Y-115394008D01*
X151484008Y-115608362D01*
X151368000Y-115888429D01*
X150878409Y-115888429D01*
X150853795Y-115757620D01*
X150686908Y-115498271D01*
X150432269Y-115324283D01*
X150130000Y-115263072D01*
X150019000Y-115263072D01*
X150019000Y-115189000D01*
X153301764Y-115189000D01*
X153630000Y-115517236D01*
X153630000Y-116440000D01*
X153896000Y-116440000D01*
X153896000Y-117240000D01*
X153630000Y-117240000D01*
X153630000Y-118211500D01*
X153820500Y-118402000D01*
X153911566Y-118402000D01*
X154039155Y-118710789D01*
X154051000Y-118722655D01*
X154051000Y-120358000D01*
X153820500Y-120358000D01*
X153630000Y-120548500D01*
X153630000Y-121520000D01*
X153896000Y-121520000D01*
X153896000Y-122320000D01*
X153630000Y-122320000D01*
X153630000Y-123291500D01*
X153820500Y-123482000D01*
X154281571Y-123482000D01*
X154561638Y-123365992D01*
X154719072Y-123208558D01*
X154719072Y-124294000D01*
X154772205Y-124576380D01*
X154939092Y-124835729D01*
X155193731Y-125009717D01*
X155496000Y-125070928D01*
X157496000Y-125070928D01*
X157778380Y-125017795D01*
X158037729Y-124850908D01*
X158211717Y-124596269D01*
X158272928Y-124294000D01*
X158272928Y-122594000D01*
X158246080Y-122451316D01*
X158719072Y-122924308D01*
X158719072Y-124294000D01*
X158772205Y-124576380D01*
X158939092Y-124835729D01*
X159193731Y-125009717D01*
X159496000Y-125070928D01*
X161496000Y-125070928D01*
X161723000Y-125028215D01*
X161723000Y-126163000D01*
X127837000Y-126163000D01*
X127837000Y-119439017D01*
X128095677Y-119611859D01*
X128717767Y-119735600D01*
X129092233Y-119735600D01*
X129714323Y-119611859D01*
X130241706Y-119259473D01*
X130594092Y-118732090D01*
X130717833Y-118110000D01*
X130594092Y-117487910D01*
X130241706Y-116960527D01*
X130061325Y-116840000D01*
X130241706Y-116719473D01*
X130594092Y-116192090D01*
X130713172Y-115593429D01*
X138773000Y-115593429D01*
X138773000Y-116054500D01*
X138963500Y-116245000D01*
X139935000Y-116245000D01*
X139935000Y-115173500D01*
X139744500Y-114983000D01*
X139383429Y-114983000D01*
X139103362Y-115099008D01*
X138889008Y-115313362D01*
X138773000Y-115593429D01*
X130713172Y-115593429D01*
X130717833Y-115570000D01*
X130594092Y-114947910D01*
X130241706Y-114420527D01*
X130061325Y-114300000D01*
X130241706Y-114179473D01*
X130594092Y-113652090D01*
X130717833Y-113030000D01*
X130594092Y-112407910D01*
X130328064Y-112009771D01*
X130352638Y-111999592D01*
X130566992Y-111785238D01*
X130683000Y-111505171D01*
X130683000Y-111112300D01*
X130492500Y-110921800D01*
X129413000Y-110921800D01*
X129413000Y-111256000D01*
X128397000Y-111256000D01*
X128397000Y-110921800D01*
X128139000Y-110921800D01*
X128139000Y-110058200D01*
X128397000Y-110058200D01*
X128397000Y-109054900D01*
X129413000Y-109054900D01*
X129413000Y-110058200D01*
X130492500Y-110058200D01*
X130683000Y-109867700D01*
X130683000Y-109474829D01*
X130566992Y-109194762D01*
X130352638Y-108980408D01*
X130072571Y-108864400D01*
X129603500Y-108864400D01*
X129413000Y-109054900D01*
X128397000Y-109054900D01*
X128206500Y-108864400D01*
X127837000Y-108864400D01*
X127837000Y-108545500D01*
X138773000Y-108545500D01*
X138773000Y-109006571D01*
X138889008Y-109286638D01*
X139103362Y-109500992D01*
X139383429Y-109617000D01*
X139744500Y-109617000D01*
X139935000Y-109426500D01*
X139935000Y-108355000D01*
X140735000Y-108355000D01*
X140735000Y-109426500D01*
X140925500Y-109617000D01*
X141286571Y-109617000D01*
X141566638Y-109500992D01*
X141780992Y-109286638D01*
X141897000Y-109006571D01*
X141897000Y-108545500D01*
X141706500Y-108355000D01*
X140735000Y-108355000D01*
X139935000Y-108355000D01*
X138963500Y-108355000D01*
X138773000Y-108545500D01*
X127837000Y-108545500D01*
X127837000Y-106703429D01*
X138773000Y-106703429D01*
X138773000Y-107164500D01*
X138963500Y-107355000D01*
X139935000Y-107355000D01*
X139935000Y-106283500D01*
X140735000Y-106283500D01*
X140735000Y-107355000D01*
X141706500Y-107355000D01*
X141897000Y-107164500D01*
X141897000Y-106703429D01*
X141780992Y-106423362D01*
X141566638Y-106209008D01*
X141286571Y-106093000D01*
X140925500Y-106093000D01*
X140735000Y-106283500D01*
X139935000Y-106283500D01*
X139744500Y-106093000D01*
X139383429Y-106093000D01*
X139103362Y-106209008D01*
X138889008Y-106423362D01*
X138773000Y-106703429D01*
X127837000Y-106703429D01*
X127837000Y-102437000D01*
X161723000Y-102437000D01*
X161723000Y-103575041D01*
X161723000Y-103575041D01*
G37*
X161723000Y-103575041D02*
X161496000Y-103529072D01*
X159496000Y-103529072D01*
X159213620Y-103582205D01*
X158954271Y-103749092D01*
X158780283Y-104003731D01*
X158719072Y-104306000D01*
X158719072Y-105675692D01*
X158243514Y-106151250D01*
X158272928Y-106006000D01*
X158272928Y-104306000D01*
X158219795Y-104023620D01*
X158052908Y-103764271D01*
X157798269Y-103590283D01*
X157496000Y-103529072D01*
X155496000Y-103529072D01*
X155213620Y-103582205D01*
X154954271Y-103749092D01*
X154780283Y-104003731D01*
X154719072Y-104306000D01*
X154719072Y-105391442D01*
X154561638Y-105234008D01*
X154281571Y-105118000D01*
X153820500Y-105118000D01*
X153630000Y-105308500D01*
X153630000Y-106280000D01*
X153896000Y-106280000D01*
X153896000Y-107080000D01*
X153630000Y-107080000D01*
X153630000Y-108051500D01*
X153820500Y-108242000D01*
X154051000Y-108242000D01*
X154051000Y-110198000D01*
X153820500Y-110198000D01*
X153630000Y-110388500D01*
X153630000Y-111360000D01*
X153896000Y-111360000D01*
X153896000Y-112160000D01*
X153630000Y-112160000D01*
X153630000Y-113082764D01*
X153301764Y-113411000D01*
X150019000Y-113411000D01*
X150019000Y-113336928D01*
X150130000Y-113336928D01*
X150412380Y-113283795D01*
X150671729Y-113116908D01*
X150845717Y-112862269D01*
X150906928Y-112560000D01*
X150906928Y-112350500D01*
X151368000Y-112350500D01*
X151368000Y-112711571D01*
X151484008Y-112991638D01*
X151698362Y-113205992D01*
X151978429Y-113322000D01*
X152439500Y-113322000D01*
X152630000Y-113131500D01*
X152630000Y-112160000D01*
X151558500Y-112160000D01*
X151368000Y-112350500D01*
X150906928Y-112350500D01*
X150906928Y-110960000D01*
X150878409Y-110808429D01*
X151368000Y-110808429D01*
X151368000Y-111169500D01*
X151558500Y-111360000D01*
X152630000Y-111360000D01*
X152630000Y-110388500D01*
X152439500Y-110198000D01*
X151978429Y-110198000D01*
X151698362Y-110314008D01*
X151484008Y-110528362D01*
X151368000Y-110808429D01*
X150878409Y-110808429D01*
X150853795Y-110677620D01*
X150686908Y-110418271D01*
X150432269Y-110244283D01*
X150130000Y-110183072D01*
X148130000Y-110183072D01*
X148026517Y-110202544D01*
X147922360Y-110098205D01*
X147532172Y-109936185D01*
X147131401Y-109935835D01*
X148810308Y-108256928D01*
X150130000Y-108256928D01*
X150412380Y-108203795D01*
X150671729Y-108036908D01*
X150845717Y-107782269D01*
X150906928Y-107480000D01*
X150906928Y-107270500D01*
X151368000Y-107270500D01*
X151368000Y-107631571D01*
X151484008Y-107911638D01*
X151698362Y-108125992D01*
X151978429Y-108242000D01*
X152439500Y-108242000D01*
X152630000Y-108051500D01*
X152630000Y-107080000D01*
X151558500Y-107080000D01*
X151368000Y-107270500D01*
X150906928Y-107270500D01*
X150906928Y-105880000D01*
X150878409Y-105728429D01*
X151368000Y-105728429D01*
X151368000Y-106089500D01*
X151558500Y-106280000D01*
X152630000Y-106280000D01*
X152630000Y-105308500D01*
X152439500Y-105118000D01*
X151978429Y-105118000D01*
X151698362Y-105234008D01*
X151484008Y-105448362D01*
X151368000Y-105728429D01*
X150878409Y-105728429D01*
X150853795Y-105597620D01*
X150686908Y-105338271D01*
X150432269Y-105164283D01*
X150130000Y-105103072D01*
X148130000Y-105103072D01*
X147847620Y-105156205D01*
X147588271Y-105323092D01*
X147414283Y-105577731D01*
X147353072Y-105880000D01*
X147353072Y-107199692D01*
X144481764Y-110071000D01*
X144182114Y-110071000D01*
X144180000Y-110070572D01*
X143080000Y-110070572D01*
X142797620Y-110123705D01*
X142538271Y-110290592D01*
X142415003Y-110471000D01*
X141793404Y-110471000D01*
X141691908Y-110313271D01*
X141437269Y-110139283D01*
X141135000Y-110078072D01*
X139535000Y-110078072D01*
X139252620Y-110131205D01*
X138993271Y-110298092D01*
X138819283Y-110552731D01*
X138758072Y-110855000D01*
X138758072Y-112855000D01*
X138811205Y-113137380D01*
X138978092Y-113396729D01*
X139232731Y-113570717D01*
X139488054Y-113622421D01*
X139513671Y-113751206D01*
X139653045Y-113959794D01*
X139706382Y-114039618D01*
X140787632Y-115120868D01*
X140735000Y-115173500D01*
X140735000Y-116245000D01*
X141101000Y-116245000D01*
X141101000Y-117245000D01*
X140735000Y-117245000D01*
X140735000Y-117511000D01*
X139935000Y-117511000D01*
X139935000Y-117245000D01*
X138963500Y-117245000D01*
X138773000Y-117435500D01*
X138773000Y-117896571D01*
X138889008Y-118176638D01*
X139103362Y-118390992D01*
X139383429Y-118507000D01*
X139950764Y-118507000D01*
X139706382Y-118751382D01*
X139561594Y-118968072D01*
X139535000Y-118968072D01*
X139252620Y-119021205D01*
X138993271Y-119188092D01*
X138819283Y-119442731D01*
X138758072Y-119745000D01*
X138758072Y-121745000D01*
X138811205Y-122027380D01*
X138978092Y-122286729D01*
X139232731Y-122460717D01*
X139535000Y-122521928D01*
X141135000Y-122521928D01*
X141417380Y-122468795D01*
X141676729Y-122301908D01*
X141793971Y-122130318D01*
X145749816Y-122130318D01*
X145911155Y-122520789D01*
X146209640Y-122819795D01*
X146599828Y-122981815D01*
X147022318Y-122982184D01*
X147374986Y-122836465D01*
X147406205Y-123002380D01*
X147573092Y-123261729D01*
X147827731Y-123435717D01*
X148130000Y-123496928D01*
X150130000Y-123496928D01*
X150412380Y-123443795D01*
X150671729Y-123276908D01*
X150845717Y-123022269D01*
X150906928Y-122720000D01*
X150906928Y-122510500D01*
X151368000Y-122510500D01*
X151368000Y-122871571D01*
X151484008Y-123151638D01*
X151698362Y-123365992D01*
X151978429Y-123482000D01*
X152439500Y-123482000D01*
X152630000Y-123291500D01*
X152630000Y-122320000D01*
X151558500Y-122320000D01*
X151368000Y-122510500D01*
X150906928Y-122510500D01*
X150906928Y-121120000D01*
X150878409Y-120968429D01*
X151368000Y-120968429D01*
X151368000Y-121329500D01*
X151558500Y-121520000D01*
X152630000Y-121520000D01*
X152630000Y-120548500D01*
X152439500Y-120358000D01*
X151978429Y-120358000D01*
X151698362Y-120474008D01*
X151484008Y-120688362D01*
X151368000Y-120968429D01*
X150878409Y-120968429D01*
X150853795Y-120837620D01*
X150686908Y-120578271D01*
X150432269Y-120404283D01*
X150130000Y-120343072D01*
X148130000Y-120343072D01*
X147847620Y-120396205D01*
X147588271Y-120563092D01*
X147414283Y-120817731D01*
X147376467Y-121004471D01*
X147024172Y-120858185D01*
X146601682Y-120857816D01*
X146211211Y-121019155D01*
X145912205Y-121317640D01*
X145750185Y-121707828D01*
X145749816Y-122130318D01*
X141793971Y-122130318D01*
X141850717Y-122047269D01*
X141911928Y-121745000D01*
X141911928Y-119758689D01*
X142027828Y-119806815D01*
X142450318Y-119807184D01*
X142840789Y-119645845D01*
X143139795Y-119347360D01*
X143301815Y-118957172D01*
X143301830Y-118940406D01*
X143712808Y-118529428D01*
X144180000Y-118529428D01*
X144462380Y-118476295D01*
X144618000Y-118376156D01*
X144618000Y-118386002D01*
X144935872Y-118386002D01*
X144948362Y-118398492D01*
X145228429Y-118514500D01*
X145464500Y-118514500D01*
X145655000Y-118324000D01*
X145655000Y-117729428D01*
X146205000Y-117729428D01*
X146205000Y-118324000D01*
X146395500Y-118514500D01*
X146631571Y-118514500D01*
X146911638Y-118398492D01*
X146924128Y-118386002D01*
X147242000Y-118386002D01*
X147242000Y-117729000D01*
X147369818Y-117729000D01*
X147406205Y-117922380D01*
X147573092Y-118181729D01*
X147827731Y-118355717D01*
X148130000Y-118416928D01*
X150130000Y-118416928D01*
X150412380Y-118363795D01*
X150671729Y-118196908D01*
X150845717Y-117942269D01*
X150906928Y-117640000D01*
X150906928Y-117430500D01*
X151368000Y-117430500D01*
X151368000Y-117791571D01*
X151484008Y-118071638D01*
X151698362Y-118285992D01*
X151978429Y-118402000D01*
X152439500Y-118402000D01*
X152630000Y-118211500D01*
X152630000Y-117240000D01*
X151558500Y-117240000D01*
X151368000Y-117430500D01*
X150906928Y-117430500D01*
X150906928Y-116040000D01*
X150878409Y-115888429D01*
X151368000Y-115888429D01*
X151368000Y-116249500D01*
X151558500Y-116440000D01*
X152630000Y-116440000D01*
X152630000Y-115468500D01*
X152439500Y-115278000D01*
X151978429Y-115278000D01*
X151698362Y-115394008D01*
X151484008Y-115608362D01*
X151368000Y-115888429D01*
X150878409Y-115888429D01*
X150853795Y-115757620D01*
X150686908Y-115498271D01*
X150432269Y-115324283D01*
X150130000Y-115263072D01*
X150019000Y-115263072D01*
X150019000Y-115189000D01*
X153301764Y-115189000D01*
X153630000Y-115517236D01*
X153630000Y-116440000D01*
X153896000Y-116440000D01*
X153896000Y-117240000D01*
X153630000Y-117240000D01*
X153630000Y-118211500D01*
X153820500Y-118402000D01*
X153911566Y-118402000D01*
X154039155Y-118710789D01*
X154051000Y-118722655D01*
X154051000Y-120358000D01*
X153820500Y-120358000D01*
X153630000Y-120548500D01*
X153630000Y-121520000D01*
X153896000Y-121520000D01*
X153896000Y-122320000D01*
X153630000Y-122320000D01*
X153630000Y-123291500D01*
X153820500Y-123482000D01*
X154281571Y-123482000D01*
X154561638Y-123365992D01*
X154719072Y-123208558D01*
X154719072Y-124294000D01*
X154772205Y-124576380D01*
X154939092Y-124835729D01*
X155193731Y-125009717D01*
X155496000Y-125070928D01*
X157496000Y-125070928D01*
X157778380Y-125017795D01*
X158037729Y-124850908D01*
X158211717Y-124596269D01*
X158272928Y-124294000D01*
X158272928Y-122594000D01*
X158246080Y-122451316D01*
X158719072Y-122924308D01*
X158719072Y-124294000D01*
X158772205Y-124576380D01*
X158939092Y-124835729D01*
X159193731Y-125009717D01*
X159496000Y-125070928D01*
X161496000Y-125070928D01*
X161723000Y-125028215D01*
X161723000Y-126163000D01*
X127837000Y-126163000D01*
X127837000Y-119439017D01*
X128095677Y-119611859D01*
X128717767Y-119735600D01*
X129092233Y-119735600D01*
X129714323Y-119611859D01*
X130241706Y-119259473D01*
X130594092Y-118732090D01*
X130717833Y-118110000D01*
X130594092Y-117487910D01*
X130241706Y-116960527D01*
X130061325Y-116840000D01*
X130241706Y-116719473D01*
X130594092Y-116192090D01*
X130713172Y-115593429D01*
X138773000Y-115593429D01*
X138773000Y-116054500D01*
X138963500Y-116245000D01*
X139935000Y-116245000D01*
X139935000Y-115173500D01*
X139744500Y-114983000D01*
X139383429Y-114983000D01*
X139103362Y-115099008D01*
X138889008Y-115313362D01*
X138773000Y-115593429D01*
X130713172Y-115593429D01*
X130717833Y-115570000D01*
X130594092Y-114947910D01*
X130241706Y-114420527D01*
X130061325Y-114300000D01*
X130241706Y-114179473D01*
X130594092Y-113652090D01*
X130717833Y-113030000D01*
X130594092Y-112407910D01*
X130328064Y-112009771D01*
X130352638Y-111999592D01*
X130566992Y-111785238D01*
X130683000Y-111505171D01*
X130683000Y-111112300D01*
X130492500Y-110921800D01*
X129413000Y-110921800D01*
X129413000Y-111256000D01*
X128397000Y-111256000D01*
X128397000Y-110921800D01*
X128139000Y-110921800D01*
X128139000Y-110058200D01*
X128397000Y-110058200D01*
X128397000Y-109054900D01*
X129413000Y-109054900D01*
X129413000Y-110058200D01*
X130492500Y-110058200D01*
X130683000Y-109867700D01*
X130683000Y-109474829D01*
X130566992Y-109194762D01*
X130352638Y-108980408D01*
X130072571Y-108864400D01*
X129603500Y-108864400D01*
X129413000Y-109054900D01*
X128397000Y-109054900D01*
X128206500Y-108864400D01*
X127837000Y-108864400D01*
X127837000Y-108545500D01*
X138773000Y-108545500D01*
X138773000Y-109006571D01*
X138889008Y-109286638D01*
X139103362Y-109500992D01*
X139383429Y-109617000D01*
X139744500Y-109617000D01*
X139935000Y-109426500D01*
X139935000Y-108355000D01*
X140735000Y-108355000D01*
X140735000Y-109426500D01*
X140925500Y-109617000D01*
X141286571Y-109617000D01*
X141566638Y-109500992D01*
X141780992Y-109286638D01*
X141897000Y-109006571D01*
X141897000Y-108545500D01*
X141706500Y-108355000D01*
X140735000Y-108355000D01*
X139935000Y-108355000D01*
X138963500Y-108355000D01*
X138773000Y-108545500D01*
X127837000Y-108545500D01*
X127837000Y-106703429D01*
X138773000Y-106703429D01*
X138773000Y-107164500D01*
X138963500Y-107355000D01*
X139935000Y-107355000D01*
X139935000Y-106283500D01*
X140735000Y-106283500D01*
X140735000Y-107355000D01*
X141706500Y-107355000D01*
X141897000Y-107164500D01*
X141897000Y-106703429D01*
X141780992Y-106423362D01*
X141566638Y-106209008D01*
X141286571Y-106093000D01*
X140925500Y-106093000D01*
X140735000Y-106283500D01*
X139935000Y-106283500D01*
X139744500Y-106093000D01*
X139383429Y-106093000D01*
X139103362Y-106209008D01*
X138889008Y-106423362D01*
X138773000Y-106703429D01*
X127837000Y-106703429D01*
X127837000Y-102437000D01*
X161723000Y-102437000D01*
X161723000Y-103575041D01*
G36*
X143891000Y-114321864D02*
X143880205Y-114332640D01*
X143849152Y-114407424D01*
X143604360Y-114162205D01*
X143214172Y-114000185D01*
X143197406Y-114000170D01*
X142621000Y-113423764D01*
X142621000Y-113306002D01*
X142635872Y-113306002D01*
X142648362Y-113318492D01*
X142928429Y-113434500D01*
X143164500Y-113434500D01*
X143355000Y-113244000D01*
X143355000Y-113049428D01*
X143891000Y-113049428D01*
X143891000Y-114321864D01*
X143891000Y-114321864D01*
G37*
X143891000Y-114321864D02*
X143880205Y-114332640D01*
X143849152Y-114407424D01*
X143604360Y-114162205D01*
X143214172Y-114000185D01*
X143197406Y-114000170D01*
X142621000Y-113423764D01*
X142621000Y-113306002D01*
X142635872Y-113306002D01*
X142648362Y-113318492D01*
X142928429Y-113434500D01*
X143164500Y-113434500D01*
X143355000Y-113244000D01*
X143355000Y-113049428D01*
X143891000Y-113049428D01*
X143891000Y-114321864D01*
G36*
X161723000Y-109203127D02*
X161404080Y-108995866D01*
X161163000Y-109111420D01*
X161163000Y-110058200D01*
X161421000Y-110058200D01*
X161421000Y-110921800D01*
X161163000Y-110921800D01*
X161163000Y-111256000D01*
X160147000Y-111256000D01*
X160147000Y-110921800D01*
X159889000Y-110921800D01*
X159889000Y-110058200D01*
X160147000Y-110058200D01*
X160147000Y-109111420D01*
X159905920Y-108995866D01*
X159379559Y-109337940D01*
X159077543Y-109743998D01*
X159004000Y-109743998D01*
X159004000Y-107905236D01*
X160126308Y-106782928D01*
X161496000Y-106782928D01*
X161723000Y-106740215D01*
X161723000Y-109203127D01*
X161723000Y-109203127D01*
G37*
X161723000Y-109203127D02*
X161404080Y-108995866D01*
X161163000Y-109111420D01*
X161163000Y-110058200D01*
X161421000Y-110058200D01*
X161421000Y-110921800D01*
X161163000Y-110921800D01*
X161163000Y-111256000D01*
X160147000Y-111256000D01*
X160147000Y-110921800D01*
X159889000Y-110921800D01*
X159889000Y-110058200D01*
X160147000Y-110058200D01*
X160147000Y-109111420D01*
X159905920Y-108995866D01*
X159379559Y-109337940D01*
X159077543Y-109743998D01*
X159004000Y-109743998D01*
X159004000Y-107905236D01*
X160126308Y-106782928D01*
X161496000Y-106782928D01*
X161723000Y-106740215D01*
X161723000Y-109203127D01*
M02*
