G04 #@! TF.FileFunction,Profile,NP*
%FSLAX46Y46*%
G04 Gerber Fmt 4.6, Leading zero omitted, Abs format (unit mm)*
G04 Created by KiCad (PCBNEW 4.0.5) date Thursday, March 09, 2017 'PMt' 04:43:54 PM*
%MOMM*%
%LPD*%
G01*
G04 APERTURE LIST*
%ADD10C,0.150000*%
%ADD11C,0.050000*%
G04 APERTURE END LIST*
D10*
D11*
X140035000Y-76750000D02*
X138965000Y-76750000D01*
X140035000Y-78250000D02*
X140035000Y-76750000D01*
X138965000Y-78250000D02*
X140035000Y-78250000D01*
X138965000Y-76750000D02*
X138965000Y-78250000D01*
X145250000Y-81965000D02*
X143750000Y-81965000D01*
X145250000Y-83035000D02*
X145250000Y-81965000D01*
X143750000Y-83035000D02*
X145250000Y-83035000D01*
X143750000Y-81965000D02*
X143750000Y-83035000D01*
X145250000Y-73035000D02*
X143750000Y-73035000D01*
X145250000Y-71965000D02*
X145250000Y-73035000D01*
X143750000Y-71965000D02*
X145250000Y-71965000D01*
X143750000Y-73035000D02*
X143750000Y-71965000D01*
X140035000Y-54250000D02*
X138965000Y-54250000D01*
X140035000Y-55750000D02*
X140035000Y-54250000D01*
X138965000Y-55750000D02*
X140035000Y-55750000D01*
X138965000Y-54250000D02*
X138965000Y-55750000D01*
X145250000Y-59465000D02*
X143750000Y-59465000D01*
X145250000Y-60535000D02*
X145250000Y-59465000D01*
X143750000Y-60535000D02*
X145250000Y-60535000D01*
X143750000Y-59465000D02*
X143750000Y-60535000D01*
X145250000Y-49465000D02*
X143750000Y-49465000D01*
X143750000Y-49465000D02*
X143750000Y-50535000D01*
X145250000Y-50535000D02*
X145250000Y-49465000D01*
X143750000Y-50535000D02*
X145250000Y-50535000D01*
D10*
X135000000Y-92000000D02*
X135000000Y-41000000D01*
X200000000Y-92000000D02*
X200000000Y-41000000D01*
X135000000Y-92000000D02*
X200000000Y-92000000D01*
X135000000Y-41000000D02*
X200000000Y-41000000D01*
M02*
