G04 #@! TF.FileFunction,Copper,L2,Bot,Signal*
%FSLAX46Y46*%
G04 Gerber Fmt 4.6, Leading zero omitted, Abs format (unit mm)*
G04 Created by KiCad (PCBNEW 4.0.6) date 03/10/17 18:24:38*
%MOMM*%
%LPD*%
G01*
G04 APERTURE LIST*
%ADD10C,0.150000*%
%ADD11R,1.727200X2.032000*%
%ADD12O,1.727200X2.032000*%
%ADD13C,1.000000*%
%ADD14C,0.787000*%
%ADD15C,1.500000*%
%ADD16R,2.032000X2.032000*%
%ADD17O,2.032000X2.032000*%
%ADD18C,1.400000*%
%ADD19R,1.300000X1.800000*%
%ADD20R,1.800000X1.300000*%
%ADD21C,0.600000*%
%ADD22C,0.300000*%
%ADD23C,0.254000*%
G04 APERTURE END LIST*
D10*
D11*
X148500000Y-43500000D03*
D12*
X151040000Y-43500000D03*
X153580000Y-43500000D03*
D13*
X193810000Y-49016000D03*
X193810000Y-46984000D03*
X188730000Y-48000000D03*
D14*
X192540000Y-48635000D03*
X192540000Y-47365000D03*
X191270000Y-48635000D03*
X191270000Y-47365000D03*
X190000000Y-48635000D03*
X190000000Y-47365000D03*
X190000000Y-47365000D03*
X190000000Y-48635000D03*
X191270000Y-47365000D03*
X191270000Y-48635000D03*
X192540000Y-47365000D03*
X192540000Y-48635000D03*
D13*
X188730000Y-48000000D03*
X193810000Y-46984000D03*
X193810000Y-49016000D03*
D15*
X195500000Y-74500000D03*
X190500000Y-74500000D03*
X195500000Y-64500000D03*
X190500000Y-64500000D03*
X195500000Y-55500000D03*
X190500000Y-55500000D03*
X195500000Y-83500000D03*
X190500000Y-83500000D03*
X166500000Y-48500000D03*
X171500000Y-48500000D03*
D16*
X146500000Y-89500000D03*
D17*
X149040000Y-89500000D03*
D18*
X137000000Y-50000000D03*
X139500000Y-50000000D03*
X137000000Y-60000000D03*
X139500000Y-60000000D03*
X144500000Y-55000000D03*
D19*
X139500000Y-55000000D03*
D20*
X144500000Y-60000000D03*
X144500000Y-50000000D03*
D18*
X137000000Y-72500000D03*
X139500000Y-72500000D03*
X137000000Y-82500000D03*
X139500000Y-82500000D03*
X144500000Y-77500000D03*
D19*
X139500000Y-77500000D03*
D20*
X144500000Y-82500000D03*
X144500000Y-72500000D03*
D21*
X149250000Y-65250000D03*
X158250000Y-74500000D03*
X139250000Y-87750000D03*
X167700000Y-84600000D03*
X151900000Y-87500000D03*
X161000000Y-86900000D03*
X174400000Y-50200000D03*
X174400000Y-57300000D03*
X181500000Y-50200000D03*
X181500000Y-57300000D03*
X158300000Y-66500000D03*
X170600000Y-67600000D03*
X185800000Y-45700000D03*
X173000000Y-67600000D03*
X187500000Y-83600000D03*
X178700000Y-80500000D03*
X167500000Y-82475000D03*
X159500000Y-80100000D03*
X160700000Y-58400000D03*
X170600000Y-57100000D03*
X157500000Y-47500000D03*
X173000000Y-73000000D03*
X173000000Y-76000000D03*
X180000000Y-76000000D03*
X182000000Y-76000000D03*
X187300000Y-48600000D03*
X181000000Y-48500000D03*
X171500000Y-82500000D03*
X181000000Y-68000000D03*
X180000000Y-68000000D03*
X178500000Y-73500000D03*
X178000000Y-70000000D03*
X178500000Y-68000000D03*
D22*
X139500000Y-77500000D02*
X138250000Y-78750000D01*
X139500000Y-77500000D02*
X140750000Y-78750000D01*
X139500000Y-77500000D02*
X138250000Y-76250000D01*
X139500000Y-77500000D02*
X140750000Y-76250000D01*
X139500000Y-77500000D02*
X137750000Y-77500000D01*
X139500000Y-77500000D02*
X139500000Y-79500000D01*
X139500000Y-77500000D02*
X141250000Y-77500000D01*
X139500000Y-77500000D02*
X139500000Y-75750000D01*
X139500000Y-55000000D02*
X138250000Y-56250000D01*
X139500000Y-55000000D02*
X138250000Y-53750000D01*
X139500000Y-55000000D02*
X140750000Y-56250000D01*
X139500000Y-55000000D02*
X140750000Y-53750000D01*
X139500000Y-55000000D02*
X138000000Y-55000000D01*
X139500000Y-55000000D02*
X139500000Y-56500000D01*
X139500000Y-55000000D02*
X141000000Y-55000000D01*
X139500000Y-55000000D02*
X139500000Y-53250000D01*
X167500000Y-82475000D02*
X167500000Y-82500000D01*
X173000000Y-76000000D02*
X173000000Y-73000000D01*
X182000000Y-76000000D02*
X180000000Y-76000000D01*
X190000000Y-48635000D02*
X190000000Y-48800000D01*
X190000000Y-48800000D02*
X189500000Y-49300000D01*
X188000000Y-49300000D02*
X187300000Y-48600000D01*
X189500000Y-49300000D02*
X188000000Y-49300000D01*
X190000000Y-48635000D02*
X191270000Y-48635000D01*
X190000000Y-47365000D02*
X189135000Y-46500000D01*
X183000000Y-46500000D02*
X189135000Y-46500000D01*
X183000000Y-46500000D02*
X181000000Y-48500000D01*
X190000000Y-47365000D02*
X189865000Y-47365000D01*
X161500000Y-72500000D02*
X144500000Y-72500000D01*
X171500000Y-82500000D02*
X161500000Y-72500000D01*
X181000000Y-68000000D02*
X181000000Y-74000000D01*
X170500000Y-60000000D02*
X144500000Y-60000000D01*
X174500000Y-64000000D02*
X170500000Y-60000000D01*
X174500000Y-74000000D02*
X174500000Y-64000000D01*
X176000000Y-75500000D02*
X174500000Y-74000000D01*
X179500000Y-75500000D02*
X176000000Y-75500000D01*
X181000000Y-74000000D02*
X179500000Y-75500000D01*
X180000000Y-68000000D02*
X180000000Y-73500000D01*
X171500000Y-50000000D02*
X144500000Y-50000000D01*
X175500000Y-54000000D02*
X171500000Y-50000000D01*
X175500000Y-73500000D02*
X175500000Y-54000000D01*
X176500000Y-74500000D02*
X175500000Y-73500000D01*
X179000000Y-74500000D02*
X176500000Y-74500000D01*
X180000000Y-73500000D02*
X179000000Y-74500000D01*
X178500000Y-73500000D02*
X178500000Y-72000000D01*
X151500000Y-46500000D02*
X148500000Y-43500000D01*
X172500000Y-46500000D02*
X151500000Y-46500000D01*
X176500000Y-50500000D02*
X172500000Y-46500000D01*
X176500000Y-70000000D02*
X176500000Y-50500000D01*
X178500000Y-72000000D02*
X176500000Y-70000000D01*
X178000000Y-70000000D02*
X177500000Y-69500000D01*
X153040000Y-45500000D02*
X151040000Y-43500000D01*
X173000000Y-45500000D02*
X153040000Y-45500000D01*
X177500000Y-50000000D02*
X173000000Y-45500000D01*
X177500000Y-69500000D02*
X177500000Y-50000000D01*
X178500000Y-68000000D02*
X178500000Y-55000000D01*
X191175000Y-50000000D02*
X192540000Y-48635000D01*
X183500000Y-50000000D02*
X191175000Y-50000000D01*
X178500000Y-55000000D02*
X183500000Y-50000000D01*
D23*
G36*
X199544000Y-91544000D02*
X135456000Y-91544000D01*
X135456000Y-88484000D01*
X145095536Y-88484000D01*
X145095536Y-90516000D01*
X145122103Y-90657190D01*
X145205546Y-90786865D01*
X145332866Y-90873859D01*
X145484000Y-90904464D01*
X147516000Y-90904464D01*
X147657190Y-90877897D01*
X147786865Y-90794454D01*
X147873859Y-90667134D01*
X147904464Y-90516000D01*
X147904464Y-90284677D01*
X148195797Y-90613125D01*
X148334676Y-90705872D01*
X148532000Y-90698536D01*
X148532000Y-90008000D01*
X149548000Y-90008000D01*
X149548000Y-90698536D01*
X149745324Y-90705872D01*
X149884203Y-90613125D01*
X150245916Y-90205331D01*
X150246157Y-90008000D01*
X149548000Y-90008000D01*
X148532000Y-90008000D01*
X148512000Y-90008000D01*
X148512000Y-88992000D01*
X148532000Y-88992000D01*
X148532000Y-88301464D01*
X149548000Y-88301464D01*
X149548000Y-88992000D01*
X150246157Y-88992000D01*
X150245916Y-88794669D01*
X149884203Y-88386875D01*
X149745324Y-88294128D01*
X149548000Y-88301464D01*
X148532000Y-88301464D01*
X148334676Y-88294128D01*
X148195797Y-88386875D01*
X147904464Y-88715323D01*
X147904464Y-88484000D01*
X147877897Y-88342810D01*
X147794454Y-88213135D01*
X147667134Y-88126141D01*
X147516000Y-88095536D01*
X145484000Y-88095536D01*
X145342810Y-88122103D01*
X145213135Y-88205546D01*
X145126141Y-88332866D01*
X145095536Y-88484000D01*
X135456000Y-88484000D01*
X135456000Y-83723983D01*
X189368804Y-83723983D01*
X189540625Y-84139823D01*
X189858503Y-84458256D01*
X190274043Y-84630804D01*
X190723983Y-84631196D01*
X191139823Y-84459375D01*
X191458256Y-84141497D01*
X191630804Y-83725957D01*
X191630805Y-83723983D01*
X194368804Y-83723983D01*
X194540625Y-84139823D01*
X194858503Y-84458256D01*
X195274043Y-84630804D01*
X195723983Y-84631196D01*
X196139823Y-84459375D01*
X196458256Y-84141497D01*
X196630804Y-83725957D01*
X196631196Y-83276017D01*
X196459375Y-82860177D01*
X196141497Y-82541744D01*
X195725957Y-82369196D01*
X195276017Y-82368804D01*
X194860177Y-82540625D01*
X194541744Y-82858503D01*
X194369196Y-83274043D01*
X194368804Y-83723983D01*
X191630805Y-83723983D01*
X191631196Y-83276017D01*
X191459375Y-82860177D01*
X191141497Y-82541744D01*
X190725957Y-82369196D01*
X190276017Y-82368804D01*
X189860177Y-82540625D01*
X189541744Y-82858503D01*
X189369196Y-83274043D01*
X189368804Y-83723983D01*
X135456000Y-83723983D01*
X135456000Y-82714081D01*
X135918813Y-82714081D01*
X136083038Y-83111537D01*
X136386863Y-83415893D01*
X136784032Y-83580812D01*
X137214081Y-83581187D01*
X137611537Y-83416962D01*
X137915893Y-83113137D01*
X138080812Y-82715968D01*
X138080813Y-82714081D01*
X138418813Y-82714081D01*
X138583038Y-83111537D01*
X138886863Y-83415893D01*
X139284032Y-83580812D01*
X139714081Y-83581187D01*
X140111537Y-83416962D01*
X140415893Y-83113137D01*
X140580812Y-82715968D01*
X140581187Y-82285919D01*
X140416962Y-81888463D01*
X140378567Y-81850000D01*
X143211536Y-81850000D01*
X143211536Y-83150000D01*
X143238103Y-83291190D01*
X143321546Y-83420865D01*
X143448866Y-83507859D01*
X143600000Y-83538464D01*
X145400000Y-83538464D01*
X145541190Y-83511897D01*
X145670865Y-83428454D01*
X145757859Y-83301134D01*
X145788464Y-83150000D01*
X145788464Y-81850000D01*
X145761897Y-81708810D01*
X145678454Y-81579135D01*
X145551134Y-81492141D01*
X145400000Y-81461536D01*
X143600000Y-81461536D01*
X143458810Y-81488103D01*
X143329135Y-81571546D01*
X143242141Y-81698866D01*
X143211536Y-81850000D01*
X140378567Y-81850000D01*
X140113137Y-81584107D01*
X139715968Y-81419188D01*
X139285919Y-81418813D01*
X138888463Y-81583038D01*
X138584107Y-81886863D01*
X138419188Y-82284032D01*
X138418813Y-82714081D01*
X138080813Y-82714081D01*
X138081187Y-82285919D01*
X137916962Y-81888463D01*
X137613137Y-81584107D01*
X137215968Y-81419188D01*
X136785919Y-81418813D01*
X136388463Y-81583038D01*
X136084107Y-81886863D01*
X135919188Y-82284032D01*
X135918813Y-82714081D01*
X135456000Y-82714081D01*
X135456000Y-76524215D01*
X138469000Y-76524215D01*
X138469000Y-76954750D01*
X138559000Y-77044750D01*
X138559000Y-77955250D01*
X138469000Y-78045250D01*
X138469000Y-78475785D01*
X138527004Y-78615819D01*
X138634180Y-78722996D01*
X138774214Y-78781000D01*
X139079750Y-78781000D01*
X139175000Y-78685750D01*
X139175000Y-78656000D01*
X139825000Y-78656000D01*
X139825000Y-78685750D01*
X139920250Y-78781000D01*
X140225786Y-78781000D01*
X140365820Y-78722996D01*
X140472996Y-78615819D01*
X140531000Y-78475785D01*
X140531000Y-78045250D01*
X140441000Y-77955250D01*
X140441000Y-77714081D01*
X143418813Y-77714081D01*
X143583038Y-78111537D01*
X143886863Y-78415893D01*
X144284032Y-78580812D01*
X144714081Y-78581187D01*
X145111537Y-78416962D01*
X145415893Y-78113137D01*
X145580812Y-77715968D01*
X145581187Y-77285919D01*
X145416962Y-76888463D01*
X145113137Y-76584107D01*
X144715968Y-76419188D01*
X144285919Y-76418813D01*
X143888463Y-76583038D01*
X143584107Y-76886863D01*
X143419188Y-77284032D01*
X143418813Y-77714081D01*
X140441000Y-77714081D01*
X140441000Y-77044750D01*
X140531000Y-76954750D01*
X140531000Y-76524215D01*
X140472996Y-76384181D01*
X140365820Y-76277004D01*
X140225786Y-76219000D01*
X139920250Y-76219000D01*
X139825000Y-76314250D01*
X139825000Y-76344000D01*
X139175000Y-76344000D01*
X139175000Y-76314250D01*
X139079750Y-76219000D01*
X138774214Y-76219000D01*
X138634180Y-76277004D01*
X138527004Y-76384181D01*
X138469000Y-76524215D01*
X135456000Y-76524215D01*
X135456000Y-72714081D01*
X135918813Y-72714081D01*
X136083038Y-73111537D01*
X136386863Y-73415893D01*
X136784032Y-73580812D01*
X137214081Y-73581187D01*
X137611537Y-73416962D01*
X137915893Y-73113137D01*
X138080812Y-72715968D01*
X138080813Y-72714081D01*
X138418813Y-72714081D01*
X138583038Y-73111537D01*
X138886863Y-73415893D01*
X139284032Y-73580812D01*
X139714081Y-73581187D01*
X140111537Y-73416962D01*
X140415893Y-73113137D01*
X140580812Y-72715968D01*
X140581187Y-72285919D01*
X140416962Y-71888463D01*
X140378567Y-71850000D01*
X143211536Y-71850000D01*
X143211536Y-73150000D01*
X143238103Y-73291190D01*
X143321546Y-73420865D01*
X143448866Y-73507859D01*
X143600000Y-73538464D01*
X145400000Y-73538464D01*
X145541190Y-73511897D01*
X145670865Y-73428454D01*
X145757859Y-73301134D01*
X145788464Y-73150000D01*
X145788464Y-73031000D01*
X161280052Y-73031000D01*
X170818939Y-82569886D01*
X170818882Y-82634865D01*
X170922339Y-82885252D01*
X171113741Y-83076987D01*
X171363946Y-83180882D01*
X171634865Y-83181118D01*
X171885252Y-83077661D01*
X172076987Y-82886259D01*
X172180882Y-82636054D01*
X172181118Y-82365135D01*
X172077661Y-82114748D01*
X171886259Y-81923013D01*
X171636054Y-81819118D01*
X171570007Y-81819060D01*
X162885813Y-73134865D01*
X172318882Y-73134865D01*
X172422339Y-73385252D01*
X172469000Y-73431994D01*
X172469000Y-75567834D01*
X172423013Y-75613741D01*
X172319118Y-75863946D01*
X172318882Y-76134865D01*
X172422339Y-76385252D01*
X172613741Y-76576987D01*
X172863946Y-76680882D01*
X173134865Y-76681118D01*
X173385252Y-76577661D01*
X173576987Y-76386259D01*
X173680882Y-76136054D01*
X173681118Y-75865135D01*
X173577661Y-75614748D01*
X173531000Y-75568006D01*
X173531000Y-73432166D01*
X173576987Y-73386259D01*
X173680882Y-73136054D01*
X173681118Y-72865135D01*
X173577661Y-72614748D01*
X173386259Y-72423013D01*
X173136054Y-72319118D01*
X172865135Y-72318882D01*
X172614748Y-72422339D01*
X172423013Y-72613741D01*
X172319118Y-72863946D01*
X172318882Y-73134865D01*
X162885813Y-73134865D01*
X161875474Y-72124526D01*
X161703205Y-72009420D01*
X161500000Y-71969000D01*
X145788464Y-71969000D01*
X145788464Y-71850000D01*
X145761897Y-71708810D01*
X145678454Y-71579135D01*
X145551134Y-71492141D01*
X145400000Y-71461536D01*
X143600000Y-71461536D01*
X143458810Y-71488103D01*
X143329135Y-71571546D01*
X143242141Y-71698866D01*
X143211536Y-71850000D01*
X140378567Y-71850000D01*
X140113137Y-71584107D01*
X139715968Y-71419188D01*
X139285919Y-71418813D01*
X138888463Y-71583038D01*
X138584107Y-71886863D01*
X138419188Y-72284032D01*
X138418813Y-72714081D01*
X138080813Y-72714081D01*
X138081187Y-72285919D01*
X137916962Y-71888463D01*
X137613137Y-71584107D01*
X137215968Y-71419188D01*
X136785919Y-71418813D01*
X136388463Y-71583038D01*
X136084107Y-71886863D01*
X135919188Y-72284032D01*
X135918813Y-72714081D01*
X135456000Y-72714081D01*
X135456000Y-60214081D01*
X135918813Y-60214081D01*
X136083038Y-60611537D01*
X136386863Y-60915893D01*
X136784032Y-61080812D01*
X137214081Y-61081187D01*
X137611537Y-60916962D01*
X137915893Y-60613137D01*
X138080812Y-60215968D01*
X138080813Y-60214081D01*
X138418813Y-60214081D01*
X138583038Y-60611537D01*
X138886863Y-60915893D01*
X139284032Y-61080812D01*
X139714081Y-61081187D01*
X140111537Y-60916962D01*
X140415893Y-60613137D01*
X140580812Y-60215968D01*
X140581187Y-59785919D01*
X140416962Y-59388463D01*
X140113137Y-59084107D01*
X139715968Y-58919188D01*
X139285919Y-58918813D01*
X138888463Y-59083038D01*
X138584107Y-59386863D01*
X138419188Y-59784032D01*
X138418813Y-60214081D01*
X138080813Y-60214081D01*
X138081187Y-59785919D01*
X137916962Y-59388463D01*
X137613137Y-59084107D01*
X137215968Y-58919188D01*
X136785919Y-58918813D01*
X136388463Y-59083038D01*
X136084107Y-59386863D01*
X135919188Y-59784032D01*
X135918813Y-60214081D01*
X135456000Y-60214081D01*
X135456000Y-54024215D01*
X138469000Y-54024215D01*
X138469000Y-54454750D01*
X138559000Y-54544750D01*
X138559000Y-55455250D01*
X138469000Y-55545250D01*
X138469000Y-55975785D01*
X138527004Y-56115819D01*
X138634180Y-56222996D01*
X138774214Y-56281000D01*
X139079750Y-56281000D01*
X139175000Y-56185750D01*
X139175000Y-56156000D01*
X139825000Y-56156000D01*
X139825000Y-56185750D01*
X139920250Y-56281000D01*
X140225786Y-56281000D01*
X140365820Y-56222996D01*
X140472996Y-56115819D01*
X140531000Y-55975785D01*
X140531000Y-55545250D01*
X140441000Y-55455250D01*
X140441000Y-55214081D01*
X143418813Y-55214081D01*
X143583038Y-55611537D01*
X143886863Y-55915893D01*
X144284032Y-56080812D01*
X144714081Y-56081187D01*
X145111537Y-55916962D01*
X145415893Y-55613137D01*
X145580812Y-55215968D01*
X145581187Y-54785919D01*
X145416962Y-54388463D01*
X145113137Y-54084107D01*
X144715968Y-53919188D01*
X144285919Y-53918813D01*
X143888463Y-54083038D01*
X143584107Y-54386863D01*
X143419188Y-54784032D01*
X143418813Y-55214081D01*
X140441000Y-55214081D01*
X140441000Y-54544750D01*
X140531000Y-54454750D01*
X140531000Y-54024215D01*
X140472996Y-53884181D01*
X140365820Y-53777004D01*
X140225786Y-53719000D01*
X139920250Y-53719000D01*
X139825000Y-53814250D01*
X139825000Y-53844000D01*
X139175000Y-53844000D01*
X139175000Y-53814250D01*
X139079750Y-53719000D01*
X138774214Y-53719000D01*
X138634180Y-53777004D01*
X138527004Y-53884181D01*
X138469000Y-54024215D01*
X135456000Y-54024215D01*
X135456000Y-50214081D01*
X135918813Y-50214081D01*
X136083038Y-50611537D01*
X136386863Y-50915893D01*
X136784032Y-51080812D01*
X137214081Y-51081187D01*
X137611537Y-50916962D01*
X137915893Y-50613137D01*
X138080812Y-50215968D01*
X138080813Y-50214081D01*
X138418813Y-50214081D01*
X138583038Y-50611537D01*
X138886863Y-50915893D01*
X139284032Y-51080812D01*
X139714081Y-51081187D01*
X140111537Y-50916962D01*
X140415893Y-50613137D01*
X140580812Y-50215968D01*
X140581187Y-49785919D01*
X140416962Y-49388463D01*
X140378567Y-49350000D01*
X143211536Y-49350000D01*
X143211536Y-50650000D01*
X143238103Y-50791190D01*
X143321546Y-50920865D01*
X143448866Y-51007859D01*
X143600000Y-51038464D01*
X145400000Y-51038464D01*
X145541190Y-51011897D01*
X145670865Y-50928454D01*
X145757859Y-50801134D01*
X145788464Y-50650000D01*
X145788464Y-50531000D01*
X171280052Y-50531000D01*
X174969000Y-54219948D01*
X174969000Y-63764498D01*
X174875474Y-63624526D01*
X170875474Y-59624526D01*
X170703205Y-59509420D01*
X170500000Y-59469000D01*
X145788464Y-59469000D01*
X145788464Y-59350000D01*
X145761897Y-59208810D01*
X145678454Y-59079135D01*
X145551134Y-58992141D01*
X145400000Y-58961536D01*
X143600000Y-58961536D01*
X143458810Y-58988103D01*
X143329135Y-59071546D01*
X143242141Y-59198866D01*
X143211536Y-59350000D01*
X143211536Y-60650000D01*
X143238103Y-60791190D01*
X143321546Y-60920865D01*
X143448866Y-61007859D01*
X143600000Y-61038464D01*
X145400000Y-61038464D01*
X145541190Y-61011897D01*
X145670865Y-60928454D01*
X145757859Y-60801134D01*
X145788464Y-60650000D01*
X145788464Y-60531000D01*
X170280052Y-60531000D01*
X173969000Y-64219948D01*
X173969000Y-74000000D01*
X174009420Y-74203205D01*
X174124526Y-74375474D01*
X175624524Y-75875471D01*
X175624526Y-75875474D01*
X175796795Y-75990580D01*
X176000000Y-76031000D01*
X179318972Y-76031000D01*
X179318882Y-76134865D01*
X179422339Y-76385252D01*
X179613741Y-76576987D01*
X179863946Y-76680882D01*
X180134865Y-76681118D01*
X180385252Y-76577661D01*
X180431994Y-76531000D01*
X181567834Y-76531000D01*
X181613741Y-76576987D01*
X181863946Y-76680882D01*
X182134865Y-76681118D01*
X182385252Y-76577661D01*
X182576987Y-76386259D01*
X182680882Y-76136054D01*
X182681118Y-75865135D01*
X182577661Y-75614748D01*
X182386259Y-75423013D01*
X182136054Y-75319118D01*
X181865135Y-75318882D01*
X181614748Y-75422339D01*
X181568006Y-75469000D01*
X180432166Y-75469000D01*
X180386259Y-75423013D01*
X180345047Y-75405900D01*
X181026964Y-74723983D01*
X189368804Y-74723983D01*
X189540625Y-75139823D01*
X189858503Y-75458256D01*
X190274043Y-75630804D01*
X190723983Y-75631196D01*
X191127068Y-75464645D01*
X195065685Y-75464645D01*
X195162413Y-75602637D01*
X195610071Y-75647893D01*
X195837587Y-75602637D01*
X195934315Y-75464645D01*
X195500000Y-75030330D01*
X195065685Y-75464645D01*
X191127068Y-75464645D01*
X191139823Y-75459375D01*
X191458256Y-75141497D01*
X191630804Y-74725957D01*
X191630904Y-74610071D01*
X194352107Y-74610071D01*
X194397363Y-74837587D01*
X194535355Y-74934315D01*
X194969670Y-74500000D01*
X196030330Y-74500000D01*
X196464645Y-74934315D01*
X196602637Y-74837587D01*
X196647893Y-74389929D01*
X196602637Y-74162413D01*
X196464645Y-74065685D01*
X196030330Y-74500000D01*
X194969670Y-74500000D01*
X194535355Y-74065685D01*
X194397363Y-74162413D01*
X194352107Y-74610071D01*
X191630904Y-74610071D01*
X191631196Y-74276017D01*
X191459375Y-73860177D01*
X191141497Y-73541744D01*
X191126111Y-73535355D01*
X195065685Y-73535355D01*
X195500000Y-73969670D01*
X195934315Y-73535355D01*
X195837587Y-73397363D01*
X195389929Y-73352107D01*
X195162413Y-73397363D01*
X195065685Y-73535355D01*
X191126111Y-73535355D01*
X190725957Y-73369196D01*
X190276017Y-73368804D01*
X189860177Y-73540625D01*
X189541744Y-73858503D01*
X189369196Y-74274043D01*
X189368804Y-74723983D01*
X181026964Y-74723983D01*
X181375471Y-74375476D01*
X181375474Y-74375474D01*
X181490580Y-74203205D01*
X181531000Y-74000000D01*
X181531000Y-68432166D01*
X181576987Y-68386259D01*
X181680882Y-68136054D01*
X181681118Y-67865135D01*
X181577661Y-67614748D01*
X181386259Y-67423013D01*
X181136054Y-67319118D01*
X180865135Y-67318882D01*
X180614748Y-67422339D01*
X180499968Y-67536920D01*
X180386259Y-67423013D01*
X180136054Y-67319118D01*
X179865135Y-67318882D01*
X179614748Y-67422339D01*
X179423013Y-67613741D01*
X179319118Y-67863946D01*
X179318882Y-68134865D01*
X179422339Y-68385252D01*
X179469000Y-68431994D01*
X179469000Y-73280053D01*
X179180941Y-73568111D01*
X179181118Y-73365135D01*
X179077661Y-73114748D01*
X179031000Y-73068006D01*
X179031000Y-72000000D01*
X178990580Y-71796795D01*
X178875474Y-71624526D01*
X177931889Y-70680941D01*
X178134865Y-70681118D01*
X178385252Y-70577661D01*
X178576987Y-70386259D01*
X178680882Y-70136054D01*
X178681118Y-69865135D01*
X178577661Y-69614748D01*
X178386259Y-69423013D01*
X178136054Y-69319118D01*
X178070008Y-69319060D01*
X178031000Y-69280052D01*
X178031000Y-68494102D01*
X178113741Y-68576987D01*
X178363946Y-68680882D01*
X178634865Y-68681118D01*
X178885252Y-68577661D01*
X179076987Y-68386259D01*
X179180882Y-68136054D01*
X179181118Y-67865135D01*
X179077661Y-67614748D01*
X179031000Y-67568006D01*
X179031000Y-64723983D01*
X189368804Y-64723983D01*
X189540625Y-65139823D01*
X189858503Y-65458256D01*
X190274043Y-65630804D01*
X190723983Y-65631196D01*
X191127068Y-65464645D01*
X195065685Y-65464645D01*
X195162413Y-65602637D01*
X195610071Y-65647893D01*
X195837587Y-65602637D01*
X195934315Y-65464645D01*
X195500000Y-65030330D01*
X195065685Y-65464645D01*
X191127068Y-65464645D01*
X191139823Y-65459375D01*
X191458256Y-65141497D01*
X191630804Y-64725957D01*
X191630904Y-64610071D01*
X194352107Y-64610071D01*
X194397363Y-64837587D01*
X194535355Y-64934315D01*
X194969670Y-64500000D01*
X196030330Y-64500000D01*
X196464645Y-64934315D01*
X196602637Y-64837587D01*
X196647893Y-64389929D01*
X196602637Y-64162413D01*
X196464645Y-64065685D01*
X196030330Y-64500000D01*
X194969670Y-64500000D01*
X194535355Y-64065685D01*
X194397363Y-64162413D01*
X194352107Y-64610071D01*
X191630904Y-64610071D01*
X191631196Y-64276017D01*
X191459375Y-63860177D01*
X191141497Y-63541744D01*
X191126111Y-63535355D01*
X195065685Y-63535355D01*
X195500000Y-63969670D01*
X195934315Y-63535355D01*
X195837587Y-63397363D01*
X195389929Y-63352107D01*
X195162413Y-63397363D01*
X195065685Y-63535355D01*
X191126111Y-63535355D01*
X190725957Y-63369196D01*
X190276017Y-63368804D01*
X189860177Y-63540625D01*
X189541744Y-63858503D01*
X189369196Y-64274043D01*
X189368804Y-64723983D01*
X179031000Y-64723983D01*
X179031000Y-55723983D01*
X189368804Y-55723983D01*
X189540625Y-56139823D01*
X189858503Y-56458256D01*
X190274043Y-56630804D01*
X190723983Y-56631196D01*
X191127068Y-56464645D01*
X195065685Y-56464645D01*
X195162413Y-56602637D01*
X195610071Y-56647893D01*
X195837587Y-56602637D01*
X195934315Y-56464645D01*
X195500000Y-56030330D01*
X195065685Y-56464645D01*
X191127068Y-56464645D01*
X191139823Y-56459375D01*
X191458256Y-56141497D01*
X191630804Y-55725957D01*
X191630904Y-55610071D01*
X194352107Y-55610071D01*
X194397363Y-55837587D01*
X194535355Y-55934315D01*
X194969670Y-55500000D01*
X196030330Y-55500000D01*
X196464645Y-55934315D01*
X196602637Y-55837587D01*
X196647893Y-55389929D01*
X196602637Y-55162413D01*
X196464645Y-55065685D01*
X196030330Y-55500000D01*
X194969670Y-55500000D01*
X194535355Y-55065685D01*
X194397363Y-55162413D01*
X194352107Y-55610071D01*
X191630904Y-55610071D01*
X191631196Y-55276017D01*
X191459375Y-54860177D01*
X191141497Y-54541744D01*
X191126111Y-54535355D01*
X195065685Y-54535355D01*
X195500000Y-54969670D01*
X195934315Y-54535355D01*
X195837587Y-54397363D01*
X195389929Y-54352107D01*
X195162413Y-54397363D01*
X195065685Y-54535355D01*
X191126111Y-54535355D01*
X190725957Y-54369196D01*
X190276017Y-54368804D01*
X189860177Y-54540625D01*
X189541744Y-54858503D01*
X189369196Y-55274043D01*
X189368804Y-55723983D01*
X179031000Y-55723983D01*
X179031000Y-55219948D01*
X183719948Y-50531000D01*
X191175000Y-50531000D01*
X191378205Y-50490580D01*
X191550474Y-50375474D01*
X192516468Y-49409480D01*
X192693382Y-49409634D01*
X192971859Y-49294570D01*
X193062689Y-49514395D01*
X193310302Y-49762440D01*
X193633989Y-49896847D01*
X193984473Y-49897153D01*
X194308395Y-49763311D01*
X194556440Y-49515698D01*
X194690847Y-49192011D01*
X194691153Y-48841527D01*
X194557311Y-48517605D01*
X194309698Y-48269560D01*
X193986011Y-48135153D01*
X193635527Y-48134847D01*
X193311605Y-48268689D01*
X193251461Y-48328728D01*
X193196972Y-48196854D01*
X192979292Y-47978794D01*
X192801879Y-47905126D01*
X192540000Y-47643247D01*
X192278002Y-47905245D01*
X192101854Y-47978028D01*
X191904848Y-48174691D01*
X191709292Y-47978794D01*
X191531879Y-47905126D01*
X191270000Y-47643247D01*
X191008002Y-47905245D01*
X190831854Y-47978028D01*
X190705662Y-48104000D01*
X190564280Y-48104000D01*
X190460309Y-47999848D01*
X190656206Y-47804292D01*
X190729874Y-47626879D01*
X190991753Y-47365000D01*
X191548247Y-47365000D01*
X191797459Y-47614212D01*
X191805641Y-47655347D01*
X191855070Y-47671823D01*
X191880034Y-47696787D01*
X191905000Y-47688465D01*
X191929966Y-47696787D01*
X191954930Y-47671823D01*
X192004359Y-47655347D01*
X192011698Y-47615055D01*
X192261753Y-47365000D01*
X192012541Y-47115788D01*
X192004359Y-47074653D01*
X191954930Y-47058177D01*
X191929966Y-47033213D01*
X191905000Y-47041535D01*
X191880034Y-47033213D01*
X191855070Y-47058177D01*
X191805641Y-47074653D01*
X191798302Y-47114945D01*
X191548247Y-47365000D01*
X190991753Y-47365000D01*
X190729755Y-47103002D01*
X190656972Y-46926854D01*
X190485384Y-46754966D01*
X190938213Y-46754966D01*
X191270000Y-47086753D01*
X191601787Y-46754966D01*
X192208213Y-46754966D01*
X192540000Y-47086753D01*
X192679123Y-46947630D01*
X192956224Y-47224731D01*
X192956894Y-47226353D01*
X192818247Y-47365000D01*
X193150034Y-47696787D01*
X193245082Y-47665106D01*
X193310302Y-47730440D01*
X193633989Y-47864847D01*
X193984473Y-47865153D01*
X194308395Y-47731311D01*
X194556440Y-47483698D01*
X194690847Y-47160011D01*
X194691153Y-46809527D01*
X194557311Y-46485605D01*
X194309698Y-46237560D01*
X193986011Y-46103153D01*
X193635527Y-46102847D01*
X193311605Y-46236689D01*
X193063560Y-46484302D01*
X192978176Y-46689928D01*
X192737412Y-46449164D01*
X192598215Y-46588361D01*
X192527218Y-46575430D01*
X192249653Y-46630641D01*
X192208213Y-46754966D01*
X191601787Y-46754966D01*
X191560347Y-46630641D01*
X191257218Y-46575430D01*
X190979653Y-46630641D01*
X190938213Y-46754966D01*
X190485384Y-46754966D01*
X190439292Y-46708794D01*
X190154733Y-46590635D01*
X189976427Y-46590479D01*
X189510474Y-46124526D01*
X189338205Y-46009420D01*
X189135000Y-45969000D01*
X183000000Y-45969000D01*
X182796795Y-46009420D01*
X182624526Y-46124526D01*
X180930113Y-47818939D01*
X180865135Y-47818882D01*
X180614748Y-47922339D01*
X180423013Y-48113741D01*
X180319118Y-48363946D01*
X180318882Y-48634865D01*
X180422339Y-48885252D01*
X180613741Y-49076987D01*
X180863946Y-49180882D01*
X181134865Y-49181118D01*
X181385252Y-49077661D01*
X181576987Y-48886259D01*
X181680882Y-48636054D01*
X181680940Y-48570008D01*
X183219948Y-47031000D01*
X188915052Y-47031000D01*
X189072222Y-47188170D01*
X188906011Y-47119153D01*
X188555527Y-47118847D01*
X188231605Y-47252689D01*
X187983560Y-47500302D01*
X187849153Y-47823989D01*
X187848847Y-48174473D01*
X187856892Y-48193943D01*
X187686259Y-48023013D01*
X187436054Y-47919118D01*
X187165135Y-47918882D01*
X186914748Y-48022339D01*
X186723013Y-48213741D01*
X186619118Y-48463946D01*
X186618882Y-48734865D01*
X186722339Y-48985252D01*
X186913741Y-49176987D01*
X187163946Y-49280882D01*
X187229992Y-49280940D01*
X187418053Y-49469000D01*
X183500005Y-49469000D01*
X183500000Y-49468999D01*
X183296795Y-49509420D01*
X183124526Y-49624526D01*
X178124526Y-54624526D01*
X178031000Y-54764498D01*
X178031000Y-50000000D01*
X177990580Y-49796795D01*
X177875474Y-49624526D01*
X173375474Y-45124526D01*
X173203205Y-45009420D01*
X173000000Y-44969000D01*
X153259948Y-44969000D01*
X153022804Y-44731856D01*
X153148200Y-44717555D01*
X153148200Y-44008000D01*
X154011800Y-44008000D01*
X154011800Y-44717555D01*
X154189089Y-44737775D01*
X154391630Y-44566825D01*
X154679784Y-44186621D01*
X154654564Y-44008000D01*
X154011800Y-44008000D01*
X153148200Y-44008000D01*
X152505436Y-44008000D01*
X152480216Y-44186621D01*
X152488502Y-44197554D01*
X152232523Y-43941575D01*
X152284600Y-43679769D01*
X152284600Y-43320231D01*
X152189860Y-42843943D01*
X152169438Y-42813379D01*
X152480216Y-42813379D01*
X152505436Y-42992000D01*
X153148200Y-42992000D01*
X153148200Y-42282445D01*
X154011800Y-42282445D01*
X154011800Y-42992000D01*
X154654564Y-42992000D01*
X154679784Y-42813379D01*
X154391630Y-42433175D01*
X154189089Y-42262225D01*
X154011800Y-42282445D01*
X153148200Y-42282445D01*
X152970911Y-42262225D01*
X152768370Y-42433175D01*
X152480216Y-42813379D01*
X152169438Y-42813379D01*
X151920065Y-42440166D01*
X151516288Y-42170371D01*
X151040000Y-42075631D01*
X150563712Y-42170371D01*
X150159935Y-42440166D01*
X149890140Y-42843943D01*
X149795400Y-43320231D01*
X149795400Y-43679769D01*
X149885952Y-44135005D01*
X149752064Y-44001116D01*
X149752064Y-42484000D01*
X149725497Y-42342810D01*
X149642054Y-42213135D01*
X149514734Y-42126141D01*
X149363600Y-42095536D01*
X147636400Y-42095536D01*
X147495210Y-42122103D01*
X147365535Y-42205546D01*
X147278541Y-42332866D01*
X147247936Y-42484000D01*
X147247936Y-44516000D01*
X147274503Y-44657190D01*
X147357946Y-44786865D01*
X147485266Y-44873859D01*
X147636400Y-44904464D01*
X149153516Y-44904464D01*
X151124524Y-46875471D01*
X151124526Y-46875474D01*
X151199707Y-46925708D01*
X151296795Y-46990580D01*
X151500000Y-47031001D01*
X151500005Y-47031000D01*
X172280052Y-47031000D01*
X175969000Y-50719948D01*
X175969000Y-53764498D01*
X175875474Y-53624526D01*
X171875474Y-49624526D01*
X171823757Y-49589970D01*
X172139823Y-49459375D01*
X172458256Y-49141497D01*
X172630804Y-48725957D01*
X172631196Y-48276017D01*
X172459375Y-47860177D01*
X172141497Y-47541744D01*
X171725957Y-47369196D01*
X171276017Y-47368804D01*
X170860177Y-47540625D01*
X170541744Y-47858503D01*
X170369196Y-48274043D01*
X170368804Y-48723983D01*
X170540625Y-49139823D01*
X170858503Y-49458256D01*
X170884377Y-49469000D01*
X166931262Y-49469000D01*
X166934315Y-49464645D01*
X166500000Y-49030330D01*
X166065685Y-49464645D01*
X166068738Y-49469000D01*
X145788464Y-49469000D01*
X145788464Y-49350000D01*
X145761897Y-49208810D01*
X145678454Y-49079135D01*
X145551134Y-48992141D01*
X145400000Y-48961536D01*
X143600000Y-48961536D01*
X143458810Y-48988103D01*
X143329135Y-49071546D01*
X143242141Y-49198866D01*
X143211536Y-49350000D01*
X140378567Y-49350000D01*
X140113137Y-49084107D01*
X139715968Y-48919188D01*
X139285919Y-48918813D01*
X138888463Y-49083038D01*
X138584107Y-49386863D01*
X138419188Y-49784032D01*
X138418813Y-50214081D01*
X138080813Y-50214081D01*
X138081187Y-49785919D01*
X137916962Y-49388463D01*
X137613137Y-49084107D01*
X137215968Y-48919188D01*
X136785919Y-48918813D01*
X136388463Y-49083038D01*
X136084107Y-49386863D01*
X135919188Y-49784032D01*
X135918813Y-50214081D01*
X135456000Y-50214081D01*
X135456000Y-48610071D01*
X165352107Y-48610071D01*
X165397363Y-48837587D01*
X165535355Y-48934315D01*
X165969670Y-48500000D01*
X167030330Y-48500000D01*
X167464645Y-48934315D01*
X167602637Y-48837587D01*
X167647893Y-48389929D01*
X167602637Y-48162413D01*
X167464645Y-48065685D01*
X167030330Y-48500000D01*
X165969670Y-48500000D01*
X165535355Y-48065685D01*
X165397363Y-48162413D01*
X165352107Y-48610071D01*
X135456000Y-48610071D01*
X135456000Y-47535355D01*
X166065685Y-47535355D01*
X166500000Y-47969670D01*
X166934315Y-47535355D01*
X166837587Y-47397363D01*
X166389929Y-47352107D01*
X166162413Y-47397363D01*
X166065685Y-47535355D01*
X135456000Y-47535355D01*
X135456000Y-41456000D01*
X199544000Y-41456000D01*
X199544000Y-91544000D01*
X199544000Y-91544000D01*
G37*
X199544000Y-91544000D02*
X135456000Y-91544000D01*
X135456000Y-88484000D01*
X145095536Y-88484000D01*
X145095536Y-90516000D01*
X145122103Y-90657190D01*
X145205546Y-90786865D01*
X145332866Y-90873859D01*
X145484000Y-90904464D01*
X147516000Y-90904464D01*
X147657190Y-90877897D01*
X147786865Y-90794454D01*
X147873859Y-90667134D01*
X147904464Y-90516000D01*
X147904464Y-90284677D01*
X148195797Y-90613125D01*
X148334676Y-90705872D01*
X148532000Y-90698536D01*
X148532000Y-90008000D01*
X149548000Y-90008000D01*
X149548000Y-90698536D01*
X149745324Y-90705872D01*
X149884203Y-90613125D01*
X150245916Y-90205331D01*
X150246157Y-90008000D01*
X149548000Y-90008000D01*
X148532000Y-90008000D01*
X148512000Y-90008000D01*
X148512000Y-88992000D01*
X148532000Y-88992000D01*
X148532000Y-88301464D01*
X149548000Y-88301464D01*
X149548000Y-88992000D01*
X150246157Y-88992000D01*
X150245916Y-88794669D01*
X149884203Y-88386875D01*
X149745324Y-88294128D01*
X149548000Y-88301464D01*
X148532000Y-88301464D01*
X148334676Y-88294128D01*
X148195797Y-88386875D01*
X147904464Y-88715323D01*
X147904464Y-88484000D01*
X147877897Y-88342810D01*
X147794454Y-88213135D01*
X147667134Y-88126141D01*
X147516000Y-88095536D01*
X145484000Y-88095536D01*
X145342810Y-88122103D01*
X145213135Y-88205546D01*
X145126141Y-88332866D01*
X145095536Y-88484000D01*
X135456000Y-88484000D01*
X135456000Y-83723983D01*
X189368804Y-83723983D01*
X189540625Y-84139823D01*
X189858503Y-84458256D01*
X190274043Y-84630804D01*
X190723983Y-84631196D01*
X191139823Y-84459375D01*
X191458256Y-84141497D01*
X191630804Y-83725957D01*
X191630805Y-83723983D01*
X194368804Y-83723983D01*
X194540625Y-84139823D01*
X194858503Y-84458256D01*
X195274043Y-84630804D01*
X195723983Y-84631196D01*
X196139823Y-84459375D01*
X196458256Y-84141497D01*
X196630804Y-83725957D01*
X196631196Y-83276017D01*
X196459375Y-82860177D01*
X196141497Y-82541744D01*
X195725957Y-82369196D01*
X195276017Y-82368804D01*
X194860177Y-82540625D01*
X194541744Y-82858503D01*
X194369196Y-83274043D01*
X194368804Y-83723983D01*
X191630805Y-83723983D01*
X191631196Y-83276017D01*
X191459375Y-82860177D01*
X191141497Y-82541744D01*
X190725957Y-82369196D01*
X190276017Y-82368804D01*
X189860177Y-82540625D01*
X189541744Y-82858503D01*
X189369196Y-83274043D01*
X189368804Y-83723983D01*
X135456000Y-83723983D01*
X135456000Y-82714081D01*
X135918813Y-82714081D01*
X136083038Y-83111537D01*
X136386863Y-83415893D01*
X136784032Y-83580812D01*
X137214081Y-83581187D01*
X137611537Y-83416962D01*
X137915893Y-83113137D01*
X138080812Y-82715968D01*
X138080813Y-82714081D01*
X138418813Y-82714081D01*
X138583038Y-83111537D01*
X138886863Y-83415893D01*
X139284032Y-83580812D01*
X139714081Y-83581187D01*
X140111537Y-83416962D01*
X140415893Y-83113137D01*
X140580812Y-82715968D01*
X140581187Y-82285919D01*
X140416962Y-81888463D01*
X140378567Y-81850000D01*
X143211536Y-81850000D01*
X143211536Y-83150000D01*
X143238103Y-83291190D01*
X143321546Y-83420865D01*
X143448866Y-83507859D01*
X143600000Y-83538464D01*
X145400000Y-83538464D01*
X145541190Y-83511897D01*
X145670865Y-83428454D01*
X145757859Y-83301134D01*
X145788464Y-83150000D01*
X145788464Y-81850000D01*
X145761897Y-81708810D01*
X145678454Y-81579135D01*
X145551134Y-81492141D01*
X145400000Y-81461536D01*
X143600000Y-81461536D01*
X143458810Y-81488103D01*
X143329135Y-81571546D01*
X143242141Y-81698866D01*
X143211536Y-81850000D01*
X140378567Y-81850000D01*
X140113137Y-81584107D01*
X139715968Y-81419188D01*
X139285919Y-81418813D01*
X138888463Y-81583038D01*
X138584107Y-81886863D01*
X138419188Y-82284032D01*
X138418813Y-82714081D01*
X138080813Y-82714081D01*
X138081187Y-82285919D01*
X137916962Y-81888463D01*
X137613137Y-81584107D01*
X137215968Y-81419188D01*
X136785919Y-81418813D01*
X136388463Y-81583038D01*
X136084107Y-81886863D01*
X135919188Y-82284032D01*
X135918813Y-82714081D01*
X135456000Y-82714081D01*
X135456000Y-76524215D01*
X138469000Y-76524215D01*
X138469000Y-76954750D01*
X138559000Y-77044750D01*
X138559000Y-77955250D01*
X138469000Y-78045250D01*
X138469000Y-78475785D01*
X138527004Y-78615819D01*
X138634180Y-78722996D01*
X138774214Y-78781000D01*
X139079750Y-78781000D01*
X139175000Y-78685750D01*
X139175000Y-78656000D01*
X139825000Y-78656000D01*
X139825000Y-78685750D01*
X139920250Y-78781000D01*
X140225786Y-78781000D01*
X140365820Y-78722996D01*
X140472996Y-78615819D01*
X140531000Y-78475785D01*
X140531000Y-78045250D01*
X140441000Y-77955250D01*
X140441000Y-77714081D01*
X143418813Y-77714081D01*
X143583038Y-78111537D01*
X143886863Y-78415893D01*
X144284032Y-78580812D01*
X144714081Y-78581187D01*
X145111537Y-78416962D01*
X145415893Y-78113137D01*
X145580812Y-77715968D01*
X145581187Y-77285919D01*
X145416962Y-76888463D01*
X145113137Y-76584107D01*
X144715968Y-76419188D01*
X144285919Y-76418813D01*
X143888463Y-76583038D01*
X143584107Y-76886863D01*
X143419188Y-77284032D01*
X143418813Y-77714081D01*
X140441000Y-77714081D01*
X140441000Y-77044750D01*
X140531000Y-76954750D01*
X140531000Y-76524215D01*
X140472996Y-76384181D01*
X140365820Y-76277004D01*
X140225786Y-76219000D01*
X139920250Y-76219000D01*
X139825000Y-76314250D01*
X139825000Y-76344000D01*
X139175000Y-76344000D01*
X139175000Y-76314250D01*
X139079750Y-76219000D01*
X138774214Y-76219000D01*
X138634180Y-76277004D01*
X138527004Y-76384181D01*
X138469000Y-76524215D01*
X135456000Y-76524215D01*
X135456000Y-72714081D01*
X135918813Y-72714081D01*
X136083038Y-73111537D01*
X136386863Y-73415893D01*
X136784032Y-73580812D01*
X137214081Y-73581187D01*
X137611537Y-73416962D01*
X137915893Y-73113137D01*
X138080812Y-72715968D01*
X138080813Y-72714081D01*
X138418813Y-72714081D01*
X138583038Y-73111537D01*
X138886863Y-73415893D01*
X139284032Y-73580812D01*
X139714081Y-73581187D01*
X140111537Y-73416962D01*
X140415893Y-73113137D01*
X140580812Y-72715968D01*
X140581187Y-72285919D01*
X140416962Y-71888463D01*
X140378567Y-71850000D01*
X143211536Y-71850000D01*
X143211536Y-73150000D01*
X143238103Y-73291190D01*
X143321546Y-73420865D01*
X143448866Y-73507859D01*
X143600000Y-73538464D01*
X145400000Y-73538464D01*
X145541190Y-73511897D01*
X145670865Y-73428454D01*
X145757859Y-73301134D01*
X145788464Y-73150000D01*
X145788464Y-73031000D01*
X161280052Y-73031000D01*
X170818939Y-82569886D01*
X170818882Y-82634865D01*
X170922339Y-82885252D01*
X171113741Y-83076987D01*
X171363946Y-83180882D01*
X171634865Y-83181118D01*
X171885252Y-83077661D01*
X172076987Y-82886259D01*
X172180882Y-82636054D01*
X172181118Y-82365135D01*
X172077661Y-82114748D01*
X171886259Y-81923013D01*
X171636054Y-81819118D01*
X171570007Y-81819060D01*
X162885813Y-73134865D01*
X172318882Y-73134865D01*
X172422339Y-73385252D01*
X172469000Y-73431994D01*
X172469000Y-75567834D01*
X172423013Y-75613741D01*
X172319118Y-75863946D01*
X172318882Y-76134865D01*
X172422339Y-76385252D01*
X172613741Y-76576987D01*
X172863946Y-76680882D01*
X173134865Y-76681118D01*
X173385252Y-76577661D01*
X173576987Y-76386259D01*
X173680882Y-76136054D01*
X173681118Y-75865135D01*
X173577661Y-75614748D01*
X173531000Y-75568006D01*
X173531000Y-73432166D01*
X173576987Y-73386259D01*
X173680882Y-73136054D01*
X173681118Y-72865135D01*
X173577661Y-72614748D01*
X173386259Y-72423013D01*
X173136054Y-72319118D01*
X172865135Y-72318882D01*
X172614748Y-72422339D01*
X172423013Y-72613741D01*
X172319118Y-72863946D01*
X172318882Y-73134865D01*
X162885813Y-73134865D01*
X161875474Y-72124526D01*
X161703205Y-72009420D01*
X161500000Y-71969000D01*
X145788464Y-71969000D01*
X145788464Y-71850000D01*
X145761897Y-71708810D01*
X145678454Y-71579135D01*
X145551134Y-71492141D01*
X145400000Y-71461536D01*
X143600000Y-71461536D01*
X143458810Y-71488103D01*
X143329135Y-71571546D01*
X143242141Y-71698866D01*
X143211536Y-71850000D01*
X140378567Y-71850000D01*
X140113137Y-71584107D01*
X139715968Y-71419188D01*
X139285919Y-71418813D01*
X138888463Y-71583038D01*
X138584107Y-71886863D01*
X138419188Y-72284032D01*
X138418813Y-72714081D01*
X138080813Y-72714081D01*
X138081187Y-72285919D01*
X137916962Y-71888463D01*
X137613137Y-71584107D01*
X137215968Y-71419188D01*
X136785919Y-71418813D01*
X136388463Y-71583038D01*
X136084107Y-71886863D01*
X135919188Y-72284032D01*
X135918813Y-72714081D01*
X135456000Y-72714081D01*
X135456000Y-60214081D01*
X135918813Y-60214081D01*
X136083038Y-60611537D01*
X136386863Y-60915893D01*
X136784032Y-61080812D01*
X137214081Y-61081187D01*
X137611537Y-60916962D01*
X137915893Y-60613137D01*
X138080812Y-60215968D01*
X138080813Y-60214081D01*
X138418813Y-60214081D01*
X138583038Y-60611537D01*
X138886863Y-60915893D01*
X139284032Y-61080812D01*
X139714081Y-61081187D01*
X140111537Y-60916962D01*
X140415893Y-60613137D01*
X140580812Y-60215968D01*
X140581187Y-59785919D01*
X140416962Y-59388463D01*
X140113137Y-59084107D01*
X139715968Y-58919188D01*
X139285919Y-58918813D01*
X138888463Y-59083038D01*
X138584107Y-59386863D01*
X138419188Y-59784032D01*
X138418813Y-60214081D01*
X138080813Y-60214081D01*
X138081187Y-59785919D01*
X137916962Y-59388463D01*
X137613137Y-59084107D01*
X137215968Y-58919188D01*
X136785919Y-58918813D01*
X136388463Y-59083038D01*
X136084107Y-59386863D01*
X135919188Y-59784032D01*
X135918813Y-60214081D01*
X135456000Y-60214081D01*
X135456000Y-54024215D01*
X138469000Y-54024215D01*
X138469000Y-54454750D01*
X138559000Y-54544750D01*
X138559000Y-55455250D01*
X138469000Y-55545250D01*
X138469000Y-55975785D01*
X138527004Y-56115819D01*
X138634180Y-56222996D01*
X138774214Y-56281000D01*
X139079750Y-56281000D01*
X139175000Y-56185750D01*
X139175000Y-56156000D01*
X139825000Y-56156000D01*
X139825000Y-56185750D01*
X139920250Y-56281000D01*
X140225786Y-56281000D01*
X140365820Y-56222996D01*
X140472996Y-56115819D01*
X140531000Y-55975785D01*
X140531000Y-55545250D01*
X140441000Y-55455250D01*
X140441000Y-55214081D01*
X143418813Y-55214081D01*
X143583038Y-55611537D01*
X143886863Y-55915893D01*
X144284032Y-56080812D01*
X144714081Y-56081187D01*
X145111537Y-55916962D01*
X145415893Y-55613137D01*
X145580812Y-55215968D01*
X145581187Y-54785919D01*
X145416962Y-54388463D01*
X145113137Y-54084107D01*
X144715968Y-53919188D01*
X144285919Y-53918813D01*
X143888463Y-54083038D01*
X143584107Y-54386863D01*
X143419188Y-54784032D01*
X143418813Y-55214081D01*
X140441000Y-55214081D01*
X140441000Y-54544750D01*
X140531000Y-54454750D01*
X140531000Y-54024215D01*
X140472996Y-53884181D01*
X140365820Y-53777004D01*
X140225786Y-53719000D01*
X139920250Y-53719000D01*
X139825000Y-53814250D01*
X139825000Y-53844000D01*
X139175000Y-53844000D01*
X139175000Y-53814250D01*
X139079750Y-53719000D01*
X138774214Y-53719000D01*
X138634180Y-53777004D01*
X138527004Y-53884181D01*
X138469000Y-54024215D01*
X135456000Y-54024215D01*
X135456000Y-50214081D01*
X135918813Y-50214081D01*
X136083038Y-50611537D01*
X136386863Y-50915893D01*
X136784032Y-51080812D01*
X137214081Y-51081187D01*
X137611537Y-50916962D01*
X137915893Y-50613137D01*
X138080812Y-50215968D01*
X138080813Y-50214081D01*
X138418813Y-50214081D01*
X138583038Y-50611537D01*
X138886863Y-50915893D01*
X139284032Y-51080812D01*
X139714081Y-51081187D01*
X140111537Y-50916962D01*
X140415893Y-50613137D01*
X140580812Y-50215968D01*
X140581187Y-49785919D01*
X140416962Y-49388463D01*
X140378567Y-49350000D01*
X143211536Y-49350000D01*
X143211536Y-50650000D01*
X143238103Y-50791190D01*
X143321546Y-50920865D01*
X143448866Y-51007859D01*
X143600000Y-51038464D01*
X145400000Y-51038464D01*
X145541190Y-51011897D01*
X145670865Y-50928454D01*
X145757859Y-50801134D01*
X145788464Y-50650000D01*
X145788464Y-50531000D01*
X171280052Y-50531000D01*
X174969000Y-54219948D01*
X174969000Y-63764498D01*
X174875474Y-63624526D01*
X170875474Y-59624526D01*
X170703205Y-59509420D01*
X170500000Y-59469000D01*
X145788464Y-59469000D01*
X145788464Y-59350000D01*
X145761897Y-59208810D01*
X145678454Y-59079135D01*
X145551134Y-58992141D01*
X145400000Y-58961536D01*
X143600000Y-58961536D01*
X143458810Y-58988103D01*
X143329135Y-59071546D01*
X143242141Y-59198866D01*
X143211536Y-59350000D01*
X143211536Y-60650000D01*
X143238103Y-60791190D01*
X143321546Y-60920865D01*
X143448866Y-61007859D01*
X143600000Y-61038464D01*
X145400000Y-61038464D01*
X145541190Y-61011897D01*
X145670865Y-60928454D01*
X145757859Y-60801134D01*
X145788464Y-60650000D01*
X145788464Y-60531000D01*
X170280052Y-60531000D01*
X173969000Y-64219948D01*
X173969000Y-74000000D01*
X174009420Y-74203205D01*
X174124526Y-74375474D01*
X175624524Y-75875471D01*
X175624526Y-75875474D01*
X175796795Y-75990580D01*
X176000000Y-76031000D01*
X179318972Y-76031000D01*
X179318882Y-76134865D01*
X179422339Y-76385252D01*
X179613741Y-76576987D01*
X179863946Y-76680882D01*
X180134865Y-76681118D01*
X180385252Y-76577661D01*
X180431994Y-76531000D01*
X181567834Y-76531000D01*
X181613741Y-76576987D01*
X181863946Y-76680882D01*
X182134865Y-76681118D01*
X182385252Y-76577661D01*
X182576987Y-76386259D01*
X182680882Y-76136054D01*
X182681118Y-75865135D01*
X182577661Y-75614748D01*
X182386259Y-75423013D01*
X182136054Y-75319118D01*
X181865135Y-75318882D01*
X181614748Y-75422339D01*
X181568006Y-75469000D01*
X180432166Y-75469000D01*
X180386259Y-75423013D01*
X180345047Y-75405900D01*
X181026964Y-74723983D01*
X189368804Y-74723983D01*
X189540625Y-75139823D01*
X189858503Y-75458256D01*
X190274043Y-75630804D01*
X190723983Y-75631196D01*
X191127068Y-75464645D01*
X195065685Y-75464645D01*
X195162413Y-75602637D01*
X195610071Y-75647893D01*
X195837587Y-75602637D01*
X195934315Y-75464645D01*
X195500000Y-75030330D01*
X195065685Y-75464645D01*
X191127068Y-75464645D01*
X191139823Y-75459375D01*
X191458256Y-75141497D01*
X191630804Y-74725957D01*
X191630904Y-74610071D01*
X194352107Y-74610071D01*
X194397363Y-74837587D01*
X194535355Y-74934315D01*
X194969670Y-74500000D01*
X196030330Y-74500000D01*
X196464645Y-74934315D01*
X196602637Y-74837587D01*
X196647893Y-74389929D01*
X196602637Y-74162413D01*
X196464645Y-74065685D01*
X196030330Y-74500000D01*
X194969670Y-74500000D01*
X194535355Y-74065685D01*
X194397363Y-74162413D01*
X194352107Y-74610071D01*
X191630904Y-74610071D01*
X191631196Y-74276017D01*
X191459375Y-73860177D01*
X191141497Y-73541744D01*
X191126111Y-73535355D01*
X195065685Y-73535355D01*
X195500000Y-73969670D01*
X195934315Y-73535355D01*
X195837587Y-73397363D01*
X195389929Y-73352107D01*
X195162413Y-73397363D01*
X195065685Y-73535355D01*
X191126111Y-73535355D01*
X190725957Y-73369196D01*
X190276017Y-73368804D01*
X189860177Y-73540625D01*
X189541744Y-73858503D01*
X189369196Y-74274043D01*
X189368804Y-74723983D01*
X181026964Y-74723983D01*
X181375471Y-74375476D01*
X181375474Y-74375474D01*
X181490580Y-74203205D01*
X181531000Y-74000000D01*
X181531000Y-68432166D01*
X181576987Y-68386259D01*
X181680882Y-68136054D01*
X181681118Y-67865135D01*
X181577661Y-67614748D01*
X181386259Y-67423013D01*
X181136054Y-67319118D01*
X180865135Y-67318882D01*
X180614748Y-67422339D01*
X180499968Y-67536920D01*
X180386259Y-67423013D01*
X180136054Y-67319118D01*
X179865135Y-67318882D01*
X179614748Y-67422339D01*
X179423013Y-67613741D01*
X179319118Y-67863946D01*
X179318882Y-68134865D01*
X179422339Y-68385252D01*
X179469000Y-68431994D01*
X179469000Y-73280053D01*
X179180941Y-73568111D01*
X179181118Y-73365135D01*
X179077661Y-73114748D01*
X179031000Y-73068006D01*
X179031000Y-72000000D01*
X178990580Y-71796795D01*
X178875474Y-71624526D01*
X177931889Y-70680941D01*
X178134865Y-70681118D01*
X178385252Y-70577661D01*
X178576987Y-70386259D01*
X178680882Y-70136054D01*
X178681118Y-69865135D01*
X178577661Y-69614748D01*
X178386259Y-69423013D01*
X178136054Y-69319118D01*
X178070008Y-69319060D01*
X178031000Y-69280052D01*
X178031000Y-68494102D01*
X178113741Y-68576987D01*
X178363946Y-68680882D01*
X178634865Y-68681118D01*
X178885252Y-68577661D01*
X179076987Y-68386259D01*
X179180882Y-68136054D01*
X179181118Y-67865135D01*
X179077661Y-67614748D01*
X179031000Y-67568006D01*
X179031000Y-64723983D01*
X189368804Y-64723983D01*
X189540625Y-65139823D01*
X189858503Y-65458256D01*
X190274043Y-65630804D01*
X190723983Y-65631196D01*
X191127068Y-65464645D01*
X195065685Y-65464645D01*
X195162413Y-65602637D01*
X195610071Y-65647893D01*
X195837587Y-65602637D01*
X195934315Y-65464645D01*
X195500000Y-65030330D01*
X195065685Y-65464645D01*
X191127068Y-65464645D01*
X191139823Y-65459375D01*
X191458256Y-65141497D01*
X191630804Y-64725957D01*
X191630904Y-64610071D01*
X194352107Y-64610071D01*
X194397363Y-64837587D01*
X194535355Y-64934315D01*
X194969670Y-64500000D01*
X196030330Y-64500000D01*
X196464645Y-64934315D01*
X196602637Y-64837587D01*
X196647893Y-64389929D01*
X196602637Y-64162413D01*
X196464645Y-64065685D01*
X196030330Y-64500000D01*
X194969670Y-64500000D01*
X194535355Y-64065685D01*
X194397363Y-64162413D01*
X194352107Y-64610071D01*
X191630904Y-64610071D01*
X191631196Y-64276017D01*
X191459375Y-63860177D01*
X191141497Y-63541744D01*
X191126111Y-63535355D01*
X195065685Y-63535355D01*
X195500000Y-63969670D01*
X195934315Y-63535355D01*
X195837587Y-63397363D01*
X195389929Y-63352107D01*
X195162413Y-63397363D01*
X195065685Y-63535355D01*
X191126111Y-63535355D01*
X190725957Y-63369196D01*
X190276017Y-63368804D01*
X189860177Y-63540625D01*
X189541744Y-63858503D01*
X189369196Y-64274043D01*
X189368804Y-64723983D01*
X179031000Y-64723983D01*
X179031000Y-55723983D01*
X189368804Y-55723983D01*
X189540625Y-56139823D01*
X189858503Y-56458256D01*
X190274043Y-56630804D01*
X190723983Y-56631196D01*
X191127068Y-56464645D01*
X195065685Y-56464645D01*
X195162413Y-56602637D01*
X195610071Y-56647893D01*
X195837587Y-56602637D01*
X195934315Y-56464645D01*
X195500000Y-56030330D01*
X195065685Y-56464645D01*
X191127068Y-56464645D01*
X191139823Y-56459375D01*
X191458256Y-56141497D01*
X191630804Y-55725957D01*
X191630904Y-55610071D01*
X194352107Y-55610071D01*
X194397363Y-55837587D01*
X194535355Y-55934315D01*
X194969670Y-55500000D01*
X196030330Y-55500000D01*
X196464645Y-55934315D01*
X196602637Y-55837587D01*
X196647893Y-55389929D01*
X196602637Y-55162413D01*
X196464645Y-55065685D01*
X196030330Y-55500000D01*
X194969670Y-55500000D01*
X194535355Y-55065685D01*
X194397363Y-55162413D01*
X194352107Y-55610071D01*
X191630904Y-55610071D01*
X191631196Y-55276017D01*
X191459375Y-54860177D01*
X191141497Y-54541744D01*
X191126111Y-54535355D01*
X195065685Y-54535355D01*
X195500000Y-54969670D01*
X195934315Y-54535355D01*
X195837587Y-54397363D01*
X195389929Y-54352107D01*
X195162413Y-54397363D01*
X195065685Y-54535355D01*
X191126111Y-54535355D01*
X190725957Y-54369196D01*
X190276017Y-54368804D01*
X189860177Y-54540625D01*
X189541744Y-54858503D01*
X189369196Y-55274043D01*
X189368804Y-55723983D01*
X179031000Y-55723983D01*
X179031000Y-55219948D01*
X183719948Y-50531000D01*
X191175000Y-50531000D01*
X191378205Y-50490580D01*
X191550474Y-50375474D01*
X192516468Y-49409480D01*
X192693382Y-49409634D01*
X192971859Y-49294570D01*
X193062689Y-49514395D01*
X193310302Y-49762440D01*
X193633989Y-49896847D01*
X193984473Y-49897153D01*
X194308395Y-49763311D01*
X194556440Y-49515698D01*
X194690847Y-49192011D01*
X194691153Y-48841527D01*
X194557311Y-48517605D01*
X194309698Y-48269560D01*
X193986011Y-48135153D01*
X193635527Y-48134847D01*
X193311605Y-48268689D01*
X193251461Y-48328728D01*
X193196972Y-48196854D01*
X192979292Y-47978794D01*
X192801879Y-47905126D01*
X192540000Y-47643247D01*
X192278002Y-47905245D01*
X192101854Y-47978028D01*
X191904848Y-48174691D01*
X191709292Y-47978794D01*
X191531879Y-47905126D01*
X191270000Y-47643247D01*
X191008002Y-47905245D01*
X190831854Y-47978028D01*
X190705662Y-48104000D01*
X190564280Y-48104000D01*
X190460309Y-47999848D01*
X190656206Y-47804292D01*
X190729874Y-47626879D01*
X190991753Y-47365000D01*
X191548247Y-47365000D01*
X191797459Y-47614212D01*
X191805641Y-47655347D01*
X191855070Y-47671823D01*
X191880034Y-47696787D01*
X191905000Y-47688465D01*
X191929966Y-47696787D01*
X191954930Y-47671823D01*
X192004359Y-47655347D01*
X192011698Y-47615055D01*
X192261753Y-47365000D01*
X192012541Y-47115788D01*
X192004359Y-47074653D01*
X191954930Y-47058177D01*
X191929966Y-47033213D01*
X191905000Y-47041535D01*
X191880034Y-47033213D01*
X191855070Y-47058177D01*
X191805641Y-47074653D01*
X191798302Y-47114945D01*
X191548247Y-47365000D01*
X190991753Y-47365000D01*
X190729755Y-47103002D01*
X190656972Y-46926854D01*
X190485384Y-46754966D01*
X190938213Y-46754966D01*
X191270000Y-47086753D01*
X191601787Y-46754966D01*
X192208213Y-46754966D01*
X192540000Y-47086753D01*
X192679123Y-46947630D01*
X192956224Y-47224731D01*
X192956894Y-47226353D01*
X192818247Y-47365000D01*
X193150034Y-47696787D01*
X193245082Y-47665106D01*
X193310302Y-47730440D01*
X193633989Y-47864847D01*
X193984473Y-47865153D01*
X194308395Y-47731311D01*
X194556440Y-47483698D01*
X194690847Y-47160011D01*
X194691153Y-46809527D01*
X194557311Y-46485605D01*
X194309698Y-46237560D01*
X193986011Y-46103153D01*
X193635527Y-46102847D01*
X193311605Y-46236689D01*
X193063560Y-46484302D01*
X192978176Y-46689928D01*
X192737412Y-46449164D01*
X192598215Y-46588361D01*
X192527218Y-46575430D01*
X192249653Y-46630641D01*
X192208213Y-46754966D01*
X191601787Y-46754966D01*
X191560347Y-46630641D01*
X191257218Y-46575430D01*
X190979653Y-46630641D01*
X190938213Y-46754966D01*
X190485384Y-46754966D01*
X190439292Y-46708794D01*
X190154733Y-46590635D01*
X189976427Y-46590479D01*
X189510474Y-46124526D01*
X189338205Y-46009420D01*
X189135000Y-45969000D01*
X183000000Y-45969000D01*
X182796795Y-46009420D01*
X182624526Y-46124526D01*
X180930113Y-47818939D01*
X180865135Y-47818882D01*
X180614748Y-47922339D01*
X180423013Y-48113741D01*
X180319118Y-48363946D01*
X180318882Y-48634865D01*
X180422339Y-48885252D01*
X180613741Y-49076987D01*
X180863946Y-49180882D01*
X181134865Y-49181118D01*
X181385252Y-49077661D01*
X181576987Y-48886259D01*
X181680882Y-48636054D01*
X181680940Y-48570008D01*
X183219948Y-47031000D01*
X188915052Y-47031000D01*
X189072222Y-47188170D01*
X188906011Y-47119153D01*
X188555527Y-47118847D01*
X188231605Y-47252689D01*
X187983560Y-47500302D01*
X187849153Y-47823989D01*
X187848847Y-48174473D01*
X187856892Y-48193943D01*
X187686259Y-48023013D01*
X187436054Y-47919118D01*
X187165135Y-47918882D01*
X186914748Y-48022339D01*
X186723013Y-48213741D01*
X186619118Y-48463946D01*
X186618882Y-48734865D01*
X186722339Y-48985252D01*
X186913741Y-49176987D01*
X187163946Y-49280882D01*
X187229992Y-49280940D01*
X187418053Y-49469000D01*
X183500005Y-49469000D01*
X183500000Y-49468999D01*
X183296795Y-49509420D01*
X183124526Y-49624526D01*
X178124526Y-54624526D01*
X178031000Y-54764498D01*
X178031000Y-50000000D01*
X177990580Y-49796795D01*
X177875474Y-49624526D01*
X173375474Y-45124526D01*
X173203205Y-45009420D01*
X173000000Y-44969000D01*
X153259948Y-44969000D01*
X153022804Y-44731856D01*
X153148200Y-44717555D01*
X153148200Y-44008000D01*
X154011800Y-44008000D01*
X154011800Y-44717555D01*
X154189089Y-44737775D01*
X154391630Y-44566825D01*
X154679784Y-44186621D01*
X154654564Y-44008000D01*
X154011800Y-44008000D01*
X153148200Y-44008000D01*
X152505436Y-44008000D01*
X152480216Y-44186621D01*
X152488502Y-44197554D01*
X152232523Y-43941575D01*
X152284600Y-43679769D01*
X152284600Y-43320231D01*
X152189860Y-42843943D01*
X152169438Y-42813379D01*
X152480216Y-42813379D01*
X152505436Y-42992000D01*
X153148200Y-42992000D01*
X153148200Y-42282445D01*
X154011800Y-42282445D01*
X154011800Y-42992000D01*
X154654564Y-42992000D01*
X154679784Y-42813379D01*
X154391630Y-42433175D01*
X154189089Y-42262225D01*
X154011800Y-42282445D01*
X153148200Y-42282445D01*
X152970911Y-42262225D01*
X152768370Y-42433175D01*
X152480216Y-42813379D01*
X152169438Y-42813379D01*
X151920065Y-42440166D01*
X151516288Y-42170371D01*
X151040000Y-42075631D01*
X150563712Y-42170371D01*
X150159935Y-42440166D01*
X149890140Y-42843943D01*
X149795400Y-43320231D01*
X149795400Y-43679769D01*
X149885952Y-44135005D01*
X149752064Y-44001116D01*
X149752064Y-42484000D01*
X149725497Y-42342810D01*
X149642054Y-42213135D01*
X149514734Y-42126141D01*
X149363600Y-42095536D01*
X147636400Y-42095536D01*
X147495210Y-42122103D01*
X147365535Y-42205546D01*
X147278541Y-42332866D01*
X147247936Y-42484000D01*
X147247936Y-44516000D01*
X147274503Y-44657190D01*
X147357946Y-44786865D01*
X147485266Y-44873859D01*
X147636400Y-44904464D01*
X149153516Y-44904464D01*
X151124524Y-46875471D01*
X151124526Y-46875474D01*
X151199707Y-46925708D01*
X151296795Y-46990580D01*
X151500000Y-47031001D01*
X151500005Y-47031000D01*
X172280052Y-47031000D01*
X175969000Y-50719948D01*
X175969000Y-53764498D01*
X175875474Y-53624526D01*
X171875474Y-49624526D01*
X171823757Y-49589970D01*
X172139823Y-49459375D01*
X172458256Y-49141497D01*
X172630804Y-48725957D01*
X172631196Y-48276017D01*
X172459375Y-47860177D01*
X172141497Y-47541744D01*
X171725957Y-47369196D01*
X171276017Y-47368804D01*
X170860177Y-47540625D01*
X170541744Y-47858503D01*
X170369196Y-48274043D01*
X170368804Y-48723983D01*
X170540625Y-49139823D01*
X170858503Y-49458256D01*
X170884377Y-49469000D01*
X166931262Y-49469000D01*
X166934315Y-49464645D01*
X166500000Y-49030330D01*
X166065685Y-49464645D01*
X166068738Y-49469000D01*
X145788464Y-49469000D01*
X145788464Y-49350000D01*
X145761897Y-49208810D01*
X145678454Y-49079135D01*
X145551134Y-48992141D01*
X145400000Y-48961536D01*
X143600000Y-48961536D01*
X143458810Y-48988103D01*
X143329135Y-49071546D01*
X143242141Y-49198866D01*
X143211536Y-49350000D01*
X140378567Y-49350000D01*
X140113137Y-49084107D01*
X139715968Y-48919188D01*
X139285919Y-48918813D01*
X138888463Y-49083038D01*
X138584107Y-49386863D01*
X138419188Y-49784032D01*
X138418813Y-50214081D01*
X138080813Y-50214081D01*
X138081187Y-49785919D01*
X137916962Y-49388463D01*
X137613137Y-49084107D01*
X137215968Y-48919188D01*
X136785919Y-48918813D01*
X136388463Y-49083038D01*
X136084107Y-49386863D01*
X135919188Y-49784032D01*
X135918813Y-50214081D01*
X135456000Y-50214081D01*
X135456000Y-48610071D01*
X165352107Y-48610071D01*
X165397363Y-48837587D01*
X165535355Y-48934315D01*
X165969670Y-48500000D01*
X167030330Y-48500000D01*
X167464645Y-48934315D01*
X167602637Y-48837587D01*
X167647893Y-48389929D01*
X167602637Y-48162413D01*
X167464645Y-48065685D01*
X167030330Y-48500000D01*
X165969670Y-48500000D01*
X165535355Y-48065685D01*
X165397363Y-48162413D01*
X165352107Y-48610071D01*
X135456000Y-48610071D01*
X135456000Y-47535355D01*
X166065685Y-47535355D01*
X166500000Y-47969670D01*
X166934315Y-47535355D01*
X166837587Y-47397363D01*
X166389929Y-47352107D01*
X166162413Y-47397363D01*
X166065685Y-47535355D01*
X135456000Y-47535355D01*
X135456000Y-41456000D01*
X199544000Y-41456000D01*
X199544000Y-91544000D01*
G36*
X139629000Y-77844000D02*
X139371000Y-77844000D01*
X139371000Y-77156000D01*
X139629000Y-77156000D01*
X139629000Y-77844000D01*
X139629000Y-77844000D01*
G37*
X139629000Y-77844000D02*
X139371000Y-77844000D01*
X139371000Y-77156000D01*
X139629000Y-77156000D01*
X139629000Y-77844000D01*
G36*
X139629000Y-55344000D02*
X139371000Y-55344000D01*
X139371000Y-54656000D01*
X139629000Y-54656000D01*
X139629000Y-55344000D01*
X139629000Y-55344000D01*
G37*
X139629000Y-55344000D02*
X139371000Y-55344000D01*
X139371000Y-54656000D01*
X139629000Y-54656000D01*
X139629000Y-55344000D01*
M02*
