G04 #@! TF.FileFunction,Paste,Top*
%FSLAX46Y46*%
G04 Gerber Fmt 4.6, Leading zero omitted, Abs format (unit mm)*
G04 Created by KiCad (PCBNEW 4.0.6) date 03/10/17 18:24:38*
%MOMM*%
%LPD*%
G01*
G04 APERTURE LIST*
%ADD10C,0.150000*%
%ADD11R,1.250000X1.500000*%
%ADD12R,1.500000X1.250000*%
%ADD13R,1.198880X1.198880*%
%ADD14R,1.300000X1.500000*%
%ADD15R,1.500000X1.300000*%
%ADD16R,1.600000X0.350000*%
%ADD17R,0.600000X1.050000*%
%ADD18R,1.600000X0.300000*%
%ADD19R,0.350000X1.600000*%
%ADD20R,1.050000X0.600000*%
%ADD21R,2.500000X2.500000*%
%ADD22R,1.000000X2.500000*%
%ADD23R,1.143000X0.508000*%
%ADD24C,1.000000*%
G04 APERTURE END LIST*
D10*
D11*
X169000000Y-65250000D03*
X169000000Y-67750000D03*
D12*
X158250000Y-60000000D03*
X160750000Y-60000000D03*
D11*
X151000000Y-65250000D03*
X151000000Y-67750000D03*
D12*
X158250000Y-73000000D03*
X160750000Y-73000000D03*
X153250000Y-81000000D03*
X155750000Y-81000000D03*
D11*
X174500000Y-70250000D03*
X174500000Y-67750000D03*
D12*
X182750000Y-48500000D03*
X185250000Y-48500000D03*
D13*
X161049020Y-47500000D03*
X158950980Y-47500000D03*
D14*
X166500000Y-65150000D03*
X166500000Y-67850000D03*
D15*
X158150000Y-62500000D03*
X160850000Y-62500000D03*
D14*
X153500000Y-65150000D03*
X153500000Y-67850000D03*
D15*
X158150000Y-70500000D03*
X160850000Y-70500000D03*
D14*
X166500000Y-57150000D03*
X166500000Y-59850000D03*
X169000000Y-57150000D03*
X169000000Y-59850000D03*
D15*
X176650000Y-48500000D03*
X179350000Y-48500000D03*
D14*
X187500000Y-73150000D03*
X187500000Y-75850000D03*
X187500000Y-63150000D03*
X187500000Y-65850000D03*
X187500000Y-54150000D03*
X187500000Y-56850000D03*
D15*
X161350000Y-52500000D03*
X158650000Y-52500000D03*
D14*
X187500000Y-84850000D03*
X187500000Y-82150000D03*
D15*
X151150000Y-57500000D03*
X153850000Y-57500000D03*
X151150000Y-52500000D03*
X153850000Y-52500000D03*
D14*
X166500000Y-72150000D03*
X166500000Y-74850000D03*
X169000000Y-72150000D03*
X169000000Y-74850000D03*
D16*
X162300000Y-68450000D03*
X162300000Y-67800000D03*
X162300000Y-67150000D03*
X162300000Y-66500000D03*
X162300000Y-65850000D03*
X162300000Y-65200000D03*
X162300000Y-64550000D03*
X156700000Y-64550000D03*
X156700000Y-65200000D03*
X156700000Y-65850000D03*
X156700000Y-66500000D03*
X156700000Y-67150000D03*
X156700000Y-67800000D03*
X156700000Y-68450000D03*
D17*
X158550000Y-76150000D03*
X160450000Y-76150000D03*
X158550000Y-78850000D03*
X159500000Y-78850000D03*
X160450000Y-78850000D03*
D18*
X165800000Y-80525000D03*
X165800000Y-81175000D03*
X165800000Y-81825000D03*
X165800000Y-82475000D03*
X169200000Y-82475000D03*
X169200000Y-81825000D03*
X169200000Y-81175000D03*
X169200000Y-80525000D03*
D19*
X177075000Y-71800000D03*
X177725000Y-71800000D03*
X178375000Y-71800000D03*
X179025000Y-71800000D03*
X179675000Y-71800000D03*
X180325000Y-71800000D03*
X180975000Y-71800000D03*
X181625000Y-71800000D03*
X182275000Y-71800000D03*
X182925000Y-71800000D03*
X182925000Y-66200000D03*
X182275000Y-66200000D03*
X181625000Y-66200000D03*
X180975000Y-66200000D03*
X180325000Y-66200000D03*
X179675000Y-66200000D03*
X179025000Y-66200000D03*
X178375000Y-66200000D03*
X177725000Y-66200000D03*
X177075000Y-66200000D03*
D20*
X174650000Y-82450000D03*
X174650000Y-80550000D03*
X177350000Y-82450000D03*
X177350000Y-81500000D03*
X177350000Y-80550000D03*
D21*
X178050000Y-54625000D03*
D22*
X179300000Y-62375000D03*
X176800000Y-62375000D03*
D12*
X139350000Y-89500000D03*
X141850000Y-89500000D03*
D11*
X163500000Y-86250000D03*
X163500000Y-88750000D03*
X167700000Y-86250000D03*
X167700000Y-88750000D03*
D23*
X153325000Y-89405000D03*
X153325000Y-88135000D03*
X153325000Y-86865000D03*
X153325000Y-85595000D03*
X159675000Y-85595000D03*
X159675000Y-86865000D03*
X159675000Y-88135000D03*
X159675000Y-89405000D03*
D24*
X164500000Y-64000000D03*
X154250000Y-60000000D03*
X153500000Y-70500000D03*
X163000000Y-70500000D03*
X162500000Y-79250000D03*
X160500000Y-82500000D03*
M02*
