M48
;DRILL file {KiCad 4.0.5} date Thursday, March 09, 2017 'PMt' 04:44:04 PM
;FORMAT={-:-/ absolute / inch / decimal}
FMAT,2
INCH,TZ
T1C0.016
T2C0.039
T3C0.040
T4C0.047
T5C0.039
%
G90
G05
M72
T1
X5.4823Y-3.4547
X5.876Y-2.5689
X5.9803Y-3.4449
X6.2008Y-1.8701
X6.2303Y-2.9331
X6.2323Y-2.6181
X6.2795Y-3.1535
X6.3268Y-2.2992
X6.3386Y-3.4213
X6.5945Y-3.247
X6.6024Y-3.3307
X6.7165Y-2.248
X6.7165Y-2.6614
X6.752Y-3.248
X6.811Y-2.6614
X6.811Y-2.874
X6.811Y-2.9921
X6.8661Y-1.9764
X6.8661Y-2.2559
X7.0079Y-2.7559
X7.0276Y-2.6772
X7.0276Y-2.8937
X7.0354Y-3.1693
X7.0866Y-2.6772
X7.0866Y-2.9921
X7.126Y-1.9094
X7.126Y-2.6772
X7.1457Y-1.9764
X7.1457Y-2.2559
X7.1654Y-2.9921
X7.315Y-1.7992
X7.374Y-1.9134
X7.3819Y-3.2913
T2
X6.5551Y-1.9094
X6.752Y-1.9094
X7.5Y-2.185
X7.5Y-2.5394
X7.5Y-2.9331
X7.5Y-3.2874
X7.6969Y-2.185
X7.6969Y-2.5394
X7.6969Y-2.9331
X7.6969Y-3.2874
T3
X5.4921Y-2.1654
X5.4921Y-3.0512
X5.689Y-1.9685
X5.689Y-2.3622
X5.689Y-2.8543
X5.689Y-3.248
X5.7677Y-3.5236
X5.8465Y-1.7126
X5.8677Y-3.5236
X5.9465Y-1.7126
X6.0465Y-1.7126
T4
X5.3937Y-1.9685
X5.3937Y-2.3622
X5.3937Y-2.8543
X5.3937Y-3.248
X5.4921Y-1.9685
X5.4921Y-2.3622
X5.4921Y-2.8543
X5.4921Y-3.248
X5.689Y-2.1654
X5.689Y-3.0512
T5
X7.4303Y-1.8898
X7.4303Y-1.8898
X7.6303Y-1.8498
X7.6303Y-1.8498
X7.6303Y-1.9298
X7.6303Y-1.9298
T0
M30
