G04 #@! TF.FileFunction,Legend,Top*
%FSLAX46Y46*%
G04 Gerber Fmt 4.6, Leading zero omitted, Abs format (unit mm)*
G04 Created by KiCad (PCBNEW 4.0.5) date Thursday, March 09, 2017 'PMt' 04:43:54 PM*
%MOMM*%
%LPD*%
G01*
G04 APERTURE LIST*
%ADD10C,0.150000*%
%ADD11C,0.250000*%
%ADD12C,0.600000*%
%ADD13C,0.100000*%
G04 APERTURE END LIST*
D10*
D11*
X167202381Y-44565476D02*
X166785714Y-43970238D01*
X166488095Y-44565476D02*
X166488095Y-43315476D01*
X166964286Y-43315476D01*
X167083333Y-43375000D01*
X167142857Y-43434524D01*
X167202381Y-43553571D01*
X167202381Y-43732143D01*
X167142857Y-43851190D01*
X167083333Y-43910714D01*
X166964286Y-43970238D01*
X166488095Y-43970238D01*
X168214286Y-44505952D02*
X168095238Y-44565476D01*
X167857143Y-44565476D01*
X167738095Y-44505952D01*
X167678571Y-44386905D01*
X167678571Y-43910714D01*
X167738095Y-43791667D01*
X167857143Y-43732143D01*
X168095238Y-43732143D01*
X168214286Y-43791667D01*
X168273809Y-43910714D01*
X168273809Y-44029762D01*
X167678571Y-44148810D01*
X168750000Y-44505952D02*
X168869048Y-44565476D01*
X169107143Y-44565476D01*
X169226191Y-44505952D01*
X169285715Y-44386905D01*
X169285715Y-44327381D01*
X169226191Y-44208333D01*
X169107143Y-44148810D01*
X168928572Y-44148810D01*
X168809524Y-44089286D01*
X168750000Y-43970238D01*
X168750000Y-43910714D01*
X168809524Y-43791667D01*
X168928572Y-43732143D01*
X169107143Y-43732143D01*
X169226191Y-43791667D01*
X170297620Y-44505952D02*
X170178572Y-44565476D01*
X169940477Y-44565476D01*
X169821429Y-44505952D01*
X169761905Y-44386905D01*
X169761905Y-43910714D01*
X169821429Y-43791667D01*
X169940477Y-43732143D01*
X170178572Y-43732143D01*
X170297620Y-43791667D01*
X170357143Y-43910714D01*
X170357143Y-44029762D01*
X169761905Y-44148810D01*
X170714287Y-43732143D02*
X171190477Y-43732143D01*
X170892858Y-43315476D02*
X170892858Y-44386905D01*
X170952382Y-44505952D01*
X171071429Y-44565476D01*
X171190477Y-44565476D01*
X198964286Y-54880952D02*
X199059524Y-54976190D01*
X199154762Y-55261905D01*
X199154762Y-55452381D01*
X199059524Y-55738095D01*
X198869048Y-55928571D01*
X198678571Y-56023810D01*
X198297619Y-56119048D01*
X198011905Y-56119048D01*
X197630952Y-56023810D01*
X197440476Y-55928571D01*
X197250000Y-55738095D01*
X197154762Y-55452381D01*
X197154762Y-55261905D01*
X197250000Y-54976190D01*
X197345238Y-54880952D01*
X198107143Y-64107143D02*
X198202381Y-63821429D01*
X198297619Y-63726190D01*
X198488095Y-63630952D01*
X198773810Y-63630952D01*
X198964286Y-63726190D01*
X199059524Y-63821429D01*
X199154762Y-64011905D01*
X199154762Y-64773810D01*
X197154762Y-64773810D01*
X197154762Y-64107143D01*
X197250000Y-63916667D01*
X197345238Y-63821429D01*
X197535714Y-63726190D01*
X197726190Y-63726190D01*
X197916667Y-63821429D01*
X198011905Y-63916667D01*
X198107143Y-64107143D01*
X198107143Y-64773810D01*
X198583333Y-74976191D02*
X198583333Y-74023810D01*
X199154762Y-75166667D02*
X197154762Y-74500000D01*
X199154762Y-73833333D01*
X199154762Y-85785715D02*
X197154762Y-85785715D01*
X199154762Y-84642857D02*
X198011905Y-85500000D01*
X197154762Y-84642857D02*
X198297619Y-85785715D01*
X198107143Y-83785715D02*
X198107143Y-83119048D01*
X199154762Y-82833334D02*
X199154762Y-83785715D01*
X197154762Y-83785715D01*
X197154762Y-82833334D01*
X198202381Y-81595238D02*
X199154762Y-81595238D01*
X197154762Y-82261905D02*
X198202381Y-81595238D01*
X197154762Y-80928571D01*
X141107143Y-42678571D02*
X141107143Y-43892857D01*
X141178571Y-44035714D01*
X141250000Y-44107143D01*
X141392857Y-44178571D01*
X141678571Y-44178571D01*
X141821429Y-44107143D01*
X141892857Y-44035714D01*
X141964286Y-43892857D01*
X141964286Y-42678571D01*
X142607143Y-43750000D02*
X143321429Y-43750000D01*
X142464286Y-44178571D02*
X142964286Y-42678571D01*
X143464286Y-44178571D01*
X144821429Y-44178571D02*
X144321429Y-43464286D01*
X143964286Y-44178571D02*
X143964286Y-42678571D01*
X144535714Y-42678571D01*
X144678572Y-42750000D01*
X144750000Y-42821429D01*
X144821429Y-42964286D01*
X144821429Y-43178571D01*
X144750000Y-43321429D01*
X144678572Y-43392857D01*
X144535714Y-43464286D01*
X143964286Y-43464286D01*
X145250000Y-42678571D02*
X146107143Y-42678571D01*
X145678572Y-44178571D02*
X145678572Y-42678571D01*
X147269048Y-48392857D02*
X147269048Y-47707143D01*
X148969048Y-48050000D02*
X147269048Y-48050000D01*
X147269048Y-47421428D02*
X148969048Y-46621428D01*
X147269048Y-46621428D02*
X148969048Y-47421428D01*
X148969048Y-46164286D02*
X147269048Y-46164286D01*
X147269048Y-45878571D01*
X147350000Y-45707143D01*
X147511905Y-45592857D01*
X147673810Y-45535714D01*
X147997619Y-45478571D01*
X148240476Y-45478571D01*
X148564286Y-45535714D01*
X148726190Y-45592857D01*
X148888095Y-45707143D01*
X148969048Y-45878571D01*
X148969048Y-46164286D01*
X151769048Y-47821428D02*
X150959524Y-48221428D01*
X151769048Y-48507143D02*
X150069048Y-48507143D01*
X150069048Y-48050000D01*
X150150000Y-47935714D01*
X150230952Y-47878571D01*
X150392857Y-47821428D01*
X150635714Y-47821428D01*
X150797619Y-47878571D01*
X150878571Y-47935714D01*
X150959524Y-48050000D01*
X150959524Y-48507143D01*
X150069048Y-47421428D02*
X151769048Y-46621428D01*
X150069048Y-46621428D02*
X151769048Y-47421428D01*
X151769048Y-46164286D02*
X150069048Y-46164286D01*
X150069048Y-45878571D01*
X150150000Y-45707143D01*
X150311905Y-45592857D01*
X150473810Y-45535714D01*
X150797619Y-45478571D01*
X151040476Y-45478571D01*
X151364286Y-45535714D01*
X151526190Y-45592857D01*
X151688095Y-45707143D01*
X151769048Y-45878571D01*
X151769048Y-46164286D01*
X152950000Y-47992857D02*
X152869048Y-48107143D01*
X152869048Y-48278572D01*
X152950000Y-48450000D01*
X153111905Y-48564286D01*
X153273810Y-48621429D01*
X153597619Y-48678572D01*
X153840476Y-48678572D01*
X154164286Y-48621429D01*
X154326190Y-48564286D01*
X154488095Y-48450000D01*
X154569048Y-48278572D01*
X154569048Y-48164286D01*
X154488095Y-47992857D01*
X154407143Y-47935714D01*
X153840476Y-47935714D01*
X153840476Y-48164286D01*
X154569048Y-47421429D02*
X152869048Y-47421429D01*
X154569048Y-46735714D01*
X152869048Y-46735714D01*
X154569048Y-46164286D02*
X152869048Y-46164286D01*
X152869048Y-45878571D01*
X152950000Y-45707143D01*
X153111905Y-45592857D01*
X153273810Y-45535714D01*
X153597619Y-45478571D01*
X153840476Y-45478571D01*
X154164286Y-45535714D01*
X154326190Y-45592857D01*
X154488095Y-45707143D01*
X154569048Y-45878571D01*
X154569048Y-46164286D01*
X140964286Y-85678571D02*
X141464286Y-87178571D01*
X141964286Y-85678571D01*
X142464286Y-87178571D02*
X142464286Y-86178571D01*
X142464286Y-85678571D02*
X142392857Y-85750000D01*
X142464286Y-85821429D01*
X142535714Y-85750000D01*
X142464286Y-85678571D01*
X142464286Y-85821429D01*
X143178572Y-86178571D02*
X143178572Y-87178571D01*
X143178572Y-86321429D02*
X143250000Y-86250000D01*
X143392858Y-86178571D01*
X143607143Y-86178571D01*
X143750000Y-86250000D01*
X143821429Y-86392857D01*
X143821429Y-87178571D01*
X145678572Y-86607143D02*
X146821429Y-86607143D01*
X146250000Y-87178571D02*
X146250000Y-86035714D01*
X148678572Y-86607143D02*
X149821429Y-86607143D01*
X138635715Y-47778571D02*
X138635715Y-46278571D01*
X139207143Y-46278571D01*
X139350001Y-46350000D01*
X139421429Y-46421429D01*
X139492858Y-46564286D01*
X139492858Y-46778571D01*
X139421429Y-46921429D01*
X139350001Y-46992857D01*
X139207143Y-47064286D01*
X138635715Y-47064286D01*
X140778572Y-47778571D02*
X140778572Y-46992857D01*
X140707143Y-46850000D01*
X140564286Y-46778571D01*
X140278572Y-46778571D01*
X140135715Y-46850000D01*
X140778572Y-47707143D02*
X140635715Y-47778571D01*
X140278572Y-47778571D01*
X140135715Y-47707143D01*
X140064286Y-47564286D01*
X140064286Y-47421429D01*
X140135715Y-47278571D01*
X140278572Y-47207143D01*
X140635715Y-47207143D01*
X140778572Y-47135714D01*
X142135715Y-47778571D02*
X142135715Y-46278571D01*
X142135715Y-47707143D02*
X141992858Y-47778571D01*
X141707144Y-47778571D01*
X141564286Y-47707143D01*
X141492858Y-47635714D01*
X141421429Y-47492857D01*
X141421429Y-47064286D01*
X141492858Y-46921429D01*
X141564286Y-46850000D01*
X141707144Y-46778571D01*
X141992858Y-46778571D01*
X142135715Y-46850000D01*
X143492858Y-47778571D02*
X143492858Y-46278571D01*
X143492858Y-47707143D02*
X143350001Y-47778571D01*
X143064287Y-47778571D01*
X142921429Y-47707143D01*
X142850001Y-47635714D01*
X142778572Y-47492857D01*
X142778572Y-47064286D01*
X142850001Y-46921429D01*
X142921429Y-46850000D01*
X143064287Y-46778571D01*
X143350001Y-46778571D01*
X143492858Y-46850000D01*
X144421430Y-47778571D02*
X144278572Y-47707143D01*
X144207144Y-47564286D01*
X144207144Y-46278571D01*
X145564286Y-47707143D02*
X145421429Y-47778571D01*
X145135715Y-47778571D01*
X144992858Y-47707143D01*
X144921429Y-47564286D01*
X144921429Y-46992857D01*
X144992858Y-46850000D01*
X145135715Y-46778571D01*
X145421429Y-46778571D01*
X145564286Y-46850000D01*
X145635715Y-46992857D01*
X145635715Y-47135714D01*
X144921429Y-47278571D01*
X137385714Y-69950000D02*
X138100000Y-69950000D01*
X137242857Y-70378571D02*
X137742857Y-68878571D01*
X138242857Y-70378571D01*
X139385714Y-69378571D02*
X139385714Y-70378571D01*
X138742857Y-69378571D02*
X138742857Y-70164286D01*
X138814285Y-70307143D01*
X138957143Y-70378571D01*
X139171428Y-70378571D01*
X139314285Y-70307143D01*
X139385714Y-70235714D01*
X140742857Y-70378571D02*
X140742857Y-68878571D01*
X140742857Y-70307143D02*
X140600000Y-70378571D01*
X140314286Y-70378571D01*
X140171428Y-70307143D01*
X140100000Y-70235714D01*
X140028571Y-70092857D01*
X140028571Y-69664286D01*
X140100000Y-69521429D01*
X140171428Y-69450000D01*
X140314286Y-69378571D01*
X140600000Y-69378571D01*
X140742857Y-69450000D01*
X141457143Y-70378571D02*
X141457143Y-69378571D01*
X141457143Y-68878571D02*
X141385714Y-68950000D01*
X141457143Y-69021429D01*
X141528571Y-68950000D01*
X141457143Y-68878571D01*
X141457143Y-69021429D01*
X142385715Y-70378571D02*
X142242857Y-70307143D01*
X142171429Y-70235714D01*
X142100000Y-70092857D01*
X142100000Y-69664286D01*
X142171429Y-69521429D01*
X142242857Y-69450000D01*
X142385715Y-69378571D01*
X142600000Y-69378571D01*
X142742857Y-69450000D01*
X142814286Y-69521429D01*
X142885715Y-69664286D01*
X142885715Y-70092857D01*
X142814286Y-70235714D01*
X142742857Y-70307143D01*
X142600000Y-70378571D01*
X142385715Y-70378571D01*
X144957143Y-68878571D02*
X145242857Y-68878571D01*
X145385715Y-68950000D01*
X145528572Y-69092857D01*
X145600000Y-69378571D01*
X145600000Y-69878571D01*
X145528572Y-70164286D01*
X145385715Y-70307143D01*
X145242857Y-70378571D01*
X144957143Y-70378571D01*
X144814286Y-70307143D01*
X144671429Y-70164286D01*
X144600000Y-69878571D01*
X144600000Y-69378571D01*
X144671429Y-69092857D01*
X144814286Y-68950000D01*
X144957143Y-68878571D01*
X146885715Y-69378571D02*
X146885715Y-70378571D01*
X146242858Y-69378571D02*
X146242858Y-70164286D01*
X146314286Y-70307143D01*
X146457144Y-70378571D01*
X146671429Y-70378571D01*
X146814286Y-70307143D01*
X146885715Y-70235714D01*
X147385715Y-69378571D02*
X147957144Y-69378571D01*
X147600001Y-68878571D02*
X147600001Y-70164286D01*
X147671429Y-70307143D01*
X147814287Y-70378571D01*
X147957144Y-70378571D01*
D12*
X172271429Y-89857143D02*
X172271429Y-86857143D01*
X173985714Y-89857143D02*
X172700000Y-88142857D01*
X173985714Y-86857143D02*
X172271429Y-88571429D01*
X174985714Y-86857143D02*
X176985714Y-86857143D01*
X175700000Y-89857143D01*
X177985715Y-89000000D02*
X179414286Y-89000000D01*
X177700000Y-89857143D02*
X178700000Y-86857143D01*
X179700000Y-89857143D01*
X182414286Y-89857143D02*
X181414286Y-88428571D01*
X180700001Y-89857143D02*
X180700001Y-86857143D01*
X181842858Y-86857143D01*
X182128572Y-87000000D01*
X182271429Y-87142857D01*
X182414286Y-87428571D01*
X182414286Y-87857143D01*
X182271429Y-88142857D01*
X182128572Y-88285714D01*
X181842858Y-88428571D01*
X180700001Y-88428571D01*
X183414286Y-86857143D02*
X185414286Y-89857143D01*
X185414286Y-86857143D02*
X183414286Y-89857143D01*
D10*
X169850000Y-67000000D02*
X169850000Y-66000000D01*
X168150000Y-66000000D02*
X168150000Y-67000000D01*
X160000000Y-59150000D02*
X159000000Y-59150000D01*
X159000000Y-60850000D02*
X160000000Y-60850000D01*
X151850000Y-67000000D02*
X151850000Y-66000000D01*
X150150000Y-66000000D02*
X150150000Y-67000000D01*
X160000000Y-72150000D02*
X159000000Y-72150000D01*
X159000000Y-73850000D02*
X160000000Y-73850000D01*
X155000000Y-80150000D02*
X154000000Y-80150000D01*
X154000000Y-81850000D02*
X155000000Y-81850000D01*
X173650000Y-68500000D02*
X173650000Y-69500000D01*
X175350000Y-69500000D02*
X175350000Y-68500000D01*
X184500000Y-47650000D02*
X183500000Y-47650000D01*
X183500000Y-49350000D02*
X184500000Y-49350000D01*
X158400000Y-48250000D02*
X161100000Y-48250000D01*
X158400000Y-46750000D02*
X161100000Y-46750000D01*
X159900000Y-47650000D02*
X159900000Y-47400000D01*
X159900000Y-47400000D02*
X159750000Y-47550000D01*
X159650000Y-47150000D02*
X159650000Y-47850000D01*
X160000000Y-47500000D02*
X160350000Y-47500000D01*
X159650000Y-47500000D02*
X160000000Y-47150000D01*
X160000000Y-47150000D02*
X160000000Y-47850000D01*
X160000000Y-47850000D02*
X159650000Y-47500000D01*
X149770000Y-44770000D02*
X154850000Y-44770000D01*
X154850000Y-44770000D02*
X154850000Y-42230000D01*
X154850000Y-42230000D02*
X149770000Y-42230000D01*
X146950000Y-41950000D02*
X148500000Y-41950000D01*
X149770000Y-42230000D02*
X149770000Y-44770000D01*
X148500000Y-45050000D02*
X146950000Y-45050000D01*
X146950000Y-45050000D02*
X146950000Y-41950000D01*
X165625000Y-67100000D02*
X165625000Y-65900000D01*
X167375000Y-65900000D02*
X167375000Y-67100000D01*
X160100000Y-63375000D02*
X158900000Y-63375000D01*
X158900000Y-61625000D02*
X160100000Y-61625000D01*
X152625000Y-67100000D02*
X152625000Y-65900000D01*
X154375000Y-65900000D02*
X154375000Y-67100000D01*
X160100000Y-71375000D02*
X158900000Y-71375000D01*
X158900000Y-69625000D02*
X160100000Y-69625000D01*
X165625000Y-59100000D02*
X165625000Y-57900000D01*
X167375000Y-57900000D02*
X167375000Y-59100000D01*
X168125000Y-59100000D02*
X168125000Y-57900000D01*
X169875000Y-57900000D02*
X169875000Y-59100000D01*
X178600000Y-49375000D02*
X177400000Y-49375000D01*
X177400000Y-47625000D02*
X178600000Y-47625000D01*
X186625000Y-75100000D02*
X186625000Y-73900000D01*
X188375000Y-73900000D02*
X188375000Y-75100000D01*
X186625000Y-65100000D02*
X186625000Y-63900000D01*
X188375000Y-63900000D02*
X188375000Y-65100000D01*
X186625000Y-56100000D02*
X186625000Y-54900000D01*
X188375000Y-54900000D02*
X188375000Y-56100000D01*
X159400000Y-51625000D02*
X160600000Y-51625000D01*
X160600000Y-53375000D02*
X159400000Y-53375000D01*
X188375000Y-82900000D02*
X188375000Y-84100000D01*
X186625000Y-84100000D02*
X186625000Y-82900000D01*
X153100000Y-58375000D02*
X151900000Y-58375000D01*
X151900000Y-56625000D02*
X153100000Y-56625000D01*
X153100000Y-53375000D02*
X151900000Y-53375000D01*
X151900000Y-51625000D02*
X153100000Y-51625000D01*
X165625000Y-74100000D02*
X165625000Y-72900000D01*
X167375000Y-72900000D02*
X167375000Y-74100000D01*
X168125000Y-74100000D02*
X168125000Y-72900000D01*
X169875000Y-72900000D02*
X169875000Y-74100000D01*
D13*
X193750000Y-74250000D02*
X192500000Y-73750000D01*
X192500000Y-74500000D02*
G75*
G03X192500000Y-74500000I-250000J0D01*
G01*
X191500000Y-74500000D02*
X192000000Y-74500000D01*
X194000000Y-74500000D02*
G75*
G03X194000000Y-74500000I-250000J0D01*
G01*
X194500000Y-74500000D02*
X194000000Y-74500000D01*
X196000000Y-73000000D02*
X196000000Y-71500000D01*
X196000000Y-71500000D02*
X190000000Y-71500000D01*
X190000000Y-71500000D02*
X190000000Y-73000000D01*
X190000000Y-76000000D02*
X190000000Y-77500000D01*
X190000000Y-77500000D02*
X196000000Y-77500000D01*
X196000000Y-77500000D02*
X196000000Y-76000000D01*
X193750000Y-64250000D02*
X192500000Y-63750000D01*
X192500000Y-64500000D02*
G75*
G03X192500000Y-64500000I-250000J0D01*
G01*
X191500000Y-64500000D02*
X192000000Y-64500000D01*
X194000000Y-64500000D02*
G75*
G03X194000000Y-64500000I-250000J0D01*
G01*
X194500000Y-64500000D02*
X194000000Y-64500000D01*
X196000000Y-63000000D02*
X196000000Y-61500000D01*
X196000000Y-61500000D02*
X190000000Y-61500000D01*
X190000000Y-61500000D02*
X190000000Y-63000000D01*
X190000000Y-66000000D02*
X190000000Y-67500000D01*
X190000000Y-67500000D02*
X196000000Y-67500000D01*
X196000000Y-67500000D02*
X196000000Y-66000000D01*
X193750000Y-55250000D02*
X192500000Y-54750000D01*
X192500000Y-55500000D02*
G75*
G03X192500000Y-55500000I-250000J0D01*
G01*
X191500000Y-55500000D02*
X192000000Y-55500000D01*
X194000000Y-55500000D02*
G75*
G03X194000000Y-55500000I-250000J0D01*
G01*
X194500000Y-55500000D02*
X194000000Y-55500000D01*
X196000000Y-54000000D02*
X196000000Y-52500000D01*
X196000000Y-52500000D02*
X190000000Y-52500000D01*
X190000000Y-52500000D02*
X190000000Y-54000000D01*
X190000000Y-57000000D02*
X190000000Y-58500000D01*
X190000000Y-58500000D02*
X196000000Y-58500000D01*
X196000000Y-58500000D02*
X196000000Y-57000000D01*
X193750000Y-83250000D02*
X192500000Y-82750000D01*
X192500000Y-83500000D02*
G75*
G03X192500000Y-83500000I-250000J0D01*
G01*
X191500000Y-83500000D02*
X192000000Y-83500000D01*
X194000000Y-83500000D02*
G75*
G03X194000000Y-83500000I-250000J0D01*
G01*
X194500000Y-83500000D02*
X194000000Y-83500000D01*
X196000000Y-82000000D02*
X196000000Y-80500000D01*
X196000000Y-80500000D02*
X190000000Y-80500000D01*
X190000000Y-80500000D02*
X190000000Y-82000000D01*
X190000000Y-85000000D02*
X190000000Y-86500000D01*
X190000000Y-86500000D02*
X196000000Y-86500000D01*
X196000000Y-86500000D02*
X196000000Y-85000000D01*
X168250000Y-48750000D02*
X169500000Y-49250000D01*
X170000000Y-48500000D02*
G75*
G03X170000000Y-48500000I-250000J0D01*
G01*
X170500000Y-48500000D02*
X170000000Y-48500000D01*
X168500000Y-48500000D02*
G75*
G03X168500000Y-48500000I-250000J0D01*
G01*
X167500000Y-48500000D02*
X168000000Y-48500000D01*
X166000000Y-50000000D02*
X166000000Y-51500000D01*
X166000000Y-51500000D02*
X172000000Y-51500000D01*
X172000000Y-51500000D02*
X172000000Y-50000000D01*
X172000000Y-47000000D02*
X172000000Y-45500000D01*
X172000000Y-45500000D02*
X166000000Y-45500000D01*
X166000000Y-45500000D02*
X166000000Y-47000000D01*
X161000000Y-68450000D02*
G75*
G03X161000000Y-68450000I-250000J0D01*
G01*
X157250000Y-63950000D02*
X161750000Y-63950000D01*
X157250000Y-69050000D02*
X161750000Y-69050000D01*
X158825000Y-77900000D02*
G75*
G03X158825000Y-77900000I-250000J0D01*
G01*
D10*
X161025000Y-76625000D02*
X161025000Y-78375000D01*
X157975000Y-76625000D02*
X157975000Y-78375000D01*
D13*
X167350000Y-80525000D02*
G75*
G03X167350000Y-80525000I-250000J0D01*
G01*
D10*
X168950000Y-83075000D02*
X166050000Y-83075000D01*
X168950000Y-79925000D02*
X166050000Y-79925000D01*
D13*
X177325000Y-70250000D02*
G75*
G03X177325000Y-70250000I-250000J0D01*
G01*
X183300000Y-66750000D02*
X183300000Y-71250000D01*
X176700000Y-66750000D02*
X176700000Y-71250000D01*
X176650000Y-82425000D02*
G75*
G03X176650000Y-82425000I-250000J0D01*
G01*
D10*
X175125000Y-79975000D02*
X176875000Y-79975000D01*
X175125000Y-83025000D02*
X176875000Y-83025000D01*
X141100000Y-88650000D02*
X140100000Y-88650000D01*
X140100000Y-90350000D02*
X141100000Y-90350000D01*
X164350000Y-88000000D02*
X164350000Y-87000000D01*
X162650000Y-87000000D02*
X162650000Y-88000000D01*
X168550000Y-88000000D02*
X168550000Y-87000000D01*
X166850000Y-87000000D02*
X166850000Y-88000000D01*
X147770000Y-88230000D02*
X150310000Y-88230000D01*
X144950000Y-87950000D02*
X146500000Y-87950000D01*
X147770000Y-88230000D02*
X147770000Y-90770000D01*
X146500000Y-91050000D02*
X144950000Y-91050000D01*
X144950000Y-91050000D02*
X144950000Y-87950000D01*
X147770000Y-90770000D02*
X150310000Y-90770000D01*
X150310000Y-90770000D02*
X150310000Y-88230000D01*
X154214000Y-90040000D02*
X154214000Y-84960000D01*
X154214000Y-84960000D02*
X158786000Y-84960000D01*
X158786000Y-84960000D02*
X158786000Y-90040000D01*
X158786000Y-90040000D02*
X154214000Y-90040000D01*
X155738000Y-90040000D02*
X155738000Y-89532000D01*
X155738000Y-89532000D02*
X157008000Y-89532000D01*
X157008000Y-89532000D02*
X157008000Y-90040000D01*
D13*
X135000000Y-53000000D02*
X135000000Y-50500000D01*
X135000000Y-50500000D02*
X136200000Y-50500000D01*
X136200000Y-50500000D02*
X136200000Y-49000000D01*
X136200000Y-49000000D02*
X149000000Y-49000000D01*
X149000000Y-49000000D02*
X149000000Y-61000000D01*
X149000000Y-61000000D02*
X136200000Y-61000000D01*
X136200000Y-61000000D02*
X136200000Y-59500000D01*
X136200000Y-59500000D02*
X135000000Y-59500000D01*
X135000000Y-59500000D02*
X135000000Y-57000000D01*
X135000000Y-57000000D02*
X136200000Y-57000000D01*
X136200000Y-57000000D02*
X136200000Y-53000000D01*
X136200000Y-53000000D02*
X135000000Y-53000000D01*
X135000000Y-75500000D02*
X135000000Y-73000000D01*
X135000000Y-73000000D02*
X136200000Y-73000000D01*
X136200000Y-73000000D02*
X136200000Y-71500000D01*
X136200000Y-71500000D02*
X149000000Y-71500000D01*
X149000000Y-71500000D02*
X149000000Y-83500000D01*
X149000000Y-83500000D02*
X136200000Y-83500000D01*
X136200000Y-83500000D02*
X136200000Y-82000000D01*
X136200000Y-82000000D02*
X135000000Y-82000000D01*
X135000000Y-82000000D02*
X135000000Y-79500000D01*
X135000000Y-79500000D02*
X136200000Y-79500000D01*
X136200000Y-79500000D02*
X136200000Y-75500000D01*
X136200000Y-75500000D02*
X135000000Y-75500000D01*
D10*
X169357143Y-62666666D02*
X169404762Y-62714285D01*
X169452381Y-62857142D01*
X169452381Y-62952380D01*
X169404762Y-63095238D01*
X169309524Y-63190476D01*
X169214286Y-63238095D01*
X169023810Y-63285714D01*
X168880952Y-63285714D01*
X168690476Y-63238095D01*
X168595238Y-63190476D01*
X168500000Y-63095238D01*
X168452381Y-62952380D01*
X168452381Y-62857142D01*
X168500000Y-62714285D01*
X168547619Y-62666666D01*
X169452381Y-61714285D02*
X169452381Y-62285714D01*
X169452381Y-62000000D02*
X168452381Y-62000000D01*
X168595238Y-62095238D01*
X168690476Y-62190476D01*
X168738095Y-62285714D01*
X155833334Y-60357143D02*
X155785715Y-60404762D01*
X155642858Y-60452381D01*
X155547620Y-60452381D01*
X155404762Y-60404762D01*
X155309524Y-60309524D01*
X155261905Y-60214286D01*
X155214286Y-60023810D01*
X155214286Y-59880952D01*
X155261905Y-59690476D01*
X155309524Y-59595238D01*
X155404762Y-59500000D01*
X155547620Y-59452381D01*
X155642858Y-59452381D01*
X155785715Y-59500000D01*
X155833334Y-59547619D01*
X156214286Y-59547619D02*
X156261905Y-59500000D01*
X156357143Y-59452381D01*
X156595239Y-59452381D01*
X156690477Y-59500000D01*
X156738096Y-59547619D01*
X156785715Y-59642857D01*
X156785715Y-59738095D01*
X156738096Y-59880952D01*
X156166667Y-60452381D01*
X156785715Y-60452381D01*
X151357143Y-62666666D02*
X151404762Y-62714285D01*
X151452381Y-62857142D01*
X151452381Y-62952380D01*
X151404762Y-63095238D01*
X151309524Y-63190476D01*
X151214286Y-63238095D01*
X151023810Y-63285714D01*
X150880952Y-63285714D01*
X150690476Y-63238095D01*
X150595238Y-63190476D01*
X150500000Y-63095238D01*
X150452381Y-62952380D01*
X150452381Y-62857142D01*
X150500000Y-62714285D01*
X150547619Y-62666666D01*
X150452381Y-62333333D02*
X150452381Y-61714285D01*
X150833333Y-62047619D01*
X150833333Y-61904761D01*
X150880952Y-61809523D01*
X150928571Y-61761904D01*
X151023810Y-61714285D01*
X151261905Y-61714285D01*
X151357143Y-61761904D01*
X151404762Y-61809523D01*
X151452381Y-61904761D01*
X151452381Y-62190476D01*
X151404762Y-62285714D01*
X151357143Y-62333333D01*
X155833334Y-73357143D02*
X155785715Y-73404762D01*
X155642858Y-73452381D01*
X155547620Y-73452381D01*
X155404762Y-73404762D01*
X155309524Y-73309524D01*
X155261905Y-73214286D01*
X155214286Y-73023810D01*
X155214286Y-72880952D01*
X155261905Y-72690476D01*
X155309524Y-72595238D01*
X155404762Y-72500000D01*
X155547620Y-72452381D01*
X155642858Y-72452381D01*
X155785715Y-72500000D01*
X155833334Y-72547619D01*
X156690477Y-72785714D02*
X156690477Y-73452381D01*
X156452381Y-72404762D02*
X156214286Y-73119048D01*
X156833334Y-73119048D01*
X154333334Y-79257143D02*
X154285715Y-79304762D01*
X154142858Y-79352381D01*
X154047620Y-79352381D01*
X153904762Y-79304762D01*
X153809524Y-79209524D01*
X153761905Y-79114286D01*
X153714286Y-78923810D01*
X153714286Y-78780952D01*
X153761905Y-78590476D01*
X153809524Y-78495238D01*
X153904762Y-78400000D01*
X154047620Y-78352381D01*
X154142858Y-78352381D01*
X154285715Y-78400000D01*
X154333334Y-78447619D01*
X155238096Y-78352381D02*
X154761905Y-78352381D01*
X154714286Y-78828571D01*
X154761905Y-78780952D01*
X154857143Y-78733333D01*
X155095239Y-78733333D01*
X155190477Y-78780952D01*
X155238096Y-78828571D01*
X155285715Y-78923810D01*
X155285715Y-79161905D01*
X155238096Y-79257143D01*
X155190477Y-79304762D01*
X155095239Y-79352381D01*
X154857143Y-79352381D01*
X154761905Y-79304762D01*
X154714286Y-79257143D01*
X172757143Y-69166666D02*
X172804762Y-69214285D01*
X172852381Y-69357142D01*
X172852381Y-69452380D01*
X172804762Y-69595238D01*
X172709524Y-69690476D01*
X172614286Y-69738095D01*
X172423810Y-69785714D01*
X172280952Y-69785714D01*
X172090476Y-69738095D01*
X171995238Y-69690476D01*
X171900000Y-69595238D01*
X171852381Y-69452380D01*
X171852381Y-69357142D01*
X171900000Y-69214285D01*
X171947619Y-69166666D01*
X171852381Y-68309523D02*
X171852381Y-68500000D01*
X171900000Y-68595238D01*
X171947619Y-68642857D01*
X172090476Y-68738095D01*
X172280952Y-68785714D01*
X172661905Y-68785714D01*
X172757143Y-68738095D01*
X172804762Y-68690476D01*
X172852381Y-68595238D01*
X172852381Y-68404761D01*
X172804762Y-68309523D01*
X172757143Y-68261904D01*
X172661905Y-68214285D01*
X172423810Y-68214285D01*
X172328571Y-68261904D01*
X172280952Y-68309523D01*
X172233333Y-68404761D01*
X172233333Y-68595238D01*
X172280952Y-68690476D01*
X172328571Y-68738095D01*
X172423810Y-68785714D01*
X183833334Y-46757143D02*
X183785715Y-46804762D01*
X183642858Y-46852381D01*
X183547620Y-46852381D01*
X183404762Y-46804762D01*
X183309524Y-46709524D01*
X183261905Y-46614286D01*
X183214286Y-46423810D01*
X183214286Y-46280952D01*
X183261905Y-46090476D01*
X183309524Y-45995238D01*
X183404762Y-45900000D01*
X183547620Y-45852381D01*
X183642858Y-45852381D01*
X183785715Y-45900000D01*
X183833334Y-45947619D01*
X184166667Y-45852381D02*
X184833334Y-45852381D01*
X184404762Y-46852381D01*
X159261905Y-46202381D02*
X159261905Y-45202381D01*
X159500000Y-45202381D01*
X159642858Y-45250000D01*
X159738096Y-45345238D01*
X159785715Y-45440476D01*
X159833334Y-45630952D01*
X159833334Y-45773810D01*
X159785715Y-45964286D01*
X159738096Y-46059524D01*
X159642858Y-46154762D01*
X159500000Y-46202381D01*
X159261905Y-46202381D01*
X160785715Y-46202381D02*
X160214286Y-46202381D01*
X160500000Y-46202381D02*
X160500000Y-45202381D01*
X160404762Y-45345238D01*
X160309524Y-45440476D01*
X160214286Y-45488095D01*
X166952381Y-62666666D02*
X166476190Y-63000000D01*
X166952381Y-63238095D02*
X165952381Y-63238095D01*
X165952381Y-62857142D01*
X166000000Y-62761904D01*
X166047619Y-62714285D01*
X166142857Y-62666666D01*
X166285714Y-62666666D01*
X166380952Y-62714285D01*
X166428571Y-62761904D01*
X166476190Y-62857142D01*
X166476190Y-63238095D01*
X166952381Y-61714285D02*
X166952381Y-62285714D01*
X166952381Y-62000000D02*
X165952381Y-62000000D01*
X166095238Y-62095238D01*
X166190476Y-62190476D01*
X166238095Y-62285714D01*
X155833334Y-62952381D02*
X155500000Y-62476190D01*
X155261905Y-62952381D02*
X155261905Y-61952381D01*
X155642858Y-61952381D01*
X155738096Y-62000000D01*
X155785715Y-62047619D01*
X155833334Y-62142857D01*
X155833334Y-62285714D01*
X155785715Y-62380952D01*
X155738096Y-62428571D01*
X155642858Y-62476190D01*
X155261905Y-62476190D01*
X156214286Y-62047619D02*
X156261905Y-62000000D01*
X156357143Y-61952381D01*
X156595239Y-61952381D01*
X156690477Y-62000000D01*
X156738096Y-62047619D01*
X156785715Y-62142857D01*
X156785715Y-62238095D01*
X156738096Y-62380952D01*
X156166667Y-62952381D01*
X156785715Y-62952381D01*
X153952381Y-62666666D02*
X153476190Y-63000000D01*
X153952381Y-63238095D02*
X152952381Y-63238095D01*
X152952381Y-62857142D01*
X153000000Y-62761904D01*
X153047619Y-62714285D01*
X153142857Y-62666666D01*
X153285714Y-62666666D01*
X153380952Y-62714285D01*
X153428571Y-62761904D01*
X153476190Y-62857142D01*
X153476190Y-63238095D01*
X152952381Y-62333333D02*
X152952381Y-61714285D01*
X153333333Y-62047619D01*
X153333333Y-61904761D01*
X153380952Y-61809523D01*
X153428571Y-61761904D01*
X153523810Y-61714285D01*
X153761905Y-61714285D01*
X153857143Y-61761904D01*
X153904762Y-61809523D01*
X153952381Y-61904761D01*
X153952381Y-62190476D01*
X153904762Y-62285714D01*
X153857143Y-62333333D01*
X155833334Y-70952381D02*
X155500000Y-70476190D01*
X155261905Y-70952381D02*
X155261905Y-69952381D01*
X155642858Y-69952381D01*
X155738096Y-70000000D01*
X155785715Y-70047619D01*
X155833334Y-70142857D01*
X155833334Y-70285714D01*
X155785715Y-70380952D01*
X155738096Y-70428571D01*
X155642858Y-70476190D01*
X155261905Y-70476190D01*
X156690477Y-70285714D02*
X156690477Y-70952381D01*
X156452381Y-69904762D02*
X156214286Y-70619048D01*
X156833334Y-70619048D01*
X166952381Y-54666666D02*
X166476190Y-55000000D01*
X166952381Y-55238095D02*
X165952381Y-55238095D01*
X165952381Y-54857142D01*
X166000000Y-54761904D01*
X166047619Y-54714285D01*
X166142857Y-54666666D01*
X166285714Y-54666666D01*
X166380952Y-54714285D01*
X166428571Y-54761904D01*
X166476190Y-54857142D01*
X166476190Y-55238095D01*
X165952381Y-53761904D02*
X165952381Y-54238095D01*
X166428571Y-54285714D01*
X166380952Y-54238095D01*
X166333333Y-54142857D01*
X166333333Y-53904761D01*
X166380952Y-53809523D01*
X166428571Y-53761904D01*
X166523810Y-53714285D01*
X166761905Y-53714285D01*
X166857143Y-53761904D01*
X166904762Y-53809523D01*
X166952381Y-53904761D01*
X166952381Y-54142857D01*
X166904762Y-54238095D01*
X166857143Y-54285714D01*
X169452381Y-54666666D02*
X168976190Y-55000000D01*
X169452381Y-55238095D02*
X168452381Y-55238095D01*
X168452381Y-54857142D01*
X168500000Y-54761904D01*
X168547619Y-54714285D01*
X168642857Y-54666666D01*
X168785714Y-54666666D01*
X168880952Y-54714285D01*
X168928571Y-54761904D01*
X168976190Y-54857142D01*
X168976190Y-55238095D01*
X168452381Y-53809523D02*
X168452381Y-54000000D01*
X168500000Y-54095238D01*
X168547619Y-54142857D01*
X168690476Y-54238095D01*
X168880952Y-54285714D01*
X169261905Y-54285714D01*
X169357143Y-54238095D01*
X169404762Y-54190476D01*
X169452381Y-54095238D01*
X169452381Y-53904761D01*
X169404762Y-53809523D01*
X169357143Y-53761904D01*
X169261905Y-53714285D01*
X169023810Y-53714285D01*
X168928571Y-53761904D01*
X168880952Y-53809523D01*
X168833333Y-53904761D01*
X168833333Y-54095238D01*
X168880952Y-54190476D01*
X168928571Y-54238095D01*
X169023810Y-54285714D01*
X177833334Y-46852381D02*
X177500000Y-46376190D01*
X177261905Y-46852381D02*
X177261905Y-45852381D01*
X177642858Y-45852381D01*
X177738096Y-45900000D01*
X177785715Y-45947619D01*
X177833334Y-46042857D01*
X177833334Y-46185714D01*
X177785715Y-46280952D01*
X177738096Y-46328571D01*
X177642858Y-46376190D01*
X177261905Y-46376190D01*
X178166667Y-45852381D02*
X178833334Y-45852381D01*
X178404762Y-46852381D01*
X187952381Y-71166666D02*
X187476190Y-71500000D01*
X187952381Y-71738095D02*
X186952381Y-71738095D01*
X186952381Y-71357142D01*
X187000000Y-71261904D01*
X187047619Y-71214285D01*
X187142857Y-71166666D01*
X187285714Y-71166666D01*
X187380952Y-71214285D01*
X187428571Y-71261904D01*
X187476190Y-71357142D01*
X187476190Y-71738095D01*
X187380952Y-70595238D02*
X187333333Y-70690476D01*
X187285714Y-70738095D01*
X187190476Y-70785714D01*
X187142857Y-70785714D01*
X187047619Y-70738095D01*
X187000000Y-70690476D01*
X186952381Y-70595238D01*
X186952381Y-70404761D01*
X187000000Y-70309523D01*
X187047619Y-70261904D01*
X187142857Y-70214285D01*
X187190476Y-70214285D01*
X187285714Y-70261904D01*
X187333333Y-70309523D01*
X187380952Y-70404761D01*
X187380952Y-70595238D01*
X187428571Y-70690476D01*
X187476190Y-70738095D01*
X187571429Y-70785714D01*
X187761905Y-70785714D01*
X187857143Y-70738095D01*
X187904762Y-70690476D01*
X187952381Y-70595238D01*
X187952381Y-70404761D01*
X187904762Y-70309523D01*
X187857143Y-70261904D01*
X187761905Y-70214285D01*
X187571429Y-70214285D01*
X187476190Y-70261904D01*
X187428571Y-70309523D01*
X187380952Y-70404761D01*
X187952381Y-61166666D02*
X187476190Y-61500000D01*
X187952381Y-61738095D02*
X186952381Y-61738095D01*
X186952381Y-61357142D01*
X187000000Y-61261904D01*
X187047619Y-61214285D01*
X187142857Y-61166666D01*
X187285714Y-61166666D01*
X187380952Y-61214285D01*
X187428571Y-61261904D01*
X187476190Y-61357142D01*
X187476190Y-61738095D01*
X187952381Y-60690476D02*
X187952381Y-60500000D01*
X187904762Y-60404761D01*
X187857143Y-60357142D01*
X187714286Y-60261904D01*
X187523810Y-60214285D01*
X187142857Y-60214285D01*
X187047619Y-60261904D01*
X187000000Y-60309523D01*
X186952381Y-60404761D01*
X186952381Y-60595238D01*
X187000000Y-60690476D01*
X187047619Y-60738095D01*
X187142857Y-60785714D01*
X187380952Y-60785714D01*
X187476190Y-60738095D01*
X187523810Y-60690476D01*
X187571429Y-60595238D01*
X187571429Y-60404761D01*
X187523810Y-60309523D01*
X187476190Y-60261904D01*
X187380952Y-60214285D01*
X187952381Y-52142857D02*
X187476190Y-52476191D01*
X187952381Y-52714286D02*
X186952381Y-52714286D01*
X186952381Y-52333333D01*
X187000000Y-52238095D01*
X187047619Y-52190476D01*
X187142857Y-52142857D01*
X187285714Y-52142857D01*
X187380952Y-52190476D01*
X187428571Y-52238095D01*
X187476190Y-52333333D01*
X187476190Y-52714286D01*
X187952381Y-51190476D02*
X187952381Y-51761905D01*
X187952381Y-51476191D02*
X186952381Y-51476191D01*
X187095238Y-51571429D01*
X187190476Y-51666667D01*
X187238095Y-51761905D01*
X186952381Y-50571429D02*
X186952381Y-50476190D01*
X187000000Y-50380952D01*
X187047619Y-50333333D01*
X187142857Y-50285714D01*
X187333333Y-50238095D01*
X187571429Y-50238095D01*
X187761905Y-50285714D01*
X187857143Y-50333333D01*
X187904762Y-50380952D01*
X187952381Y-50476190D01*
X187952381Y-50571429D01*
X187904762Y-50666667D01*
X187857143Y-50714286D01*
X187761905Y-50761905D01*
X187571429Y-50809524D01*
X187333333Y-50809524D01*
X187142857Y-50761905D01*
X187047619Y-50714286D01*
X187000000Y-50666667D01*
X186952381Y-50571429D01*
X159357143Y-55052381D02*
X159023809Y-54576190D01*
X158785714Y-55052381D02*
X158785714Y-54052381D01*
X159166667Y-54052381D01*
X159261905Y-54100000D01*
X159309524Y-54147619D01*
X159357143Y-54242857D01*
X159357143Y-54385714D01*
X159309524Y-54480952D01*
X159261905Y-54528571D01*
X159166667Y-54576190D01*
X158785714Y-54576190D01*
X160309524Y-55052381D02*
X159738095Y-55052381D01*
X160023809Y-55052381D02*
X160023809Y-54052381D01*
X159928571Y-54195238D01*
X159833333Y-54290476D01*
X159738095Y-54338095D01*
X161261905Y-55052381D02*
X160690476Y-55052381D01*
X160976190Y-55052381D02*
X160976190Y-54052381D01*
X160880952Y-54195238D01*
X160785714Y-54290476D01*
X160690476Y-54338095D01*
X187952381Y-80142857D02*
X187476190Y-80476191D01*
X187952381Y-80714286D02*
X186952381Y-80714286D01*
X186952381Y-80333333D01*
X187000000Y-80238095D01*
X187047619Y-80190476D01*
X187142857Y-80142857D01*
X187285714Y-80142857D01*
X187380952Y-80190476D01*
X187428571Y-80238095D01*
X187476190Y-80333333D01*
X187476190Y-80714286D01*
X187952381Y-79190476D02*
X187952381Y-79761905D01*
X187952381Y-79476191D02*
X186952381Y-79476191D01*
X187095238Y-79571429D01*
X187190476Y-79666667D01*
X187238095Y-79761905D01*
X187047619Y-78809524D02*
X187000000Y-78761905D01*
X186952381Y-78666667D01*
X186952381Y-78428571D01*
X187000000Y-78333333D01*
X187047619Y-78285714D01*
X187142857Y-78238095D01*
X187238095Y-78238095D01*
X187380952Y-78285714D01*
X187952381Y-78857143D01*
X187952381Y-78238095D01*
X151857143Y-55852381D02*
X151523809Y-55376190D01*
X151285714Y-55852381D02*
X151285714Y-54852381D01*
X151666667Y-54852381D01*
X151761905Y-54900000D01*
X151809524Y-54947619D01*
X151857143Y-55042857D01*
X151857143Y-55185714D01*
X151809524Y-55280952D01*
X151761905Y-55328571D01*
X151666667Y-55376190D01*
X151285714Y-55376190D01*
X152809524Y-55852381D02*
X152238095Y-55852381D01*
X152523809Y-55852381D02*
X152523809Y-54852381D01*
X152428571Y-54995238D01*
X152333333Y-55090476D01*
X152238095Y-55138095D01*
X153142857Y-54852381D02*
X153761905Y-54852381D01*
X153428571Y-55233333D01*
X153571429Y-55233333D01*
X153666667Y-55280952D01*
X153714286Y-55328571D01*
X153761905Y-55423810D01*
X153761905Y-55661905D01*
X153714286Y-55757143D01*
X153666667Y-55804762D01*
X153571429Y-55852381D01*
X153285714Y-55852381D01*
X153190476Y-55804762D01*
X153142857Y-55757143D01*
X151857143Y-50852381D02*
X151523809Y-50376190D01*
X151285714Y-50852381D02*
X151285714Y-49852381D01*
X151666667Y-49852381D01*
X151761905Y-49900000D01*
X151809524Y-49947619D01*
X151857143Y-50042857D01*
X151857143Y-50185714D01*
X151809524Y-50280952D01*
X151761905Y-50328571D01*
X151666667Y-50376190D01*
X151285714Y-50376190D01*
X152809524Y-50852381D02*
X152238095Y-50852381D01*
X152523809Y-50852381D02*
X152523809Y-49852381D01*
X152428571Y-49995238D01*
X152333333Y-50090476D01*
X152238095Y-50138095D01*
X153666667Y-50185714D02*
X153666667Y-50852381D01*
X153428571Y-49804762D02*
X153190476Y-50519048D01*
X153809524Y-50519048D01*
X166952381Y-78095238D02*
X166476190Y-78428572D01*
X166952381Y-78666667D02*
X165952381Y-78666667D01*
X165952381Y-78285714D01*
X166000000Y-78190476D01*
X166047619Y-78142857D01*
X166142857Y-78095238D01*
X166285714Y-78095238D01*
X166380952Y-78142857D01*
X166428571Y-78190476D01*
X166476190Y-78285714D01*
X166476190Y-78666667D01*
X166428571Y-77333333D02*
X166428571Y-77666667D01*
X166952381Y-77666667D02*
X165952381Y-77666667D01*
X165952381Y-77190476D01*
X166952381Y-76285714D02*
X166952381Y-76857143D01*
X166952381Y-76571429D02*
X165952381Y-76571429D01*
X166095238Y-76666667D01*
X166190476Y-76761905D01*
X166238095Y-76857143D01*
X169452381Y-78166666D02*
X168976190Y-78500000D01*
X169452381Y-78738095D02*
X168452381Y-78738095D01*
X168452381Y-78357142D01*
X168500000Y-78261904D01*
X168547619Y-78214285D01*
X168642857Y-78166666D01*
X168785714Y-78166666D01*
X168880952Y-78214285D01*
X168928571Y-78261904D01*
X168976190Y-78357142D01*
X168976190Y-78738095D01*
X168500000Y-77214285D02*
X168452381Y-77309523D01*
X168452381Y-77452380D01*
X168500000Y-77595238D01*
X168595238Y-77690476D01*
X168690476Y-77738095D01*
X168880952Y-77785714D01*
X169023810Y-77785714D01*
X169214286Y-77738095D01*
X169309524Y-77690476D01*
X169404762Y-77595238D01*
X169452381Y-77452380D01*
X169452381Y-77357142D01*
X169404762Y-77214285D01*
X169357143Y-77166666D01*
X169023810Y-77166666D01*
X169023810Y-77357142D01*
X169452381Y-76214285D02*
X169452381Y-76785714D01*
X169452381Y-76500000D02*
X168452381Y-76500000D01*
X168595238Y-76595238D01*
X168690476Y-76690476D01*
X168738095Y-76785714D01*
X192238095Y-70904762D02*
X192380952Y-70952381D01*
X192619048Y-70952381D01*
X192714286Y-70904762D01*
X192761905Y-70857143D01*
X192809524Y-70761905D01*
X192809524Y-70666667D01*
X192761905Y-70571429D01*
X192714286Y-70523810D01*
X192619048Y-70476190D01*
X192428571Y-70428571D01*
X192333333Y-70380952D01*
X192285714Y-70333333D01*
X192238095Y-70238095D01*
X192238095Y-70142857D01*
X192285714Y-70047619D01*
X192333333Y-70000000D01*
X192428571Y-69952381D01*
X192666667Y-69952381D01*
X192809524Y-70000000D01*
X193761905Y-70952381D02*
X193190476Y-70952381D01*
X193476190Y-70952381D02*
X193476190Y-69952381D01*
X193380952Y-70095238D01*
X193285714Y-70190476D01*
X193190476Y-70238095D01*
X192238095Y-60904762D02*
X192380952Y-60952381D01*
X192619048Y-60952381D01*
X192714286Y-60904762D01*
X192761905Y-60857143D01*
X192809524Y-60761905D01*
X192809524Y-60666667D01*
X192761905Y-60571429D01*
X192714286Y-60523810D01*
X192619048Y-60476190D01*
X192428571Y-60428571D01*
X192333333Y-60380952D01*
X192285714Y-60333333D01*
X192238095Y-60238095D01*
X192238095Y-60142857D01*
X192285714Y-60047619D01*
X192333333Y-60000000D01*
X192428571Y-59952381D01*
X192666667Y-59952381D01*
X192809524Y-60000000D01*
X193190476Y-60047619D02*
X193238095Y-60000000D01*
X193333333Y-59952381D01*
X193571429Y-59952381D01*
X193666667Y-60000000D01*
X193714286Y-60047619D01*
X193761905Y-60142857D01*
X193761905Y-60238095D01*
X193714286Y-60380952D01*
X193142857Y-60952381D01*
X193761905Y-60952381D01*
X192238095Y-51904762D02*
X192380952Y-51952381D01*
X192619048Y-51952381D01*
X192714286Y-51904762D01*
X192761905Y-51857143D01*
X192809524Y-51761905D01*
X192809524Y-51666667D01*
X192761905Y-51571429D01*
X192714286Y-51523810D01*
X192619048Y-51476190D01*
X192428571Y-51428571D01*
X192333333Y-51380952D01*
X192285714Y-51333333D01*
X192238095Y-51238095D01*
X192238095Y-51142857D01*
X192285714Y-51047619D01*
X192333333Y-51000000D01*
X192428571Y-50952381D01*
X192666667Y-50952381D01*
X192809524Y-51000000D01*
X193142857Y-50952381D02*
X193761905Y-50952381D01*
X193428571Y-51333333D01*
X193571429Y-51333333D01*
X193666667Y-51380952D01*
X193714286Y-51428571D01*
X193761905Y-51523810D01*
X193761905Y-51761905D01*
X193714286Y-51857143D01*
X193666667Y-51904762D01*
X193571429Y-51952381D01*
X193285714Y-51952381D01*
X193190476Y-51904762D01*
X193142857Y-51857143D01*
X192238095Y-79904762D02*
X192380952Y-79952381D01*
X192619048Y-79952381D01*
X192714286Y-79904762D01*
X192761905Y-79857143D01*
X192809524Y-79761905D01*
X192809524Y-79666667D01*
X192761905Y-79571429D01*
X192714286Y-79523810D01*
X192619048Y-79476190D01*
X192428571Y-79428571D01*
X192333333Y-79380952D01*
X192285714Y-79333333D01*
X192238095Y-79238095D01*
X192238095Y-79142857D01*
X192285714Y-79047619D01*
X192333333Y-79000000D01*
X192428571Y-78952381D01*
X192666667Y-78952381D01*
X192809524Y-79000000D01*
X193666667Y-79285714D02*
X193666667Y-79952381D01*
X193428571Y-78904762D02*
X193190476Y-79619048D01*
X193809524Y-79619048D01*
X164904762Y-49261905D02*
X164952381Y-49119048D01*
X164952381Y-48880952D01*
X164904762Y-48785714D01*
X164857143Y-48738095D01*
X164761905Y-48690476D01*
X164666667Y-48690476D01*
X164571429Y-48738095D01*
X164523810Y-48785714D01*
X164476190Y-48880952D01*
X164428571Y-49071429D01*
X164380952Y-49166667D01*
X164333333Y-49214286D01*
X164238095Y-49261905D01*
X164142857Y-49261905D01*
X164047619Y-49214286D01*
X164000000Y-49166667D01*
X163952381Y-49071429D01*
X163952381Y-48833333D01*
X164000000Y-48690476D01*
X163952381Y-47785714D02*
X163952381Y-48261905D01*
X164428571Y-48309524D01*
X164380952Y-48261905D01*
X164333333Y-48166667D01*
X164333333Y-47928571D01*
X164380952Y-47833333D01*
X164428571Y-47785714D01*
X164523810Y-47738095D01*
X164761905Y-47738095D01*
X164857143Y-47785714D01*
X164904762Y-47833333D01*
X164952381Y-47928571D01*
X164952381Y-48166667D01*
X164904762Y-48261905D01*
X164857143Y-48309524D01*
X163952381Y-67261905D02*
X164761905Y-67261905D01*
X164857143Y-67214286D01*
X164904762Y-67166667D01*
X164952381Y-67071429D01*
X164952381Y-66880952D01*
X164904762Y-66785714D01*
X164857143Y-66738095D01*
X164761905Y-66690476D01*
X163952381Y-66690476D01*
X164952381Y-65690476D02*
X164952381Y-66261905D01*
X164952381Y-65976191D02*
X163952381Y-65976191D01*
X164095238Y-66071429D01*
X164190476Y-66166667D01*
X164238095Y-66261905D01*
X161738095Y-76952381D02*
X161738095Y-77761905D01*
X161785714Y-77857143D01*
X161833333Y-77904762D01*
X161928571Y-77952381D01*
X162119048Y-77952381D01*
X162214286Y-77904762D01*
X162261905Y-77857143D01*
X162309524Y-77761905D01*
X162309524Y-76952381D01*
X162738095Y-77047619D02*
X162785714Y-77000000D01*
X162880952Y-76952381D01*
X163119048Y-76952381D01*
X163214286Y-77000000D01*
X163261905Y-77047619D01*
X163309524Y-77142857D01*
X163309524Y-77238095D01*
X163261905Y-77380952D01*
X162690476Y-77952381D01*
X163309524Y-77952381D01*
X162538095Y-80952381D02*
X162538095Y-81761905D01*
X162585714Y-81857143D01*
X162633333Y-81904762D01*
X162728571Y-81952381D01*
X162919048Y-81952381D01*
X163014286Y-81904762D01*
X163061905Y-81857143D01*
X163109524Y-81761905D01*
X163109524Y-80952381D01*
X163490476Y-80952381D02*
X164109524Y-80952381D01*
X163776190Y-81333333D01*
X163919048Y-81333333D01*
X164014286Y-81380952D01*
X164061905Y-81428571D01*
X164109524Y-81523810D01*
X164109524Y-81761905D01*
X164061905Y-81857143D01*
X164014286Y-81904762D01*
X163919048Y-81952381D01*
X163633333Y-81952381D01*
X163538095Y-81904762D01*
X163490476Y-81857143D01*
X183952381Y-69761905D02*
X184761905Y-69761905D01*
X184857143Y-69714286D01*
X184904762Y-69666667D01*
X184952381Y-69571429D01*
X184952381Y-69380952D01*
X184904762Y-69285714D01*
X184857143Y-69238095D01*
X184761905Y-69190476D01*
X183952381Y-69190476D01*
X184285714Y-68285714D02*
X184952381Y-68285714D01*
X183904762Y-68523810D02*
X184619048Y-68761905D01*
X184619048Y-68142857D01*
X175238095Y-83452381D02*
X175238095Y-84261905D01*
X175285714Y-84357143D01*
X175333333Y-84404762D01*
X175428571Y-84452381D01*
X175619048Y-84452381D01*
X175714286Y-84404762D01*
X175761905Y-84357143D01*
X175809524Y-84261905D01*
X175809524Y-83452381D01*
X176761905Y-83452381D02*
X176285714Y-83452381D01*
X176238095Y-83928571D01*
X176285714Y-83880952D01*
X176380952Y-83833333D01*
X176619048Y-83833333D01*
X176714286Y-83880952D01*
X176761905Y-83928571D01*
X176809524Y-84023810D01*
X176809524Y-84261905D01*
X176761905Y-84357143D01*
X176714286Y-84404762D01*
X176619048Y-84452381D01*
X176380952Y-84452381D01*
X176285714Y-84404762D01*
X176238095Y-84357143D01*
X174502381Y-59309524D02*
X175502381Y-58642857D01*
X174502381Y-58642857D02*
X175502381Y-59309524D01*
X175502381Y-57738095D02*
X175502381Y-58309524D01*
X175502381Y-58023810D02*
X174502381Y-58023810D01*
X174645238Y-58119048D01*
X174740476Y-58214286D01*
X174788095Y-58309524D01*
X136933334Y-89857143D02*
X136885715Y-89904762D01*
X136742858Y-89952381D01*
X136647620Y-89952381D01*
X136504762Y-89904762D01*
X136409524Y-89809524D01*
X136361905Y-89714286D01*
X136314286Y-89523810D01*
X136314286Y-89380952D01*
X136361905Y-89190476D01*
X136409524Y-89095238D01*
X136504762Y-89000000D01*
X136647620Y-88952381D01*
X136742858Y-88952381D01*
X136885715Y-89000000D01*
X136933334Y-89047619D01*
X137504762Y-89380952D02*
X137409524Y-89333333D01*
X137361905Y-89285714D01*
X137314286Y-89190476D01*
X137314286Y-89142857D01*
X137361905Y-89047619D01*
X137409524Y-89000000D01*
X137504762Y-88952381D01*
X137695239Y-88952381D01*
X137790477Y-89000000D01*
X137838096Y-89047619D01*
X137885715Y-89142857D01*
X137885715Y-89190476D01*
X137838096Y-89285714D01*
X137790477Y-89333333D01*
X137695239Y-89380952D01*
X137504762Y-89380952D01*
X137409524Y-89428571D01*
X137361905Y-89476190D01*
X137314286Y-89571429D01*
X137314286Y-89761905D01*
X137361905Y-89857143D01*
X137409524Y-89904762D01*
X137504762Y-89952381D01*
X137695239Y-89952381D01*
X137790477Y-89904762D01*
X137838096Y-89857143D01*
X137885715Y-89761905D01*
X137885715Y-89571429D01*
X137838096Y-89476190D01*
X137790477Y-89428571D01*
X137695239Y-89380952D01*
X165957143Y-87666666D02*
X166004762Y-87714285D01*
X166052381Y-87857142D01*
X166052381Y-87952380D01*
X166004762Y-88095238D01*
X165909524Y-88190476D01*
X165814286Y-88238095D01*
X165623810Y-88285714D01*
X165480952Y-88285714D01*
X165290476Y-88238095D01*
X165195238Y-88190476D01*
X165100000Y-88095238D01*
X165052381Y-87952380D01*
X165052381Y-87857142D01*
X165100000Y-87714285D01*
X165147619Y-87666666D01*
X166052381Y-87190476D02*
X166052381Y-87000000D01*
X166004762Y-86904761D01*
X165957143Y-86857142D01*
X165814286Y-86761904D01*
X165623810Y-86714285D01*
X165242857Y-86714285D01*
X165147619Y-86761904D01*
X165100000Y-86809523D01*
X165052381Y-86904761D01*
X165052381Y-87095238D01*
X165100000Y-87190476D01*
X165147619Y-87238095D01*
X165242857Y-87285714D01*
X165480952Y-87285714D01*
X165576190Y-87238095D01*
X165623810Y-87190476D01*
X165671429Y-87095238D01*
X165671429Y-86904761D01*
X165623810Y-86809523D01*
X165576190Y-86761904D01*
X165480952Y-86714285D01*
X170157143Y-88142857D02*
X170204762Y-88190476D01*
X170252381Y-88333333D01*
X170252381Y-88428571D01*
X170204762Y-88571429D01*
X170109524Y-88666667D01*
X170014286Y-88714286D01*
X169823810Y-88761905D01*
X169680952Y-88761905D01*
X169490476Y-88714286D01*
X169395238Y-88666667D01*
X169300000Y-88571429D01*
X169252381Y-88428571D01*
X169252381Y-88333333D01*
X169300000Y-88190476D01*
X169347619Y-88142857D01*
X170252381Y-87190476D02*
X170252381Y-87761905D01*
X170252381Y-87476191D02*
X169252381Y-87476191D01*
X169395238Y-87571429D01*
X169490476Y-87666667D01*
X169538095Y-87761905D01*
X169252381Y-86571429D02*
X169252381Y-86476190D01*
X169300000Y-86380952D01*
X169347619Y-86333333D01*
X169442857Y-86285714D01*
X169633333Y-86238095D01*
X169871429Y-86238095D01*
X170061905Y-86285714D01*
X170157143Y-86333333D01*
X170204762Y-86380952D01*
X170252381Y-86476190D01*
X170252381Y-86571429D01*
X170204762Y-86666667D01*
X170157143Y-86714286D01*
X170061905Y-86761905D01*
X169871429Y-86809524D01*
X169633333Y-86809524D01*
X169442857Y-86761905D01*
X169347619Y-86714286D01*
X169300000Y-86666667D01*
X169252381Y-86571429D01*
X155738095Y-83552381D02*
X155738095Y-84361905D01*
X155785714Y-84457143D01*
X155833333Y-84504762D01*
X155928571Y-84552381D01*
X156119048Y-84552381D01*
X156214286Y-84504762D01*
X156261905Y-84457143D01*
X156309524Y-84361905D01*
X156309524Y-83552381D01*
X157214286Y-83552381D02*
X157023809Y-83552381D01*
X156928571Y-83600000D01*
X156880952Y-83647619D01*
X156785714Y-83790476D01*
X156738095Y-83980952D01*
X156738095Y-84361905D01*
X156785714Y-84457143D01*
X156833333Y-84504762D01*
X156928571Y-84552381D01*
X157119048Y-84552381D01*
X157214286Y-84504762D01*
X157261905Y-84457143D01*
X157309524Y-84361905D01*
X157309524Y-84123810D01*
X157261905Y-84028571D01*
X157214286Y-83980952D01*
X157119048Y-83933333D01*
X156928571Y-83933333D01*
X156833333Y-83980952D01*
X156785714Y-84028571D01*
X156738095Y-84123810D01*
X135666667Y-47452381D02*
X135666667Y-48166667D01*
X135619047Y-48309524D01*
X135523809Y-48404762D01*
X135380952Y-48452381D01*
X135285714Y-48452381D01*
X136095238Y-47547619D02*
X136142857Y-47500000D01*
X136238095Y-47452381D01*
X136476191Y-47452381D01*
X136571429Y-47500000D01*
X136619048Y-47547619D01*
X136666667Y-47642857D01*
X136666667Y-47738095D01*
X136619048Y-47880952D01*
X136047619Y-48452381D01*
X136666667Y-48452381D01*
X135666667Y-69952381D02*
X135666667Y-70666667D01*
X135619047Y-70809524D01*
X135523809Y-70904762D01*
X135380952Y-70952381D01*
X135285714Y-70952381D01*
X136666667Y-70952381D02*
X136095238Y-70952381D01*
X136380952Y-70952381D02*
X136380952Y-69952381D01*
X136285714Y-70095238D01*
X136190476Y-70190476D01*
X136095238Y-70238095D01*
X163821429Y-62089286D02*
X164000000Y-62839286D01*
X164142857Y-62303571D01*
X164285715Y-62839286D01*
X164464286Y-62089286D01*
X165142858Y-62839286D02*
X164714286Y-62839286D01*
X164928572Y-62839286D02*
X164928572Y-62089286D01*
X164857143Y-62196429D01*
X164785715Y-62267857D01*
X164714286Y-62303571D01*
X151821429Y-59589286D02*
X152000000Y-60339286D01*
X152142857Y-59803571D01*
X152285715Y-60339286D01*
X152464286Y-59589286D01*
X152714286Y-59660714D02*
X152750000Y-59625000D01*
X152821429Y-59589286D01*
X153000000Y-59589286D01*
X153071429Y-59625000D01*
X153107143Y-59660714D01*
X153142858Y-59732143D01*
X153142858Y-59803571D01*
X153107143Y-59910714D01*
X152678572Y-60339286D01*
X153142858Y-60339286D01*
X151071429Y-70089286D02*
X151250000Y-70839286D01*
X151392857Y-70303571D01*
X151535715Y-70839286D01*
X151714286Y-70089286D01*
X151928572Y-70089286D02*
X152392858Y-70089286D01*
X152142858Y-70375000D01*
X152250000Y-70375000D01*
X152321429Y-70410714D01*
X152357143Y-70446429D01*
X152392858Y-70517857D01*
X152392858Y-70696429D01*
X152357143Y-70767857D01*
X152321429Y-70803571D01*
X152250000Y-70839286D01*
X152035715Y-70839286D01*
X151964286Y-70803571D01*
X151928572Y-70767857D01*
X164071429Y-70089286D02*
X164250000Y-70839286D01*
X164392857Y-70303571D01*
X164535715Y-70839286D01*
X164714286Y-70089286D01*
X165321429Y-70339286D02*
X165321429Y-70839286D01*
X165142858Y-70053571D02*
X164964286Y-70589286D01*
X165428572Y-70589286D01*
X163571429Y-78839286D02*
X163750000Y-79589286D01*
X163892857Y-79053571D01*
X164035715Y-79589286D01*
X164214286Y-78839286D01*
X164857143Y-78839286D02*
X164500000Y-78839286D01*
X164464286Y-79196429D01*
X164500000Y-79160714D01*
X164571429Y-79125000D01*
X164750000Y-79125000D01*
X164821429Y-79160714D01*
X164857143Y-79196429D01*
X164892858Y-79267857D01*
X164892858Y-79446429D01*
X164857143Y-79517857D01*
X164821429Y-79553571D01*
X164750000Y-79589286D01*
X164571429Y-79589286D01*
X164500000Y-79553571D01*
X164464286Y-79517857D01*
X158071429Y-82089286D02*
X158250000Y-82839286D01*
X158392857Y-82303571D01*
X158535715Y-82839286D01*
X158714286Y-82089286D01*
X159321429Y-82089286D02*
X159178572Y-82089286D01*
X159107143Y-82125000D01*
X159071429Y-82160714D01*
X159000000Y-82267857D01*
X158964286Y-82410714D01*
X158964286Y-82696429D01*
X159000000Y-82767857D01*
X159035715Y-82803571D01*
X159107143Y-82839286D01*
X159250000Y-82839286D01*
X159321429Y-82803571D01*
X159357143Y-82767857D01*
X159392858Y-82696429D01*
X159392858Y-82517857D01*
X159357143Y-82446429D01*
X159321429Y-82410714D01*
X159250000Y-82375000D01*
X159107143Y-82375000D01*
X159035715Y-82410714D01*
X159000000Y-82446429D01*
X158964286Y-82517857D01*
M02*
