G04 #@! TF.FileFunction,Legend,Top*
%FSLAX46Y46*%
G04 Gerber Fmt 4.6, Leading zero omitted, Abs format (unit mm)*
G04 Created by KiCad (PCBNEW 4.0.1-stable) date Monday, February 29, 2016 'PMt' 03:54:42 PM*
%MOMM*%
G01*
G04 APERTURE LIST*
%ADD10C,0.020000*%
%ADD11C,0.300000*%
%ADD12C,0.150000*%
G04 APERTURE END LIST*
D10*
D11*
X144823571Y-109195714D02*
X143323571Y-109195714D01*
X144395000Y-108695714D01*
X143323571Y-108195714D01*
X144823571Y-108195714D01*
X144752143Y-107552857D02*
X144823571Y-107338571D01*
X144823571Y-106981428D01*
X144752143Y-106838571D01*
X144680714Y-106767142D01*
X144537857Y-106695714D01*
X144395000Y-106695714D01*
X144252143Y-106767142D01*
X144180714Y-106838571D01*
X144109286Y-106981428D01*
X144037857Y-107267142D01*
X143966429Y-107410000D01*
X143895000Y-107481428D01*
X143752143Y-107552857D01*
X143609286Y-107552857D01*
X143466429Y-107481428D01*
X143395000Y-107410000D01*
X143323571Y-107267142D01*
X143323571Y-106910000D01*
X143395000Y-106695714D01*
X144823571Y-106052857D02*
X143323571Y-106052857D01*
X143323571Y-105481429D01*
X143395000Y-105338571D01*
X143466429Y-105267143D01*
X143609286Y-105195714D01*
X143823571Y-105195714D01*
X143966429Y-105267143D01*
X144037857Y-105338571D01*
X144109286Y-105481429D01*
X144109286Y-106052857D01*
X144752143Y-104624286D02*
X144823571Y-104410000D01*
X144823571Y-104052857D01*
X144752143Y-103910000D01*
X144680714Y-103838571D01*
X144537857Y-103767143D01*
X144395000Y-103767143D01*
X144252143Y-103838571D01*
X144180714Y-103910000D01*
X144109286Y-104052857D01*
X144037857Y-104338571D01*
X143966429Y-104481429D01*
X143895000Y-104552857D01*
X143752143Y-104624286D01*
X143609286Y-104624286D01*
X143466429Y-104552857D01*
X143395000Y-104481429D01*
X143323571Y-104338571D01*
X143323571Y-103981429D01*
X143395000Y-103767143D01*
X144680714Y-102267143D02*
X144752143Y-102338572D01*
X144823571Y-102552858D01*
X144823571Y-102695715D01*
X144752143Y-102910000D01*
X144609286Y-103052858D01*
X144466429Y-103124286D01*
X144180714Y-103195715D01*
X143966429Y-103195715D01*
X143680714Y-103124286D01*
X143537857Y-103052858D01*
X143395000Y-102910000D01*
X143323571Y-102695715D01*
X143323571Y-102552858D01*
X143395000Y-102338572D01*
X143466429Y-102267143D01*
X144823571Y-101624286D02*
X143323571Y-101624286D01*
X153642143Y-109374286D02*
X153713571Y-109160000D01*
X153713571Y-108802857D01*
X153642143Y-108660000D01*
X153570714Y-108588571D01*
X153427857Y-108517143D01*
X153285000Y-108517143D01*
X153142143Y-108588571D01*
X153070714Y-108660000D01*
X152999286Y-108802857D01*
X152927857Y-109088571D01*
X152856429Y-109231429D01*
X152785000Y-109302857D01*
X152642143Y-109374286D01*
X152499286Y-109374286D01*
X152356429Y-109302857D01*
X152285000Y-109231429D01*
X152213571Y-109088571D01*
X152213571Y-108731429D01*
X152285000Y-108517143D01*
X152213571Y-107588572D02*
X152213571Y-107302858D01*
X152285000Y-107160000D01*
X152427857Y-107017143D01*
X152713571Y-106945715D01*
X153213571Y-106945715D01*
X153499286Y-107017143D01*
X153642143Y-107160000D01*
X153713571Y-107302858D01*
X153713571Y-107588572D01*
X153642143Y-107731429D01*
X153499286Y-107874286D01*
X153213571Y-107945715D01*
X152713571Y-107945715D01*
X152427857Y-107874286D01*
X152285000Y-107731429D01*
X152213571Y-107588572D01*
X153713571Y-106302857D02*
X152213571Y-106302857D01*
X153570714Y-104731428D02*
X153642143Y-104802857D01*
X153713571Y-105017143D01*
X153713571Y-105160000D01*
X153642143Y-105374285D01*
X153499286Y-105517143D01*
X153356429Y-105588571D01*
X153070714Y-105660000D01*
X152856429Y-105660000D01*
X152570714Y-105588571D01*
X152427857Y-105517143D01*
X152285000Y-105374285D01*
X152213571Y-105160000D01*
X152213571Y-105017143D01*
X152285000Y-104802857D01*
X152356429Y-104731428D01*
X153142143Y-104088571D02*
X153142143Y-102945714D01*
X152856429Y-102017142D02*
X152785000Y-102160000D01*
X152713571Y-102231428D01*
X152570714Y-102302857D01*
X152499286Y-102302857D01*
X152356429Y-102231428D01*
X152285000Y-102160000D01*
X152213571Y-102017142D01*
X152213571Y-101731428D01*
X152285000Y-101588571D01*
X152356429Y-101517142D01*
X152499286Y-101445714D01*
X152570714Y-101445714D01*
X152713571Y-101517142D01*
X152785000Y-101588571D01*
X152856429Y-101731428D01*
X152856429Y-102017142D01*
X152927857Y-102160000D01*
X152999286Y-102231428D01*
X153142143Y-102302857D01*
X153427857Y-102302857D01*
X153570714Y-102231428D01*
X153642143Y-102160000D01*
X153713571Y-102017142D01*
X153713571Y-101731428D01*
X153642143Y-101588571D01*
X153570714Y-101517142D01*
X153427857Y-101445714D01*
X153142143Y-101445714D01*
X152999286Y-101517142D01*
X152927857Y-101588571D01*
X152856429Y-101731428D01*
D12*
X146050000Y-113030000D02*
X153670000Y-113030000D01*
X146050000Y-110490000D02*
X153670000Y-110490000D01*
X143230000Y-110210000D02*
X144780000Y-110210000D01*
X153670000Y-113030000D02*
X153670000Y-110490000D01*
X146050000Y-110490000D02*
X146050000Y-113030000D01*
X144780000Y-113310000D02*
X143230000Y-113310000D01*
X143230000Y-113310000D02*
X143230000Y-110210000D01*
X151130000Y-97790000D02*
X143510000Y-97790000D01*
X151130000Y-100330000D02*
X143510000Y-100330000D01*
X153950000Y-100610000D02*
X152400000Y-100610000D01*
X143510000Y-97790000D02*
X143510000Y-100330000D01*
X151130000Y-100330000D02*
X151130000Y-97790000D01*
X152400000Y-97510000D02*
X153950000Y-97510000D01*
X153950000Y-97510000D02*
X153950000Y-100610000D01*
X146050000Y-103124000D02*
X151130000Y-103124000D01*
X151130000Y-103124000D02*
X151130000Y-107696000D01*
X151130000Y-107696000D02*
X146050000Y-107696000D01*
X146050000Y-107696000D02*
X146050000Y-103124000D01*
X146050000Y-104648000D02*
X146558000Y-104648000D01*
X146558000Y-104648000D02*
X146558000Y-105918000D01*
X146558000Y-105918000D02*
X146050000Y-105918000D01*
M02*
