G04 #@! TF.FileFunction,Soldermask,Bot*
%FSLAX46Y46*%
G04 Gerber Fmt 4.6, Leading zero omitted, Abs format (unit mm)*
G04 Created by KiCad (PCBNEW 4.0.1-stable) date Tuesday, May 03, 2016 'AMt' 11:53:51 AM*
%MOMM*%
G01*
G04 APERTURE LIST*
%ADD10C,0.150000*%
%ADD11C,2.099260*%
%ADD12R,2.099260X2.099260*%
%ADD13R,2.400000X2.300000*%
%ADD14C,2.300000*%
%ADD15R,2.432000X2.127200*%
%ADD16O,2.432000X2.127200*%
%ADD17C,1.400760*%
%ADD18C,2.398980*%
%ADD19R,2.127200X2.432000*%
%ADD20O,2.127200X2.432000*%
%ADD21C,2.800000*%
%ADD22C,1.400000*%
G04 APERTURE END LIST*
D10*
D11*
X175502540Y-91660520D03*
D12*
X175502540Y-81500520D03*
D13*
X182500000Y-87850000D03*
D14*
X182500000Y-85310000D03*
D13*
X223680000Y-87850000D03*
D14*
X223680000Y-85310000D03*
D15*
X261500000Y-61000000D03*
D16*
X261500000Y-63540000D03*
X261500000Y-66080000D03*
X261500000Y-68620000D03*
D15*
X168000000Y-54000000D03*
D16*
X168000000Y-56540000D03*
X168000000Y-59080000D03*
X168000000Y-61620000D03*
X168000000Y-64160000D03*
X168000000Y-66700000D03*
X168000000Y-69240000D03*
X168000000Y-71780000D03*
D17*
X247750700Y-59000000D03*
X249249300Y-59000000D03*
D18*
X168000000Y-91580000D03*
X168000000Y-81420000D03*
X231500000Y-81420000D03*
X231500000Y-91580000D03*
X241500000Y-81420000D03*
X241500000Y-91580000D03*
X258080000Y-95500000D03*
X247920000Y-95500000D03*
D19*
X184000000Y-98000000D03*
D20*
X186540000Y-98000000D03*
X189080000Y-98000000D03*
X191620000Y-98000000D03*
D19*
X184000000Y-47000000D03*
D20*
X186540000Y-47000000D03*
X189080000Y-47000000D03*
X191620000Y-47000000D03*
D21*
X259755000Y-49370000D03*
X259755000Y-54450000D03*
X256580000Y-49370000D03*
X256580000Y-54450000D03*
D22*
X261660000Y-50894000D03*
X261660000Y-52926000D03*
X256580000Y-51910000D03*
X256580000Y-51910000D03*
X261660000Y-52926000D03*
X261660000Y-50894000D03*
D21*
X256580000Y-54450000D03*
X256580000Y-49370000D03*
X259755000Y-54450000D03*
X259755000Y-49370000D03*
M02*
