M48
;DRILL file {KiCad 4.0.1-stable} date Tuesday, May 03, 2016 'AMt' 11:54:00 AM
;FORMAT={-:-/ absolute / inch / decimal}
FMAT,2
INCH,TZ
T1C0.012
T2C0.024
T3C0.028
T4C0.039
T5C0.039
T6C0.040
T7C0.094
%
G90
G05
M72
T1
X7.0079Y-2.3819
X7.2244Y-2.7165
X7.2244Y-2.874
X7.2638Y-2.7165
X7.2638Y-2.874
X7.3031Y-2.7165
X7.3031Y-2.874
X7.6378Y-2.8543
X7.8543Y-3.622
X7.8543Y-3.7402
X7.8937Y-3.622
X7.8937Y-3.7402
X7.9331Y-3.622
X7.9331Y-3.7402
X8.1299Y-2.7362
X8.1693Y-2.0472
X8.3465Y-2.2244
X8.4843Y-2.8937
X8.622Y-2.4606
X8.622Y-2.5591
X8.622Y-2.6575
X8.6614Y-2.4606
X8.6614Y-2.5591
X8.6614Y-2.6575
X8.7008Y-2.4606
X8.7008Y-2.5591
X8.7008Y-2.6575
X8.7008Y-2.7362
X8.878Y-2.2047
X8.878Y-2.2441
X8.878Y-2.2835
X8.8976Y-2.8543
X9.0748Y-2.2047
X9.0748Y-2.2441
X9.0748Y-2.2835
X9.0748Y-2.5591
X9.2323Y-2.3425
X9.2323Y-2.4606
X9.2717Y-2.3425
X9.2717Y-2.4606
X9.2913Y-2.815
X9.311Y-2.3425
X9.311Y-2.4606
X9.3504Y-2.6575
X9.3504Y-2.7559
X9.4488Y-2.0079
X9.5669Y-2.6575
X9.6063Y-3.622
X9.6063Y-3.7402
X9.626Y-2.8543
X9.6457Y-3.622
X9.6457Y-3.7402
X9.685Y-3.622
X9.685Y-3.7402
X9.7047Y-2.3425
X9.7047Y-2.3819
X9.7638Y-2.6969
X9.7638Y-2.7362
X9.7835Y-2.7559
X9.8425Y-2.7362
X9.8622Y-2.3425
X9.8622Y-2.3819
X9.9016Y-2.4803
X9.9016Y-2.5394
X9.9606Y-2.3819
X10.0197Y-2.0079
X10.0787Y-2.4803
X10.2362Y-3.563
X10.2756Y-3.622
X10.3337Y-2.1457
T2
X9.754Y-2.3228
X9.813Y-2.3228
T3
X6.9095Y-3.2087
X6.9095Y-3.6087
T4
X10.1016Y-2.0437
X10.1016Y-2.0437
X10.3016Y-2.0037
X10.3016Y-2.0037
X10.3016Y-2.0837
X10.3016Y-2.0837
T5
X6.6142Y-3.2055
X6.6142Y-3.6055
X7.185Y-3.3587
X7.185Y-3.4587
X8.8063Y-3.3587
X8.8063Y-3.4587
X9.1142Y-3.2055
X9.1142Y-3.6055
X9.5079Y-3.2055
X9.5079Y-3.6055
X9.7606Y-3.7598
X10.1606Y-3.7598
T6
X6.6142Y-2.126
X6.6142Y-2.226
X6.6142Y-2.326
X6.6142Y-2.426
X6.6142Y-2.526
X6.6142Y-2.626
X6.6142Y-2.726
X6.6142Y-2.826
X7.2441Y-1.8504
X7.2441Y-3.8583
X7.3441Y-1.8504
X7.3441Y-3.8583
X7.4441Y-1.8504
X7.4441Y-3.8583
X7.5441Y-1.8504
X7.5441Y-3.8583
X10.2953Y-2.4016
X10.2953Y-2.5016
X10.2953Y-2.6016
X10.2953Y-2.7016
T7
X10.1016Y-1.9437
X10.1016Y-1.9437
X10.1016Y-2.1437
X10.1016Y-2.1437
X10.2266Y-1.9437
X10.2266Y-1.9437
X10.2266Y-2.1437
X10.2266Y-2.1437
T0
M30
