G04 #@! TF.FileFunction,Legend,Top*
%FSLAX46Y46*%
G04 Gerber Fmt 4.6, Leading zero omitted, Abs format (unit mm)*
G04 Created by KiCad (PCBNEW 4.0.1-stable) date Tuesday, May 03, 2016 'AMt' 11:53:51 AM*
%MOMM*%
G01*
G04 APERTURE LIST*
%ADD10C,0.150000*%
%ADD11C,0.300000*%
%ADD12C,0.250000*%
G04 APERTURE END LIST*
D10*
D11*
X214785714Y-95978571D02*
X214785714Y-94478571D01*
X215142857Y-94478571D01*
X215357142Y-94550000D01*
X215500000Y-94692857D01*
X215571428Y-94835714D01*
X215642857Y-95121429D01*
X215642857Y-95335714D01*
X215571428Y-95621429D01*
X215500000Y-95764286D01*
X215357142Y-95907143D01*
X215142857Y-95978571D01*
X214785714Y-95978571D01*
X216285714Y-95978571D02*
X216285714Y-94978571D01*
X216285714Y-95264286D02*
X216357142Y-95121429D01*
X216428571Y-95050000D01*
X216571428Y-94978571D01*
X216714285Y-94978571D01*
X217214285Y-95835714D02*
X217285713Y-95907143D01*
X217214285Y-95978571D01*
X217142856Y-95907143D01*
X217214285Y-95835714D01*
X217214285Y-95978571D01*
X219071428Y-95978571D02*
X219071428Y-94478571D01*
X219428571Y-94478571D01*
X219642856Y-94550000D01*
X219785714Y-94692857D01*
X219857142Y-94835714D01*
X219928571Y-95121429D01*
X219928571Y-95335714D01*
X219857142Y-95621429D01*
X219785714Y-95764286D01*
X219642856Y-95907143D01*
X219428571Y-95978571D01*
X219071428Y-95978571D01*
X221214285Y-95978571D02*
X221214285Y-95192857D01*
X221142856Y-95050000D01*
X220999999Y-94978571D01*
X220714285Y-94978571D01*
X220571428Y-95050000D01*
X221214285Y-95907143D02*
X221071428Y-95978571D01*
X220714285Y-95978571D01*
X220571428Y-95907143D01*
X220499999Y-95764286D01*
X220499999Y-95621429D01*
X220571428Y-95478571D01*
X220714285Y-95407143D01*
X221071428Y-95407143D01*
X221214285Y-95335714D01*
X221785714Y-94978571D02*
X222142857Y-95978571D01*
X222499999Y-94978571D01*
X223071428Y-95978571D02*
X223071428Y-94978571D01*
X223071428Y-94478571D02*
X222999999Y-94550000D01*
X223071428Y-94621429D01*
X223142856Y-94550000D01*
X223071428Y-94478571D01*
X223071428Y-94621429D01*
X224428571Y-95978571D02*
X224428571Y-94478571D01*
X224428571Y-95907143D02*
X224285714Y-95978571D01*
X224000000Y-95978571D01*
X223857142Y-95907143D01*
X223785714Y-95835714D01*
X223714285Y-95692857D01*
X223714285Y-95264286D01*
X223785714Y-95121429D01*
X223857142Y-95050000D01*
X224000000Y-94978571D01*
X224285714Y-94978571D01*
X224428571Y-95050000D01*
X226285714Y-95978571D02*
X226285714Y-94478571D01*
X227142857Y-95978571D02*
X226500000Y-95121429D01*
X227142857Y-94478571D02*
X226285714Y-95335714D01*
X227785714Y-95835714D02*
X227857142Y-95907143D01*
X227785714Y-95978571D01*
X227714285Y-95907143D01*
X227785714Y-95835714D01*
X227785714Y-95978571D01*
X229928571Y-94478571D02*
X230214285Y-94478571D01*
X230357143Y-94550000D01*
X230500000Y-94692857D01*
X230571428Y-94978571D01*
X230571428Y-95478571D01*
X230500000Y-95764286D01*
X230357143Y-95907143D01*
X230214285Y-95978571D01*
X229928571Y-95978571D01*
X229785714Y-95907143D01*
X229642857Y-95764286D01*
X229571428Y-95478571D01*
X229571428Y-94978571D01*
X229642857Y-94692857D01*
X229785714Y-94550000D01*
X229928571Y-94478571D01*
X231428572Y-95978571D02*
X231285714Y-95907143D01*
X231214286Y-95764286D01*
X231214286Y-94478571D01*
X231928571Y-95907143D02*
X232071428Y-95978571D01*
X232357143Y-95978571D01*
X232500000Y-95907143D01*
X232571428Y-95764286D01*
X232571428Y-95692857D01*
X232500000Y-95550000D01*
X232357143Y-95478571D01*
X232142857Y-95478571D01*
X232000000Y-95407143D01*
X231928571Y-95264286D01*
X231928571Y-95192857D01*
X232000000Y-95050000D01*
X232142857Y-94978571D01*
X232357143Y-94978571D01*
X232500000Y-95050000D01*
X233428572Y-95978571D02*
X233285714Y-95907143D01*
X233214286Y-95835714D01*
X233142857Y-95692857D01*
X233142857Y-95264286D01*
X233214286Y-95121429D01*
X233285714Y-95050000D01*
X233428572Y-94978571D01*
X233642857Y-94978571D01*
X233785714Y-95050000D01*
X233857143Y-95121429D01*
X233928572Y-95264286D01*
X233928572Y-95692857D01*
X233857143Y-95835714D01*
X233785714Y-95907143D01*
X233642857Y-95978571D01*
X233428572Y-95978571D01*
X234571429Y-94978571D02*
X234571429Y-95978571D01*
X234571429Y-95121429D02*
X234642857Y-95050000D01*
X234785715Y-94978571D01*
X235000000Y-94978571D01*
X235142857Y-95050000D01*
X235214286Y-95192857D01*
X235214286Y-95978571D01*
X218392859Y-96878571D02*
X219321430Y-96878571D01*
X218821430Y-97450000D01*
X219035716Y-97450000D01*
X219178573Y-97521429D01*
X219250002Y-97592857D01*
X219321430Y-97735714D01*
X219321430Y-98092857D01*
X219250002Y-98235714D01*
X219178573Y-98307143D01*
X219035716Y-98378571D01*
X218607144Y-98378571D01*
X218464287Y-98307143D01*
X218392859Y-98235714D01*
X221107144Y-98378571D02*
X221107144Y-96878571D01*
X221607144Y-97950000D01*
X222107144Y-96878571D01*
X222107144Y-98378571D01*
X223464287Y-98378571D02*
X223464287Y-97592857D01*
X223392858Y-97450000D01*
X223250001Y-97378571D01*
X222964287Y-97378571D01*
X222821430Y-97450000D01*
X223464287Y-98307143D02*
X223321430Y-98378571D01*
X222964287Y-98378571D01*
X222821430Y-98307143D01*
X222750001Y-98164286D01*
X222750001Y-98021429D01*
X222821430Y-97878571D01*
X222964287Y-97807143D01*
X223321430Y-97807143D01*
X223464287Y-97735714D01*
X224035716Y-97378571D02*
X224392859Y-98378571D01*
X224750001Y-97378571D02*
X224392859Y-98378571D01*
X224250001Y-98735714D01*
X224178573Y-98807143D01*
X224035716Y-98878571D01*
X226392858Y-97021429D02*
X226464287Y-96950000D01*
X226607144Y-96878571D01*
X226964287Y-96878571D01*
X227107144Y-96950000D01*
X227178573Y-97021429D01*
X227250001Y-97164286D01*
X227250001Y-97307143D01*
X227178573Y-97521429D01*
X226321430Y-98378571D01*
X227250001Y-98378571D01*
X228178572Y-96878571D02*
X228321429Y-96878571D01*
X228464286Y-96950000D01*
X228535715Y-97021429D01*
X228607144Y-97164286D01*
X228678572Y-97450000D01*
X228678572Y-97807143D01*
X228607144Y-98092857D01*
X228535715Y-98235714D01*
X228464286Y-98307143D01*
X228321429Y-98378571D01*
X228178572Y-98378571D01*
X228035715Y-98307143D01*
X227964286Y-98235714D01*
X227892858Y-98092857D01*
X227821429Y-97807143D01*
X227821429Y-97450000D01*
X227892858Y-97164286D01*
X227964286Y-97021429D01*
X228035715Y-96950000D01*
X228178572Y-96878571D01*
X230107143Y-98378571D02*
X229250000Y-98378571D01*
X229678572Y-98378571D02*
X229678572Y-96878571D01*
X229535715Y-97092857D01*
X229392857Y-97235714D01*
X229250000Y-97307143D01*
X231392857Y-96878571D02*
X231107143Y-96878571D01*
X230964286Y-96950000D01*
X230892857Y-97021429D01*
X230750000Y-97235714D01*
X230678571Y-97521429D01*
X230678571Y-98092857D01*
X230750000Y-98235714D01*
X230821428Y-98307143D01*
X230964286Y-98378571D01*
X231250000Y-98378571D01*
X231392857Y-98307143D01*
X231464286Y-98235714D01*
X231535714Y-98092857D01*
X231535714Y-97735714D01*
X231464286Y-97592857D01*
X231392857Y-97521429D01*
X231250000Y-97450000D01*
X230964286Y-97450000D01*
X230821428Y-97521429D01*
X230750000Y-97592857D01*
X230678571Y-97735714D01*
X215500001Y-48478571D02*
X214785715Y-48478571D01*
X214785715Y-46978571D01*
X216000001Y-47692857D02*
X216500001Y-47692857D01*
X216714287Y-48478571D02*
X216000001Y-48478571D01*
X216000001Y-46978571D01*
X216714287Y-46978571D01*
X217357144Y-48478571D02*
X217357144Y-46978571D01*
X217714287Y-46978571D01*
X217928572Y-47050000D01*
X218071430Y-47192857D01*
X218142858Y-47335714D01*
X218214287Y-47621429D01*
X218214287Y-47835714D01*
X218142858Y-48121429D01*
X218071430Y-48264286D01*
X217928572Y-48407143D01*
X217714287Y-48478571D01*
X217357144Y-48478571D01*
X220857144Y-48335714D02*
X220785715Y-48407143D01*
X220571429Y-48478571D01*
X220428572Y-48478571D01*
X220214287Y-48407143D01*
X220071429Y-48264286D01*
X220000001Y-48121429D01*
X219928572Y-47835714D01*
X219928572Y-47621429D01*
X220000001Y-47335714D01*
X220071429Y-47192857D01*
X220214287Y-47050000D01*
X220428572Y-46978571D01*
X220571429Y-46978571D01*
X220785715Y-47050000D01*
X220857144Y-47121429D01*
X222142858Y-47478571D02*
X222142858Y-48478571D01*
X221500001Y-47478571D02*
X221500001Y-48264286D01*
X221571429Y-48407143D01*
X221714287Y-48478571D01*
X221928572Y-48478571D01*
X222071429Y-48407143D01*
X222142858Y-48335714D01*
X222857144Y-48478571D02*
X222857144Y-47478571D01*
X222857144Y-47764286D02*
X222928572Y-47621429D01*
X223000001Y-47550000D01*
X223142858Y-47478571D01*
X223285715Y-47478571D01*
X223785715Y-48478571D02*
X223785715Y-47478571D01*
X223785715Y-47764286D02*
X223857143Y-47621429D01*
X223928572Y-47550000D01*
X224071429Y-47478571D01*
X224214286Y-47478571D01*
X225285714Y-48407143D02*
X225142857Y-48478571D01*
X224857143Y-48478571D01*
X224714286Y-48407143D01*
X224642857Y-48264286D01*
X224642857Y-47692857D01*
X224714286Y-47550000D01*
X224857143Y-47478571D01*
X225142857Y-47478571D01*
X225285714Y-47550000D01*
X225357143Y-47692857D01*
X225357143Y-47835714D01*
X224642857Y-47978571D01*
X226000000Y-47478571D02*
X226000000Y-48478571D01*
X226000000Y-47621429D02*
X226071428Y-47550000D01*
X226214286Y-47478571D01*
X226428571Y-47478571D01*
X226571428Y-47550000D01*
X226642857Y-47692857D01*
X226642857Y-48478571D01*
X227142857Y-47478571D02*
X227714286Y-47478571D01*
X227357143Y-46978571D02*
X227357143Y-48264286D01*
X227428571Y-48407143D01*
X227571429Y-48478571D01*
X227714286Y-48478571D01*
X229285714Y-48407143D02*
X229500000Y-48478571D01*
X229857143Y-48478571D01*
X230000000Y-48407143D01*
X230071429Y-48335714D01*
X230142857Y-48192857D01*
X230142857Y-48050000D01*
X230071429Y-47907143D01*
X230000000Y-47835714D01*
X229857143Y-47764286D01*
X229571429Y-47692857D01*
X229428571Y-47621429D01*
X229357143Y-47550000D01*
X229285714Y-47407143D01*
X229285714Y-47264286D01*
X229357143Y-47121429D01*
X229428571Y-47050000D01*
X229571429Y-46978571D01*
X229928571Y-46978571D01*
X230142857Y-47050000D01*
X231357142Y-48407143D02*
X231214285Y-48478571D01*
X230928571Y-48478571D01*
X230785714Y-48407143D01*
X230714285Y-48264286D01*
X230714285Y-47692857D01*
X230785714Y-47550000D01*
X230928571Y-47478571D01*
X231214285Y-47478571D01*
X231357142Y-47550000D01*
X231428571Y-47692857D01*
X231428571Y-47835714D01*
X230714285Y-47978571D01*
X232071428Y-47478571D02*
X232071428Y-48478571D01*
X232071428Y-47621429D02*
X232142856Y-47550000D01*
X232285714Y-47478571D01*
X232499999Y-47478571D01*
X232642856Y-47550000D01*
X232714285Y-47692857D01*
X232714285Y-48478571D01*
X233357142Y-48407143D02*
X233499999Y-48478571D01*
X233785714Y-48478571D01*
X233928571Y-48407143D01*
X233999999Y-48264286D01*
X233999999Y-48192857D01*
X233928571Y-48050000D01*
X233785714Y-47978571D01*
X233571428Y-47978571D01*
X233428571Y-47907143D01*
X233357142Y-47764286D01*
X233357142Y-47692857D01*
X233428571Y-47550000D01*
X233571428Y-47478571D01*
X233785714Y-47478571D01*
X233928571Y-47550000D01*
X235214285Y-48407143D02*
X235071428Y-48478571D01*
X234785714Y-48478571D01*
X234642857Y-48407143D01*
X234571428Y-48264286D01*
X234571428Y-47692857D01*
X234642857Y-47550000D01*
X234785714Y-47478571D01*
X235071428Y-47478571D01*
X235214285Y-47550000D01*
X235285714Y-47692857D01*
X235285714Y-47835714D01*
X234571428Y-47978571D01*
X215714286Y-50092857D02*
X216214286Y-50092857D01*
X216428572Y-50878571D02*
X215714286Y-50878571D01*
X215714286Y-49378571D01*
X216428572Y-49378571D01*
X216928572Y-49878571D02*
X217285715Y-50878571D01*
X217642857Y-49878571D01*
X218857143Y-50878571D02*
X218857143Y-50092857D01*
X218785714Y-49950000D01*
X218642857Y-49878571D01*
X218357143Y-49878571D01*
X218214286Y-49950000D01*
X218857143Y-50807143D02*
X218714286Y-50878571D01*
X218357143Y-50878571D01*
X218214286Y-50807143D01*
X218142857Y-50664286D01*
X218142857Y-50521429D01*
X218214286Y-50378571D01*
X218357143Y-50307143D01*
X218714286Y-50307143D01*
X218857143Y-50235714D01*
X219785715Y-50878571D02*
X219642857Y-50807143D01*
X219571429Y-50664286D01*
X219571429Y-49378571D01*
X221000000Y-49878571D02*
X221000000Y-50878571D01*
X220357143Y-49878571D02*
X220357143Y-50664286D01*
X220428571Y-50807143D01*
X220571429Y-50878571D01*
X220785714Y-50878571D01*
X220928571Y-50807143D01*
X221000000Y-50735714D01*
X222357143Y-50878571D02*
X222357143Y-50092857D01*
X222285714Y-49950000D01*
X222142857Y-49878571D01*
X221857143Y-49878571D01*
X221714286Y-49950000D01*
X222357143Y-50807143D02*
X222214286Y-50878571D01*
X221857143Y-50878571D01*
X221714286Y-50807143D01*
X221642857Y-50664286D01*
X221642857Y-50521429D01*
X221714286Y-50378571D01*
X221857143Y-50307143D01*
X222214286Y-50307143D01*
X222357143Y-50235714D01*
X222857143Y-49878571D02*
X223428572Y-49878571D01*
X223071429Y-49378571D02*
X223071429Y-50664286D01*
X223142857Y-50807143D01*
X223285715Y-50878571D01*
X223428572Y-50878571D01*
X223928572Y-50878571D02*
X223928572Y-49878571D01*
X223928572Y-49378571D02*
X223857143Y-49450000D01*
X223928572Y-49521429D01*
X224000000Y-49450000D01*
X223928572Y-49378571D01*
X223928572Y-49521429D01*
X224857144Y-50878571D02*
X224714286Y-50807143D01*
X224642858Y-50735714D01*
X224571429Y-50592857D01*
X224571429Y-50164286D01*
X224642858Y-50021429D01*
X224714286Y-49950000D01*
X224857144Y-49878571D01*
X225071429Y-49878571D01*
X225214286Y-49950000D01*
X225285715Y-50021429D01*
X225357144Y-50164286D01*
X225357144Y-50592857D01*
X225285715Y-50735714D01*
X225214286Y-50807143D01*
X225071429Y-50878571D01*
X224857144Y-50878571D01*
X226000001Y-49878571D02*
X226000001Y-50878571D01*
X226000001Y-50021429D02*
X226071429Y-49950000D01*
X226214287Y-49878571D01*
X226428572Y-49878571D01*
X226571429Y-49950000D01*
X226642858Y-50092857D01*
X226642858Y-50878571D01*
X229000001Y-50092857D02*
X229214287Y-50164286D01*
X229285715Y-50235714D01*
X229357144Y-50378571D01*
X229357144Y-50592857D01*
X229285715Y-50735714D01*
X229214287Y-50807143D01*
X229071429Y-50878571D01*
X228500001Y-50878571D01*
X228500001Y-49378571D01*
X229000001Y-49378571D01*
X229142858Y-49450000D01*
X229214287Y-49521429D01*
X229285715Y-49664286D01*
X229285715Y-49807143D01*
X229214287Y-49950000D01*
X229142858Y-50021429D01*
X229000001Y-50092857D01*
X228500001Y-50092857D01*
X230214287Y-50878571D02*
X230071429Y-50807143D01*
X230000001Y-50735714D01*
X229928572Y-50592857D01*
X229928572Y-50164286D01*
X230000001Y-50021429D01*
X230071429Y-49950000D01*
X230214287Y-49878571D01*
X230428572Y-49878571D01*
X230571429Y-49950000D01*
X230642858Y-50021429D01*
X230714287Y-50164286D01*
X230714287Y-50592857D01*
X230642858Y-50735714D01*
X230571429Y-50807143D01*
X230428572Y-50878571D01*
X230214287Y-50878571D01*
X232000001Y-50878571D02*
X232000001Y-50092857D01*
X231928572Y-49950000D01*
X231785715Y-49878571D01*
X231500001Y-49878571D01*
X231357144Y-49950000D01*
X232000001Y-50807143D02*
X231857144Y-50878571D01*
X231500001Y-50878571D01*
X231357144Y-50807143D01*
X231285715Y-50664286D01*
X231285715Y-50521429D01*
X231357144Y-50378571D01*
X231500001Y-50307143D01*
X231857144Y-50307143D01*
X232000001Y-50235714D01*
X232714287Y-50878571D02*
X232714287Y-49878571D01*
X232714287Y-50164286D02*
X232785715Y-50021429D01*
X232857144Y-49950000D01*
X233000001Y-49878571D01*
X233142858Y-49878571D01*
X234285715Y-50878571D02*
X234285715Y-49378571D01*
X234285715Y-50807143D02*
X234142858Y-50878571D01*
X233857144Y-50878571D01*
X233714286Y-50807143D01*
X233642858Y-50735714D01*
X233571429Y-50592857D01*
X233571429Y-50164286D01*
X233642858Y-50021429D01*
X233714286Y-49950000D01*
X233857144Y-49878571D01*
X234142858Y-49878571D01*
X234285715Y-49950000D01*
D12*
X251871430Y-83078571D02*
X252014287Y-83078571D01*
X252157144Y-83150000D01*
X252228573Y-83221429D01*
X252300002Y-83364286D01*
X252371430Y-83650000D01*
X252371430Y-84007143D01*
X252300002Y-84292857D01*
X252228573Y-84435714D01*
X252157144Y-84507143D01*
X252014287Y-84578571D01*
X251871430Y-84578571D01*
X251728573Y-84507143D01*
X251657144Y-84435714D01*
X251585716Y-84292857D01*
X251514287Y-84007143D01*
X251514287Y-83650000D01*
X251585716Y-83364286D01*
X251657144Y-83221429D01*
X251728573Y-83150000D01*
X251871430Y-83078571D01*
X254942858Y-84578571D02*
X254085715Y-84578571D01*
X254514287Y-84578571D02*
X254514287Y-83078571D01*
X254371430Y-83292857D01*
X254228572Y-83435714D01*
X254085715Y-83507143D01*
X256657143Y-83221429D02*
X256728572Y-83150000D01*
X256871429Y-83078571D01*
X257228572Y-83078571D01*
X257371429Y-83150000D01*
X257442858Y-83221429D01*
X257514286Y-83364286D01*
X257514286Y-83507143D01*
X257442858Y-83721429D01*
X256585715Y-84578571D01*
X257514286Y-84578571D01*
X259157143Y-83078571D02*
X260085714Y-83078571D01*
X259585714Y-83650000D01*
X259800000Y-83650000D01*
X259942857Y-83721429D01*
X260014286Y-83792857D01*
X260085714Y-83935714D01*
X260085714Y-84292857D01*
X260014286Y-84435714D01*
X259942857Y-84507143D01*
X259800000Y-84578571D01*
X259371428Y-84578571D01*
X259228571Y-84507143D01*
X259157143Y-84435714D01*
X255557143Y-60256429D02*
X256242857Y-60256429D01*
X255900000Y-61906429D02*
X255900000Y-60256429D01*
X256642857Y-61042143D02*
X257042857Y-61042143D01*
X257214286Y-61906429D02*
X256642857Y-61906429D01*
X256642857Y-60256429D01*
X257214286Y-60256429D01*
X257671428Y-61827857D02*
X257842857Y-61906429D01*
X258128571Y-61906429D01*
X258242857Y-61827857D01*
X258300000Y-61749286D01*
X258357143Y-61592143D01*
X258357143Y-61435000D01*
X258300000Y-61277857D01*
X258242857Y-61199286D01*
X258128571Y-61120714D01*
X257900000Y-61042143D01*
X257785714Y-60963571D01*
X257728571Y-60885000D01*
X257671428Y-60727857D01*
X257671428Y-60570714D01*
X257728571Y-60413571D01*
X257785714Y-60335000D01*
X257900000Y-60256429D01*
X258185714Y-60256429D01*
X258357143Y-60335000D01*
X258700000Y-60256429D02*
X259385714Y-60256429D01*
X259042857Y-61906429D02*
X259042857Y-60256429D01*
X256528573Y-62816429D02*
X256928573Y-64466429D01*
X257328573Y-62816429D01*
X258242858Y-64387857D02*
X258128572Y-64466429D01*
X257900001Y-64466429D01*
X257785715Y-64387857D01*
X257728572Y-64309286D01*
X257671429Y-64152143D01*
X257671429Y-63680714D01*
X257728572Y-63523571D01*
X257785715Y-63445000D01*
X257900001Y-63366429D01*
X258128572Y-63366429D01*
X258242858Y-63445000D01*
X259271429Y-64387857D02*
X259157143Y-64466429D01*
X258928572Y-64466429D01*
X258814286Y-64387857D01*
X258757143Y-64309286D01*
X258700000Y-64152143D01*
X258700000Y-63680714D01*
X258757143Y-63523571D01*
X258814286Y-63445000D01*
X258928572Y-63366429D01*
X259157143Y-63366429D01*
X259271429Y-63445000D01*
X257042858Y-65455000D02*
X256928572Y-65376429D01*
X256757143Y-65376429D01*
X256585715Y-65455000D01*
X256471429Y-65612143D01*
X256414286Y-65769286D01*
X256357143Y-66083571D01*
X256357143Y-66319286D01*
X256414286Y-66633571D01*
X256471429Y-66790714D01*
X256585715Y-66947857D01*
X256757143Y-67026429D01*
X256871429Y-67026429D01*
X257042858Y-66947857D01*
X257100001Y-66869286D01*
X257100001Y-66319286D01*
X256871429Y-66319286D01*
X257614286Y-65926429D02*
X257614286Y-67026429D01*
X257614286Y-66083571D02*
X257671429Y-66005000D01*
X257785715Y-65926429D01*
X257957143Y-65926429D01*
X258071429Y-66005000D01*
X258128572Y-66162143D01*
X258128572Y-67026429D01*
X259214286Y-67026429D02*
X259214286Y-65376429D01*
X259214286Y-66947857D02*
X259100000Y-67026429D01*
X258871429Y-67026429D01*
X258757143Y-66947857D01*
X258700000Y-66869286D01*
X258642857Y-66712143D01*
X258642857Y-66240714D01*
X258700000Y-66083571D01*
X258757143Y-66005000D01*
X258871429Y-65926429D01*
X259100000Y-65926429D01*
X259214286Y-66005000D01*
X257214286Y-69586429D02*
X256814286Y-68800714D01*
X256528571Y-69586429D02*
X256528571Y-67936429D01*
X256985714Y-67936429D01*
X257100000Y-68015000D01*
X257157143Y-68093571D01*
X257214286Y-68250714D01*
X257214286Y-68486429D01*
X257157143Y-68643571D01*
X257100000Y-68722143D01*
X256985714Y-68800714D01*
X256528571Y-68800714D01*
X257671428Y-69507857D02*
X257842857Y-69586429D01*
X258128571Y-69586429D01*
X258242857Y-69507857D01*
X258300000Y-69429286D01*
X258357143Y-69272143D01*
X258357143Y-69115000D01*
X258300000Y-68957857D01*
X258242857Y-68879286D01*
X258128571Y-68800714D01*
X257900000Y-68722143D01*
X257785714Y-68643571D01*
X257728571Y-68565000D01*
X257671428Y-68407857D01*
X257671428Y-68250714D01*
X257728571Y-68093571D01*
X257785714Y-68015000D01*
X257900000Y-67936429D01*
X258185714Y-67936429D01*
X258357143Y-68015000D01*
X258700000Y-67936429D02*
X259385714Y-67936429D01*
X259042857Y-69586429D02*
X259042857Y-67936429D01*
X256242857Y-67652000D02*
X259500000Y-67652000D01*
X183256429Y-95885714D02*
X184906429Y-95485714D01*
X183256429Y-95085714D01*
X184906429Y-94171429D02*
X184042143Y-94171429D01*
X183885000Y-94228572D01*
X183806429Y-94342858D01*
X183806429Y-94571429D01*
X183885000Y-94685715D01*
X184827857Y-94171429D02*
X184906429Y-94285715D01*
X184906429Y-94571429D01*
X184827857Y-94685715D01*
X184670714Y-94742858D01*
X184513571Y-94742858D01*
X184356429Y-94685715D01*
X184277857Y-94571429D01*
X184277857Y-94285715D01*
X184199286Y-94171429D01*
X184906429Y-93085715D02*
X184042143Y-93085715D01*
X183885000Y-93142858D01*
X183806429Y-93257144D01*
X183806429Y-93485715D01*
X183885000Y-93600001D01*
X184827857Y-93085715D02*
X184906429Y-93200001D01*
X184906429Y-93485715D01*
X184827857Y-93600001D01*
X184670714Y-93657144D01*
X184513571Y-93657144D01*
X184356429Y-93600001D01*
X184277857Y-93485715D01*
X184277857Y-93200001D01*
X184199286Y-93085715D01*
X185895000Y-95085714D02*
X185816429Y-95200000D01*
X185816429Y-95371429D01*
X185895000Y-95542857D01*
X186052143Y-95657143D01*
X186209286Y-95714286D01*
X186523571Y-95771429D01*
X186759286Y-95771429D01*
X187073571Y-95714286D01*
X187230714Y-95657143D01*
X187387857Y-95542857D01*
X187466429Y-95371429D01*
X187466429Y-95257143D01*
X187387857Y-95085714D01*
X187309286Y-95028571D01*
X186759286Y-95028571D01*
X186759286Y-95257143D01*
X186366429Y-94514286D02*
X187466429Y-94514286D01*
X186523571Y-94514286D02*
X186445000Y-94457143D01*
X186366429Y-94342857D01*
X186366429Y-94171429D01*
X186445000Y-94057143D01*
X186602143Y-94000000D01*
X187466429Y-94000000D01*
X187466429Y-92914286D02*
X185816429Y-92914286D01*
X187387857Y-92914286D02*
X187466429Y-93028572D01*
X187466429Y-93257143D01*
X187387857Y-93371429D01*
X187309286Y-93428572D01*
X187152143Y-93485715D01*
X186680714Y-93485715D01*
X186523571Y-93428572D01*
X186445000Y-93371429D01*
X186366429Y-93257143D01*
X186366429Y-93028572D01*
X186445000Y-92914286D01*
X188376429Y-95885714D02*
X190026429Y-95485714D01*
X188376429Y-95085714D01*
X190026429Y-94114286D02*
X190026429Y-94685715D01*
X188376429Y-94685715D01*
X189162143Y-93714286D02*
X189162143Y-93314286D01*
X190026429Y-93142857D02*
X190026429Y-93714286D01*
X188376429Y-93714286D01*
X188376429Y-93142857D01*
X190026429Y-92628572D02*
X188376429Y-92628572D01*
X188376429Y-92342857D01*
X188455000Y-92171429D01*
X188612143Y-92057143D01*
X188769286Y-92000000D01*
X189083571Y-91942857D01*
X189319286Y-91942857D01*
X189633571Y-92000000D01*
X189790714Y-92057143D01*
X189947857Y-92171429D01*
X190026429Y-92342857D01*
X190026429Y-92628572D01*
X190936429Y-95885714D02*
X192586429Y-95485714D01*
X190936429Y-95085714D01*
X192586429Y-94685715D02*
X190936429Y-94685715D01*
X190936429Y-94228572D01*
X191015000Y-94114286D01*
X191093571Y-94057143D01*
X191250714Y-94000000D01*
X191486429Y-94000000D01*
X191643571Y-94057143D01*
X191722143Y-94114286D01*
X191800714Y-94228572D01*
X191800714Y-94685715D01*
X192586429Y-93485715D02*
X190936429Y-93485715D01*
X191722143Y-93485715D02*
X191722143Y-92800000D01*
X192586429Y-92800000D02*
X190936429Y-92800000D01*
X192586429Y-92228572D02*
X190936429Y-92228572D01*
X190936429Y-91942857D01*
X191015000Y-91771429D01*
X191172143Y-91657143D01*
X191329286Y-91600000D01*
X191643571Y-91542857D01*
X191879286Y-91542857D01*
X192193571Y-91600000D01*
X192350714Y-91657143D01*
X192507857Y-91771429D01*
X192586429Y-91942857D01*
X192586429Y-92228572D01*
X183335000Y-51457142D02*
X183256429Y-51571428D01*
X183256429Y-51742857D01*
X183335000Y-51914285D01*
X183492143Y-52028571D01*
X183649286Y-52085714D01*
X183963571Y-52142857D01*
X184199286Y-52142857D01*
X184513571Y-52085714D01*
X184670714Y-52028571D01*
X184827857Y-51914285D01*
X184906429Y-51742857D01*
X184906429Y-51628571D01*
X184827857Y-51457142D01*
X184749286Y-51399999D01*
X184199286Y-51399999D01*
X184199286Y-51628571D01*
X183806429Y-50885714D02*
X184906429Y-50885714D01*
X183963571Y-50885714D02*
X183885000Y-50828571D01*
X183806429Y-50714285D01*
X183806429Y-50542857D01*
X183885000Y-50428571D01*
X184042143Y-50371428D01*
X184906429Y-50371428D01*
X184906429Y-49285714D02*
X183256429Y-49285714D01*
X184827857Y-49285714D02*
X184906429Y-49400000D01*
X184906429Y-49628571D01*
X184827857Y-49742857D01*
X184749286Y-49800000D01*
X184592143Y-49857143D01*
X184120714Y-49857143D01*
X183963571Y-49800000D01*
X183885000Y-49742857D01*
X183806429Y-49628571D01*
X183806429Y-49400000D01*
X183885000Y-49285714D01*
X185816429Y-52828570D02*
X187466429Y-52428570D01*
X185816429Y-52028570D01*
X187466429Y-50942856D02*
X186680714Y-51342856D01*
X187466429Y-51628571D02*
X185816429Y-51628571D01*
X185816429Y-51171428D01*
X185895000Y-51057142D01*
X185973571Y-50999999D01*
X186130714Y-50942856D01*
X186366429Y-50942856D01*
X186523571Y-50999999D01*
X186602143Y-51057142D01*
X186680714Y-51171428D01*
X186680714Y-51628571D01*
X187387857Y-49971428D02*
X187466429Y-50085714D01*
X187466429Y-50314285D01*
X187387857Y-50428571D01*
X187230714Y-50485714D01*
X186602143Y-50485714D01*
X186445000Y-50428571D01*
X186366429Y-50314285D01*
X186366429Y-50085714D01*
X186445000Y-49971428D01*
X186602143Y-49914285D01*
X186759286Y-49914285D01*
X186916429Y-50485714D01*
X186366429Y-49571428D02*
X186366429Y-49114285D01*
X187466429Y-49400000D02*
X186052143Y-49400000D01*
X185895000Y-49342857D01*
X185816429Y-49228571D01*
X185816429Y-49114285D01*
X188376429Y-55114285D02*
X190026429Y-54714285D01*
X188376429Y-54314285D01*
X190026429Y-53228571D02*
X189240714Y-53628571D01*
X190026429Y-53914286D02*
X188376429Y-53914286D01*
X188376429Y-53457143D01*
X188455000Y-53342857D01*
X188533571Y-53285714D01*
X188690714Y-53228571D01*
X188926429Y-53228571D01*
X189083571Y-53285714D01*
X189162143Y-53342857D01*
X189240714Y-53457143D01*
X189240714Y-53914286D01*
X189947857Y-52257143D02*
X190026429Y-52371429D01*
X190026429Y-52600000D01*
X189947857Y-52714286D01*
X189790714Y-52771429D01*
X189162143Y-52771429D01*
X189005000Y-52714286D01*
X188926429Y-52600000D01*
X188926429Y-52371429D01*
X189005000Y-52257143D01*
X189162143Y-52200000D01*
X189319286Y-52200000D01*
X189476429Y-52771429D01*
X188926429Y-51857143D02*
X188926429Y-51400000D01*
X190026429Y-51685715D02*
X188612143Y-51685715D01*
X188455000Y-51628572D01*
X188376429Y-51514286D01*
X188376429Y-51400000D01*
X190183571Y-51285715D02*
X190183571Y-50371429D01*
X190026429Y-50085715D02*
X188376429Y-50085715D01*
X189555000Y-49685715D01*
X188376429Y-49285715D01*
X190026429Y-49285715D01*
X190936429Y-54371428D02*
X192586429Y-53971428D01*
X190936429Y-53571428D01*
X192743571Y-53457143D02*
X192743571Y-52542857D01*
X192586429Y-52257143D02*
X190936429Y-52257143D01*
X192115000Y-51857143D01*
X190936429Y-51457143D01*
X192586429Y-51457143D01*
X192586429Y-50714285D02*
X192507857Y-50828571D01*
X192429286Y-50885714D01*
X192272143Y-50942857D01*
X191800714Y-50942857D01*
X191643571Y-50885714D01*
X191565000Y-50828571D01*
X191486429Y-50714285D01*
X191486429Y-50542857D01*
X191565000Y-50428571D01*
X191643571Y-50371428D01*
X191800714Y-50314285D01*
X192272143Y-50314285D01*
X192429286Y-50371428D01*
X192507857Y-50428571D01*
X192586429Y-50542857D01*
X192586429Y-50714285D01*
X191486429Y-49800000D02*
X192586429Y-49800000D01*
X191643571Y-49800000D02*
X191565000Y-49742857D01*
X191486429Y-49628571D01*
X191486429Y-49457143D01*
X191565000Y-49342857D01*
X191722143Y-49285714D01*
X192586429Y-49285714D01*
X170285714Y-54157857D02*
X171200000Y-54157857D01*
X170742857Y-54786429D02*
X170742857Y-53529286D01*
X172342857Y-53136429D02*
X171771428Y-53136429D01*
X171714285Y-53922143D01*
X171771428Y-53843571D01*
X171885714Y-53765000D01*
X172171428Y-53765000D01*
X172285714Y-53843571D01*
X172342857Y-53922143D01*
X172400000Y-54079286D01*
X172400000Y-54472143D01*
X172342857Y-54629286D01*
X172285714Y-54707857D01*
X172171428Y-54786429D01*
X171885714Y-54786429D01*
X171771428Y-54707857D01*
X171714285Y-54629286D01*
X172742857Y-53136429D02*
X173142857Y-54786429D01*
X173542857Y-53136429D01*
X170914286Y-55775000D02*
X170800000Y-55696429D01*
X170628571Y-55696429D01*
X170457143Y-55775000D01*
X170342857Y-55932143D01*
X170285714Y-56089286D01*
X170228571Y-56403571D01*
X170228571Y-56639286D01*
X170285714Y-56953571D01*
X170342857Y-57110714D01*
X170457143Y-57267857D01*
X170628571Y-57346429D01*
X170742857Y-57346429D01*
X170914286Y-57267857D01*
X170971429Y-57189286D01*
X170971429Y-56639286D01*
X170742857Y-56639286D01*
X171485714Y-56246429D02*
X171485714Y-57346429D01*
X171485714Y-56403571D02*
X171542857Y-56325000D01*
X171657143Y-56246429D01*
X171828571Y-56246429D01*
X171942857Y-56325000D01*
X172000000Y-56482143D01*
X172000000Y-57346429D01*
X173085714Y-57346429D02*
X173085714Y-55696429D01*
X173085714Y-57267857D02*
X172971428Y-57346429D01*
X172742857Y-57346429D01*
X172628571Y-57267857D01*
X172571428Y-57189286D01*
X172514285Y-57032143D01*
X172514285Y-56560714D01*
X172571428Y-56403571D01*
X172628571Y-56325000D01*
X172742857Y-56246429D01*
X172971428Y-56246429D01*
X173085714Y-56325000D01*
X170114286Y-58256429D02*
X170514286Y-59906429D01*
X170914286Y-58256429D01*
X172000000Y-59906429D02*
X171600000Y-59120714D01*
X171314285Y-59906429D02*
X171314285Y-58256429D01*
X171771428Y-58256429D01*
X171885714Y-58335000D01*
X171942857Y-58413571D01*
X172000000Y-58570714D01*
X172000000Y-58806429D01*
X171942857Y-58963571D01*
X171885714Y-59042143D01*
X171771428Y-59120714D01*
X171314285Y-59120714D01*
X172971428Y-59827857D02*
X172857142Y-59906429D01*
X172628571Y-59906429D01*
X172514285Y-59827857D01*
X172457142Y-59670714D01*
X172457142Y-59042143D01*
X172514285Y-58885000D01*
X172628571Y-58806429D01*
X172857142Y-58806429D01*
X172971428Y-58885000D01*
X173028571Y-59042143D01*
X173028571Y-59199286D01*
X172457142Y-59356429D01*
X173371428Y-58806429D02*
X173828571Y-58806429D01*
X173542856Y-59906429D02*
X173542856Y-58492143D01*
X173599999Y-58335000D01*
X173714285Y-58256429D01*
X173828571Y-58256429D01*
X170914286Y-60895000D02*
X170800000Y-60816429D01*
X170628571Y-60816429D01*
X170457143Y-60895000D01*
X170342857Y-61052143D01*
X170285714Y-61209286D01*
X170228571Y-61523571D01*
X170228571Y-61759286D01*
X170285714Y-62073571D01*
X170342857Y-62230714D01*
X170457143Y-62387857D01*
X170628571Y-62466429D01*
X170742857Y-62466429D01*
X170914286Y-62387857D01*
X170971429Y-62309286D01*
X170971429Y-61759286D01*
X170742857Y-61759286D01*
X171485714Y-61366429D02*
X171485714Y-62466429D01*
X171485714Y-61523571D02*
X171542857Y-61445000D01*
X171657143Y-61366429D01*
X171828571Y-61366429D01*
X171942857Y-61445000D01*
X172000000Y-61602143D01*
X172000000Y-62466429D01*
X173085714Y-62466429D02*
X173085714Y-60816429D01*
X173085714Y-62387857D02*
X172971428Y-62466429D01*
X172742857Y-62466429D01*
X172628571Y-62387857D01*
X172571428Y-62309286D01*
X172514285Y-62152143D01*
X172514285Y-61680714D01*
X172571428Y-61523571D01*
X172628571Y-61445000D01*
X172742857Y-61366429D01*
X172971428Y-61366429D01*
X173085714Y-61445000D01*
X170114286Y-63376429D02*
X170514286Y-65026429D01*
X170914286Y-63376429D01*
X171828571Y-64947857D02*
X171714285Y-65026429D01*
X171485714Y-65026429D01*
X171371428Y-64947857D01*
X171314285Y-64869286D01*
X171257142Y-64712143D01*
X171257142Y-64240714D01*
X171314285Y-64083571D01*
X171371428Y-64005000D01*
X171485714Y-63926429D01*
X171714285Y-63926429D01*
X171828571Y-64005000D01*
X172857142Y-64947857D02*
X172742856Y-65026429D01*
X172514285Y-65026429D01*
X172399999Y-64947857D01*
X172342856Y-64869286D01*
X172285713Y-64712143D01*
X172285713Y-64240714D01*
X172342856Y-64083571D01*
X172399999Y-64005000D01*
X172514285Y-63926429D01*
X172742856Y-63926429D01*
X172857142Y-64005000D01*
X170914286Y-66015000D02*
X170800000Y-65936429D01*
X170628571Y-65936429D01*
X170457143Y-66015000D01*
X170342857Y-66172143D01*
X170285714Y-66329286D01*
X170228571Y-66643571D01*
X170228571Y-66879286D01*
X170285714Y-67193571D01*
X170342857Y-67350714D01*
X170457143Y-67507857D01*
X170628571Y-67586429D01*
X170742857Y-67586429D01*
X170914286Y-67507857D01*
X170971429Y-67429286D01*
X170971429Y-66879286D01*
X170742857Y-66879286D01*
X171485714Y-66486429D02*
X171485714Y-67586429D01*
X171485714Y-66643571D02*
X171542857Y-66565000D01*
X171657143Y-66486429D01*
X171828571Y-66486429D01*
X171942857Y-66565000D01*
X172000000Y-66722143D01*
X172000000Y-67586429D01*
X173085714Y-67586429D02*
X173085714Y-65936429D01*
X173085714Y-67507857D02*
X172971428Y-67586429D01*
X172742857Y-67586429D01*
X172628571Y-67507857D01*
X172571428Y-67429286D01*
X172514285Y-67272143D01*
X172514285Y-66800714D01*
X172571428Y-66643571D01*
X172628571Y-66565000D01*
X172742857Y-66486429D01*
X172971428Y-66486429D01*
X173085714Y-66565000D01*
X170971429Y-70146429D02*
X170571429Y-69360714D01*
X170285714Y-70146429D02*
X170285714Y-68496429D01*
X170742857Y-68496429D01*
X170857143Y-68575000D01*
X170914286Y-68653571D01*
X170971429Y-68810714D01*
X170971429Y-69046429D01*
X170914286Y-69203571D01*
X170857143Y-69282143D01*
X170742857Y-69360714D01*
X170285714Y-69360714D01*
X171371429Y-68496429D02*
X172171429Y-70146429D01*
X172171429Y-68496429D02*
X171371429Y-70146429D01*
X172628571Y-70146429D02*
X172628571Y-68496429D01*
X172914286Y-68496429D01*
X173085714Y-68575000D01*
X173200000Y-68732143D01*
X173257143Y-68889286D01*
X173314286Y-69203571D01*
X173314286Y-69439286D01*
X173257143Y-69753571D01*
X173200000Y-69910714D01*
X173085714Y-70067857D01*
X172914286Y-70146429D01*
X172628571Y-70146429D01*
X170114286Y-71056429D02*
X170800000Y-71056429D01*
X170457143Y-72706429D02*
X170457143Y-71056429D01*
X171085715Y-71056429D02*
X171885715Y-72706429D01*
X171885715Y-71056429D02*
X171085715Y-72706429D01*
X172342857Y-72706429D02*
X172342857Y-71056429D01*
X172628572Y-71056429D01*
X172800000Y-71135000D01*
X172914286Y-71292143D01*
X172971429Y-71449286D01*
X173028572Y-71763571D01*
X173028572Y-71999286D01*
X172971429Y-72313571D01*
X172914286Y-72470714D01*
X172800000Y-72627857D01*
X172628572Y-72706429D01*
X172342857Y-72706429D01*
D10*
X182475000Y-58000000D02*
X182475000Y-60000000D01*
X184525000Y-60000000D02*
X184525000Y-58000000D01*
X178000000Y-69025000D02*
X180000000Y-69025000D01*
X180000000Y-66975000D02*
X178000000Y-66975000D01*
X178000000Y-72525000D02*
X180000000Y-72525000D01*
X180000000Y-70475000D02*
X178000000Y-70475000D01*
X252000000Y-91525000D02*
X254000000Y-91525000D01*
X254000000Y-89475000D02*
X252000000Y-89475000D01*
X191000000Y-66975000D02*
X189000000Y-66975000D01*
X189000000Y-69025000D02*
X191000000Y-69025000D01*
X198475000Y-58000000D02*
X198475000Y-60000000D01*
X200525000Y-60000000D02*
X200525000Y-58000000D01*
X239975000Y-66500000D02*
X239975000Y-68500000D01*
X242025000Y-68500000D02*
X242025000Y-66500000D01*
X213000000Y-73975000D02*
X211000000Y-73975000D01*
X211000000Y-76025000D02*
X213000000Y-76025000D01*
X213000000Y-63475000D02*
X211000000Y-63475000D01*
X211000000Y-65525000D02*
X213000000Y-65525000D01*
X213000000Y-66975000D02*
X211000000Y-66975000D01*
X211000000Y-69025000D02*
X213000000Y-69025000D01*
X213000000Y-70475000D02*
X211000000Y-70475000D01*
X211000000Y-72525000D02*
X213000000Y-72525000D01*
X202500000Y-66975000D02*
X200500000Y-66975000D01*
X200500000Y-69025000D02*
X202500000Y-69025000D01*
X202500000Y-70475000D02*
X200500000Y-70475000D01*
X200500000Y-72525000D02*
X202500000Y-72525000D01*
X244000000Y-60475000D02*
X242000000Y-60475000D01*
X242000000Y-62525000D02*
X244000000Y-62525000D01*
X175502540Y-88866520D02*
X175502540Y-90263520D01*
X175502540Y-84421520D02*
X175502540Y-82897520D01*
X176264540Y-84802520D02*
X174740540Y-84802520D01*
X176264540Y-84548520D02*
X174740540Y-84548520D01*
X175502540Y-84294520D02*
X174740540Y-84294520D01*
X174740540Y-84294520D02*
X174740540Y-88866520D01*
X174740540Y-88866520D02*
X176264540Y-88866520D01*
X176264540Y-88866520D02*
X176264540Y-84294520D01*
X176264540Y-84294520D02*
X175502540Y-84294520D01*
X184024904Y-89064888D02*
G75*
G03X181000000Y-89080000I-1524904J2484888D01*
G01*
X184000000Y-89080000D02*
X181000000Y-89080000D01*
X185017936Y-86580000D02*
G75*
G03X185017936Y-86580000I-2517936J0D01*
G01*
X225204904Y-89064888D02*
G75*
G03X222180000Y-89080000I-1524904J2484888D01*
G01*
X225180000Y-89080000D02*
X222180000Y-89080000D01*
X226197936Y-86580000D02*
G75*
G03X226197936Y-86580000I-2517936J0D01*
G01*
X252750000Y-82100000D02*
X252750000Y-79400000D01*
X251250000Y-82100000D02*
X251250000Y-79400000D01*
X252150000Y-80600000D02*
X251900000Y-80600000D01*
X251900000Y-80600000D02*
X252050000Y-80750000D01*
X251650000Y-80850000D02*
X252350000Y-80850000D01*
X252000000Y-80500000D02*
X252000000Y-80150000D01*
X252000000Y-80850000D02*
X251650000Y-80500000D01*
X251650000Y-80500000D02*
X252350000Y-80500000D01*
X252350000Y-80500000D02*
X252000000Y-80850000D01*
X255250000Y-82100000D02*
X255250000Y-79400000D01*
X253750000Y-82100000D02*
X253750000Y-79400000D01*
X254650000Y-80600000D02*
X254400000Y-80600000D01*
X254400000Y-80600000D02*
X254550000Y-80750000D01*
X254150000Y-80850000D02*
X254850000Y-80850000D01*
X254500000Y-80500000D02*
X254500000Y-80150000D01*
X254500000Y-80850000D02*
X254150000Y-80500000D01*
X254150000Y-80500000D02*
X254850000Y-80500000D01*
X254850000Y-80500000D02*
X254500000Y-80850000D01*
X257750000Y-82100000D02*
X257750000Y-79400000D01*
X256250000Y-82100000D02*
X256250000Y-79400000D01*
X257150000Y-80600000D02*
X256900000Y-80600000D01*
X256900000Y-80600000D02*
X257050000Y-80750000D01*
X256650000Y-80850000D02*
X257350000Y-80850000D01*
X257000000Y-80500000D02*
X257000000Y-80150000D01*
X257000000Y-80850000D02*
X256650000Y-80500000D01*
X256650000Y-80500000D02*
X257350000Y-80500000D01*
X257350000Y-80500000D02*
X257000000Y-80850000D01*
X260250000Y-82100000D02*
X260250000Y-79400000D01*
X258750000Y-82100000D02*
X258750000Y-79400000D01*
X259650000Y-80600000D02*
X259400000Y-80600000D01*
X259400000Y-80600000D02*
X259550000Y-80750000D01*
X259150000Y-80850000D02*
X259850000Y-80850000D01*
X259500000Y-80500000D02*
X259500000Y-80150000D01*
X259500000Y-80850000D02*
X259150000Y-80500000D01*
X259150000Y-80500000D02*
X259850000Y-80500000D01*
X259850000Y-80500000D02*
X259500000Y-80850000D01*
X260230000Y-62270000D02*
X260230000Y-69890000D01*
X262770000Y-62270000D02*
X262770000Y-69890000D01*
X263050000Y-59450000D02*
X263050000Y-61000000D01*
X260230000Y-69890000D02*
X262770000Y-69890000D01*
X262770000Y-62270000D02*
X260230000Y-62270000D01*
X259950000Y-61000000D02*
X259950000Y-59450000D01*
X259950000Y-59450000D02*
X263050000Y-59450000D01*
X169270000Y-55270000D02*
X169270000Y-73050000D01*
X169270000Y-73050000D02*
X166730000Y-73050000D01*
X166730000Y-73050000D02*
X166730000Y-55270000D01*
X169550000Y-52450000D02*
X169550000Y-54000000D01*
X169270000Y-55270000D02*
X166730000Y-55270000D01*
X166450000Y-54000000D02*
X166450000Y-52450000D01*
X166450000Y-52450000D02*
X169550000Y-52450000D01*
X198425000Y-52500000D02*
X198425000Y-50500000D01*
X200575000Y-50500000D02*
X200575000Y-52500000D01*
X218075000Y-58000000D02*
X218075000Y-60000000D01*
X215925000Y-60000000D02*
X215925000Y-58000000D01*
X202925000Y-60000000D02*
X202925000Y-58000000D01*
X205075000Y-58000000D02*
X205075000Y-60000000D01*
X202925000Y-52500000D02*
X202925000Y-50500000D01*
X205075000Y-50500000D02*
X205075000Y-52500000D01*
X245000000Y-47925000D02*
X247000000Y-47925000D01*
X247000000Y-50075000D02*
X245000000Y-50075000D01*
X253075000Y-73500000D02*
X253075000Y-75500000D01*
X250925000Y-75500000D02*
X250925000Y-73500000D01*
X255575000Y-73500000D02*
X255575000Y-75500000D01*
X253425000Y-75500000D02*
X253425000Y-73500000D01*
X258075000Y-73500000D02*
X258075000Y-75500000D01*
X255925000Y-75500000D02*
X255925000Y-73500000D01*
X260575000Y-73500000D02*
X260575000Y-75500000D01*
X258425000Y-75500000D02*
X258425000Y-73500000D01*
X175960000Y-56714000D02*
X181040000Y-56714000D01*
X181040000Y-56714000D02*
X181040000Y-61286000D01*
X181040000Y-61286000D02*
X175960000Y-61286000D01*
X175960000Y-61286000D02*
X175960000Y-56714000D01*
X175960000Y-58238000D02*
X176468000Y-58238000D01*
X176468000Y-58238000D02*
X176468000Y-59508000D01*
X176468000Y-59508000D02*
X175960000Y-59508000D01*
X261800000Y-89200000D02*
G75*
G03X261800000Y-89200000I-100000J0D01*
G01*
X261450000Y-89750000D02*
X261450000Y-89250000D01*
X258550000Y-89750000D02*
X261450000Y-89750000D01*
X258550000Y-89250000D02*
X258550000Y-89750000D01*
X261450000Y-89250000D02*
X258550000Y-89250000D01*
X189960000Y-56714000D02*
X195040000Y-56714000D01*
X195040000Y-56714000D02*
X195040000Y-61286000D01*
X195040000Y-61286000D02*
X189960000Y-61286000D01*
X189960000Y-61286000D02*
X189960000Y-56714000D01*
X189960000Y-58238000D02*
X190468000Y-58238000D01*
X190468000Y-58238000D02*
X190468000Y-59508000D01*
X190468000Y-59508000D02*
X189960000Y-59508000D01*
X211400000Y-60700000D02*
G75*
G03X211400000Y-60700000I-100000J0D01*
G01*
X210750000Y-60450000D02*
X211250000Y-60450000D01*
X210750000Y-57550000D02*
X210750000Y-60450000D01*
X211250000Y-57550000D02*
X210750000Y-57550000D01*
X211250000Y-60450000D02*
X211250000Y-57550000D01*
X254310000Y-62722000D02*
X246690000Y-62722000D01*
X246690000Y-66278000D02*
X254310000Y-66278000D01*
X254310000Y-62722000D02*
X254310000Y-66278000D01*
X246690000Y-66278000D02*
X246690000Y-62722000D01*
X247557210Y-65770000D02*
G75*
G03X247557210Y-65770000I-359210J0D01*
G01*
X246690000Y-63865000D02*
X247452000Y-63865000D01*
X247452000Y-63865000D02*
X247452000Y-65135000D01*
X247452000Y-65135000D02*
X246690000Y-65135000D01*
X248200280Y-57750320D02*
X248101220Y-58050040D01*
X248799720Y-57750320D02*
X248898780Y-58050040D01*
X249399160Y-57750320D02*
X249399160Y-52700800D01*
X249399160Y-52700800D02*
X247600840Y-52700800D01*
X247600840Y-52700800D02*
X247600840Y-57750320D01*
X249399160Y-57750320D02*
X247600840Y-57750320D01*
X166730000Y-89040000D02*
X166730000Y-83960000D01*
X166730000Y-83960000D02*
X169270000Y-83960000D01*
X169270000Y-83960000D02*
X169270000Y-89040000D01*
X169270000Y-89040000D02*
X166730000Y-89040000D01*
X168000000Y-89040000D02*
X168000000Y-90310000D01*
X168000000Y-83960000D02*
X168000000Y-82690000D01*
X232770000Y-83960000D02*
X232770000Y-89040000D01*
X232770000Y-89040000D02*
X230230000Y-89040000D01*
X230230000Y-89040000D02*
X230230000Y-83960000D01*
X230230000Y-83960000D02*
X232770000Y-83960000D01*
X231500000Y-83960000D02*
X231500000Y-82690000D01*
X231500000Y-89040000D02*
X231500000Y-90310000D01*
X242770000Y-83960000D02*
X242770000Y-89040000D01*
X242770000Y-89040000D02*
X240230000Y-89040000D01*
X240230000Y-89040000D02*
X240230000Y-83960000D01*
X240230000Y-83960000D02*
X242770000Y-83960000D01*
X241500000Y-83960000D02*
X241500000Y-82690000D01*
X241500000Y-89040000D02*
X241500000Y-90310000D01*
X255540000Y-96770000D02*
X250460000Y-96770000D01*
X250460000Y-96770000D02*
X250460000Y-94230000D01*
X250460000Y-94230000D02*
X255540000Y-94230000D01*
X255540000Y-94230000D02*
X255540000Y-96770000D01*
X255540000Y-95500000D02*
X256810000Y-95500000D01*
X250460000Y-95500000D02*
X249190000Y-95500000D01*
X231000000Y-73500000D02*
X230500000Y-73500000D01*
X230500000Y-60500000D02*
X231000000Y-60500000D01*
X225000000Y-60500000D02*
X225500000Y-60500000D01*
X225500000Y-73500000D02*
X225000000Y-73500000D01*
X228000000Y-73000000D02*
G75*
G03X227500000Y-73500000I0J-500000D01*
G01*
X228500000Y-73500000D02*
G75*
G03X228000000Y-73000000I-500000J0D01*
G01*
X229000000Y-73500000D02*
X230500000Y-73500000D01*
X231000000Y-73500000D02*
X231000000Y-72000000D01*
X225500000Y-73500000D02*
X229000000Y-73500000D01*
X231000000Y-72000000D02*
X231000000Y-60500000D01*
X230500000Y-60500000D02*
X225500000Y-60500000D01*
X225000000Y-60500000D02*
X225000000Y-73500000D01*
X185270000Y-99270000D02*
X192890000Y-99270000D01*
X185270000Y-96730000D02*
X192890000Y-96730000D01*
X182450000Y-96450000D02*
X184000000Y-96450000D01*
X192890000Y-99270000D02*
X192890000Y-96730000D01*
X185270000Y-96730000D02*
X185270000Y-99270000D01*
X184000000Y-99550000D02*
X182450000Y-99550000D01*
X182450000Y-99550000D02*
X182450000Y-96450000D01*
X185270000Y-48270000D02*
X192890000Y-48270000D01*
X185270000Y-45730000D02*
X192890000Y-45730000D01*
X182450000Y-45450000D02*
X184000000Y-45450000D01*
X192890000Y-48270000D02*
X192890000Y-45730000D01*
X185270000Y-45730000D02*
X185270000Y-48270000D01*
X184000000Y-48550000D02*
X182450000Y-48550000D01*
X182450000Y-48550000D02*
X182450000Y-45450000D01*
X186357143Y-59166666D02*
X186404762Y-59214285D01*
X186452381Y-59357142D01*
X186452381Y-59452380D01*
X186404762Y-59595238D01*
X186309524Y-59690476D01*
X186214286Y-59738095D01*
X186023810Y-59785714D01*
X185880952Y-59785714D01*
X185690476Y-59738095D01*
X185595238Y-59690476D01*
X185500000Y-59595238D01*
X185452381Y-59452380D01*
X185452381Y-59357142D01*
X185500000Y-59214285D01*
X185547619Y-59166666D01*
X186452381Y-58214285D02*
X186452381Y-58785714D01*
X186452381Y-58500000D02*
X185452381Y-58500000D01*
X185595238Y-58595238D01*
X185690476Y-58690476D01*
X185738095Y-58785714D01*
X174333334Y-68357143D02*
X174285715Y-68404762D01*
X174142858Y-68452381D01*
X174047620Y-68452381D01*
X173904762Y-68404762D01*
X173809524Y-68309524D01*
X173761905Y-68214286D01*
X173714286Y-68023810D01*
X173714286Y-67880952D01*
X173761905Y-67690476D01*
X173809524Y-67595238D01*
X173904762Y-67500000D01*
X174047620Y-67452381D01*
X174142858Y-67452381D01*
X174285715Y-67500000D01*
X174333334Y-67547619D01*
X174714286Y-67547619D02*
X174761905Y-67500000D01*
X174857143Y-67452381D01*
X175095239Y-67452381D01*
X175190477Y-67500000D01*
X175238096Y-67547619D01*
X175285715Y-67642857D01*
X175285715Y-67738095D01*
X175238096Y-67880952D01*
X174666667Y-68452381D01*
X175285715Y-68452381D01*
X174333334Y-71857143D02*
X174285715Y-71904762D01*
X174142858Y-71952381D01*
X174047620Y-71952381D01*
X173904762Y-71904762D01*
X173809524Y-71809524D01*
X173761905Y-71714286D01*
X173714286Y-71523810D01*
X173714286Y-71380952D01*
X173761905Y-71190476D01*
X173809524Y-71095238D01*
X173904762Y-71000000D01*
X174047620Y-70952381D01*
X174142858Y-70952381D01*
X174285715Y-71000000D01*
X174333334Y-71047619D01*
X174666667Y-70952381D02*
X175285715Y-70952381D01*
X174952381Y-71333333D01*
X175095239Y-71333333D01*
X175190477Y-71380952D01*
X175238096Y-71428571D01*
X175285715Y-71523810D01*
X175285715Y-71761905D01*
X175238096Y-71857143D01*
X175190477Y-71904762D01*
X175095239Y-71952381D01*
X174809524Y-71952381D01*
X174714286Y-71904762D01*
X174666667Y-71857143D01*
X252833334Y-93157143D02*
X252785715Y-93204762D01*
X252642858Y-93252381D01*
X252547620Y-93252381D01*
X252404762Y-93204762D01*
X252309524Y-93109524D01*
X252261905Y-93014286D01*
X252214286Y-92823810D01*
X252214286Y-92680952D01*
X252261905Y-92490476D01*
X252309524Y-92395238D01*
X252404762Y-92300000D01*
X252547620Y-92252381D01*
X252642858Y-92252381D01*
X252785715Y-92300000D01*
X252833334Y-92347619D01*
X253690477Y-92585714D02*
X253690477Y-93252381D01*
X253452381Y-92204762D02*
X253214286Y-92919048D01*
X253833334Y-92919048D01*
X185333334Y-68357143D02*
X185285715Y-68404762D01*
X185142858Y-68452381D01*
X185047620Y-68452381D01*
X184904762Y-68404762D01*
X184809524Y-68309524D01*
X184761905Y-68214286D01*
X184714286Y-68023810D01*
X184714286Y-67880952D01*
X184761905Y-67690476D01*
X184809524Y-67595238D01*
X184904762Y-67500000D01*
X185047620Y-67452381D01*
X185142858Y-67452381D01*
X185285715Y-67500000D01*
X185333334Y-67547619D01*
X186238096Y-67452381D02*
X185761905Y-67452381D01*
X185714286Y-67928571D01*
X185761905Y-67880952D01*
X185857143Y-67833333D01*
X186095239Y-67833333D01*
X186190477Y-67880952D01*
X186238096Y-67928571D01*
X186285715Y-68023810D01*
X186285715Y-68261905D01*
X186238096Y-68357143D01*
X186190477Y-68404762D01*
X186095239Y-68452381D01*
X185857143Y-68452381D01*
X185761905Y-68404762D01*
X185714286Y-68357143D01*
X197557143Y-59166666D02*
X197604762Y-59214285D01*
X197652381Y-59357142D01*
X197652381Y-59452380D01*
X197604762Y-59595238D01*
X197509524Y-59690476D01*
X197414286Y-59738095D01*
X197223810Y-59785714D01*
X197080952Y-59785714D01*
X196890476Y-59738095D01*
X196795238Y-59690476D01*
X196700000Y-59595238D01*
X196652381Y-59452380D01*
X196652381Y-59357142D01*
X196700000Y-59214285D01*
X196747619Y-59166666D01*
X196652381Y-58309523D02*
X196652381Y-58500000D01*
X196700000Y-58595238D01*
X196747619Y-58642857D01*
X196890476Y-58738095D01*
X197080952Y-58785714D01*
X197461905Y-58785714D01*
X197557143Y-58738095D01*
X197604762Y-58690476D01*
X197652381Y-58595238D01*
X197652381Y-58404761D01*
X197604762Y-58309523D01*
X197557143Y-58261904D01*
X197461905Y-58214285D01*
X197223810Y-58214285D01*
X197128571Y-58261904D01*
X197080952Y-58309523D01*
X197033333Y-58404761D01*
X197033333Y-58595238D01*
X197080952Y-58690476D01*
X197128571Y-58738095D01*
X197223810Y-58785714D01*
X239057143Y-67666666D02*
X239104762Y-67714285D01*
X239152381Y-67857142D01*
X239152381Y-67952380D01*
X239104762Y-68095238D01*
X239009524Y-68190476D01*
X238914286Y-68238095D01*
X238723810Y-68285714D01*
X238580952Y-68285714D01*
X238390476Y-68238095D01*
X238295238Y-68190476D01*
X238200000Y-68095238D01*
X238152381Y-67952380D01*
X238152381Y-67857142D01*
X238200000Y-67714285D01*
X238247619Y-67666666D01*
X238152381Y-67333333D02*
X238152381Y-66666666D01*
X239152381Y-67095238D01*
X207333334Y-75357143D02*
X207285715Y-75404762D01*
X207142858Y-75452381D01*
X207047620Y-75452381D01*
X206904762Y-75404762D01*
X206809524Y-75309524D01*
X206761905Y-75214286D01*
X206714286Y-75023810D01*
X206714286Y-74880952D01*
X206761905Y-74690476D01*
X206809524Y-74595238D01*
X206904762Y-74500000D01*
X207047620Y-74452381D01*
X207142858Y-74452381D01*
X207285715Y-74500000D01*
X207333334Y-74547619D01*
X207904762Y-74880952D02*
X207809524Y-74833333D01*
X207761905Y-74785714D01*
X207714286Y-74690476D01*
X207714286Y-74642857D01*
X207761905Y-74547619D01*
X207809524Y-74500000D01*
X207904762Y-74452381D01*
X208095239Y-74452381D01*
X208190477Y-74500000D01*
X208238096Y-74547619D01*
X208285715Y-74642857D01*
X208285715Y-74690476D01*
X208238096Y-74785714D01*
X208190477Y-74833333D01*
X208095239Y-74880952D01*
X207904762Y-74880952D01*
X207809524Y-74928571D01*
X207761905Y-74976190D01*
X207714286Y-75071429D01*
X207714286Y-75261905D01*
X207761905Y-75357143D01*
X207809524Y-75404762D01*
X207904762Y-75452381D01*
X208095239Y-75452381D01*
X208190477Y-75404762D01*
X208238096Y-75357143D01*
X208285715Y-75261905D01*
X208285715Y-75071429D01*
X208238096Y-74976190D01*
X208190477Y-74928571D01*
X208095239Y-74880952D01*
X207333334Y-64857143D02*
X207285715Y-64904762D01*
X207142858Y-64952381D01*
X207047620Y-64952381D01*
X206904762Y-64904762D01*
X206809524Y-64809524D01*
X206761905Y-64714286D01*
X206714286Y-64523810D01*
X206714286Y-64380952D01*
X206761905Y-64190476D01*
X206809524Y-64095238D01*
X206904762Y-64000000D01*
X207047620Y-63952381D01*
X207142858Y-63952381D01*
X207285715Y-64000000D01*
X207333334Y-64047619D01*
X207809524Y-64952381D02*
X208000000Y-64952381D01*
X208095239Y-64904762D01*
X208142858Y-64857143D01*
X208238096Y-64714286D01*
X208285715Y-64523810D01*
X208285715Y-64142857D01*
X208238096Y-64047619D01*
X208190477Y-64000000D01*
X208095239Y-63952381D01*
X207904762Y-63952381D01*
X207809524Y-64000000D01*
X207761905Y-64047619D01*
X207714286Y-64142857D01*
X207714286Y-64380952D01*
X207761905Y-64476190D01*
X207809524Y-64523810D01*
X207904762Y-64571429D01*
X208095239Y-64571429D01*
X208190477Y-64523810D01*
X208238096Y-64476190D01*
X208285715Y-64380952D01*
X206357143Y-68357143D02*
X206309524Y-68404762D01*
X206166667Y-68452381D01*
X206071429Y-68452381D01*
X205928571Y-68404762D01*
X205833333Y-68309524D01*
X205785714Y-68214286D01*
X205738095Y-68023810D01*
X205738095Y-67880952D01*
X205785714Y-67690476D01*
X205833333Y-67595238D01*
X205928571Y-67500000D01*
X206071429Y-67452381D01*
X206166667Y-67452381D01*
X206309524Y-67500000D01*
X206357143Y-67547619D01*
X207309524Y-68452381D02*
X206738095Y-68452381D01*
X207023809Y-68452381D02*
X207023809Y-67452381D01*
X206928571Y-67595238D01*
X206833333Y-67690476D01*
X206738095Y-67738095D01*
X207928571Y-67452381D02*
X208023810Y-67452381D01*
X208119048Y-67500000D01*
X208166667Y-67547619D01*
X208214286Y-67642857D01*
X208261905Y-67833333D01*
X208261905Y-68071429D01*
X208214286Y-68261905D01*
X208166667Y-68357143D01*
X208119048Y-68404762D01*
X208023810Y-68452381D01*
X207928571Y-68452381D01*
X207833333Y-68404762D01*
X207785714Y-68357143D01*
X207738095Y-68261905D01*
X207690476Y-68071429D01*
X207690476Y-67833333D01*
X207738095Y-67642857D01*
X207785714Y-67547619D01*
X207833333Y-67500000D01*
X207928571Y-67452381D01*
X206357143Y-71857143D02*
X206309524Y-71904762D01*
X206166667Y-71952381D01*
X206071429Y-71952381D01*
X205928571Y-71904762D01*
X205833333Y-71809524D01*
X205785714Y-71714286D01*
X205738095Y-71523810D01*
X205738095Y-71380952D01*
X205785714Y-71190476D01*
X205833333Y-71095238D01*
X205928571Y-71000000D01*
X206071429Y-70952381D01*
X206166667Y-70952381D01*
X206309524Y-71000000D01*
X206357143Y-71047619D01*
X207309524Y-71952381D02*
X206738095Y-71952381D01*
X207023809Y-71952381D02*
X207023809Y-70952381D01*
X206928571Y-71095238D01*
X206833333Y-71190476D01*
X206738095Y-71238095D01*
X208261905Y-71952381D02*
X207690476Y-71952381D01*
X207976190Y-71952381D02*
X207976190Y-70952381D01*
X207880952Y-71095238D01*
X207785714Y-71190476D01*
X207690476Y-71238095D01*
X195857143Y-68357143D02*
X195809524Y-68404762D01*
X195666667Y-68452381D01*
X195571429Y-68452381D01*
X195428571Y-68404762D01*
X195333333Y-68309524D01*
X195285714Y-68214286D01*
X195238095Y-68023810D01*
X195238095Y-67880952D01*
X195285714Y-67690476D01*
X195333333Y-67595238D01*
X195428571Y-67500000D01*
X195571429Y-67452381D01*
X195666667Y-67452381D01*
X195809524Y-67500000D01*
X195857143Y-67547619D01*
X196809524Y-68452381D02*
X196238095Y-68452381D01*
X196523809Y-68452381D02*
X196523809Y-67452381D01*
X196428571Y-67595238D01*
X196333333Y-67690476D01*
X196238095Y-67738095D01*
X197190476Y-67547619D02*
X197238095Y-67500000D01*
X197333333Y-67452381D01*
X197571429Y-67452381D01*
X197666667Y-67500000D01*
X197714286Y-67547619D01*
X197761905Y-67642857D01*
X197761905Y-67738095D01*
X197714286Y-67880952D01*
X197142857Y-68452381D01*
X197761905Y-68452381D01*
X195857143Y-71857143D02*
X195809524Y-71904762D01*
X195666667Y-71952381D01*
X195571429Y-71952381D01*
X195428571Y-71904762D01*
X195333333Y-71809524D01*
X195285714Y-71714286D01*
X195238095Y-71523810D01*
X195238095Y-71380952D01*
X195285714Y-71190476D01*
X195333333Y-71095238D01*
X195428571Y-71000000D01*
X195571429Y-70952381D01*
X195666667Y-70952381D01*
X195809524Y-71000000D01*
X195857143Y-71047619D01*
X196809524Y-71952381D02*
X196238095Y-71952381D01*
X196523809Y-71952381D02*
X196523809Y-70952381D01*
X196428571Y-71095238D01*
X196333333Y-71190476D01*
X196238095Y-71238095D01*
X197142857Y-70952381D02*
X197761905Y-70952381D01*
X197428571Y-71333333D01*
X197571429Y-71333333D01*
X197666667Y-71380952D01*
X197714286Y-71428571D01*
X197761905Y-71523810D01*
X197761905Y-71761905D01*
X197714286Y-71857143D01*
X197666667Y-71904762D01*
X197571429Y-71952381D01*
X197285714Y-71952381D01*
X197190476Y-71904762D01*
X197142857Y-71857143D01*
X237357143Y-61857143D02*
X237309524Y-61904762D01*
X237166667Y-61952381D01*
X237071429Y-61952381D01*
X236928571Y-61904762D01*
X236833333Y-61809524D01*
X236785714Y-61714286D01*
X236738095Y-61523810D01*
X236738095Y-61380952D01*
X236785714Y-61190476D01*
X236833333Y-61095238D01*
X236928571Y-61000000D01*
X237071429Y-60952381D01*
X237166667Y-60952381D01*
X237309524Y-61000000D01*
X237357143Y-61047619D01*
X238309524Y-61952381D02*
X237738095Y-61952381D01*
X238023809Y-61952381D02*
X238023809Y-60952381D01*
X237928571Y-61095238D01*
X237833333Y-61190476D01*
X237738095Y-61238095D01*
X239166667Y-61285714D02*
X239166667Y-61952381D01*
X238928571Y-60904762D02*
X238690476Y-61619048D01*
X239309524Y-61619048D01*
X174452381Y-87238095D02*
X173452381Y-87238095D01*
X173452381Y-87000000D01*
X173500000Y-86857142D01*
X173595238Y-86761904D01*
X173690476Y-86714285D01*
X173880952Y-86666666D01*
X174023810Y-86666666D01*
X174214286Y-86714285D01*
X174309524Y-86761904D01*
X174404762Y-86857142D01*
X174452381Y-87000000D01*
X174452381Y-87238095D01*
X174452381Y-85714285D02*
X174452381Y-86285714D01*
X174452381Y-86000000D02*
X173452381Y-86000000D01*
X173595238Y-86095238D01*
X173690476Y-86190476D01*
X173738095Y-86285714D01*
X178952381Y-87238095D02*
X177952381Y-87238095D01*
X177952381Y-87000000D01*
X178000000Y-86857142D01*
X178095238Y-86761904D01*
X178190476Y-86714285D01*
X178380952Y-86666666D01*
X178523810Y-86666666D01*
X178714286Y-86714285D01*
X178809524Y-86761904D01*
X178904762Y-86857142D01*
X178952381Y-87000000D01*
X178952381Y-87238095D01*
X178047619Y-86285714D02*
X178000000Y-86238095D01*
X177952381Y-86142857D01*
X177952381Y-85904761D01*
X178000000Y-85809523D01*
X178047619Y-85761904D01*
X178142857Y-85714285D01*
X178238095Y-85714285D01*
X178380952Y-85761904D01*
X178952381Y-86333333D01*
X178952381Y-85714285D01*
X184857381Y-90016905D02*
X183857381Y-90016905D01*
X184857381Y-89445476D02*
X184285952Y-89874048D01*
X183857381Y-89445476D02*
X184428810Y-90016905D01*
X228452381Y-87238095D02*
X227452381Y-87238095D01*
X227452381Y-87000000D01*
X227500000Y-86857142D01*
X227595238Y-86761904D01*
X227690476Y-86714285D01*
X227880952Y-86666666D01*
X228023810Y-86666666D01*
X228214286Y-86714285D01*
X228309524Y-86761904D01*
X228404762Y-86857142D01*
X228452381Y-87000000D01*
X228452381Y-87238095D01*
X227452381Y-86333333D02*
X227452381Y-85714285D01*
X227833333Y-86047619D01*
X227833333Y-85904761D01*
X227880952Y-85809523D01*
X227928571Y-85761904D01*
X228023810Y-85714285D01*
X228261905Y-85714285D01*
X228357143Y-85761904D01*
X228404762Y-85809523D01*
X228452381Y-85904761D01*
X228452381Y-86190476D01*
X228404762Y-86285714D01*
X228357143Y-86333333D01*
X226037381Y-90016905D02*
X225037381Y-90016905D01*
X226037381Y-89445476D02*
X225465952Y-89874048D01*
X225037381Y-89445476D02*
X225608810Y-90016905D01*
X260761905Y-58952381D02*
X260761905Y-57952381D01*
X261142858Y-57952381D01*
X261238096Y-58000000D01*
X261285715Y-58047619D01*
X261333334Y-58142857D01*
X261333334Y-58285714D01*
X261285715Y-58380952D01*
X261238096Y-58428571D01*
X261142858Y-58476190D01*
X260761905Y-58476190D01*
X262285715Y-58952381D02*
X261714286Y-58952381D01*
X262000000Y-58952381D02*
X262000000Y-57952381D01*
X261904762Y-58095238D01*
X261809524Y-58190476D01*
X261714286Y-58238095D01*
X167261905Y-51452381D02*
X167261905Y-50452381D01*
X167642858Y-50452381D01*
X167738096Y-50500000D01*
X167785715Y-50547619D01*
X167833334Y-50642857D01*
X167833334Y-50785714D01*
X167785715Y-50880952D01*
X167738096Y-50928571D01*
X167642858Y-50976190D01*
X167261905Y-50976190D01*
X168166667Y-50452381D02*
X168785715Y-50452381D01*
X168452381Y-50833333D01*
X168595239Y-50833333D01*
X168690477Y-50880952D01*
X168738096Y-50928571D01*
X168785715Y-51023810D01*
X168785715Y-51261905D01*
X168738096Y-51357143D01*
X168690477Y-51404762D01*
X168595239Y-51452381D01*
X168309524Y-51452381D01*
X168214286Y-51404762D01*
X168166667Y-51357143D01*
X197952381Y-51666666D02*
X197476190Y-52000000D01*
X197952381Y-52238095D02*
X196952381Y-52238095D01*
X196952381Y-51857142D01*
X197000000Y-51761904D01*
X197047619Y-51714285D01*
X197142857Y-51666666D01*
X197285714Y-51666666D01*
X197380952Y-51714285D01*
X197428571Y-51761904D01*
X197476190Y-51857142D01*
X197476190Y-52238095D01*
X196952381Y-50761904D02*
X196952381Y-51238095D01*
X197428571Y-51285714D01*
X197380952Y-51238095D01*
X197333333Y-51142857D01*
X197333333Y-50904761D01*
X197380952Y-50809523D01*
X197428571Y-50761904D01*
X197523810Y-50714285D01*
X197761905Y-50714285D01*
X197857143Y-50761904D01*
X197904762Y-50809523D01*
X197952381Y-50904761D01*
X197952381Y-51142857D01*
X197904762Y-51238095D01*
X197857143Y-51285714D01*
X215152381Y-59166666D02*
X214676190Y-59500000D01*
X215152381Y-59738095D02*
X214152381Y-59738095D01*
X214152381Y-59357142D01*
X214200000Y-59261904D01*
X214247619Y-59214285D01*
X214342857Y-59166666D01*
X214485714Y-59166666D01*
X214580952Y-59214285D01*
X214628571Y-59261904D01*
X214676190Y-59357142D01*
X214676190Y-59738095D01*
X214152381Y-58309523D02*
X214152381Y-58500000D01*
X214200000Y-58595238D01*
X214247619Y-58642857D01*
X214390476Y-58738095D01*
X214580952Y-58785714D01*
X214961905Y-58785714D01*
X215057143Y-58738095D01*
X215104762Y-58690476D01*
X215152381Y-58595238D01*
X215152381Y-58404761D01*
X215104762Y-58309523D01*
X215057143Y-58261904D01*
X214961905Y-58214285D01*
X214723810Y-58214285D01*
X214628571Y-58261904D01*
X214580952Y-58309523D01*
X214533333Y-58404761D01*
X214533333Y-58595238D01*
X214580952Y-58690476D01*
X214628571Y-58738095D01*
X214723810Y-58785714D01*
X202452381Y-59166666D02*
X201976190Y-59500000D01*
X202452381Y-59738095D02*
X201452381Y-59738095D01*
X201452381Y-59357142D01*
X201500000Y-59261904D01*
X201547619Y-59214285D01*
X201642857Y-59166666D01*
X201785714Y-59166666D01*
X201880952Y-59214285D01*
X201928571Y-59261904D01*
X201976190Y-59357142D01*
X201976190Y-59738095D01*
X201452381Y-58833333D02*
X201452381Y-58166666D01*
X202452381Y-58595238D01*
X202452381Y-51666666D02*
X201976190Y-52000000D01*
X202452381Y-52238095D02*
X201452381Y-52238095D01*
X201452381Y-51857142D01*
X201500000Y-51761904D01*
X201547619Y-51714285D01*
X201642857Y-51666666D01*
X201785714Y-51666666D01*
X201880952Y-51714285D01*
X201928571Y-51761904D01*
X201976190Y-51857142D01*
X201976190Y-52238095D01*
X201880952Y-51095238D02*
X201833333Y-51190476D01*
X201785714Y-51238095D01*
X201690476Y-51285714D01*
X201642857Y-51285714D01*
X201547619Y-51238095D01*
X201500000Y-51190476D01*
X201452381Y-51095238D01*
X201452381Y-50904761D01*
X201500000Y-50809523D01*
X201547619Y-50761904D01*
X201642857Y-50714285D01*
X201690476Y-50714285D01*
X201785714Y-50761904D01*
X201833333Y-50809523D01*
X201880952Y-50904761D01*
X201880952Y-51095238D01*
X201928571Y-51190476D01*
X201976190Y-51238095D01*
X202071429Y-51285714D01*
X202261905Y-51285714D01*
X202357143Y-51238095D01*
X202404762Y-51190476D01*
X202452381Y-51095238D01*
X202452381Y-50904761D01*
X202404762Y-50809523D01*
X202357143Y-50761904D01*
X202261905Y-50714285D01*
X202071429Y-50714285D01*
X201976190Y-50761904D01*
X201928571Y-50809523D01*
X201880952Y-50904761D01*
X241333334Y-49452381D02*
X241000000Y-48976190D01*
X240761905Y-49452381D02*
X240761905Y-48452381D01*
X241142858Y-48452381D01*
X241238096Y-48500000D01*
X241285715Y-48547619D01*
X241333334Y-48642857D01*
X241333334Y-48785714D01*
X241285715Y-48880952D01*
X241238096Y-48928571D01*
X241142858Y-48976190D01*
X240761905Y-48976190D01*
X241809524Y-49452381D02*
X242000000Y-49452381D01*
X242095239Y-49404762D01*
X242142858Y-49357143D01*
X242238096Y-49214286D01*
X242285715Y-49023810D01*
X242285715Y-48642857D01*
X242238096Y-48547619D01*
X242190477Y-48500000D01*
X242095239Y-48452381D01*
X241904762Y-48452381D01*
X241809524Y-48500000D01*
X241761905Y-48547619D01*
X241714286Y-48642857D01*
X241714286Y-48880952D01*
X241761905Y-48976190D01*
X241809524Y-49023810D01*
X241904762Y-49071429D01*
X242095239Y-49071429D01*
X242190477Y-49023810D01*
X242238096Y-48976190D01*
X242285715Y-48880952D01*
X174452381Y-59761905D02*
X175261905Y-59761905D01*
X175357143Y-59714286D01*
X175404762Y-59666667D01*
X175452381Y-59571429D01*
X175452381Y-59380952D01*
X175404762Y-59285714D01*
X175357143Y-59238095D01*
X175261905Y-59190476D01*
X174452381Y-59190476D01*
X175452381Y-58190476D02*
X175452381Y-58761905D01*
X175452381Y-58476191D02*
X174452381Y-58476191D01*
X174595238Y-58571429D01*
X174690476Y-58666667D01*
X174738095Y-58761905D01*
X262002381Y-90211905D02*
X262811905Y-90211905D01*
X262907143Y-90164286D01*
X262954762Y-90116667D01*
X263002381Y-90021429D01*
X263002381Y-89830952D01*
X262954762Y-89735714D01*
X262907143Y-89688095D01*
X262811905Y-89640476D01*
X262002381Y-89640476D01*
X262097619Y-89211905D02*
X262050000Y-89164286D01*
X262002381Y-89069048D01*
X262002381Y-88830952D01*
X262050000Y-88735714D01*
X262097619Y-88688095D01*
X262192857Y-88640476D01*
X262288095Y-88640476D01*
X262430952Y-88688095D01*
X263002381Y-89259524D01*
X263002381Y-88640476D01*
X188452381Y-59761905D02*
X189261905Y-59761905D01*
X189357143Y-59714286D01*
X189404762Y-59666667D01*
X189452381Y-59571429D01*
X189452381Y-59380952D01*
X189404762Y-59285714D01*
X189357143Y-59238095D01*
X189261905Y-59190476D01*
X188452381Y-59190476D01*
X188452381Y-58809524D02*
X188452381Y-58190476D01*
X188833333Y-58523810D01*
X188833333Y-58380952D01*
X188880952Y-58285714D01*
X188928571Y-58238095D01*
X189023810Y-58190476D01*
X189261905Y-58190476D01*
X189357143Y-58238095D01*
X189404762Y-58285714D01*
X189452381Y-58380952D01*
X189452381Y-58666667D01*
X189404762Y-58761905D01*
X189357143Y-58809524D01*
X210288095Y-61002381D02*
X210288095Y-61811905D01*
X210335714Y-61907143D01*
X210383333Y-61954762D01*
X210478571Y-62002381D01*
X210669048Y-62002381D01*
X210764286Y-61954762D01*
X210811905Y-61907143D01*
X210859524Y-61811905D01*
X210859524Y-61002381D01*
X211764286Y-61335714D02*
X211764286Y-62002381D01*
X211526190Y-60954762D02*
X211288095Y-61669048D01*
X211907143Y-61669048D01*
X245452381Y-65261905D02*
X246261905Y-65261905D01*
X246357143Y-65214286D01*
X246404762Y-65166667D01*
X246452381Y-65071429D01*
X246452381Y-64880952D01*
X246404762Y-64785714D01*
X246357143Y-64738095D01*
X246261905Y-64690476D01*
X245452381Y-64690476D01*
X245452381Y-63785714D02*
X245452381Y-63976191D01*
X245500000Y-64071429D01*
X245547619Y-64119048D01*
X245690476Y-64214286D01*
X245880952Y-64261905D01*
X246261905Y-64261905D01*
X246357143Y-64214286D01*
X246404762Y-64166667D01*
X246452381Y-64071429D01*
X246452381Y-63880952D01*
X246404762Y-63785714D01*
X246357143Y-63738095D01*
X246261905Y-63690476D01*
X246023810Y-63690476D01*
X245928571Y-63738095D01*
X245880952Y-63785714D01*
X245833333Y-63880952D01*
X245833333Y-64071429D01*
X245880952Y-64166667D01*
X245928571Y-64214286D01*
X246023810Y-64261905D01*
X246476190Y-55476191D02*
X246952381Y-55476191D01*
X245952381Y-55809524D02*
X246476190Y-55476191D01*
X245952381Y-55142857D01*
X246952381Y-54285714D02*
X246952381Y-54857143D01*
X246952381Y-54571429D02*
X245952381Y-54571429D01*
X246095238Y-54666667D01*
X246190476Y-54761905D01*
X246238095Y-54857143D01*
X170952381Y-86666666D02*
X170476190Y-87000000D01*
X170952381Y-87238095D02*
X169952381Y-87238095D01*
X169952381Y-86857142D01*
X170000000Y-86761904D01*
X170047619Y-86714285D01*
X170142857Y-86666666D01*
X170285714Y-86666666D01*
X170380952Y-86714285D01*
X170428571Y-86761904D01*
X170476190Y-86857142D01*
X170476190Y-87238095D01*
X170952381Y-85714285D02*
X170952381Y-86285714D01*
X170952381Y-86000000D02*
X169952381Y-86000000D01*
X170095238Y-86095238D01*
X170190476Y-86190476D01*
X170238095Y-86285714D01*
X234452381Y-86666666D02*
X233976190Y-87000000D01*
X234452381Y-87238095D02*
X233452381Y-87238095D01*
X233452381Y-86857142D01*
X233500000Y-86761904D01*
X233547619Y-86714285D01*
X233642857Y-86666666D01*
X233785714Y-86666666D01*
X233880952Y-86714285D01*
X233928571Y-86761904D01*
X233976190Y-86857142D01*
X233976190Y-87238095D01*
X233547619Y-86285714D02*
X233500000Y-86238095D01*
X233452381Y-86142857D01*
X233452381Y-85904761D01*
X233500000Y-85809523D01*
X233547619Y-85761904D01*
X233642857Y-85714285D01*
X233738095Y-85714285D01*
X233880952Y-85761904D01*
X234452381Y-86333333D01*
X234452381Y-85714285D01*
X244452381Y-86666666D02*
X243976190Y-87000000D01*
X244452381Y-87238095D02*
X243452381Y-87238095D01*
X243452381Y-86857142D01*
X243500000Y-86761904D01*
X243547619Y-86714285D01*
X243642857Y-86666666D01*
X243785714Y-86666666D01*
X243880952Y-86714285D01*
X243928571Y-86761904D01*
X243976190Y-86857142D01*
X243976190Y-87238095D01*
X243452381Y-86333333D02*
X243452381Y-85714285D01*
X243833333Y-86047619D01*
X243833333Y-85904761D01*
X243880952Y-85809523D01*
X243928571Y-85761904D01*
X244023810Y-85714285D01*
X244261905Y-85714285D01*
X244357143Y-85761904D01*
X244404762Y-85809523D01*
X244452381Y-85904761D01*
X244452381Y-86190476D01*
X244404762Y-86285714D01*
X244357143Y-86333333D01*
X252833334Y-98452381D02*
X252500000Y-97976190D01*
X252261905Y-98452381D02*
X252261905Y-97452381D01*
X252642858Y-97452381D01*
X252738096Y-97500000D01*
X252785715Y-97547619D01*
X252833334Y-97642857D01*
X252833334Y-97785714D01*
X252785715Y-97880952D01*
X252738096Y-97928571D01*
X252642858Y-97976190D01*
X252261905Y-97976190D01*
X253690477Y-97785714D02*
X253690477Y-98452381D01*
X253452381Y-97404762D02*
X253214286Y-98119048D01*
X253833334Y-98119048D01*
X227085714Y-74057857D02*
X227085714Y-75029286D01*
X227142857Y-75143571D01*
X227200000Y-75200714D01*
X227314286Y-75257857D01*
X227542857Y-75257857D01*
X227657143Y-75200714D01*
X227714286Y-75143571D01*
X227771429Y-75029286D01*
X227771429Y-74057857D01*
X228914286Y-74057857D02*
X228342857Y-74057857D01*
X228285714Y-74629286D01*
X228342857Y-74572143D01*
X228457143Y-74515000D01*
X228742857Y-74515000D01*
X228857143Y-74572143D01*
X228914286Y-74629286D01*
X228971429Y-74743571D01*
X228971429Y-75029286D01*
X228914286Y-75143571D01*
X228857143Y-75200714D01*
X228742857Y-75257857D01*
X228457143Y-75257857D01*
X228342857Y-75200714D01*
X228285714Y-75143571D01*
X180261905Y-98452381D02*
X180261905Y-97452381D01*
X180642858Y-97452381D01*
X180738096Y-97500000D01*
X180785715Y-97547619D01*
X180833334Y-97642857D01*
X180833334Y-97785714D01*
X180785715Y-97880952D01*
X180738096Y-97928571D01*
X180642858Y-97976190D01*
X180261905Y-97976190D01*
X181690477Y-97785714D02*
X181690477Y-98452381D01*
X181452381Y-97404762D02*
X181214286Y-98119048D01*
X181833334Y-98119048D01*
X180261905Y-47452381D02*
X180261905Y-46452381D01*
X180642858Y-46452381D01*
X180738096Y-46500000D01*
X180785715Y-46547619D01*
X180833334Y-46642857D01*
X180833334Y-46785714D01*
X180785715Y-46880952D01*
X180738096Y-46928571D01*
X180642858Y-46976190D01*
X180261905Y-46976190D01*
X181738096Y-46452381D02*
X181261905Y-46452381D01*
X181214286Y-46928571D01*
X181261905Y-46880952D01*
X181357143Y-46833333D01*
X181595239Y-46833333D01*
X181690477Y-46880952D01*
X181738096Y-46928571D01*
X181785715Y-47023810D01*
X181785715Y-47261905D01*
X181738096Y-47357143D01*
X181690477Y-47404762D01*
X181595239Y-47452381D01*
X181357143Y-47452381D01*
X181261905Y-47404762D01*
X181214286Y-47357143D01*
X254452381Y-49238095D02*
X253452381Y-49238095D01*
X253452381Y-48857142D01*
X253500000Y-48761904D01*
X253547619Y-48714285D01*
X253642857Y-48666666D01*
X253785714Y-48666666D01*
X253880952Y-48714285D01*
X253928571Y-48761904D01*
X253976190Y-48857142D01*
X253976190Y-49238095D01*
X253547619Y-48285714D02*
X253500000Y-48238095D01*
X253452381Y-48142857D01*
X253452381Y-47904761D01*
X253500000Y-47809523D01*
X253547619Y-47761904D01*
X253642857Y-47714285D01*
X253738095Y-47714285D01*
X253880952Y-47761904D01*
X254452381Y-48333333D01*
X254452381Y-47714285D01*
M02*
