G04 #@! TF.FileFunction,Copper,L2,Bot,Signal*
%FSLAX46Y46*%
G04 Gerber Fmt 4.6, Leading zero omitted, Abs format (unit mm)*
G04 Created by KiCad (PCBNEW 4.0.1-stable) date Tuesday, May 03, 2016 'AMt' 11:53:51 AM*
%MOMM*%
G01*
G04 APERTURE LIST*
%ADD10C,0.150000*%
%ADD11C,1.699260*%
%ADD12R,1.699260X1.699260*%
%ADD13R,2.000000X1.900000*%
%ADD14C,1.900000*%
%ADD15R,2.032000X1.727200*%
%ADD16O,2.032000X1.727200*%
%ADD17C,1.000760*%
%ADD18C,1.998980*%
%ADD19R,1.727200X2.032000*%
%ADD20O,1.727200X2.032000*%
%ADD21C,2.400000*%
%ADD22C,1.000000*%
%ADD23C,0.500000*%
%ADD24C,0.500000*%
%ADD25C,0.254000*%
G04 APERTURE END LIST*
D10*
D11*
X175502540Y-91660520D03*
D12*
X175502540Y-81500520D03*
D13*
X182500000Y-87850000D03*
D14*
X182500000Y-85310000D03*
D13*
X223680000Y-87850000D03*
D14*
X223680000Y-85310000D03*
D15*
X261500000Y-61000000D03*
D16*
X261500000Y-63540000D03*
X261500000Y-66080000D03*
X261500000Y-68620000D03*
D15*
X168000000Y-54000000D03*
D16*
X168000000Y-56540000D03*
X168000000Y-59080000D03*
X168000000Y-61620000D03*
X168000000Y-64160000D03*
X168000000Y-66700000D03*
X168000000Y-69240000D03*
X168000000Y-71780000D03*
D17*
X247750700Y-59000000D03*
X249249300Y-59000000D03*
D18*
X168000000Y-91580000D03*
X168000000Y-81420000D03*
X231500000Y-81420000D03*
X231500000Y-91580000D03*
X241500000Y-81420000D03*
X241500000Y-91580000D03*
X258080000Y-95500000D03*
X247920000Y-95500000D03*
D19*
X184000000Y-98000000D03*
D20*
X186540000Y-98000000D03*
X189080000Y-98000000D03*
X191620000Y-98000000D03*
D19*
X184000000Y-47000000D03*
D20*
X186540000Y-47000000D03*
X189080000Y-47000000D03*
X191620000Y-47000000D03*
D21*
X259755000Y-49370000D03*
X259755000Y-54450000D03*
X256580000Y-49370000D03*
X256580000Y-54450000D03*
D22*
X261660000Y-50894000D03*
X261660000Y-52926000D03*
X256580000Y-51910000D03*
X256580000Y-51910000D03*
X261660000Y-52926000D03*
X261660000Y-50894000D03*
D21*
X256580000Y-54450000D03*
X256580000Y-49370000D03*
X259755000Y-54450000D03*
X259755000Y-49370000D03*
D23*
X225500000Y-56000000D03*
X236500000Y-59500000D03*
X236500000Y-62500000D03*
X230500000Y-56000000D03*
X230500000Y-57000000D03*
X246000000Y-92000000D03*
X246000000Y-95000000D03*
X245000000Y-92000000D03*
X245000000Y-95000000D03*
X201500000Y-92000000D03*
X201500000Y-95000000D03*
X244000000Y-92000000D03*
X244000000Y-95000000D03*
X200500000Y-95000000D03*
X200500000Y-92000000D03*
X199500000Y-92000000D03*
X199500000Y-95000000D03*
X183500000Y-73000000D03*
X183500000Y-69000000D03*
X185500000Y-69000000D03*
X184500000Y-73000000D03*
X184500000Y-69000000D03*
X185500000Y-73000000D03*
X235500000Y-62500000D03*
X235500000Y-59500000D03*
X225500000Y-58000000D03*
X230500000Y-58000000D03*
X234500000Y-62500000D03*
X234500000Y-59500000D03*
X225500000Y-57000000D03*
X220000000Y-62500000D03*
X219000000Y-67500000D03*
X219000000Y-62500000D03*
X221000000Y-62500000D03*
X219000000Y-65000000D03*
X220000000Y-67500000D03*
X220000000Y-65000000D03*
X221000000Y-67500000D03*
X221000000Y-65000000D03*
X260000000Y-90500000D03*
X244500000Y-72500000D03*
X262474998Y-54500000D03*
X246500000Y-59500000D03*
X261000000Y-92000000D03*
X215500000Y-73500000D03*
X230500000Y-65000000D03*
X240000000Y-51000000D03*
X254500000Y-51000000D03*
X178000000Y-60500000D03*
X206500000Y-69500000D03*
X221000000Y-69500000D03*
X246500000Y-60500000D03*
X250500000Y-60500000D03*
X250500000Y-59500000D03*
X248000000Y-69500000D03*
X248500000Y-70000000D03*
X207500000Y-52000000D03*
X212000000Y-56500000D03*
X256000000Y-63000000D03*
X194000000Y-72500000D03*
X236000000Y-71500000D03*
X253000000Y-60500000D03*
X251500000Y-64500000D03*
X237500000Y-70000000D03*
X243000000Y-67500000D03*
X250000000Y-69500000D03*
X237500000Y-67500000D03*
X251500000Y-63000000D03*
X226000000Y-72500000D03*
X248000000Y-68500000D03*
D24*
X230500000Y-56000000D02*
X225500000Y-56000000D01*
X233000000Y-56000000D02*
X236500000Y-59500000D01*
X230500000Y-56000000D02*
X233000000Y-56000000D01*
X245000000Y-95000000D02*
X246000000Y-95000000D01*
X244000000Y-95000000D02*
X245000000Y-95000000D01*
X201500000Y-95000000D02*
X244000000Y-95000000D01*
X200500000Y-92000000D02*
X201500000Y-92000000D01*
X199500000Y-92000000D02*
X200500000Y-92000000D01*
X186540000Y-98000000D02*
X186540000Y-97960000D01*
X186540000Y-97960000D02*
X192500000Y-92000000D01*
X192500000Y-92000000D02*
X199500000Y-92000000D01*
X184500000Y-69000000D02*
X183500000Y-69000000D01*
X185500000Y-69000000D02*
X184500000Y-69000000D01*
X230500000Y-57000000D02*
X233000000Y-57000000D01*
X233000000Y-57000000D02*
X235500000Y-59500000D01*
X230500000Y-58000000D02*
X233000000Y-58000000D01*
X225500000Y-58000000D02*
X230500000Y-58000000D01*
X233000000Y-58000000D02*
X234500000Y-59500000D01*
X225500000Y-57000000D02*
X230500000Y-57000000D01*
X220000000Y-65000000D02*
X220000000Y-62500000D01*
X219000000Y-67500000D02*
X219000000Y-65000000D01*
X219000000Y-62500000D02*
X219000000Y-65000000D01*
X221000000Y-62500000D02*
X221000000Y-65000000D01*
X220000000Y-67500000D02*
X220000000Y-65000000D01*
X221000000Y-65000000D02*
X221000000Y-67500000D01*
X254500000Y-92000000D02*
X261000000Y-92000000D01*
X224000000Y-76500000D02*
X239000000Y-76500000D01*
X221000000Y-73500000D02*
X215500000Y-73500000D01*
X224000000Y-76500000D02*
X221000000Y-73500000D01*
X239000000Y-76500000D02*
X254500000Y-92000000D01*
X230500000Y-62500000D02*
X228500000Y-60500000D01*
X230500000Y-65000000D02*
X230500000Y-62500000D01*
X252500000Y-52500000D02*
X252500000Y-57500000D01*
X261960000Y-63540000D02*
X263000000Y-62500000D01*
X263000000Y-59500000D02*
X262000000Y-58500000D01*
X263000000Y-62500000D02*
X263000000Y-59500000D01*
X252500000Y-52500000D02*
X251000000Y-51000000D01*
X253500000Y-58500000D02*
X262000000Y-58500000D01*
X252500000Y-57500000D02*
X253500000Y-58500000D01*
X261500000Y-63540000D02*
X261960000Y-63540000D01*
X237500000Y-60500000D02*
X238500000Y-59500000D01*
X228500000Y-60500000D02*
X237500000Y-60500000D01*
X238500000Y-59500000D02*
X238500000Y-52500000D01*
X238500000Y-52500000D02*
X240000000Y-51000000D01*
X240000000Y-51000000D02*
X251000000Y-51000000D01*
X251000000Y-51000000D02*
X254500000Y-51000000D01*
X178000000Y-60500000D02*
X228500000Y-60500000D01*
X191620000Y-98000000D02*
X191620000Y-96500000D01*
X256000000Y-93500000D02*
X194620000Y-93500000D01*
X194620000Y-93500000D02*
X191620000Y-96500000D01*
X256000000Y-93500000D02*
X258000000Y-95500000D01*
X258080000Y-95500000D02*
X258000000Y-95500000D01*
X168000000Y-59080000D02*
X179920000Y-59080000D01*
X186540000Y-52460000D02*
X186540000Y-47000000D01*
X179920000Y-59080000D02*
X186540000Y-52460000D01*
X168000000Y-59080000D02*
X168420000Y-59080000D01*
X221000000Y-69500000D02*
X206500000Y-69500000D01*
X250500000Y-60500000D02*
X246500000Y-60500000D01*
X182500000Y-85310000D02*
X181690000Y-85310000D01*
X181690000Y-85310000D02*
X180500000Y-86500000D01*
X183000000Y-98000000D02*
X180500000Y-95500000D01*
X180500000Y-95500000D02*
X180500000Y-90500000D01*
X184000000Y-98000000D02*
X183000000Y-98000000D01*
X180500000Y-86500000D02*
X180500000Y-90500000D01*
X260000000Y-59500000D02*
X261500000Y-61000000D01*
X259000000Y-59500000D02*
X260000000Y-59500000D01*
X255000000Y-59500000D02*
X259000000Y-59500000D01*
X250500000Y-59500000D02*
X255000000Y-59500000D01*
X222500000Y-70500000D02*
X225500000Y-73500000D01*
X222500000Y-70500000D02*
X169260000Y-70500000D01*
X168000000Y-69240000D02*
X169260000Y-70500000D01*
X225500000Y-73500000D02*
X237000000Y-73500000D01*
X248000000Y-69500000D02*
X241000000Y-69500000D01*
X241000000Y-69500000D02*
X237000000Y-73500000D01*
X225000000Y-74500000D02*
X222000000Y-71500000D01*
X248000000Y-70500000D02*
X241500000Y-70500000D01*
X241500000Y-70500000D02*
X237500000Y-74500000D01*
X248500000Y-70000000D02*
X248000000Y-70500000D01*
X225000000Y-74500000D02*
X237500000Y-74500000D01*
X222000000Y-71500000D02*
X168280000Y-71500000D01*
X168280000Y-71500000D02*
X168000000Y-71780000D01*
X207500000Y-52000000D02*
X212000000Y-56500000D01*
X224500000Y-75500000D02*
X221500000Y-72500000D01*
X256000000Y-63000000D02*
X256000000Y-65000000D01*
X256000000Y-65000000D02*
X249500000Y-71500000D01*
X249500000Y-71500000D02*
X242000000Y-71500000D01*
X242000000Y-71500000D02*
X238000000Y-75500000D01*
X224500000Y-75500000D02*
X238000000Y-75500000D01*
X221500000Y-72500000D02*
X194000000Y-72500000D01*
X253000000Y-60500000D02*
X252500000Y-60500000D01*
X236000000Y-67500000D02*
X236000000Y-71500000D01*
X239000000Y-64500000D02*
X236000000Y-67500000D01*
X248500000Y-64500000D02*
X239000000Y-64500000D01*
X252500000Y-60500000D02*
X248500000Y-64500000D01*
X249500000Y-66500000D02*
X251500000Y-64500000D01*
X241000000Y-66500000D02*
X237500000Y-70000000D01*
X241000000Y-66500000D02*
X249500000Y-66500000D01*
X248000000Y-67500000D02*
X250000000Y-69500000D01*
X248000000Y-67500000D02*
X243000000Y-67500000D01*
X239500000Y-65500000D02*
X249000000Y-65500000D01*
X239500000Y-65500000D02*
X237500000Y-67500000D01*
X249000000Y-65500000D02*
X251500000Y-63000000D01*
X236500000Y-72500000D02*
X226000000Y-72500000D01*
X248000000Y-68500000D02*
X240500000Y-68500000D01*
X240500000Y-68500000D02*
X236500000Y-72500000D01*
D25*
G36*
X261636390Y-46049408D02*
X263023654Y-46976349D01*
X263950592Y-48363610D01*
X264290000Y-50069931D01*
X264290000Y-94930069D01*
X263950592Y-96636390D01*
X263023654Y-98023651D01*
X261636390Y-98950592D01*
X259930069Y-99290000D01*
X192611447Y-99290000D01*
X192679670Y-99244415D01*
X193004526Y-98758234D01*
X193118600Y-98184745D01*
X193118600Y-97815255D01*
X193004526Y-97241766D01*
X192679670Y-96755585D01*
X192641500Y-96730080D01*
X194986579Y-94385000D01*
X246723409Y-94385000D01*
X246535154Y-94572927D01*
X246285794Y-95173453D01*
X246285226Y-95823694D01*
X246533538Y-96424655D01*
X246992927Y-96884846D01*
X247593453Y-97134206D01*
X248243694Y-97134774D01*
X248844655Y-96886462D01*
X249304846Y-96427073D01*
X249554206Y-95826547D01*
X249554774Y-95176306D01*
X249306462Y-94575345D01*
X249116449Y-94385000D01*
X255633420Y-94385000D01*
X256445773Y-95197353D01*
X256445226Y-95823694D01*
X256693538Y-96424655D01*
X257152927Y-96884846D01*
X257753453Y-97134206D01*
X258403694Y-97134774D01*
X259004655Y-96886462D01*
X259464846Y-96427073D01*
X259714206Y-95826547D01*
X259714774Y-95176306D01*
X259466462Y-94575345D01*
X259007073Y-94115154D01*
X258406547Y-93865794D01*
X257756306Y-93865226D01*
X257657593Y-93906013D01*
X256636580Y-92885000D01*
X260999801Y-92885000D01*
X261175265Y-92885153D01*
X261500657Y-92750704D01*
X261625788Y-92625791D01*
X261625790Y-92625790D01*
X261625791Y-92625788D01*
X261749829Y-92501967D01*
X261884846Y-92176810D01*
X261885153Y-91824735D01*
X261750704Y-91499343D01*
X261625791Y-91374212D01*
X261625790Y-91374210D01*
X261625788Y-91374209D01*
X261501967Y-91250171D01*
X261176810Y-91115154D01*
X260824735Y-91114847D01*
X260824365Y-91115000D01*
X254866579Y-91115000D01*
X239625790Y-75874210D01*
X239572606Y-75838674D01*
X239338675Y-75682367D01*
X239282484Y-75671190D01*
X239113920Y-75637660D01*
X242366579Y-72385000D01*
X249499995Y-72385000D01*
X249500000Y-72385001D01*
X249810738Y-72323190D01*
X249838675Y-72317633D01*
X250125790Y-72125790D01*
X250125791Y-72125789D01*
X253631579Y-68620000D01*
X259816655Y-68620000D01*
X259930729Y-69193489D01*
X260255585Y-69679670D01*
X260741766Y-70004526D01*
X261315255Y-70118600D01*
X261684745Y-70118600D01*
X262258234Y-70004526D01*
X262744415Y-69679670D01*
X263069271Y-69193489D01*
X263183345Y-68620000D01*
X263069271Y-68046511D01*
X262744415Y-67560330D01*
X262434931Y-67353539D01*
X262850732Y-66982036D01*
X263104709Y-66454791D01*
X263107358Y-66439026D01*
X262986217Y-66207000D01*
X261627000Y-66207000D01*
X261627000Y-66227000D01*
X261373000Y-66227000D01*
X261373000Y-66207000D01*
X260013783Y-66207000D01*
X259892642Y-66439026D01*
X259895291Y-66454791D01*
X260149268Y-66982036D01*
X260565069Y-67353539D01*
X260255585Y-67560330D01*
X259930729Y-68046511D01*
X259816655Y-68620000D01*
X253631579Y-68620000D01*
X256625787Y-65625792D01*
X256625790Y-65625790D01*
X256817633Y-65338675D01*
X256841305Y-65219670D01*
X256885001Y-65000000D01*
X256885000Y-64999995D01*
X256885000Y-63000000D01*
X256885153Y-62824735D01*
X256750704Y-62499343D01*
X256625791Y-62374212D01*
X256625790Y-62374210D01*
X256625788Y-62374209D01*
X256501967Y-62250171D01*
X256176810Y-62115154D01*
X255824735Y-62114847D01*
X255499343Y-62249296D01*
X255374212Y-62374209D01*
X255374210Y-62374210D01*
X255374209Y-62374212D01*
X255250171Y-62498033D01*
X255115154Y-62823190D01*
X255114847Y-63175265D01*
X255115000Y-63175635D01*
X255115000Y-64633421D01*
X250749891Y-68998529D01*
X250501967Y-68750171D01*
X250501596Y-68750017D01*
X249136580Y-67385000D01*
X249499995Y-67385000D01*
X249500000Y-67385001D01*
X249810738Y-67323190D01*
X249838675Y-67317633D01*
X250125790Y-67125790D01*
X252125789Y-65125790D01*
X252125790Y-65125789D01*
X252249829Y-65001967D01*
X252384846Y-64676810D01*
X252385000Y-64500004D01*
X252385001Y-64500000D01*
X252385000Y-64499996D01*
X252385153Y-64324735D01*
X252250704Y-63999343D01*
X252001967Y-63750171D01*
X252001572Y-63750007D01*
X252125790Y-63625789D01*
X252249829Y-63501967D01*
X252384846Y-63176810D01*
X252385000Y-63000004D01*
X252385001Y-63000000D01*
X252385000Y-62999996D01*
X252385153Y-62824735D01*
X252250704Y-62499343D01*
X252125791Y-62374212D01*
X252125790Y-62374210D01*
X252125788Y-62374209D01*
X252001967Y-62250171D01*
X252001572Y-62250007D01*
X252866579Y-61385000D01*
X252999801Y-61385000D01*
X253175265Y-61385153D01*
X253500657Y-61250704D01*
X253625788Y-61125791D01*
X253625790Y-61125790D01*
X253625791Y-61125788D01*
X253749829Y-61001967D01*
X253884846Y-60676810D01*
X253885100Y-60385000D01*
X259633420Y-60385000D01*
X259836560Y-60588140D01*
X259836560Y-61863600D01*
X259880838Y-62098917D01*
X260019910Y-62315041D01*
X260232110Y-62460031D01*
X260273439Y-62468400D01*
X260255585Y-62480330D01*
X259930729Y-62966511D01*
X259816655Y-63540000D01*
X259930729Y-64113489D01*
X260255585Y-64599670D01*
X260565069Y-64806461D01*
X260149268Y-65177964D01*
X259895291Y-65705209D01*
X259892642Y-65720974D01*
X260013783Y-65953000D01*
X261373000Y-65953000D01*
X261373000Y-65933000D01*
X261627000Y-65933000D01*
X261627000Y-65953000D01*
X262986217Y-65953000D01*
X263107358Y-65720974D01*
X263104709Y-65705209D01*
X262850732Y-65177964D01*
X262434931Y-64806461D01*
X262744415Y-64599670D01*
X263069271Y-64113489D01*
X263176334Y-63575245D01*
X263625787Y-63125792D01*
X263625790Y-63125790D01*
X263817633Y-62838675D01*
X263830205Y-62775474D01*
X263885001Y-62500000D01*
X263885000Y-62499995D01*
X263885000Y-59500005D01*
X263885001Y-59500000D01*
X263817634Y-59161326D01*
X263753975Y-59066054D01*
X263625790Y-58874210D01*
X263625787Y-58874208D01*
X262625790Y-57874210D01*
X262562549Y-57831954D01*
X262338675Y-57682367D01*
X262282484Y-57671190D01*
X262000000Y-57614999D01*
X261999995Y-57615000D01*
X253866579Y-57615000D01*
X253385000Y-57133420D01*
X253385000Y-52500000D01*
X253317633Y-52161325D01*
X253133000Y-51885000D01*
X254499801Y-51885000D01*
X254675265Y-51885153D01*
X255000657Y-51750704D01*
X255125788Y-51625791D01*
X255125790Y-51625790D01*
X255125791Y-51625788D01*
X255249829Y-51501967D01*
X255384846Y-51176810D01*
X255385153Y-50824735D01*
X255346858Y-50732053D01*
X255539199Y-50924730D01*
X255836705Y-51048265D01*
X255618355Y-51266235D01*
X255445197Y-51683244D01*
X255444803Y-52134775D01*
X255617233Y-52552086D01*
X255836499Y-52771735D01*
X255541914Y-52893455D01*
X255025270Y-53409199D01*
X254745319Y-54083395D01*
X254744682Y-54813403D01*
X255023455Y-55488086D01*
X255539199Y-56004730D01*
X256213395Y-56284681D01*
X256943403Y-56285318D01*
X257618086Y-56006545D01*
X258134730Y-55490801D01*
X258167233Y-55412524D01*
X258198455Y-55488086D01*
X258714199Y-56004730D01*
X259388395Y-56284681D01*
X260118403Y-56285318D01*
X260793086Y-56006545D01*
X261309730Y-55490801D01*
X261589681Y-54816605D01*
X261590318Y-54086597D01*
X261579713Y-54060931D01*
X261884775Y-54061197D01*
X262302086Y-53888767D01*
X262621645Y-53569765D01*
X262794803Y-53152756D01*
X262795197Y-52701225D01*
X262622767Y-52283914D01*
X262303765Y-51964355D01*
X262173058Y-51910080D01*
X262302086Y-51856767D01*
X262621645Y-51537765D01*
X262794803Y-51120756D01*
X262795197Y-50669225D01*
X262622767Y-50251914D01*
X262303765Y-49932355D01*
X261886756Y-49759197D01*
X261580411Y-49758930D01*
X261589681Y-49736605D01*
X261590318Y-49006597D01*
X261311545Y-48331914D01*
X260795801Y-47815270D01*
X260121605Y-47535319D01*
X259391597Y-47534682D01*
X258716914Y-47813455D01*
X258200270Y-48329199D01*
X258167767Y-48407476D01*
X258136545Y-48331914D01*
X257620801Y-47815270D01*
X256946605Y-47535319D01*
X256216597Y-47534682D01*
X255541914Y-47813455D01*
X255025270Y-48329199D01*
X254745319Y-49003395D01*
X254744682Y-49733403D01*
X254949143Y-50228236D01*
X254676810Y-50115154D01*
X254324735Y-50114847D01*
X254324365Y-50115000D01*
X251000005Y-50115000D01*
X251000000Y-50114999D01*
X250999995Y-50115000D01*
X240000199Y-50115000D01*
X239824735Y-50114847D01*
X239499343Y-50249296D01*
X239374212Y-50374209D01*
X239374210Y-50374210D01*
X239374209Y-50374212D01*
X239250171Y-50498033D01*
X239250017Y-50498404D01*
X237874210Y-51874210D01*
X237682367Y-52161325D01*
X237682367Y-52161326D01*
X237614999Y-52500000D01*
X237615000Y-52500005D01*
X237615000Y-59133421D01*
X237133420Y-59615000D01*
X228500005Y-59615000D01*
X228500000Y-59614999D01*
X228499995Y-59615000D01*
X180636580Y-59615000D01*
X187165787Y-53085792D01*
X187165790Y-53085790D01*
X187357633Y-52798675D01*
X187382769Y-52672310D01*
X187425001Y-52460000D01*
X187425000Y-52459995D01*
X187425000Y-52175265D01*
X206614847Y-52175265D01*
X206749296Y-52500657D01*
X206874209Y-52625788D01*
X206874210Y-52625790D01*
X206874522Y-52626102D01*
X206998033Y-52749829D01*
X206998402Y-52749982D01*
X211373950Y-57125529D01*
X211498033Y-57249829D01*
X211823190Y-57384846D01*
X211999996Y-57385000D01*
X212000000Y-57385001D01*
X212000004Y-57385000D01*
X212175265Y-57385153D01*
X212500657Y-57250704D01*
X212749829Y-57001967D01*
X212884846Y-56676810D01*
X212885000Y-56500004D01*
X212885001Y-56500000D01*
X212885000Y-56499996D01*
X212885153Y-56324735D01*
X212750704Y-55999343D01*
X212501967Y-55750171D01*
X212501596Y-55750017D01*
X208125790Y-51374210D01*
X208125788Y-51374209D01*
X208001967Y-51250171D01*
X207676810Y-51115154D01*
X207500004Y-51115000D01*
X207500000Y-51114999D01*
X207499996Y-51115000D01*
X207324735Y-51114847D01*
X206999343Y-51249296D01*
X206874212Y-51374209D01*
X206874210Y-51374210D01*
X206874209Y-51374212D01*
X206750171Y-51498033D01*
X206615154Y-51823190D01*
X206615000Y-51999996D01*
X206614999Y-52000000D01*
X206615000Y-52000004D01*
X206614847Y-52175265D01*
X187425000Y-52175265D01*
X187425000Y-48361126D01*
X187599670Y-48244415D01*
X187810000Y-47929634D01*
X188020330Y-48244415D01*
X188506511Y-48569271D01*
X189080000Y-48683345D01*
X189653489Y-48569271D01*
X190139670Y-48244415D01*
X190350000Y-47929634D01*
X190560330Y-48244415D01*
X191046511Y-48569271D01*
X191620000Y-48683345D01*
X192193489Y-48569271D01*
X192679670Y-48244415D01*
X193004526Y-47758234D01*
X193118600Y-47184745D01*
X193118600Y-46815255D01*
X193004526Y-46241766D01*
X192679670Y-45755585D01*
X192611447Y-45710000D01*
X259930069Y-45710000D01*
X261636390Y-46049408D01*
X261636390Y-46049408D01*
G37*
X261636390Y-46049408D02*
X263023654Y-46976349D01*
X263950592Y-48363610D01*
X264290000Y-50069931D01*
X264290000Y-94930069D01*
X263950592Y-96636390D01*
X263023654Y-98023651D01*
X261636390Y-98950592D01*
X259930069Y-99290000D01*
X192611447Y-99290000D01*
X192679670Y-99244415D01*
X193004526Y-98758234D01*
X193118600Y-98184745D01*
X193118600Y-97815255D01*
X193004526Y-97241766D01*
X192679670Y-96755585D01*
X192641500Y-96730080D01*
X194986579Y-94385000D01*
X246723409Y-94385000D01*
X246535154Y-94572927D01*
X246285794Y-95173453D01*
X246285226Y-95823694D01*
X246533538Y-96424655D01*
X246992927Y-96884846D01*
X247593453Y-97134206D01*
X248243694Y-97134774D01*
X248844655Y-96886462D01*
X249304846Y-96427073D01*
X249554206Y-95826547D01*
X249554774Y-95176306D01*
X249306462Y-94575345D01*
X249116449Y-94385000D01*
X255633420Y-94385000D01*
X256445773Y-95197353D01*
X256445226Y-95823694D01*
X256693538Y-96424655D01*
X257152927Y-96884846D01*
X257753453Y-97134206D01*
X258403694Y-97134774D01*
X259004655Y-96886462D01*
X259464846Y-96427073D01*
X259714206Y-95826547D01*
X259714774Y-95176306D01*
X259466462Y-94575345D01*
X259007073Y-94115154D01*
X258406547Y-93865794D01*
X257756306Y-93865226D01*
X257657593Y-93906013D01*
X256636580Y-92885000D01*
X260999801Y-92885000D01*
X261175265Y-92885153D01*
X261500657Y-92750704D01*
X261625788Y-92625791D01*
X261625790Y-92625790D01*
X261625791Y-92625788D01*
X261749829Y-92501967D01*
X261884846Y-92176810D01*
X261885153Y-91824735D01*
X261750704Y-91499343D01*
X261625791Y-91374212D01*
X261625790Y-91374210D01*
X261625788Y-91374209D01*
X261501967Y-91250171D01*
X261176810Y-91115154D01*
X260824735Y-91114847D01*
X260824365Y-91115000D01*
X254866579Y-91115000D01*
X239625790Y-75874210D01*
X239572606Y-75838674D01*
X239338675Y-75682367D01*
X239282484Y-75671190D01*
X239113920Y-75637660D01*
X242366579Y-72385000D01*
X249499995Y-72385000D01*
X249500000Y-72385001D01*
X249810738Y-72323190D01*
X249838675Y-72317633D01*
X250125790Y-72125790D01*
X250125791Y-72125789D01*
X253631579Y-68620000D01*
X259816655Y-68620000D01*
X259930729Y-69193489D01*
X260255585Y-69679670D01*
X260741766Y-70004526D01*
X261315255Y-70118600D01*
X261684745Y-70118600D01*
X262258234Y-70004526D01*
X262744415Y-69679670D01*
X263069271Y-69193489D01*
X263183345Y-68620000D01*
X263069271Y-68046511D01*
X262744415Y-67560330D01*
X262434931Y-67353539D01*
X262850732Y-66982036D01*
X263104709Y-66454791D01*
X263107358Y-66439026D01*
X262986217Y-66207000D01*
X261627000Y-66207000D01*
X261627000Y-66227000D01*
X261373000Y-66227000D01*
X261373000Y-66207000D01*
X260013783Y-66207000D01*
X259892642Y-66439026D01*
X259895291Y-66454791D01*
X260149268Y-66982036D01*
X260565069Y-67353539D01*
X260255585Y-67560330D01*
X259930729Y-68046511D01*
X259816655Y-68620000D01*
X253631579Y-68620000D01*
X256625787Y-65625792D01*
X256625790Y-65625790D01*
X256817633Y-65338675D01*
X256841305Y-65219670D01*
X256885001Y-65000000D01*
X256885000Y-64999995D01*
X256885000Y-63000000D01*
X256885153Y-62824735D01*
X256750704Y-62499343D01*
X256625791Y-62374212D01*
X256625790Y-62374210D01*
X256625788Y-62374209D01*
X256501967Y-62250171D01*
X256176810Y-62115154D01*
X255824735Y-62114847D01*
X255499343Y-62249296D01*
X255374212Y-62374209D01*
X255374210Y-62374210D01*
X255374209Y-62374212D01*
X255250171Y-62498033D01*
X255115154Y-62823190D01*
X255114847Y-63175265D01*
X255115000Y-63175635D01*
X255115000Y-64633421D01*
X250749891Y-68998529D01*
X250501967Y-68750171D01*
X250501596Y-68750017D01*
X249136580Y-67385000D01*
X249499995Y-67385000D01*
X249500000Y-67385001D01*
X249810738Y-67323190D01*
X249838675Y-67317633D01*
X250125790Y-67125790D01*
X252125789Y-65125790D01*
X252125790Y-65125789D01*
X252249829Y-65001967D01*
X252384846Y-64676810D01*
X252385000Y-64500004D01*
X252385001Y-64500000D01*
X252385000Y-64499996D01*
X252385153Y-64324735D01*
X252250704Y-63999343D01*
X252001967Y-63750171D01*
X252001572Y-63750007D01*
X252125790Y-63625789D01*
X252249829Y-63501967D01*
X252384846Y-63176810D01*
X252385000Y-63000004D01*
X252385001Y-63000000D01*
X252385000Y-62999996D01*
X252385153Y-62824735D01*
X252250704Y-62499343D01*
X252125791Y-62374212D01*
X252125790Y-62374210D01*
X252125788Y-62374209D01*
X252001967Y-62250171D01*
X252001572Y-62250007D01*
X252866579Y-61385000D01*
X252999801Y-61385000D01*
X253175265Y-61385153D01*
X253500657Y-61250704D01*
X253625788Y-61125791D01*
X253625790Y-61125790D01*
X253625791Y-61125788D01*
X253749829Y-61001967D01*
X253884846Y-60676810D01*
X253885100Y-60385000D01*
X259633420Y-60385000D01*
X259836560Y-60588140D01*
X259836560Y-61863600D01*
X259880838Y-62098917D01*
X260019910Y-62315041D01*
X260232110Y-62460031D01*
X260273439Y-62468400D01*
X260255585Y-62480330D01*
X259930729Y-62966511D01*
X259816655Y-63540000D01*
X259930729Y-64113489D01*
X260255585Y-64599670D01*
X260565069Y-64806461D01*
X260149268Y-65177964D01*
X259895291Y-65705209D01*
X259892642Y-65720974D01*
X260013783Y-65953000D01*
X261373000Y-65953000D01*
X261373000Y-65933000D01*
X261627000Y-65933000D01*
X261627000Y-65953000D01*
X262986217Y-65953000D01*
X263107358Y-65720974D01*
X263104709Y-65705209D01*
X262850732Y-65177964D01*
X262434931Y-64806461D01*
X262744415Y-64599670D01*
X263069271Y-64113489D01*
X263176334Y-63575245D01*
X263625787Y-63125792D01*
X263625790Y-63125790D01*
X263817633Y-62838675D01*
X263830205Y-62775474D01*
X263885001Y-62500000D01*
X263885000Y-62499995D01*
X263885000Y-59500005D01*
X263885001Y-59500000D01*
X263817634Y-59161326D01*
X263753975Y-59066054D01*
X263625790Y-58874210D01*
X263625787Y-58874208D01*
X262625790Y-57874210D01*
X262562549Y-57831954D01*
X262338675Y-57682367D01*
X262282484Y-57671190D01*
X262000000Y-57614999D01*
X261999995Y-57615000D01*
X253866579Y-57615000D01*
X253385000Y-57133420D01*
X253385000Y-52500000D01*
X253317633Y-52161325D01*
X253133000Y-51885000D01*
X254499801Y-51885000D01*
X254675265Y-51885153D01*
X255000657Y-51750704D01*
X255125788Y-51625791D01*
X255125790Y-51625790D01*
X255125791Y-51625788D01*
X255249829Y-51501967D01*
X255384846Y-51176810D01*
X255385153Y-50824735D01*
X255346858Y-50732053D01*
X255539199Y-50924730D01*
X255836705Y-51048265D01*
X255618355Y-51266235D01*
X255445197Y-51683244D01*
X255444803Y-52134775D01*
X255617233Y-52552086D01*
X255836499Y-52771735D01*
X255541914Y-52893455D01*
X255025270Y-53409199D01*
X254745319Y-54083395D01*
X254744682Y-54813403D01*
X255023455Y-55488086D01*
X255539199Y-56004730D01*
X256213395Y-56284681D01*
X256943403Y-56285318D01*
X257618086Y-56006545D01*
X258134730Y-55490801D01*
X258167233Y-55412524D01*
X258198455Y-55488086D01*
X258714199Y-56004730D01*
X259388395Y-56284681D01*
X260118403Y-56285318D01*
X260793086Y-56006545D01*
X261309730Y-55490801D01*
X261589681Y-54816605D01*
X261590318Y-54086597D01*
X261579713Y-54060931D01*
X261884775Y-54061197D01*
X262302086Y-53888767D01*
X262621645Y-53569765D01*
X262794803Y-53152756D01*
X262795197Y-52701225D01*
X262622767Y-52283914D01*
X262303765Y-51964355D01*
X262173058Y-51910080D01*
X262302086Y-51856767D01*
X262621645Y-51537765D01*
X262794803Y-51120756D01*
X262795197Y-50669225D01*
X262622767Y-50251914D01*
X262303765Y-49932355D01*
X261886756Y-49759197D01*
X261580411Y-49758930D01*
X261589681Y-49736605D01*
X261590318Y-49006597D01*
X261311545Y-48331914D01*
X260795801Y-47815270D01*
X260121605Y-47535319D01*
X259391597Y-47534682D01*
X258716914Y-47813455D01*
X258200270Y-48329199D01*
X258167767Y-48407476D01*
X258136545Y-48331914D01*
X257620801Y-47815270D01*
X256946605Y-47535319D01*
X256216597Y-47534682D01*
X255541914Y-47813455D01*
X255025270Y-48329199D01*
X254745319Y-49003395D01*
X254744682Y-49733403D01*
X254949143Y-50228236D01*
X254676810Y-50115154D01*
X254324735Y-50114847D01*
X254324365Y-50115000D01*
X251000005Y-50115000D01*
X251000000Y-50114999D01*
X250999995Y-50115000D01*
X240000199Y-50115000D01*
X239824735Y-50114847D01*
X239499343Y-50249296D01*
X239374212Y-50374209D01*
X239374210Y-50374210D01*
X239374209Y-50374212D01*
X239250171Y-50498033D01*
X239250017Y-50498404D01*
X237874210Y-51874210D01*
X237682367Y-52161325D01*
X237682367Y-52161326D01*
X237614999Y-52500000D01*
X237615000Y-52500005D01*
X237615000Y-59133421D01*
X237133420Y-59615000D01*
X228500005Y-59615000D01*
X228500000Y-59614999D01*
X228499995Y-59615000D01*
X180636580Y-59615000D01*
X187165787Y-53085792D01*
X187165790Y-53085790D01*
X187357633Y-52798675D01*
X187382769Y-52672310D01*
X187425001Y-52460000D01*
X187425000Y-52459995D01*
X187425000Y-52175265D01*
X206614847Y-52175265D01*
X206749296Y-52500657D01*
X206874209Y-52625788D01*
X206874210Y-52625790D01*
X206874522Y-52626102D01*
X206998033Y-52749829D01*
X206998402Y-52749982D01*
X211373950Y-57125529D01*
X211498033Y-57249829D01*
X211823190Y-57384846D01*
X211999996Y-57385000D01*
X212000000Y-57385001D01*
X212000004Y-57385000D01*
X212175265Y-57385153D01*
X212500657Y-57250704D01*
X212749829Y-57001967D01*
X212884846Y-56676810D01*
X212885000Y-56500004D01*
X212885001Y-56500000D01*
X212885000Y-56499996D01*
X212885153Y-56324735D01*
X212750704Y-55999343D01*
X212501967Y-55750171D01*
X212501596Y-55750017D01*
X208125790Y-51374210D01*
X208125788Y-51374209D01*
X208001967Y-51250171D01*
X207676810Y-51115154D01*
X207500004Y-51115000D01*
X207500000Y-51114999D01*
X207499996Y-51115000D01*
X207324735Y-51114847D01*
X206999343Y-51249296D01*
X206874212Y-51374209D01*
X206874210Y-51374210D01*
X206874209Y-51374212D01*
X206750171Y-51498033D01*
X206615154Y-51823190D01*
X206615000Y-51999996D01*
X206614999Y-52000000D01*
X206615000Y-52000004D01*
X206614847Y-52175265D01*
X187425000Y-52175265D01*
X187425000Y-48361126D01*
X187599670Y-48244415D01*
X187810000Y-47929634D01*
X188020330Y-48244415D01*
X188506511Y-48569271D01*
X189080000Y-48683345D01*
X189653489Y-48569271D01*
X190139670Y-48244415D01*
X190350000Y-47929634D01*
X190560330Y-48244415D01*
X191046511Y-48569271D01*
X191620000Y-48683345D01*
X192193489Y-48569271D01*
X192679670Y-48244415D01*
X193004526Y-47758234D01*
X193118600Y-47184745D01*
X193118600Y-46815255D01*
X193004526Y-46241766D01*
X192679670Y-45755585D01*
X192611447Y-45710000D01*
X259930069Y-45710000D01*
X261636390Y-46049408D01*
G36*
X182501400Y-45857691D02*
X182501400Y-46714250D01*
X182660150Y-46873000D01*
X183873000Y-46873000D01*
X183873000Y-46853000D01*
X184127000Y-46853000D01*
X184127000Y-46873000D01*
X184147000Y-46873000D01*
X184147000Y-47127000D01*
X184127000Y-47127000D01*
X184127000Y-48492250D01*
X184285750Y-48651000D01*
X184989910Y-48651000D01*
X185223299Y-48554327D01*
X185401927Y-48375698D01*
X185465500Y-48222220D01*
X185480330Y-48244415D01*
X185655000Y-48361126D01*
X185655000Y-52093421D01*
X179553420Y-58195000D01*
X169361126Y-58195000D01*
X169244415Y-58020330D01*
X168934931Y-57813539D01*
X169350732Y-57442036D01*
X169604709Y-56914791D01*
X169607358Y-56899026D01*
X169486217Y-56667000D01*
X168127000Y-56667000D01*
X168127000Y-56687000D01*
X167873000Y-56687000D01*
X167873000Y-56667000D01*
X166513783Y-56667000D01*
X166392642Y-56899026D01*
X166395291Y-56914791D01*
X166649268Y-57442036D01*
X167065069Y-57813539D01*
X166755585Y-58020330D01*
X166430729Y-58506511D01*
X166316655Y-59080000D01*
X166430729Y-59653489D01*
X166755585Y-60139670D01*
X167065069Y-60346461D01*
X166649268Y-60717964D01*
X166395291Y-61245209D01*
X166392642Y-61260974D01*
X166513783Y-61493000D01*
X167873000Y-61493000D01*
X167873000Y-61473000D01*
X168127000Y-61473000D01*
X168127000Y-61493000D01*
X169486217Y-61493000D01*
X169607358Y-61260974D01*
X169604709Y-61245209D01*
X169350732Y-60717964D01*
X168934931Y-60346461D01*
X169244415Y-60139670D01*
X169361126Y-59965000D01*
X177283262Y-59965000D01*
X177250171Y-59998033D01*
X177115154Y-60323190D01*
X177114847Y-60675265D01*
X177249296Y-61000657D01*
X177374209Y-61125788D01*
X177374210Y-61125790D01*
X177374212Y-61125791D01*
X177498033Y-61249829D01*
X177823190Y-61384846D01*
X178175265Y-61385153D01*
X178175635Y-61385000D01*
X228133420Y-61385000D01*
X229615000Y-62866579D01*
X229615000Y-64999801D01*
X229614847Y-65175265D01*
X229749296Y-65500657D01*
X229874209Y-65625788D01*
X229874210Y-65625790D01*
X229874212Y-65625791D01*
X229998033Y-65749829D01*
X230323190Y-65884846D01*
X230675265Y-65885153D01*
X231000657Y-65750704D01*
X231125788Y-65625791D01*
X231125790Y-65625790D01*
X231125791Y-65625788D01*
X231249829Y-65501967D01*
X231384846Y-65176810D01*
X231385153Y-64824735D01*
X231385000Y-64824365D01*
X231385000Y-62500005D01*
X231385001Y-62500000D01*
X231317633Y-62161325D01*
X231125790Y-61874210D01*
X231125787Y-61874208D01*
X230636579Y-61385000D01*
X237499995Y-61385000D01*
X237500000Y-61385001D01*
X237782484Y-61328810D01*
X237838675Y-61317633D01*
X238125790Y-61125790D01*
X239125787Y-60125792D01*
X239125790Y-60125790D01*
X239293889Y-59874211D01*
X239317634Y-59838674D01*
X239385001Y-59500000D01*
X239385000Y-59499995D01*
X239385000Y-52866580D01*
X240366579Y-51885000D01*
X250633420Y-51885000D01*
X251615000Y-52866579D01*
X251615000Y-57499995D01*
X251614999Y-57500000D01*
X251651275Y-57682367D01*
X251682367Y-57838675D01*
X251815573Y-58038033D01*
X251874210Y-58125790D01*
X252363420Y-58615000D01*
X250500199Y-58615000D01*
X250324735Y-58614847D01*
X250319529Y-58616998D01*
X250212389Y-58357699D01*
X249893281Y-58038033D01*
X249476132Y-57864818D01*
X249024450Y-57864424D01*
X248606999Y-58036911D01*
X248500094Y-58143630D01*
X248394681Y-58038033D01*
X247977532Y-57864818D01*
X247525850Y-57864424D01*
X247108399Y-58036911D01*
X246788733Y-58356019D01*
X246615518Y-58773168D01*
X246615124Y-59224850D01*
X246776330Y-59615000D01*
X246500199Y-59615000D01*
X246324735Y-59614847D01*
X245999343Y-59749296D01*
X245874212Y-59874209D01*
X245874210Y-59874210D01*
X245874209Y-59874212D01*
X245750171Y-59998033D01*
X245615154Y-60323190D01*
X245614847Y-60675265D01*
X245749296Y-61000657D01*
X245874209Y-61125788D01*
X245874210Y-61125790D01*
X245874212Y-61125791D01*
X245998033Y-61249829D01*
X246323190Y-61384846D01*
X246675265Y-61385153D01*
X246675635Y-61385000D01*
X250363421Y-61385000D01*
X248133420Y-63615000D01*
X239000005Y-63615000D01*
X239000000Y-63614999D01*
X238717516Y-63671190D01*
X238661325Y-63682367D01*
X238374210Y-63874210D01*
X238374208Y-63874213D01*
X235374210Y-66874210D01*
X235182367Y-67161325D01*
X235182367Y-67161326D01*
X235114999Y-67500000D01*
X235115000Y-67500005D01*
X235115000Y-71499801D01*
X235114900Y-71615000D01*
X226000199Y-71615000D01*
X225824735Y-71614847D01*
X225499343Y-71749296D01*
X225374212Y-71874209D01*
X225374210Y-71874210D01*
X225374209Y-71874212D01*
X225250171Y-71998033D01*
X225250007Y-71998428D01*
X223125790Y-69874210D01*
X222838675Y-69682367D01*
X222782484Y-69671190D01*
X222500000Y-69614999D01*
X222499995Y-69615000D01*
X221884900Y-69615000D01*
X221885153Y-69324735D01*
X221750704Y-68999343D01*
X221625791Y-68874212D01*
X221625790Y-68874210D01*
X221625788Y-68874209D01*
X221501967Y-68750171D01*
X221176810Y-68615154D01*
X220824735Y-68614847D01*
X220824365Y-68615000D01*
X206500199Y-68615000D01*
X206324735Y-68614847D01*
X205999343Y-68749296D01*
X205874212Y-68874209D01*
X205874210Y-68874210D01*
X205874209Y-68874212D01*
X205750171Y-68998033D01*
X205615154Y-69323190D01*
X205614900Y-69615000D01*
X169626579Y-69615000D01*
X169611710Y-69600131D01*
X169683345Y-69240000D01*
X169569271Y-68666511D01*
X169244415Y-68180330D01*
X168934931Y-67973539D01*
X169350732Y-67602036D01*
X169604709Y-67074791D01*
X169607358Y-67059026D01*
X169486217Y-66827000D01*
X168127000Y-66827000D01*
X168127000Y-66847000D01*
X167873000Y-66847000D01*
X167873000Y-66827000D01*
X166513783Y-66827000D01*
X166392642Y-67059026D01*
X166395291Y-67074791D01*
X166649268Y-67602036D01*
X167065069Y-67973539D01*
X166755585Y-68180330D01*
X166430729Y-68666511D01*
X166316655Y-69240000D01*
X166430729Y-69813489D01*
X166755585Y-70299670D01*
X167070366Y-70510000D01*
X166755585Y-70720330D01*
X166430729Y-71206511D01*
X166316655Y-71780000D01*
X166430729Y-72353489D01*
X166755585Y-72839670D01*
X167241766Y-73164526D01*
X167815255Y-73278600D01*
X168184745Y-73278600D01*
X168758234Y-73164526D01*
X169244415Y-72839670D01*
X169548216Y-72385000D01*
X193115100Y-72385000D01*
X193114847Y-72675265D01*
X193249296Y-73000657D01*
X193374209Y-73125788D01*
X193374210Y-73125790D01*
X193374212Y-73125791D01*
X193498033Y-73249829D01*
X193823190Y-73384846D01*
X194175265Y-73385153D01*
X194175635Y-73385000D01*
X214615100Y-73385000D01*
X214614847Y-73675265D01*
X214749296Y-74000657D01*
X214874209Y-74125788D01*
X214874210Y-74125790D01*
X214874212Y-74125791D01*
X214998033Y-74249829D01*
X215323190Y-74384846D01*
X215675265Y-74385153D01*
X215675635Y-74385000D01*
X220633420Y-74385000D01*
X223374208Y-77125787D01*
X223374210Y-77125790D01*
X223661325Y-77317633D01*
X223717516Y-77328810D01*
X224000000Y-77385001D01*
X224000005Y-77385000D01*
X238633420Y-77385000D01*
X241075357Y-79826937D01*
X240575345Y-80033538D01*
X240115154Y-80492927D01*
X239865794Y-81093453D01*
X239865226Y-81743694D01*
X240113538Y-82344655D01*
X240572927Y-82804846D01*
X241173453Y-83054206D01*
X241823694Y-83054774D01*
X242424655Y-82806462D01*
X242884846Y-82347073D01*
X243093353Y-81844932D01*
X253863421Y-92615000D01*
X242776731Y-92615000D01*
X242884846Y-92507073D01*
X243134206Y-91906547D01*
X243134774Y-91256306D01*
X242886462Y-90655345D01*
X242427073Y-90195154D01*
X241826547Y-89945794D01*
X241176306Y-89945226D01*
X240575345Y-90193538D01*
X240115154Y-90652927D01*
X239865794Y-91253453D01*
X239865226Y-91903694D01*
X240113538Y-92504655D01*
X240223691Y-92615000D01*
X232776731Y-92615000D01*
X232884846Y-92507073D01*
X233134206Y-91906547D01*
X233134774Y-91256306D01*
X232886462Y-90655345D01*
X232427073Y-90195154D01*
X231826547Y-89945794D01*
X231176306Y-89945226D01*
X230575345Y-90193538D01*
X230115154Y-90652927D01*
X229865794Y-91253453D01*
X229865226Y-91903694D01*
X230113538Y-92504655D01*
X230223691Y-92615000D01*
X194620005Y-92615000D01*
X194620000Y-92614999D01*
X194337516Y-92671190D01*
X194281325Y-92682367D01*
X193994210Y-92874210D01*
X193994208Y-92874213D01*
X190994210Y-95874210D01*
X190802367Y-96161325D01*
X190802367Y-96161326D01*
X190734999Y-96500000D01*
X190735000Y-96500005D01*
X190735000Y-96638874D01*
X190560330Y-96755585D01*
X190350000Y-97070366D01*
X190139670Y-96755585D01*
X189653489Y-96430729D01*
X189080000Y-96316655D01*
X188506511Y-96430729D01*
X188020330Y-96755585D01*
X187813539Y-97065069D01*
X187442036Y-96649268D01*
X186914791Y-96395291D01*
X186899026Y-96392642D01*
X186667000Y-96513783D01*
X186667000Y-97873000D01*
X186687000Y-97873000D01*
X186687000Y-98127000D01*
X186667000Y-98127000D01*
X186667000Y-98147000D01*
X186413000Y-98147000D01*
X186413000Y-98127000D01*
X186393000Y-98127000D01*
X186393000Y-97873000D01*
X186413000Y-97873000D01*
X186413000Y-96513783D01*
X186180974Y-96392642D01*
X186165209Y-96395291D01*
X185637964Y-96649268D01*
X185481093Y-96824845D01*
X185466762Y-96748683D01*
X185327690Y-96532559D01*
X185115490Y-96387569D01*
X184863600Y-96336560D01*
X183136400Y-96336560D01*
X182901083Y-96380838D01*
X182737610Y-96486030D01*
X181385000Y-95133420D01*
X181385000Y-89424152D01*
X181500000Y-89447440D01*
X183500000Y-89447440D01*
X183735317Y-89403162D01*
X183951441Y-89264090D01*
X184096431Y-89051890D01*
X184147440Y-88800000D01*
X184147440Y-86900000D01*
X222032560Y-86900000D01*
X222032560Y-88800000D01*
X222076838Y-89035317D01*
X222215910Y-89251441D01*
X222428110Y-89396431D01*
X222680000Y-89447440D01*
X224680000Y-89447440D01*
X224915317Y-89403162D01*
X225131441Y-89264090D01*
X225276431Y-89051890D01*
X225327440Y-88800000D01*
X225327440Y-86900000D01*
X225283162Y-86664683D01*
X225144090Y-86448559D01*
X224931890Y-86303569D01*
X224928808Y-86302945D01*
X225022914Y-86209003D01*
X225264724Y-85626659D01*
X225265275Y-84996107D01*
X225024481Y-84413343D01*
X224579003Y-83967086D01*
X223996659Y-83725276D01*
X223366107Y-83724725D01*
X222783343Y-83965519D01*
X222337086Y-84410997D01*
X222095276Y-84993341D01*
X222094725Y-85623893D01*
X222335519Y-86206657D01*
X222433029Y-86304337D01*
X222228559Y-86435910D01*
X222083569Y-86648110D01*
X222032560Y-86900000D01*
X184147440Y-86900000D01*
X184103162Y-86664683D01*
X183964090Y-86448559D01*
X183751890Y-86303569D01*
X183748808Y-86302945D01*
X183842914Y-86209003D01*
X184084724Y-85626659D01*
X184085275Y-84996107D01*
X183844481Y-84413343D01*
X183399003Y-83967086D01*
X182816659Y-83725276D01*
X182186107Y-83724725D01*
X181603343Y-83965519D01*
X181157086Y-84410997D01*
X181029030Y-84719391D01*
X179874210Y-85874210D01*
X179682367Y-86161325D01*
X179682367Y-86161326D01*
X179614999Y-86500000D01*
X179615000Y-86500005D01*
X179615000Y-95499995D01*
X179614999Y-95500000D01*
X179646021Y-95655954D01*
X179682367Y-95838675D01*
X179706111Y-95874210D01*
X179874210Y-96125790D01*
X182374208Y-98625787D01*
X182374210Y-98625790D01*
X182488960Y-98702463D01*
X182488960Y-99016000D01*
X182533238Y-99251317D01*
X182558130Y-99290000D01*
X170069931Y-99290000D01*
X168363610Y-98950592D01*
X166976349Y-98023654D01*
X166049408Y-96636390D01*
X165710000Y-94930069D01*
X165710000Y-91903694D01*
X166365226Y-91903694D01*
X166613538Y-92504655D01*
X167072927Y-92964846D01*
X167673453Y-93214206D01*
X168323694Y-93214774D01*
X168924655Y-92966462D01*
X169384846Y-92507073D01*
X169614279Y-91954536D01*
X174017652Y-91954536D01*
X174243198Y-92500397D01*
X174660466Y-92918394D01*
X175205933Y-93144892D01*
X175796556Y-93145408D01*
X176342417Y-92919862D01*
X176760414Y-92502594D01*
X176986912Y-91957127D01*
X176987428Y-91366504D01*
X176761882Y-90820643D01*
X176344614Y-90402646D01*
X175799147Y-90176148D01*
X175208524Y-90175632D01*
X174662663Y-90401178D01*
X174244666Y-90818446D01*
X174018168Y-91363913D01*
X174017652Y-91954536D01*
X169614279Y-91954536D01*
X169634206Y-91906547D01*
X169634774Y-91256306D01*
X169386462Y-90655345D01*
X168927073Y-90195154D01*
X168326547Y-89945794D01*
X167676306Y-89945226D01*
X167075345Y-90193538D01*
X166615154Y-90652927D01*
X166365794Y-91253453D01*
X166365226Y-91903694D01*
X165710000Y-91903694D01*
X165710000Y-82572163D01*
X167027443Y-82572163D01*
X167126042Y-82838965D01*
X167735582Y-83065401D01*
X168385377Y-83041341D01*
X168873958Y-82838965D01*
X168972557Y-82572163D01*
X168000000Y-81599605D01*
X167027443Y-82572163D01*
X165710000Y-82572163D01*
X165710000Y-81155582D01*
X166354599Y-81155582D01*
X166378659Y-81805377D01*
X166581035Y-82293958D01*
X166847837Y-82392557D01*
X167820395Y-81420000D01*
X168179605Y-81420000D01*
X169152163Y-82392557D01*
X169418965Y-82293958D01*
X169645401Y-81684418D01*
X169621341Y-81034623D01*
X169462395Y-80650890D01*
X174005470Y-80650890D01*
X174005470Y-82350150D01*
X174049748Y-82585467D01*
X174188820Y-82801591D01*
X174401020Y-82946581D01*
X174652910Y-82997590D01*
X176352170Y-82997590D01*
X176587487Y-82953312D01*
X176803611Y-82814240D01*
X176948601Y-82602040D01*
X176999610Y-82350150D01*
X176999610Y-81743694D01*
X229865226Y-81743694D01*
X230113538Y-82344655D01*
X230572927Y-82804846D01*
X231173453Y-83054206D01*
X231823694Y-83054774D01*
X232424655Y-82806462D01*
X232884846Y-82347073D01*
X233134206Y-81746547D01*
X233134774Y-81096306D01*
X232886462Y-80495345D01*
X232427073Y-80035154D01*
X231826547Y-79785794D01*
X231176306Y-79785226D01*
X230575345Y-80033538D01*
X230115154Y-80492927D01*
X229865794Y-81093453D01*
X229865226Y-81743694D01*
X176999610Y-81743694D01*
X176999610Y-80650890D01*
X176955332Y-80415573D01*
X176816260Y-80199449D01*
X176604060Y-80054459D01*
X176352170Y-80003450D01*
X174652910Y-80003450D01*
X174417593Y-80047728D01*
X174201469Y-80186800D01*
X174056479Y-80399000D01*
X174005470Y-80650890D01*
X169462395Y-80650890D01*
X169418965Y-80546042D01*
X169152163Y-80447443D01*
X168179605Y-81420000D01*
X167820395Y-81420000D01*
X166847837Y-80447443D01*
X166581035Y-80546042D01*
X166354599Y-81155582D01*
X165710000Y-81155582D01*
X165710000Y-80267837D01*
X167027443Y-80267837D01*
X168000000Y-81240395D01*
X168972557Y-80267837D01*
X168873958Y-80001035D01*
X168264418Y-79774599D01*
X167614623Y-79798659D01*
X167126042Y-80001035D01*
X167027443Y-80267837D01*
X165710000Y-80267837D01*
X165710000Y-64160000D01*
X166316655Y-64160000D01*
X166430729Y-64733489D01*
X166755585Y-65219670D01*
X167065069Y-65426461D01*
X166649268Y-65797964D01*
X166395291Y-66325209D01*
X166392642Y-66340974D01*
X166513783Y-66573000D01*
X167873000Y-66573000D01*
X167873000Y-66553000D01*
X168127000Y-66553000D01*
X168127000Y-66573000D01*
X169486217Y-66573000D01*
X169607358Y-66340974D01*
X169604709Y-66325209D01*
X169350732Y-65797964D01*
X168934931Y-65426461D01*
X169244415Y-65219670D01*
X169569271Y-64733489D01*
X169683345Y-64160000D01*
X169569271Y-63586511D01*
X169244415Y-63100330D01*
X168934931Y-62893539D01*
X169350732Y-62522036D01*
X169604709Y-61994791D01*
X169607358Y-61979026D01*
X169486217Y-61747000D01*
X168127000Y-61747000D01*
X168127000Y-61767000D01*
X167873000Y-61767000D01*
X167873000Y-61747000D01*
X166513783Y-61747000D01*
X166392642Y-61979026D01*
X166395291Y-61994791D01*
X166649268Y-62522036D01*
X167065069Y-62893539D01*
X166755585Y-63100330D01*
X166430729Y-63586511D01*
X166316655Y-64160000D01*
X165710000Y-64160000D01*
X165710000Y-53136400D01*
X166336560Y-53136400D01*
X166336560Y-54863600D01*
X166380838Y-55098917D01*
X166519910Y-55315041D01*
X166732110Y-55460031D01*
X166826927Y-55479232D01*
X166649268Y-55637964D01*
X166395291Y-56165209D01*
X166392642Y-56180974D01*
X166513783Y-56413000D01*
X167873000Y-56413000D01*
X167873000Y-56393000D01*
X168127000Y-56393000D01*
X168127000Y-56413000D01*
X169486217Y-56413000D01*
X169607358Y-56180974D01*
X169604709Y-56165209D01*
X169350732Y-55637964D01*
X169175155Y-55481093D01*
X169251317Y-55466762D01*
X169467441Y-55327690D01*
X169612431Y-55115490D01*
X169663440Y-54863600D01*
X169663440Y-53136400D01*
X169619162Y-52901083D01*
X169480090Y-52684959D01*
X169267890Y-52539969D01*
X169016000Y-52488960D01*
X166984000Y-52488960D01*
X166748683Y-52533238D01*
X166532559Y-52672310D01*
X166387569Y-52884510D01*
X166336560Y-53136400D01*
X165710000Y-53136400D01*
X165710000Y-50069931D01*
X166049408Y-48363610D01*
X166769611Y-47285750D01*
X182501400Y-47285750D01*
X182501400Y-48142309D01*
X182598073Y-48375698D01*
X182776701Y-48554327D01*
X183010090Y-48651000D01*
X183714250Y-48651000D01*
X183873000Y-48492250D01*
X183873000Y-47127000D01*
X182660150Y-47127000D01*
X182501400Y-47285750D01*
X166769611Y-47285750D01*
X166976349Y-46976346D01*
X168363610Y-46049408D01*
X170069931Y-45710000D01*
X182562576Y-45710000D01*
X182501400Y-45857691D01*
X182501400Y-45857691D01*
G37*
X182501400Y-45857691D02*
X182501400Y-46714250D01*
X182660150Y-46873000D01*
X183873000Y-46873000D01*
X183873000Y-46853000D01*
X184127000Y-46853000D01*
X184127000Y-46873000D01*
X184147000Y-46873000D01*
X184147000Y-47127000D01*
X184127000Y-47127000D01*
X184127000Y-48492250D01*
X184285750Y-48651000D01*
X184989910Y-48651000D01*
X185223299Y-48554327D01*
X185401927Y-48375698D01*
X185465500Y-48222220D01*
X185480330Y-48244415D01*
X185655000Y-48361126D01*
X185655000Y-52093421D01*
X179553420Y-58195000D01*
X169361126Y-58195000D01*
X169244415Y-58020330D01*
X168934931Y-57813539D01*
X169350732Y-57442036D01*
X169604709Y-56914791D01*
X169607358Y-56899026D01*
X169486217Y-56667000D01*
X168127000Y-56667000D01*
X168127000Y-56687000D01*
X167873000Y-56687000D01*
X167873000Y-56667000D01*
X166513783Y-56667000D01*
X166392642Y-56899026D01*
X166395291Y-56914791D01*
X166649268Y-57442036D01*
X167065069Y-57813539D01*
X166755585Y-58020330D01*
X166430729Y-58506511D01*
X166316655Y-59080000D01*
X166430729Y-59653489D01*
X166755585Y-60139670D01*
X167065069Y-60346461D01*
X166649268Y-60717964D01*
X166395291Y-61245209D01*
X166392642Y-61260974D01*
X166513783Y-61493000D01*
X167873000Y-61493000D01*
X167873000Y-61473000D01*
X168127000Y-61473000D01*
X168127000Y-61493000D01*
X169486217Y-61493000D01*
X169607358Y-61260974D01*
X169604709Y-61245209D01*
X169350732Y-60717964D01*
X168934931Y-60346461D01*
X169244415Y-60139670D01*
X169361126Y-59965000D01*
X177283262Y-59965000D01*
X177250171Y-59998033D01*
X177115154Y-60323190D01*
X177114847Y-60675265D01*
X177249296Y-61000657D01*
X177374209Y-61125788D01*
X177374210Y-61125790D01*
X177374212Y-61125791D01*
X177498033Y-61249829D01*
X177823190Y-61384846D01*
X178175265Y-61385153D01*
X178175635Y-61385000D01*
X228133420Y-61385000D01*
X229615000Y-62866579D01*
X229615000Y-64999801D01*
X229614847Y-65175265D01*
X229749296Y-65500657D01*
X229874209Y-65625788D01*
X229874210Y-65625790D01*
X229874212Y-65625791D01*
X229998033Y-65749829D01*
X230323190Y-65884846D01*
X230675265Y-65885153D01*
X231000657Y-65750704D01*
X231125788Y-65625791D01*
X231125790Y-65625790D01*
X231125791Y-65625788D01*
X231249829Y-65501967D01*
X231384846Y-65176810D01*
X231385153Y-64824735D01*
X231385000Y-64824365D01*
X231385000Y-62500005D01*
X231385001Y-62500000D01*
X231317633Y-62161325D01*
X231125790Y-61874210D01*
X231125787Y-61874208D01*
X230636579Y-61385000D01*
X237499995Y-61385000D01*
X237500000Y-61385001D01*
X237782484Y-61328810D01*
X237838675Y-61317633D01*
X238125790Y-61125790D01*
X239125787Y-60125792D01*
X239125790Y-60125790D01*
X239293889Y-59874211D01*
X239317634Y-59838674D01*
X239385001Y-59500000D01*
X239385000Y-59499995D01*
X239385000Y-52866580D01*
X240366579Y-51885000D01*
X250633420Y-51885000D01*
X251615000Y-52866579D01*
X251615000Y-57499995D01*
X251614999Y-57500000D01*
X251651275Y-57682367D01*
X251682367Y-57838675D01*
X251815573Y-58038033D01*
X251874210Y-58125790D01*
X252363420Y-58615000D01*
X250500199Y-58615000D01*
X250324735Y-58614847D01*
X250319529Y-58616998D01*
X250212389Y-58357699D01*
X249893281Y-58038033D01*
X249476132Y-57864818D01*
X249024450Y-57864424D01*
X248606999Y-58036911D01*
X248500094Y-58143630D01*
X248394681Y-58038033D01*
X247977532Y-57864818D01*
X247525850Y-57864424D01*
X247108399Y-58036911D01*
X246788733Y-58356019D01*
X246615518Y-58773168D01*
X246615124Y-59224850D01*
X246776330Y-59615000D01*
X246500199Y-59615000D01*
X246324735Y-59614847D01*
X245999343Y-59749296D01*
X245874212Y-59874209D01*
X245874210Y-59874210D01*
X245874209Y-59874212D01*
X245750171Y-59998033D01*
X245615154Y-60323190D01*
X245614847Y-60675265D01*
X245749296Y-61000657D01*
X245874209Y-61125788D01*
X245874210Y-61125790D01*
X245874212Y-61125791D01*
X245998033Y-61249829D01*
X246323190Y-61384846D01*
X246675265Y-61385153D01*
X246675635Y-61385000D01*
X250363421Y-61385000D01*
X248133420Y-63615000D01*
X239000005Y-63615000D01*
X239000000Y-63614999D01*
X238717516Y-63671190D01*
X238661325Y-63682367D01*
X238374210Y-63874210D01*
X238374208Y-63874213D01*
X235374210Y-66874210D01*
X235182367Y-67161325D01*
X235182367Y-67161326D01*
X235114999Y-67500000D01*
X235115000Y-67500005D01*
X235115000Y-71499801D01*
X235114900Y-71615000D01*
X226000199Y-71615000D01*
X225824735Y-71614847D01*
X225499343Y-71749296D01*
X225374212Y-71874209D01*
X225374210Y-71874210D01*
X225374209Y-71874212D01*
X225250171Y-71998033D01*
X225250007Y-71998428D01*
X223125790Y-69874210D01*
X222838675Y-69682367D01*
X222782484Y-69671190D01*
X222500000Y-69614999D01*
X222499995Y-69615000D01*
X221884900Y-69615000D01*
X221885153Y-69324735D01*
X221750704Y-68999343D01*
X221625791Y-68874212D01*
X221625790Y-68874210D01*
X221625788Y-68874209D01*
X221501967Y-68750171D01*
X221176810Y-68615154D01*
X220824735Y-68614847D01*
X220824365Y-68615000D01*
X206500199Y-68615000D01*
X206324735Y-68614847D01*
X205999343Y-68749296D01*
X205874212Y-68874209D01*
X205874210Y-68874210D01*
X205874209Y-68874212D01*
X205750171Y-68998033D01*
X205615154Y-69323190D01*
X205614900Y-69615000D01*
X169626579Y-69615000D01*
X169611710Y-69600131D01*
X169683345Y-69240000D01*
X169569271Y-68666511D01*
X169244415Y-68180330D01*
X168934931Y-67973539D01*
X169350732Y-67602036D01*
X169604709Y-67074791D01*
X169607358Y-67059026D01*
X169486217Y-66827000D01*
X168127000Y-66827000D01*
X168127000Y-66847000D01*
X167873000Y-66847000D01*
X167873000Y-66827000D01*
X166513783Y-66827000D01*
X166392642Y-67059026D01*
X166395291Y-67074791D01*
X166649268Y-67602036D01*
X167065069Y-67973539D01*
X166755585Y-68180330D01*
X166430729Y-68666511D01*
X166316655Y-69240000D01*
X166430729Y-69813489D01*
X166755585Y-70299670D01*
X167070366Y-70510000D01*
X166755585Y-70720330D01*
X166430729Y-71206511D01*
X166316655Y-71780000D01*
X166430729Y-72353489D01*
X166755585Y-72839670D01*
X167241766Y-73164526D01*
X167815255Y-73278600D01*
X168184745Y-73278600D01*
X168758234Y-73164526D01*
X169244415Y-72839670D01*
X169548216Y-72385000D01*
X193115100Y-72385000D01*
X193114847Y-72675265D01*
X193249296Y-73000657D01*
X193374209Y-73125788D01*
X193374210Y-73125790D01*
X193374212Y-73125791D01*
X193498033Y-73249829D01*
X193823190Y-73384846D01*
X194175265Y-73385153D01*
X194175635Y-73385000D01*
X214615100Y-73385000D01*
X214614847Y-73675265D01*
X214749296Y-74000657D01*
X214874209Y-74125788D01*
X214874210Y-74125790D01*
X214874212Y-74125791D01*
X214998033Y-74249829D01*
X215323190Y-74384846D01*
X215675265Y-74385153D01*
X215675635Y-74385000D01*
X220633420Y-74385000D01*
X223374208Y-77125787D01*
X223374210Y-77125790D01*
X223661325Y-77317633D01*
X223717516Y-77328810D01*
X224000000Y-77385001D01*
X224000005Y-77385000D01*
X238633420Y-77385000D01*
X241075357Y-79826937D01*
X240575345Y-80033538D01*
X240115154Y-80492927D01*
X239865794Y-81093453D01*
X239865226Y-81743694D01*
X240113538Y-82344655D01*
X240572927Y-82804846D01*
X241173453Y-83054206D01*
X241823694Y-83054774D01*
X242424655Y-82806462D01*
X242884846Y-82347073D01*
X243093353Y-81844932D01*
X253863421Y-92615000D01*
X242776731Y-92615000D01*
X242884846Y-92507073D01*
X243134206Y-91906547D01*
X243134774Y-91256306D01*
X242886462Y-90655345D01*
X242427073Y-90195154D01*
X241826547Y-89945794D01*
X241176306Y-89945226D01*
X240575345Y-90193538D01*
X240115154Y-90652927D01*
X239865794Y-91253453D01*
X239865226Y-91903694D01*
X240113538Y-92504655D01*
X240223691Y-92615000D01*
X232776731Y-92615000D01*
X232884846Y-92507073D01*
X233134206Y-91906547D01*
X233134774Y-91256306D01*
X232886462Y-90655345D01*
X232427073Y-90195154D01*
X231826547Y-89945794D01*
X231176306Y-89945226D01*
X230575345Y-90193538D01*
X230115154Y-90652927D01*
X229865794Y-91253453D01*
X229865226Y-91903694D01*
X230113538Y-92504655D01*
X230223691Y-92615000D01*
X194620005Y-92615000D01*
X194620000Y-92614999D01*
X194337516Y-92671190D01*
X194281325Y-92682367D01*
X193994210Y-92874210D01*
X193994208Y-92874213D01*
X190994210Y-95874210D01*
X190802367Y-96161325D01*
X190802367Y-96161326D01*
X190734999Y-96500000D01*
X190735000Y-96500005D01*
X190735000Y-96638874D01*
X190560330Y-96755585D01*
X190350000Y-97070366D01*
X190139670Y-96755585D01*
X189653489Y-96430729D01*
X189080000Y-96316655D01*
X188506511Y-96430729D01*
X188020330Y-96755585D01*
X187813539Y-97065069D01*
X187442036Y-96649268D01*
X186914791Y-96395291D01*
X186899026Y-96392642D01*
X186667000Y-96513783D01*
X186667000Y-97873000D01*
X186687000Y-97873000D01*
X186687000Y-98127000D01*
X186667000Y-98127000D01*
X186667000Y-98147000D01*
X186413000Y-98147000D01*
X186413000Y-98127000D01*
X186393000Y-98127000D01*
X186393000Y-97873000D01*
X186413000Y-97873000D01*
X186413000Y-96513783D01*
X186180974Y-96392642D01*
X186165209Y-96395291D01*
X185637964Y-96649268D01*
X185481093Y-96824845D01*
X185466762Y-96748683D01*
X185327690Y-96532559D01*
X185115490Y-96387569D01*
X184863600Y-96336560D01*
X183136400Y-96336560D01*
X182901083Y-96380838D01*
X182737610Y-96486030D01*
X181385000Y-95133420D01*
X181385000Y-89424152D01*
X181500000Y-89447440D01*
X183500000Y-89447440D01*
X183735317Y-89403162D01*
X183951441Y-89264090D01*
X184096431Y-89051890D01*
X184147440Y-88800000D01*
X184147440Y-86900000D01*
X222032560Y-86900000D01*
X222032560Y-88800000D01*
X222076838Y-89035317D01*
X222215910Y-89251441D01*
X222428110Y-89396431D01*
X222680000Y-89447440D01*
X224680000Y-89447440D01*
X224915317Y-89403162D01*
X225131441Y-89264090D01*
X225276431Y-89051890D01*
X225327440Y-88800000D01*
X225327440Y-86900000D01*
X225283162Y-86664683D01*
X225144090Y-86448559D01*
X224931890Y-86303569D01*
X224928808Y-86302945D01*
X225022914Y-86209003D01*
X225264724Y-85626659D01*
X225265275Y-84996107D01*
X225024481Y-84413343D01*
X224579003Y-83967086D01*
X223996659Y-83725276D01*
X223366107Y-83724725D01*
X222783343Y-83965519D01*
X222337086Y-84410997D01*
X222095276Y-84993341D01*
X222094725Y-85623893D01*
X222335519Y-86206657D01*
X222433029Y-86304337D01*
X222228559Y-86435910D01*
X222083569Y-86648110D01*
X222032560Y-86900000D01*
X184147440Y-86900000D01*
X184103162Y-86664683D01*
X183964090Y-86448559D01*
X183751890Y-86303569D01*
X183748808Y-86302945D01*
X183842914Y-86209003D01*
X184084724Y-85626659D01*
X184085275Y-84996107D01*
X183844481Y-84413343D01*
X183399003Y-83967086D01*
X182816659Y-83725276D01*
X182186107Y-83724725D01*
X181603343Y-83965519D01*
X181157086Y-84410997D01*
X181029030Y-84719391D01*
X179874210Y-85874210D01*
X179682367Y-86161325D01*
X179682367Y-86161326D01*
X179614999Y-86500000D01*
X179615000Y-86500005D01*
X179615000Y-95499995D01*
X179614999Y-95500000D01*
X179646021Y-95655954D01*
X179682367Y-95838675D01*
X179706111Y-95874210D01*
X179874210Y-96125790D01*
X182374208Y-98625787D01*
X182374210Y-98625790D01*
X182488960Y-98702463D01*
X182488960Y-99016000D01*
X182533238Y-99251317D01*
X182558130Y-99290000D01*
X170069931Y-99290000D01*
X168363610Y-98950592D01*
X166976349Y-98023654D01*
X166049408Y-96636390D01*
X165710000Y-94930069D01*
X165710000Y-91903694D01*
X166365226Y-91903694D01*
X166613538Y-92504655D01*
X167072927Y-92964846D01*
X167673453Y-93214206D01*
X168323694Y-93214774D01*
X168924655Y-92966462D01*
X169384846Y-92507073D01*
X169614279Y-91954536D01*
X174017652Y-91954536D01*
X174243198Y-92500397D01*
X174660466Y-92918394D01*
X175205933Y-93144892D01*
X175796556Y-93145408D01*
X176342417Y-92919862D01*
X176760414Y-92502594D01*
X176986912Y-91957127D01*
X176987428Y-91366504D01*
X176761882Y-90820643D01*
X176344614Y-90402646D01*
X175799147Y-90176148D01*
X175208524Y-90175632D01*
X174662663Y-90401178D01*
X174244666Y-90818446D01*
X174018168Y-91363913D01*
X174017652Y-91954536D01*
X169614279Y-91954536D01*
X169634206Y-91906547D01*
X169634774Y-91256306D01*
X169386462Y-90655345D01*
X168927073Y-90195154D01*
X168326547Y-89945794D01*
X167676306Y-89945226D01*
X167075345Y-90193538D01*
X166615154Y-90652927D01*
X166365794Y-91253453D01*
X166365226Y-91903694D01*
X165710000Y-91903694D01*
X165710000Y-82572163D01*
X167027443Y-82572163D01*
X167126042Y-82838965D01*
X167735582Y-83065401D01*
X168385377Y-83041341D01*
X168873958Y-82838965D01*
X168972557Y-82572163D01*
X168000000Y-81599605D01*
X167027443Y-82572163D01*
X165710000Y-82572163D01*
X165710000Y-81155582D01*
X166354599Y-81155582D01*
X166378659Y-81805377D01*
X166581035Y-82293958D01*
X166847837Y-82392557D01*
X167820395Y-81420000D01*
X168179605Y-81420000D01*
X169152163Y-82392557D01*
X169418965Y-82293958D01*
X169645401Y-81684418D01*
X169621341Y-81034623D01*
X169462395Y-80650890D01*
X174005470Y-80650890D01*
X174005470Y-82350150D01*
X174049748Y-82585467D01*
X174188820Y-82801591D01*
X174401020Y-82946581D01*
X174652910Y-82997590D01*
X176352170Y-82997590D01*
X176587487Y-82953312D01*
X176803611Y-82814240D01*
X176948601Y-82602040D01*
X176999610Y-82350150D01*
X176999610Y-81743694D01*
X229865226Y-81743694D01*
X230113538Y-82344655D01*
X230572927Y-82804846D01*
X231173453Y-83054206D01*
X231823694Y-83054774D01*
X232424655Y-82806462D01*
X232884846Y-82347073D01*
X233134206Y-81746547D01*
X233134774Y-81096306D01*
X232886462Y-80495345D01*
X232427073Y-80035154D01*
X231826547Y-79785794D01*
X231176306Y-79785226D01*
X230575345Y-80033538D01*
X230115154Y-80492927D01*
X229865794Y-81093453D01*
X229865226Y-81743694D01*
X176999610Y-81743694D01*
X176999610Y-80650890D01*
X176955332Y-80415573D01*
X176816260Y-80199449D01*
X176604060Y-80054459D01*
X176352170Y-80003450D01*
X174652910Y-80003450D01*
X174417593Y-80047728D01*
X174201469Y-80186800D01*
X174056479Y-80399000D01*
X174005470Y-80650890D01*
X169462395Y-80650890D01*
X169418965Y-80546042D01*
X169152163Y-80447443D01*
X168179605Y-81420000D01*
X167820395Y-81420000D01*
X166847837Y-80447443D01*
X166581035Y-80546042D01*
X166354599Y-81155582D01*
X165710000Y-81155582D01*
X165710000Y-80267837D01*
X167027443Y-80267837D01*
X168000000Y-81240395D01*
X168972557Y-80267837D01*
X168873958Y-80001035D01*
X168264418Y-79774599D01*
X167614623Y-79798659D01*
X167126042Y-80001035D01*
X167027443Y-80267837D01*
X165710000Y-80267837D01*
X165710000Y-64160000D01*
X166316655Y-64160000D01*
X166430729Y-64733489D01*
X166755585Y-65219670D01*
X167065069Y-65426461D01*
X166649268Y-65797964D01*
X166395291Y-66325209D01*
X166392642Y-66340974D01*
X166513783Y-66573000D01*
X167873000Y-66573000D01*
X167873000Y-66553000D01*
X168127000Y-66553000D01*
X168127000Y-66573000D01*
X169486217Y-66573000D01*
X169607358Y-66340974D01*
X169604709Y-66325209D01*
X169350732Y-65797964D01*
X168934931Y-65426461D01*
X169244415Y-65219670D01*
X169569271Y-64733489D01*
X169683345Y-64160000D01*
X169569271Y-63586511D01*
X169244415Y-63100330D01*
X168934931Y-62893539D01*
X169350732Y-62522036D01*
X169604709Y-61994791D01*
X169607358Y-61979026D01*
X169486217Y-61747000D01*
X168127000Y-61747000D01*
X168127000Y-61767000D01*
X167873000Y-61767000D01*
X167873000Y-61747000D01*
X166513783Y-61747000D01*
X166392642Y-61979026D01*
X166395291Y-61994791D01*
X166649268Y-62522036D01*
X167065069Y-62893539D01*
X166755585Y-63100330D01*
X166430729Y-63586511D01*
X166316655Y-64160000D01*
X165710000Y-64160000D01*
X165710000Y-53136400D01*
X166336560Y-53136400D01*
X166336560Y-54863600D01*
X166380838Y-55098917D01*
X166519910Y-55315041D01*
X166732110Y-55460031D01*
X166826927Y-55479232D01*
X166649268Y-55637964D01*
X166395291Y-56165209D01*
X166392642Y-56180974D01*
X166513783Y-56413000D01*
X167873000Y-56413000D01*
X167873000Y-56393000D01*
X168127000Y-56393000D01*
X168127000Y-56413000D01*
X169486217Y-56413000D01*
X169607358Y-56180974D01*
X169604709Y-56165209D01*
X169350732Y-55637964D01*
X169175155Y-55481093D01*
X169251317Y-55466762D01*
X169467441Y-55327690D01*
X169612431Y-55115490D01*
X169663440Y-54863600D01*
X169663440Y-53136400D01*
X169619162Y-52901083D01*
X169480090Y-52684959D01*
X169267890Y-52539969D01*
X169016000Y-52488960D01*
X166984000Y-52488960D01*
X166748683Y-52533238D01*
X166532559Y-52672310D01*
X166387569Y-52884510D01*
X166336560Y-53136400D01*
X165710000Y-53136400D01*
X165710000Y-50069931D01*
X166049408Y-48363610D01*
X166769611Y-47285750D01*
X182501400Y-47285750D01*
X182501400Y-48142309D01*
X182598073Y-48375698D01*
X182776701Y-48554327D01*
X183010090Y-48651000D01*
X183714250Y-48651000D01*
X183873000Y-48492250D01*
X183873000Y-47127000D01*
X182660150Y-47127000D01*
X182501400Y-47285750D01*
X166769611Y-47285750D01*
X166976349Y-46976346D01*
X168363610Y-46049408D01*
X170069931Y-45710000D01*
X182562576Y-45710000D01*
X182501400Y-45857691D01*
M02*
